G04 #@! TF.GenerationSoftware,KiCad,Pcbnew,10.0.5*
G04 #@! TF.CreationDate,2026-09-01T20:20:49+10:00*
G04 #@! TF.ProjectId,pcbfirstdesign,70636266-6972-4737-9464-657369676e2e,rev?*
G04 #@! TF.SameCoordinates,Original*
G04 #@! TF.FileFunction,Copper,L2,Inr*
G04 #@! TF.FilePolarity,Positive*
%FSLAX46Y46*%
G04 Gerber Fmt 4.6, Leading zero omitted, Abs format (unit mm)*
G04 Created by KiCad (PCBNEW 10.0.5) date 2026-09-01 20:20:49*
%MOMM*%
%LPD*%
G01*
G04 APERTURE LIST*
G04 Aperture macros list*
%AMRoundRect*
0 Rectangle with rounded corners*
0 $1 Rounding radius*
0 $2 $3 $4 $5 $6 $7 $8 $9 X,Y pos of 4 corners*
0 Add a 4 corners polygon primitive as box body*
4,1,4,$2,$3,$4,$5,$6,$7,$8,$9,$2,$3,0*
0 Add four circle primitives for the rounded corners*
1,1,$1+$1,$2,$3*
1,1,$1+$1,$4,$5*
1,1,$1+$1,$6,$7*
1,1,$1+$1,$8,$9*
0 Add four rect primitives between the rounded corners*
20,1,$1+$1,$2,$3,$4,$5,0*
20,1,$1+$1,$4,$5,$6,$7,0*
20,1,$1+$1,$6,$7,$8,$9,0*
20,1,$1+$1,$8,$9,$2,$3,0*%
G04 Aperture macros list end*
G04 #@! TA.AperFunction,ComponentPad*
%ADD10C,1.600000*%
G04 #@! TD*
G04 #@! TA.AperFunction,ComponentPad*
%ADD11RoundRect,0.200000X-0.600000X0.600000X-0.600000X-0.600000X0.600000X-0.600000X0.600000X0.600000X0*%
G04 #@! TD*
G04 #@! TA.AperFunction,ComponentPad*
%ADD12O,1.200000X1.900000*%
G04 #@! TD*
G04 #@! TA.AperFunction,ComponentPad*
%ADD13C,1.450000*%
G04 #@! TD*
G04 #@! TA.AperFunction,ComponentPad*
%ADD14R,1.700000X1.700000*%
G04 #@! TD*
G04 #@! TA.AperFunction,ComponentPad*
%ADD15C,1.700000*%
G04 #@! TD*
G04 #@! TA.AperFunction,ComponentPad*
%ADD16C,2.200000*%
G04 #@! TD*
G04 #@! TA.AperFunction,ComponentPad*
%ADD17R,2.000000X2.000000*%
G04 #@! TD*
G04 #@! TA.AperFunction,ComponentPad*
%ADD18C,2.000000*%
G04 #@! TD*
G04 #@! TA.AperFunction,ComponentPad*
%ADD19R,2.000000X3.200000*%
G04 #@! TD*
G04 #@! TA.AperFunction,HeatsinkPad*
%ADD20C,0.500000*%
G04 #@! TD*
G04 #@! TA.AperFunction,ViaPad*
%ADD21C,0.900000*%
G04 #@! TD*
G04 #@! TA.AperFunction,Conductor*
%ADD22C,0.200000*%
G04 #@! TD*
G04 APERTURE END LIST*
D10*
X225900000Y-181014100D03*
D11*
X225900000Y-178474100D03*
D10*
X225900000Y-183554100D03*
D12*
X262500000Y-194500000D03*
D13*
X261500000Y-197200000D03*
X256500000Y-197200000D03*
D12*
X255500000Y-194500000D03*
D14*
X191500000Y-113000000D03*
D15*
X194040000Y-113000000D03*
X196580000Y-113000000D03*
X199120000Y-113000000D03*
X201660000Y-113000000D03*
X204200000Y-113000000D03*
X206740000Y-113000000D03*
X209280000Y-113000000D03*
X211820000Y-113000000D03*
X214360000Y-113000000D03*
X216900000Y-113000000D03*
X219440000Y-113000000D03*
X221980000Y-113000000D03*
X224520000Y-113000000D03*
D16*
X190150000Y-123960000D03*
X196500000Y-121420000D03*
X215783300Y-140710000D03*
X209433300Y-143250000D03*
X215790000Y-121420000D03*
X209440000Y-123960000D03*
X235066700Y-140710000D03*
X228716700Y-143250000D03*
X228730000Y-123960000D03*
X235080000Y-121420000D03*
X254370000Y-121420000D03*
X248020000Y-123960000D03*
X248000000Y-143250000D03*
X254350000Y-140710000D03*
D17*
X273750000Y-119750000D03*
D18*
X268750000Y-119750000D03*
X271250000Y-119750000D03*
D19*
X276850000Y-127250000D03*
X265650000Y-127250000D03*
D18*
X268750000Y-134250000D03*
X273750000Y-134250000D03*
X276250000Y-145500000D03*
D17*
X268650000Y-145500000D03*
D20*
X264825000Y-159955000D03*
X264825000Y-161155000D03*
X264825000Y-162355000D03*
X266225000Y-159955000D03*
X266225000Y-161155000D03*
X266225000Y-162355000D03*
D16*
X190150000Y-143250000D03*
X196500000Y-140710000D03*
D21*
X261536600Y-159919200D03*
X228803400Y-196392900D03*
X253190000Y-185316500D03*
X254250000Y-124500000D03*
X230250000Y-141750000D03*
X252126131Y-131873869D03*
X211596800Y-143250000D03*
X208500000Y-128000000D03*
X197203800Y-129799400D03*
X238250000Y-192855800D03*
X221703700Y-131811600D03*
X240758700Y-165928700D03*
X248091600Y-165893200D03*
X250920800Y-165930800D03*
X209739200Y-165930800D03*
X190796400Y-129024800D03*
X190937100Y-148094800D03*
X213452000Y-129955400D03*
X254385300Y-170038000D03*
X235106300Y-165929000D03*
X216101700Y-150050400D03*
X228136400Y-130143300D03*
X229053600Y-169817600D03*
X231536600Y-166537300D03*
X222618700Y-165435600D03*
X245570000Y-165929300D03*
X268459100Y-166459100D03*
X269631900Y-161790000D03*
X233151500Y-185321500D03*
X217893500Y-185303500D03*
X221958400Y-184359000D03*
X207495700Y-189842000D03*
X215792300Y-189751800D03*
X223973100Y-183525700D03*
X208994400Y-185741600D03*
X220453100Y-185323100D03*
X252396700Y-150044400D03*
X257190000Y-186566500D03*
X267046500Y-158296500D03*
X262561900Y-196163300D03*
X253465600Y-165935600D03*
X232790400Y-148593700D03*
X212550000Y-189839200D03*
X213108300Y-165389900D03*
X249779300Y-166222000D03*
X225248400Y-165946200D03*
X193718000Y-130116300D03*
X210294500Y-129799400D03*
X193351700Y-150045000D03*
X210398300Y-150046800D03*
X229527100Y-129748400D03*
X229289900Y-149108400D03*
X248530600Y-148632300D03*
X248797900Y-129606300D03*
X225250000Y-191197200D03*
X237974100Y-165943100D03*
X191940369Y-143440369D03*
X235250000Y-123250000D03*
D22*
X261536600Y-176969900D02*
X253190000Y-185316500D01*
X261536600Y-159919200D02*
X261536600Y-176969900D01*
X221703700Y-159415200D02*
X221703700Y-131811600D01*
X227185800Y-164897300D02*
X221703700Y-159415200D01*
X227185800Y-181791600D02*
X227185800Y-164897300D01*
X238250000Y-192855800D02*
X227185800Y-181791600D01*
X213090000Y-120310000D02*
X209440000Y-123960000D01*
X213090000Y-112570700D02*
X213090000Y-120310000D01*
X213863400Y-111797300D02*
X213090000Y-112570700D01*
X224946200Y-111797300D02*
X213863400Y-111797300D01*
X226253900Y-113105000D02*
X224946200Y-111797300D01*
X226253900Y-148320900D02*
X226253900Y-113105000D01*
X240758700Y-162825700D02*
X226253900Y-148320900D01*
X240758700Y-165928700D02*
X240758700Y-162825700D01*
X228730000Y-127086100D02*
X228730000Y-123960000D01*
X238771200Y-137127300D02*
X228730000Y-127086100D01*
X238771200Y-153781200D02*
X238771200Y-137127300D01*
X250920800Y-165930800D02*
X238771200Y-153781200D01*
X190937100Y-146019400D02*
X190937100Y-148094800D01*
X188742700Y-143825000D02*
X190937100Y-146019400D01*
X188742700Y-131078500D02*
X188742700Y-143825000D01*
X190796400Y-129024800D02*
X188742700Y-131078500D01*
X254385300Y-153837500D02*
X254385300Y-170038000D01*
X249448700Y-148900900D02*
X254385300Y-153837500D01*
X249448700Y-131959100D02*
X249448700Y-148900900D01*
X248020000Y-130530400D02*
X249448700Y-131959100D01*
X248020000Y-123960000D02*
X248020000Y-130530400D01*
X271250000Y-147762600D02*
X271250000Y-119750000D01*
X258766300Y-160246300D02*
X271250000Y-147762600D01*
X258766300Y-167335900D02*
X258766300Y-160246300D01*
X254851900Y-171250300D02*
X258766300Y-167335900D01*
X230486300Y-171250300D02*
X254851900Y-171250300D01*
X229053600Y-169817600D02*
X230486300Y-171250300D01*
X235802500Y-170803200D02*
X231536600Y-166537300D01*
X254730800Y-170803200D02*
X235802500Y-170803200D01*
X258364600Y-167169400D02*
X254730800Y-170803200D01*
X258364600Y-130135400D02*
X258364600Y-167169400D01*
X268750000Y-119750000D02*
X258364600Y-130135400D01*
X229000100Y-143533400D02*
X228716700Y-143250000D01*
X229000100Y-145866300D02*
X229000100Y-143533400D01*
X245570000Y-162436200D02*
X229000100Y-145866300D01*
X245570000Y-165929300D02*
X245570000Y-162436200D01*
X269631900Y-165286300D02*
X268459100Y-166459100D01*
X269631900Y-161790000D02*
X269631900Y-165286300D01*
X224520000Y-149303200D02*
X224520000Y-113000000D01*
X228053800Y-152837000D02*
X224520000Y-149303200D01*
X228053800Y-180223800D02*
X228053800Y-152837000D01*
X233151500Y-185321500D02*
X228053800Y-180223800D01*
X217893500Y-171238500D02*
X217893500Y-185303500D01*
X209600100Y-162945100D02*
X217893500Y-171238500D01*
X209600100Y-146180300D02*
X209600100Y-162945100D01*
X210846800Y-144933600D02*
X209600100Y-146180300D01*
X210846800Y-132686400D02*
X210846800Y-144933600D01*
X209397300Y-131236900D02*
X210846800Y-132686400D01*
X209397300Y-125899600D02*
X209397300Y-131236900D01*
X208022000Y-124524300D02*
X209397300Y-125899600D01*
X208022000Y-114258000D02*
X208022000Y-124524300D01*
X209280000Y-113000000D02*
X208022000Y-114258000D01*
X221958400Y-172394600D02*
X221958400Y-184359000D01*
X220935800Y-171372000D02*
X221958400Y-172394600D01*
X220935800Y-114044200D02*
X220935800Y-171372000D01*
X221980000Y-113000000D02*
X220935800Y-114044200D01*
X217146800Y-189751800D02*
X215792300Y-189751800D01*
X221206700Y-185691900D02*
X217146800Y-189751800D01*
X221206700Y-172410700D02*
X221206700Y-185691900D01*
X220534100Y-171738100D02*
X221206700Y-172410700D01*
X220534100Y-114094100D02*
X220534100Y-171738100D01*
X219440000Y-113000000D02*
X220534100Y-114094100D01*
X201660000Y-144712300D02*
X201660000Y-113000000D01*
X209198400Y-152250700D02*
X201660000Y-144712300D01*
X209198400Y-163183100D02*
X209198400Y-152250700D01*
X215421500Y-169406200D02*
X209198400Y-163183100D01*
X215421500Y-186570500D02*
X215421500Y-169406200D01*
X215036000Y-186956000D02*
X215421500Y-186570500D01*
X215036000Y-190089500D02*
X215036000Y-186956000D01*
X215476000Y-190529500D02*
X215036000Y-190089500D01*
X216969300Y-190529500D02*
X215476000Y-190529500D01*
X223973100Y-183525700D02*
X216969300Y-190529500D01*
X214285500Y-185741600D02*
X208994400Y-185741600D01*
X214936100Y-185091000D02*
X214285500Y-185741600D01*
X214936100Y-169560400D02*
X214936100Y-185091000D01*
X208796700Y-163421000D02*
X214936100Y-169560400D01*
X208796700Y-153913500D02*
X208796700Y-163421000D01*
X200509800Y-145626600D02*
X208796700Y-153913500D01*
X200509800Y-114389800D02*
X200509800Y-145626600D01*
X199120000Y-113000000D02*
X200509800Y-114389800D01*
X220132400Y-185002400D02*
X220453100Y-185323100D01*
X220132400Y-118772400D02*
X220132400Y-185002400D01*
X214360000Y-113000000D02*
X220132400Y-118772400D01*
X267046500Y-176710000D02*
X257190000Y-186566500D01*
X267046500Y-158296500D02*
X267046500Y-176710000D01*
X262480800Y-196163300D02*
X262561900Y-196163300D01*
X257190000Y-190872500D02*
X262480800Y-196163300D01*
X257190000Y-186566500D02*
X257190000Y-190872500D01*
X239185800Y-125525800D02*
X235080000Y-121420000D01*
X239185800Y-151655800D02*
X239185800Y-125525800D01*
X253465600Y-165935600D02*
X239185800Y-151655800D01*
X266225000Y-162355000D02*
X266225000Y-161155000D01*
X266225000Y-159955000D02*
X266225000Y-161155000D01*
X264825000Y-162355000D02*
X264825000Y-161155000D01*
X264825000Y-161155000D02*
X264825000Y-159955000D01*
X256500000Y-196751700D02*
X256500000Y-197200000D01*
X255500000Y-195751700D02*
X256500000Y-196751700D01*
X255500000Y-194500000D02*
X255500000Y-195751700D01*
X248797900Y-126267000D02*
X248797900Y-129606300D01*
X253644900Y-121420000D02*
X248797900Y-126267000D01*
X254370000Y-121420000D02*
X253644900Y-121420000D01*
X254350000Y-135158400D02*
X254350000Y-140710000D01*
X248797900Y-129606300D02*
X254350000Y-135158400D01*
X193718000Y-138696600D02*
X193718000Y-130116300D01*
X195731400Y-140710000D02*
X193718000Y-138696600D01*
X191605000Y-144836400D02*
X195731400Y-140710000D01*
X191605000Y-147289800D02*
X191605000Y-144836400D01*
X193351700Y-149036500D02*
X191605000Y-147289800D01*
X193351700Y-150045000D02*
X193351700Y-149036500D01*
X195731400Y-140710000D02*
X196500000Y-140710000D01*
X194040000Y-118960000D02*
X194040000Y-113000000D01*
X196500000Y-121420000D02*
X194040000Y-118960000D01*
X196500000Y-127334300D02*
X196500000Y-121420000D01*
X193718000Y-130116300D02*
X196500000Y-127334300D01*
X215783300Y-146813500D02*
X212550000Y-150046800D01*
X215783300Y-140710000D02*
X215783300Y-146813500D01*
X212550000Y-150046800D02*
X210398300Y-150046800D01*
X224746600Y-166448000D02*
X225248400Y-165946200D01*
X224746600Y-190693800D02*
X224746600Y-166448000D01*
X225250000Y-191197200D02*
X224746600Y-190693800D01*
X212550000Y-164831600D02*
X212550000Y-150046800D01*
X213108300Y-165389900D02*
X212550000Y-164831600D01*
X212545200Y-129799400D02*
X210294500Y-129799400D01*
X212545200Y-129799300D02*
X212545200Y-129799400D01*
X213140800Y-129203700D02*
X212545200Y-129799300D01*
X213821400Y-129203700D02*
X213140800Y-129203700D01*
X215790000Y-127235100D02*
X213821400Y-129203700D01*
X215790000Y-121420000D02*
X215790000Y-127235100D01*
X229527100Y-140710000D02*
X229527100Y-129748400D01*
X229239400Y-140710000D02*
X229527100Y-140710000D01*
X227275200Y-142674200D02*
X229239400Y-140710000D01*
X227275200Y-143989700D02*
X227275200Y-142674200D01*
X228598400Y-145312900D02*
X227275200Y-143989700D01*
X228598400Y-148416900D02*
X228598400Y-145312900D01*
X229289900Y-149108400D02*
X228598400Y-148416900D01*
X229527100Y-140710000D02*
X235066700Y-140710000D01*
M02*
