G04 #@! TF.GenerationSoftware,KiCad,Pcbnew,10.0.5*
G04 #@! TF.CreationDate,2026-09-01T20:20:49+10:00*
G04 #@! TF.ProjectId,pcbfirstdesign,70636266-6972-4737-9464-657369676e2e,rev?*
G04 #@! TF.SameCoordinates,Original*
G04 #@! TF.FileFunction,Paste,Top*
G04 #@! TF.FilePolarity,Positive*
%FSLAX46Y46*%
G04 Gerber Fmt 4.6, Leading zero omitted, Abs format (unit mm)*
G04 Created by KiCad (PCBNEW 10.0.5) date 2026-09-01 20:20:49*
%MOMM*%
%LPD*%
G01*
G04 APERTURE LIST*
G04 Aperture macros list*
%AMRoundRect*
0 Rectangle with rounded corners*
0 $1 Rounding radius*
0 $2 $3 $4 $5 $6 $7 $8 $9 X,Y pos of 4 corners*
0 Add a 4 corners polygon primitive as box body*
4,1,4,$2,$3,$4,$5,$6,$7,$8,$9,$2,$3,0*
0 Add four circle primitives for the rounded corners*
1,1,$1+$1,$2,$3*
1,1,$1+$1,$4,$5*
1,1,$1+$1,$6,$7*
1,1,$1+$1,$8,$9*
0 Add four rect primitives between the rounded corners*
20,1,$1+$1,$2,$3,$4,$5,0*
20,1,$1+$1,$4,$5,$6,$7,0*
20,1,$1+$1,$6,$7,$8,$9,0*
20,1,$1+$1,$8,$9,$2,$3,0*%
G04 Aperture macros list end*
%ADD10R,2.200000X3.800000*%
%ADD11RoundRect,0.250000X0.337500X0.475000X-0.337500X0.475000X-0.337500X-0.475000X0.337500X-0.475000X0*%
%ADD12RoundRect,0.100000X0.100000X0.575000X-0.100000X0.575000X-0.100000X-0.575000X0.100000X-0.575000X0*%
%ADD13RoundRect,0.250000X0.500000X0.700000X-0.500000X0.700000X-0.500000X-0.700000X0.500000X-0.700000X0*%
%ADD14RoundRect,0.250000X-0.337500X-0.475000X0.337500X-0.475000X0.337500X0.475000X-0.337500X0.475000X0*%
%ADD15RoundRect,0.150000X-0.512500X-0.150000X0.512500X-0.150000X0.512500X0.150000X-0.512500X0.150000X0*%
%ADD16R,1.600000X0.850000*%
%ADD17RoundRect,0.250000X-0.350000X-0.450000X0.350000X-0.450000X0.350000X0.450000X-0.350000X0.450000X0*%
%ADD18RoundRect,0.150000X0.825000X0.150000X-0.825000X0.150000X-0.825000X-0.150000X0.825000X-0.150000X0*%
%ADD19RoundRect,0.250000X0.255000X0.440000X-0.255000X0.440000X-0.255000X-0.440000X0.255000X-0.440000X0*%
G04 APERTURE END LIST*
D10*
X207470000Y-187580000D03*
X210010000Y-187580000D03*
X212550000Y-187580000D03*
X215090000Y-187580000D03*
X217630000Y-187580000D03*
X220170000Y-187580000D03*
X222710000Y-187580000D03*
X225250000Y-187580000D03*
X227790000Y-187580000D03*
X230330000Y-187580000D03*
X232870000Y-187580000D03*
X235410000Y-187580000D03*
X237950000Y-187580000D03*
X240490000Y-187580000D03*
X243030000Y-187580000D03*
X245570000Y-187580000D03*
X248110000Y-187580000D03*
X250650000Y-187580000D03*
X253190000Y-187580000D03*
X255730000Y-187580000D03*
X207470000Y-168200000D03*
X210010000Y-168200000D03*
X212550000Y-168200000D03*
X215090000Y-168200000D03*
X217630000Y-168200000D03*
X220170000Y-168200000D03*
X222710000Y-168200000D03*
X225250000Y-168200000D03*
X227790000Y-168200000D03*
X230330000Y-168200000D03*
X232870000Y-168200000D03*
X235410000Y-168200000D03*
X237950000Y-168200000D03*
X240490000Y-168200000D03*
X243030000Y-168200000D03*
X245570000Y-168200000D03*
X248110000Y-168200000D03*
X250650000Y-168200000D03*
X253190000Y-168200000D03*
X255730000Y-168200000D03*
D11*
X248500000Y-194750000D03*
X246425000Y-194750000D03*
D12*
X260300000Y-197200000D03*
X259650000Y-197200000D03*
X259000000Y-197200000D03*
X258350000Y-197200000D03*
X257700000Y-197200000D03*
D13*
X260000000Y-194500000D03*
X258000000Y-194500000D03*
D14*
X227537500Y-195950000D03*
X225462500Y-195950000D03*
D15*
X237250000Y-195350000D03*
X237250000Y-197250000D03*
X234975000Y-197250000D03*
X234975000Y-196300000D03*
X234975000Y-195350000D03*
D16*
X192250000Y-128000000D03*
X192250000Y-129750000D03*
X195750000Y-129750000D03*
X195750000Y-128000000D03*
X211750000Y-128000000D03*
X211750000Y-129750000D03*
X215250000Y-129750000D03*
X215250000Y-128000000D03*
X195750000Y-147250000D03*
X195750000Y-149000000D03*
X192250000Y-149000000D03*
X192250000Y-147250000D03*
X215000000Y-147250000D03*
X215000000Y-149000000D03*
X211500000Y-149000000D03*
X211500000Y-147250000D03*
X234500000Y-128000000D03*
X234500000Y-129750000D03*
X231000000Y-129750000D03*
X231000000Y-128000000D03*
X234250000Y-147000000D03*
X234250000Y-148750000D03*
X230750000Y-148750000D03*
X230750000Y-147000000D03*
X253500000Y-147250000D03*
X253500000Y-149000000D03*
X250000000Y-149000000D03*
X250000000Y-147250000D03*
X253750000Y-128000000D03*
X253750000Y-129750000D03*
X250250000Y-129750000D03*
X250250000Y-128000000D03*
D17*
X271500000Y-167500000D03*
X269500000Y-167500000D03*
X238250000Y-191500000D03*
X236250000Y-191500000D03*
D18*
X263050000Y-163060000D03*
X263050000Y-161790000D03*
X263050000Y-160520000D03*
X263050000Y-159250000D03*
X268000000Y-159250000D03*
X268000000Y-160520000D03*
X268000000Y-161790000D03*
X268000000Y-163060000D03*
D19*
X264925000Y-160330000D03*
X264925000Y-161980000D03*
X266125000Y-160330000D03*
X266125000Y-161980000D03*
M02*
