%TF.GenerationSoftware,KiCad,Pcbnew,10.0.5*%
%TF.CreationDate,2026-09-01T20:21:26+10:00*%
%TF.ProjectId,pcbfirstdesign,70636266-6972-4737-9464-657369676e2e,rev?*%
%TF.SameCoordinates,Original*%
%TF.FileFunction,Drillmap*%
%TF.FilePolarity,Positive*%
%FSLAX45Y45*%
G04 Gerber Fmt 4.5, Leading zero omitted, Abs format (unit mm)*
G04 Created by KiCad (PCBNEW 10.0.5) date 2026-09-01 20:21:26*
%MOMM*%
%LPD*%
G01*
G04 APERTURE LIST*
%ADD10C,0.050000*%
%ADD11C,0.200000*%
%ADD12C,0.170000*%
%ADD13C,0.185000*%
%ADD14C,0.210000*%
%ADD15C,0.220000*%
%ADD16C,0.400000*%
G04 APERTURE END LIST*
D10*
X18250000Y-11025000D02*
X28025000Y-11025000D01*
X28025000Y-20175000D01*
X18250000Y-20175000D01*
X18250000Y-11025000D01*
D11*
D12*
X18803000Y-12565000D02*
X18973000Y-12735000D01*
X18973000Y-12565000D02*
X18803000Y-12735000D01*
X18803000Y-14494000D02*
X18973000Y-14664000D01*
X18973000Y-14494000D02*
X18803000Y-14664000D01*
X19819000Y-12565000D02*
X19989000Y-12735000D01*
X19989000Y-12565000D02*
X19819000Y-12735000D01*
X19819000Y-14494000D02*
X19989000Y-14664000D01*
X19989000Y-14494000D02*
X19819000Y-14664000D01*
X20731330Y-14494000D02*
X20901330Y-14664000D01*
X20901330Y-14494000D02*
X20731330Y-14664000D01*
X20732000Y-12565000D02*
X20902000Y-12735000D01*
X20902000Y-12565000D02*
X20732000Y-12735000D01*
X21747330Y-14494000D02*
X21917330Y-14664000D01*
X21917330Y-14494000D02*
X21747330Y-14664000D01*
X21748000Y-12565000D02*
X21918000Y-12735000D01*
X21918000Y-12565000D02*
X21748000Y-12735000D01*
X22659670Y-14494000D02*
X22829670Y-14664000D01*
X22829670Y-14494000D02*
X22659670Y-14664000D01*
X22661000Y-12565000D02*
X22831000Y-12735000D01*
X22831000Y-12565000D02*
X22661000Y-12735000D01*
X23675670Y-14494000D02*
X23845670Y-14664000D01*
X23845670Y-14494000D02*
X23675670Y-14664000D01*
X23677000Y-12565000D02*
X23847000Y-12735000D01*
X23847000Y-12565000D02*
X23677000Y-12735000D01*
X24588000Y-14494000D02*
X24758000Y-14664000D01*
X24758000Y-14494000D02*
X24588000Y-14664000D01*
X24590000Y-12565000D02*
X24760000Y-12735000D01*
X24760000Y-12565000D02*
X24590000Y-12735000D01*
X25604000Y-14494000D02*
X25774000Y-14664000D01*
X25774000Y-14494000D02*
X25604000Y-14664000D01*
X25606000Y-12565000D02*
X25776000Y-12735000D01*
X25776000Y-12565000D02*
X25606000Y-12735000D01*
D13*
X25349500Y-17546500D02*
G75*
G02*
X25164500Y-17546500I-92500J0D01*
G01*
X25164500Y-17546500D02*
G75*
G02*
X25349500Y-17546500I92500J0D01*
G01*
X25349500Y-18031500D02*
G75*
G02*
X25164500Y-18031500I-92500J0D01*
G01*
X25164500Y-18031500D02*
G75*
G02*
X25349500Y-18031500I92500J0D01*
G01*
D14*
X18500000Y-19820000D02*
X18500000Y-20030000D01*
X18395000Y-19925000D02*
X18605000Y-19925000D01*
X18525000Y-11195000D02*
X18525000Y-11405000D01*
X18420000Y-11300000D02*
X18630000Y-11300000D01*
X27525000Y-11220000D02*
X27525000Y-11430000D01*
X27420000Y-11325000D02*
X27630000Y-11325000D01*
X27525000Y-19795000D02*
X27525000Y-20005000D01*
X27420000Y-19900000D02*
X27630000Y-19900000D01*
D15*
X25637782Y-17594283D02*
X25637782Y-17438718D01*
X25482217Y-17438718D01*
X25482217Y-17594283D01*
X25637782Y-17594283D01*
X25637782Y-18139283D02*
X25637782Y-17983718D01*
X25482217Y-17983718D01*
X25482217Y-18139283D01*
X25637782Y-18139283D01*
D16*
X19396000Y-12850000D02*
X19596000Y-12650000D01*
X19396000Y-12450000D01*
X19196000Y-12650000D01*
X19396000Y-12850000D01*
X19396000Y-14779000D02*
X19596000Y-14579000D01*
X19396000Y-14379000D01*
X19196000Y-14579000D01*
X19396000Y-14779000D01*
X21324330Y-14779000D02*
X21524330Y-14579000D01*
X21324330Y-14379000D01*
X21124330Y-14579000D01*
X21324330Y-14779000D01*
X21325000Y-12850000D02*
X21525000Y-12650000D01*
X21325000Y-12450000D01*
X21125000Y-12650000D01*
X21325000Y-12850000D01*
X23252670Y-14779000D02*
X23452670Y-14579000D01*
X23252670Y-14379000D01*
X23052670Y-14579000D01*
X23252670Y-14779000D01*
X23254000Y-12850000D02*
X23454000Y-12650000D01*
X23254000Y-12450000D01*
X23054000Y-12650000D01*
X23254000Y-12850000D01*
X25181000Y-14779000D02*
X25381000Y-14579000D01*
X25181000Y-14379000D01*
X24981000Y-14579000D01*
X25181000Y-14779000D01*
X25183000Y-12850000D02*
X25383000Y-12650000D01*
X25183000Y-12450000D01*
X24983000Y-12650000D01*
X25183000Y-12850000D01*
D11*
X18508277Y-20488984D02*
X18508277Y-20288984D01*
X18508277Y-20288984D02*
X18555896Y-20288984D01*
X18555896Y-20288984D02*
X18584467Y-20298508D01*
X18584467Y-20298508D02*
X18603515Y-20317555D01*
X18603515Y-20317555D02*
X18613039Y-20336603D01*
X18613039Y-20336603D02*
X18622563Y-20374698D01*
X18622563Y-20374698D02*
X18622563Y-20403270D01*
X18622563Y-20403270D02*
X18613039Y-20441365D01*
X18613039Y-20441365D02*
X18603515Y-20460412D01*
X18603515Y-20460412D02*
X18584467Y-20479460D01*
X18584467Y-20479460D02*
X18555896Y-20488984D01*
X18555896Y-20488984D02*
X18508277Y-20488984D01*
X18708277Y-20488984D02*
X18708277Y-20355650D01*
X18708277Y-20393746D02*
X18717801Y-20374698D01*
X18717801Y-20374698D02*
X18727324Y-20365174D01*
X18727324Y-20365174D02*
X18746372Y-20355650D01*
X18746372Y-20355650D02*
X18765420Y-20355650D01*
X18832086Y-20488984D02*
X18832086Y-20355650D01*
X18832086Y-20288984D02*
X18822563Y-20298508D01*
X18822563Y-20298508D02*
X18832086Y-20308031D01*
X18832086Y-20308031D02*
X18841610Y-20298508D01*
X18841610Y-20298508D02*
X18832086Y-20288984D01*
X18832086Y-20288984D02*
X18832086Y-20308031D01*
X18955896Y-20488984D02*
X18936848Y-20479460D01*
X18936848Y-20479460D02*
X18927324Y-20460412D01*
X18927324Y-20460412D02*
X18927324Y-20288984D01*
X19060658Y-20488984D02*
X19041610Y-20479460D01*
X19041610Y-20479460D02*
X19032086Y-20460412D01*
X19032086Y-20460412D02*
X19032086Y-20288984D01*
X19289229Y-20488984D02*
X19289229Y-20288984D01*
X19289229Y-20288984D02*
X19355896Y-20431841D01*
X19355896Y-20431841D02*
X19422563Y-20288984D01*
X19422563Y-20288984D02*
X19422563Y-20488984D01*
X19603515Y-20488984D02*
X19603515Y-20384222D01*
X19603515Y-20384222D02*
X19593991Y-20365174D01*
X19593991Y-20365174D02*
X19574944Y-20355650D01*
X19574944Y-20355650D02*
X19536848Y-20355650D01*
X19536848Y-20355650D02*
X19517801Y-20365174D01*
X19603515Y-20479460D02*
X19584467Y-20488984D01*
X19584467Y-20488984D02*
X19536848Y-20488984D01*
X19536848Y-20488984D02*
X19517801Y-20479460D01*
X19517801Y-20479460D02*
X19508277Y-20460412D01*
X19508277Y-20460412D02*
X19508277Y-20441365D01*
X19508277Y-20441365D02*
X19517801Y-20422317D01*
X19517801Y-20422317D02*
X19536848Y-20412793D01*
X19536848Y-20412793D02*
X19584467Y-20412793D01*
X19584467Y-20412793D02*
X19603515Y-20403270D01*
X19698753Y-20355650D02*
X19698753Y-20555650D01*
X19698753Y-20365174D02*
X19717801Y-20355650D01*
X19717801Y-20355650D02*
X19755896Y-20355650D01*
X19755896Y-20355650D02*
X19774944Y-20365174D01*
X19774944Y-20365174D02*
X19784467Y-20374698D01*
X19784467Y-20374698D02*
X19793991Y-20393746D01*
X19793991Y-20393746D02*
X19793991Y-20450889D01*
X19793991Y-20450889D02*
X19784467Y-20469936D01*
X19784467Y-20469936D02*
X19774944Y-20479460D01*
X19774944Y-20479460D02*
X19755896Y-20488984D01*
X19755896Y-20488984D02*
X19717801Y-20488984D01*
X19717801Y-20488984D02*
X19698753Y-20479460D01*
X19879705Y-20469936D02*
X19889229Y-20479460D01*
X19889229Y-20479460D02*
X19879705Y-20488984D01*
X19879705Y-20488984D02*
X19870182Y-20479460D01*
X19870182Y-20479460D02*
X19879705Y-20469936D01*
X19879705Y-20469936D02*
X19879705Y-20488984D01*
X19879705Y-20365174D02*
X19889229Y-20374698D01*
X19889229Y-20374698D02*
X19879705Y-20384222D01*
X19879705Y-20384222D02*
X19870182Y-20374698D01*
X19870182Y-20374698D02*
X19879705Y-20365174D01*
X19879705Y-20365174D02*
X19879705Y-20384222D01*
D12*
X18077500Y-20732500D02*
X18247500Y-20902500D01*
X18247500Y-20732500D02*
X18077500Y-20902500D01*
D11*
X18613039Y-20908984D02*
X18498753Y-20908984D01*
X18555896Y-20908984D02*
X18555896Y-20708984D01*
X18555896Y-20708984D02*
X18536848Y-20737555D01*
X18536848Y-20737555D02*
X18517801Y-20756603D01*
X18517801Y-20756603D02*
X18498753Y-20766127D01*
X18698753Y-20889936D02*
X18708277Y-20899460D01*
X18708277Y-20899460D02*
X18698753Y-20908984D01*
X18698753Y-20908984D02*
X18689229Y-20899460D01*
X18689229Y-20899460D02*
X18698753Y-20889936D01*
X18698753Y-20889936D02*
X18698753Y-20908984D01*
X18774944Y-20708984D02*
X18908277Y-20708984D01*
X18908277Y-20708984D02*
X18822563Y-20908984D01*
X19022563Y-20708984D02*
X19041610Y-20708984D01*
X19041610Y-20708984D02*
X19060658Y-20718508D01*
X19060658Y-20718508D02*
X19070182Y-20728031D01*
X19070182Y-20728031D02*
X19079705Y-20747079D01*
X19079705Y-20747079D02*
X19089229Y-20785174D01*
X19089229Y-20785174D02*
X19089229Y-20832793D01*
X19089229Y-20832793D02*
X19079705Y-20870889D01*
X19079705Y-20870889D02*
X19070182Y-20889936D01*
X19070182Y-20889936D02*
X19060658Y-20899460D01*
X19060658Y-20899460D02*
X19041610Y-20908984D01*
X19041610Y-20908984D02*
X19022563Y-20908984D01*
X19022563Y-20908984D02*
X19003515Y-20899460D01*
X19003515Y-20899460D02*
X18993991Y-20889936D01*
X18993991Y-20889936D02*
X18984467Y-20870889D01*
X18984467Y-20870889D02*
X18974944Y-20832793D01*
X18974944Y-20832793D02*
X18974944Y-20785174D01*
X18974944Y-20785174D02*
X18984467Y-20747079D01*
X18984467Y-20747079D02*
X18993991Y-20728031D01*
X18993991Y-20728031D02*
X19003515Y-20718508D01*
X19003515Y-20718508D02*
X19022563Y-20708984D01*
X19213039Y-20708984D02*
X19232086Y-20708984D01*
X19232086Y-20708984D02*
X19251134Y-20718508D01*
X19251134Y-20718508D02*
X19260658Y-20728031D01*
X19260658Y-20728031D02*
X19270182Y-20747079D01*
X19270182Y-20747079D02*
X19279705Y-20785174D01*
X19279705Y-20785174D02*
X19279705Y-20832793D01*
X19279705Y-20832793D02*
X19270182Y-20870889D01*
X19270182Y-20870889D02*
X19260658Y-20889936D01*
X19260658Y-20889936D02*
X19251134Y-20899460D01*
X19251134Y-20899460D02*
X19232086Y-20908984D01*
X19232086Y-20908984D02*
X19213039Y-20908984D01*
X19213039Y-20908984D02*
X19193991Y-20899460D01*
X19193991Y-20899460D02*
X19184467Y-20889936D01*
X19184467Y-20889936D02*
X19174944Y-20870889D01*
X19174944Y-20870889D02*
X19165420Y-20832793D01*
X19165420Y-20832793D02*
X19165420Y-20785174D01*
X19165420Y-20785174D02*
X19174944Y-20747079D01*
X19174944Y-20747079D02*
X19184467Y-20728031D01*
X19184467Y-20728031D02*
X19193991Y-20718508D01*
X19193991Y-20718508D02*
X19213039Y-20708984D01*
X19365420Y-20908984D02*
X19365420Y-20775650D01*
X19365420Y-20794698D02*
X19374944Y-20785174D01*
X19374944Y-20785174D02*
X19393991Y-20775650D01*
X19393991Y-20775650D02*
X19422563Y-20775650D01*
X19422563Y-20775650D02*
X19441610Y-20785174D01*
X19441610Y-20785174D02*
X19451134Y-20804222D01*
X19451134Y-20804222D02*
X19451134Y-20908984D01*
X19451134Y-20804222D02*
X19460658Y-20785174D01*
X19460658Y-20785174D02*
X19479705Y-20775650D01*
X19479705Y-20775650D02*
X19508277Y-20775650D01*
X19508277Y-20775650D02*
X19527325Y-20785174D01*
X19527325Y-20785174D02*
X19536848Y-20804222D01*
X19536848Y-20804222D02*
X19536848Y-20908984D01*
X19632086Y-20908984D02*
X19632086Y-20775650D01*
X19632086Y-20794698D02*
X19641610Y-20785174D01*
X19641610Y-20785174D02*
X19660658Y-20775650D01*
X19660658Y-20775650D02*
X19689229Y-20775650D01*
X19689229Y-20775650D02*
X19708277Y-20785174D01*
X19708277Y-20785174D02*
X19717801Y-20804222D01*
X19717801Y-20804222D02*
X19717801Y-20908984D01*
X19717801Y-20804222D02*
X19727325Y-20785174D01*
X19727325Y-20785174D02*
X19746372Y-20775650D01*
X19746372Y-20775650D02*
X19774944Y-20775650D01*
X19774944Y-20775650D02*
X19793991Y-20785174D01*
X19793991Y-20785174D02*
X19803515Y-20804222D01*
X19803515Y-20804222D02*
X19803515Y-20908984D01*
X20193991Y-20699460D02*
X20022563Y-20956603D01*
X20451134Y-20708984D02*
X20470182Y-20708984D01*
X20470182Y-20708984D02*
X20489229Y-20718508D01*
X20489229Y-20718508D02*
X20498753Y-20728031D01*
X20498753Y-20728031D02*
X20508277Y-20747079D01*
X20508277Y-20747079D02*
X20517801Y-20785174D01*
X20517801Y-20785174D02*
X20517801Y-20832793D01*
X20517801Y-20832793D02*
X20508277Y-20870889D01*
X20508277Y-20870889D02*
X20498753Y-20889936D01*
X20498753Y-20889936D02*
X20489229Y-20899460D01*
X20489229Y-20899460D02*
X20470182Y-20908984D01*
X20470182Y-20908984D02*
X20451134Y-20908984D01*
X20451134Y-20908984D02*
X20432087Y-20899460D01*
X20432087Y-20899460D02*
X20422563Y-20889936D01*
X20422563Y-20889936D02*
X20413039Y-20870889D01*
X20413039Y-20870889D02*
X20403515Y-20832793D01*
X20403515Y-20832793D02*
X20403515Y-20785174D01*
X20403515Y-20785174D02*
X20413039Y-20747079D01*
X20413039Y-20747079D02*
X20422563Y-20728031D01*
X20422563Y-20728031D02*
X20432087Y-20718508D01*
X20432087Y-20718508D02*
X20451134Y-20708984D01*
X20603515Y-20889936D02*
X20613039Y-20899460D01*
X20613039Y-20899460D02*
X20603515Y-20908984D01*
X20603515Y-20908984D02*
X20593991Y-20899460D01*
X20593991Y-20899460D02*
X20603515Y-20889936D01*
X20603515Y-20889936D02*
X20603515Y-20908984D01*
X20736848Y-20708984D02*
X20755896Y-20708984D01*
X20755896Y-20708984D02*
X20774944Y-20718508D01*
X20774944Y-20718508D02*
X20784468Y-20728031D01*
X20784468Y-20728031D02*
X20793991Y-20747079D01*
X20793991Y-20747079D02*
X20803515Y-20785174D01*
X20803515Y-20785174D02*
X20803515Y-20832793D01*
X20803515Y-20832793D02*
X20793991Y-20870889D01*
X20793991Y-20870889D02*
X20784468Y-20889936D01*
X20784468Y-20889936D02*
X20774944Y-20899460D01*
X20774944Y-20899460D02*
X20755896Y-20908984D01*
X20755896Y-20908984D02*
X20736848Y-20908984D01*
X20736848Y-20908984D02*
X20717801Y-20899460D01*
X20717801Y-20899460D02*
X20708277Y-20889936D01*
X20708277Y-20889936D02*
X20698753Y-20870889D01*
X20698753Y-20870889D02*
X20689229Y-20832793D01*
X20689229Y-20832793D02*
X20689229Y-20785174D01*
X20689229Y-20785174D02*
X20698753Y-20747079D01*
X20698753Y-20747079D02*
X20708277Y-20728031D01*
X20708277Y-20728031D02*
X20717801Y-20718508D01*
X20717801Y-20718508D02*
X20736848Y-20708984D01*
X20974944Y-20708984D02*
X20936848Y-20708984D01*
X20936848Y-20708984D02*
X20917801Y-20718508D01*
X20917801Y-20718508D02*
X20908277Y-20728031D01*
X20908277Y-20728031D02*
X20889229Y-20756603D01*
X20889229Y-20756603D02*
X20879706Y-20794698D01*
X20879706Y-20794698D02*
X20879706Y-20870889D01*
X20879706Y-20870889D02*
X20889229Y-20889936D01*
X20889229Y-20889936D02*
X20898753Y-20899460D01*
X20898753Y-20899460D02*
X20917801Y-20908984D01*
X20917801Y-20908984D02*
X20955896Y-20908984D01*
X20955896Y-20908984D02*
X20974944Y-20899460D01*
X20974944Y-20899460D02*
X20984468Y-20889936D01*
X20984468Y-20889936D02*
X20993991Y-20870889D01*
X20993991Y-20870889D02*
X20993991Y-20823270D01*
X20993991Y-20823270D02*
X20984468Y-20804222D01*
X20984468Y-20804222D02*
X20974944Y-20794698D01*
X20974944Y-20794698D02*
X20955896Y-20785174D01*
X20955896Y-20785174D02*
X20917801Y-20785174D01*
X20917801Y-20785174D02*
X20898753Y-20794698D01*
X20898753Y-20794698D02*
X20889229Y-20804222D01*
X20889229Y-20804222D02*
X20879706Y-20823270D01*
X21165420Y-20708984D02*
X21127325Y-20708984D01*
X21127325Y-20708984D02*
X21108277Y-20718508D01*
X21108277Y-20718508D02*
X21098753Y-20728031D01*
X21098753Y-20728031D02*
X21079706Y-20756603D01*
X21079706Y-20756603D02*
X21070182Y-20794698D01*
X21070182Y-20794698D02*
X21070182Y-20870889D01*
X21070182Y-20870889D02*
X21079706Y-20889936D01*
X21079706Y-20889936D02*
X21089229Y-20899460D01*
X21089229Y-20899460D02*
X21108277Y-20908984D01*
X21108277Y-20908984D02*
X21146372Y-20908984D01*
X21146372Y-20908984D02*
X21165420Y-20899460D01*
X21165420Y-20899460D02*
X21174944Y-20889936D01*
X21174944Y-20889936D02*
X21184468Y-20870889D01*
X21184468Y-20870889D02*
X21184468Y-20823270D01*
X21184468Y-20823270D02*
X21174944Y-20804222D01*
X21174944Y-20804222D02*
X21165420Y-20794698D01*
X21165420Y-20794698D02*
X21146372Y-20785174D01*
X21146372Y-20785174D02*
X21108277Y-20785174D01*
X21108277Y-20785174D02*
X21089229Y-20794698D01*
X21089229Y-20794698D02*
X21079706Y-20804222D01*
X21079706Y-20804222D02*
X21070182Y-20823270D01*
X21279706Y-20908984D02*
X21317801Y-20908984D01*
X21317801Y-20908984D02*
X21336849Y-20899460D01*
X21336849Y-20899460D02*
X21346372Y-20889936D01*
X21346372Y-20889936D02*
X21365420Y-20861365D01*
X21365420Y-20861365D02*
X21374944Y-20823270D01*
X21374944Y-20823270D02*
X21374944Y-20747079D01*
X21374944Y-20747079D02*
X21365420Y-20728031D01*
X21365420Y-20728031D02*
X21355896Y-20718508D01*
X21355896Y-20718508D02*
X21336849Y-20708984D01*
X21336849Y-20708984D02*
X21298753Y-20708984D01*
X21298753Y-20708984D02*
X21279706Y-20718508D01*
X21279706Y-20718508D02*
X21270182Y-20728031D01*
X21270182Y-20728031D02*
X21260658Y-20747079D01*
X21260658Y-20747079D02*
X21260658Y-20794698D01*
X21260658Y-20794698D02*
X21270182Y-20813746D01*
X21270182Y-20813746D02*
X21279706Y-20823270D01*
X21279706Y-20823270D02*
X21298753Y-20832793D01*
X21298753Y-20832793D02*
X21336849Y-20832793D01*
X21336849Y-20832793D02*
X21355896Y-20823270D01*
X21355896Y-20823270D02*
X21365420Y-20813746D01*
X21365420Y-20813746D02*
X21374944Y-20794698D01*
X21451134Y-20708984D02*
X21451134Y-20747079D01*
X21527325Y-20708984D02*
X21527325Y-20747079D01*
X21822563Y-20985174D02*
X21813039Y-20975650D01*
X21813039Y-20975650D02*
X21793991Y-20947079D01*
X21793991Y-20947079D02*
X21784468Y-20928031D01*
X21784468Y-20928031D02*
X21774944Y-20899460D01*
X21774944Y-20899460D02*
X21765420Y-20851841D01*
X21765420Y-20851841D02*
X21765420Y-20813746D01*
X21765420Y-20813746D02*
X21774944Y-20766127D01*
X21774944Y-20766127D02*
X21784468Y-20737555D01*
X21784468Y-20737555D02*
X21793991Y-20718508D01*
X21793991Y-20718508D02*
X21813039Y-20689936D01*
X21813039Y-20689936D02*
X21822563Y-20680412D01*
X22003515Y-20908984D02*
X21889230Y-20908984D01*
X21946372Y-20908984D02*
X21946372Y-20708984D01*
X21946372Y-20708984D02*
X21927325Y-20737555D01*
X21927325Y-20737555D02*
X21908277Y-20756603D01*
X21908277Y-20756603D02*
X21889230Y-20766127D01*
X22174944Y-20708984D02*
X22136849Y-20708984D01*
X22136849Y-20708984D02*
X22117801Y-20718508D01*
X22117801Y-20718508D02*
X22108277Y-20728031D01*
X22108277Y-20728031D02*
X22089230Y-20756603D01*
X22089230Y-20756603D02*
X22079706Y-20794698D01*
X22079706Y-20794698D02*
X22079706Y-20870889D01*
X22079706Y-20870889D02*
X22089230Y-20889936D01*
X22089230Y-20889936D02*
X22098753Y-20899460D01*
X22098753Y-20899460D02*
X22117801Y-20908984D01*
X22117801Y-20908984D02*
X22155896Y-20908984D01*
X22155896Y-20908984D02*
X22174944Y-20899460D01*
X22174944Y-20899460D02*
X22184468Y-20889936D01*
X22184468Y-20889936D02*
X22193991Y-20870889D01*
X22193991Y-20870889D02*
X22193991Y-20823270D01*
X22193991Y-20823270D02*
X22184468Y-20804222D01*
X22184468Y-20804222D02*
X22174944Y-20794698D01*
X22174944Y-20794698D02*
X22155896Y-20785174D01*
X22155896Y-20785174D02*
X22117801Y-20785174D01*
X22117801Y-20785174D02*
X22098753Y-20794698D01*
X22098753Y-20794698D02*
X22089230Y-20804222D01*
X22089230Y-20804222D02*
X22079706Y-20823270D01*
X22432087Y-20908984D02*
X22432087Y-20708984D01*
X22517801Y-20908984D02*
X22517801Y-20804222D01*
X22517801Y-20804222D02*
X22508277Y-20785174D01*
X22508277Y-20785174D02*
X22489230Y-20775650D01*
X22489230Y-20775650D02*
X22460658Y-20775650D01*
X22460658Y-20775650D02*
X22441610Y-20785174D01*
X22441610Y-20785174D02*
X22432087Y-20794698D01*
X22641610Y-20908984D02*
X22622563Y-20899460D01*
X22622563Y-20899460D02*
X22613039Y-20889936D01*
X22613039Y-20889936D02*
X22603515Y-20870889D01*
X22603515Y-20870889D02*
X22603515Y-20813746D01*
X22603515Y-20813746D02*
X22613039Y-20794698D01*
X22613039Y-20794698D02*
X22622563Y-20785174D01*
X22622563Y-20785174D02*
X22641610Y-20775650D01*
X22641610Y-20775650D02*
X22670182Y-20775650D01*
X22670182Y-20775650D02*
X22689230Y-20785174D01*
X22689230Y-20785174D02*
X22698753Y-20794698D01*
X22698753Y-20794698D02*
X22708277Y-20813746D01*
X22708277Y-20813746D02*
X22708277Y-20870889D01*
X22708277Y-20870889D02*
X22698753Y-20889936D01*
X22698753Y-20889936D02*
X22689230Y-20899460D01*
X22689230Y-20899460D02*
X22670182Y-20908984D01*
X22670182Y-20908984D02*
X22641610Y-20908984D01*
X22822563Y-20908984D02*
X22803515Y-20899460D01*
X22803515Y-20899460D02*
X22793991Y-20880412D01*
X22793991Y-20880412D02*
X22793991Y-20708984D01*
X22974944Y-20899460D02*
X22955896Y-20908984D01*
X22955896Y-20908984D02*
X22917801Y-20908984D01*
X22917801Y-20908984D02*
X22898753Y-20899460D01*
X22898753Y-20899460D02*
X22889230Y-20880412D01*
X22889230Y-20880412D02*
X22889230Y-20804222D01*
X22889230Y-20804222D02*
X22898753Y-20785174D01*
X22898753Y-20785174D02*
X22917801Y-20775650D01*
X22917801Y-20775650D02*
X22955896Y-20775650D01*
X22955896Y-20775650D02*
X22974944Y-20785174D01*
X22974944Y-20785174D02*
X22984468Y-20804222D01*
X22984468Y-20804222D02*
X22984468Y-20823270D01*
X22984468Y-20823270D02*
X22889230Y-20842317D01*
X23060658Y-20899460D02*
X23079706Y-20908984D01*
X23079706Y-20908984D02*
X23117801Y-20908984D01*
X23117801Y-20908984D02*
X23136849Y-20899460D01*
X23136849Y-20899460D02*
X23146372Y-20880412D01*
X23146372Y-20880412D02*
X23146372Y-20870889D01*
X23146372Y-20870889D02*
X23136849Y-20851841D01*
X23136849Y-20851841D02*
X23117801Y-20842317D01*
X23117801Y-20842317D02*
X23089230Y-20842317D01*
X23089230Y-20842317D02*
X23070182Y-20832793D01*
X23070182Y-20832793D02*
X23060658Y-20813746D01*
X23060658Y-20813746D02*
X23060658Y-20804222D01*
X23060658Y-20804222D02*
X23070182Y-20785174D01*
X23070182Y-20785174D02*
X23089230Y-20775650D01*
X23089230Y-20775650D02*
X23117801Y-20775650D01*
X23117801Y-20775650D02*
X23136849Y-20785174D01*
X23213039Y-20985174D02*
X23222563Y-20975650D01*
X23222563Y-20975650D02*
X23241611Y-20947079D01*
X23241611Y-20947079D02*
X23251134Y-20928031D01*
X23251134Y-20928031D02*
X23260658Y-20899460D01*
X23260658Y-20899460D02*
X23270182Y-20851841D01*
X23270182Y-20851841D02*
X23270182Y-20813746D01*
X23270182Y-20813746D02*
X23260658Y-20766127D01*
X23260658Y-20766127D02*
X23251134Y-20737555D01*
X23251134Y-20737555D02*
X23241611Y-20718508D01*
X23241611Y-20718508D02*
X23222563Y-20689936D01*
X23222563Y-20689936D02*
X23213039Y-20680412D01*
X23574944Y-20985174D02*
X23565420Y-20975650D01*
X23565420Y-20975650D02*
X23546372Y-20947079D01*
X23546372Y-20947079D02*
X23536849Y-20928031D01*
X23536849Y-20928031D02*
X23527325Y-20899460D01*
X23527325Y-20899460D02*
X23517801Y-20851841D01*
X23517801Y-20851841D02*
X23517801Y-20813746D01*
X23517801Y-20813746D02*
X23527325Y-20766127D01*
X23527325Y-20766127D02*
X23536849Y-20737555D01*
X23536849Y-20737555D02*
X23546372Y-20718508D01*
X23546372Y-20718508D02*
X23565420Y-20689936D01*
X23565420Y-20689936D02*
X23574944Y-20680412D01*
X23651134Y-20775650D02*
X23651134Y-20908984D01*
X23651134Y-20794698D02*
X23660658Y-20785174D01*
X23660658Y-20785174D02*
X23679706Y-20775650D01*
X23679706Y-20775650D02*
X23708277Y-20775650D01*
X23708277Y-20775650D02*
X23727325Y-20785174D01*
X23727325Y-20785174D02*
X23736849Y-20804222D01*
X23736849Y-20804222D02*
X23736849Y-20908984D01*
X23860658Y-20908984D02*
X23841611Y-20899460D01*
X23841611Y-20899460D02*
X23832087Y-20889936D01*
X23832087Y-20889936D02*
X23822563Y-20870889D01*
X23822563Y-20870889D02*
X23822563Y-20813746D01*
X23822563Y-20813746D02*
X23832087Y-20794698D01*
X23832087Y-20794698D02*
X23841611Y-20785174D01*
X23841611Y-20785174D02*
X23860658Y-20775650D01*
X23860658Y-20775650D02*
X23889230Y-20775650D01*
X23889230Y-20775650D02*
X23908277Y-20785174D01*
X23908277Y-20785174D02*
X23917801Y-20794698D01*
X23917801Y-20794698D02*
X23927325Y-20813746D01*
X23927325Y-20813746D02*
X23927325Y-20870889D01*
X23927325Y-20870889D02*
X23917801Y-20889936D01*
X23917801Y-20889936D02*
X23908277Y-20899460D01*
X23908277Y-20899460D02*
X23889230Y-20908984D01*
X23889230Y-20908984D02*
X23860658Y-20908984D01*
X23984468Y-20775650D02*
X24060658Y-20775650D01*
X24013039Y-20708984D02*
X24013039Y-20880412D01*
X24013039Y-20880412D02*
X24022563Y-20899460D01*
X24022563Y-20899460D02*
X24041611Y-20908984D01*
X24041611Y-20908984D02*
X24060658Y-20908984D01*
X24279706Y-20775650D02*
X24279706Y-20975650D01*
X24279706Y-20785174D02*
X24298753Y-20775650D01*
X24298753Y-20775650D02*
X24336849Y-20775650D01*
X24336849Y-20775650D02*
X24355896Y-20785174D01*
X24355896Y-20785174D02*
X24365420Y-20794698D01*
X24365420Y-20794698D02*
X24374944Y-20813746D01*
X24374944Y-20813746D02*
X24374944Y-20870889D01*
X24374944Y-20870889D02*
X24365420Y-20889936D01*
X24365420Y-20889936D02*
X24355896Y-20899460D01*
X24355896Y-20899460D02*
X24336849Y-20908984D01*
X24336849Y-20908984D02*
X24298753Y-20908984D01*
X24298753Y-20908984D02*
X24279706Y-20899460D01*
X24489230Y-20908984D02*
X24470182Y-20899460D01*
X24470182Y-20899460D02*
X24460658Y-20880412D01*
X24460658Y-20880412D02*
X24460658Y-20708984D01*
X24651134Y-20908984D02*
X24651134Y-20804222D01*
X24651134Y-20804222D02*
X24641611Y-20785174D01*
X24641611Y-20785174D02*
X24622563Y-20775650D01*
X24622563Y-20775650D02*
X24584468Y-20775650D01*
X24584468Y-20775650D02*
X24565420Y-20785174D01*
X24651134Y-20899460D02*
X24632087Y-20908984D01*
X24632087Y-20908984D02*
X24584468Y-20908984D01*
X24584468Y-20908984D02*
X24565420Y-20899460D01*
X24565420Y-20899460D02*
X24555896Y-20880412D01*
X24555896Y-20880412D02*
X24555896Y-20861365D01*
X24555896Y-20861365D02*
X24565420Y-20842317D01*
X24565420Y-20842317D02*
X24584468Y-20832793D01*
X24584468Y-20832793D02*
X24632087Y-20832793D01*
X24632087Y-20832793D02*
X24651134Y-20823270D01*
X24717801Y-20775650D02*
X24793992Y-20775650D01*
X24746373Y-20708984D02*
X24746373Y-20880412D01*
X24746373Y-20880412D02*
X24755896Y-20899460D01*
X24755896Y-20899460D02*
X24774944Y-20908984D01*
X24774944Y-20908984D02*
X24793992Y-20908984D01*
X24936849Y-20899460D02*
X24917801Y-20908984D01*
X24917801Y-20908984D02*
X24879706Y-20908984D01*
X24879706Y-20908984D02*
X24860658Y-20899460D01*
X24860658Y-20899460D02*
X24851134Y-20880412D01*
X24851134Y-20880412D02*
X24851134Y-20804222D01*
X24851134Y-20804222D02*
X24860658Y-20785174D01*
X24860658Y-20785174D02*
X24879706Y-20775650D01*
X24879706Y-20775650D02*
X24917801Y-20775650D01*
X24917801Y-20775650D02*
X24936849Y-20785174D01*
X24936849Y-20785174D02*
X24946373Y-20804222D01*
X24946373Y-20804222D02*
X24946373Y-20823270D01*
X24946373Y-20823270D02*
X24851134Y-20842317D01*
X25117801Y-20908984D02*
X25117801Y-20708984D01*
X25117801Y-20899460D02*
X25098754Y-20908984D01*
X25098754Y-20908984D02*
X25060658Y-20908984D01*
X25060658Y-20908984D02*
X25041611Y-20899460D01*
X25041611Y-20899460D02*
X25032087Y-20889936D01*
X25032087Y-20889936D02*
X25022563Y-20870889D01*
X25022563Y-20870889D02*
X25022563Y-20813746D01*
X25022563Y-20813746D02*
X25032087Y-20794698D01*
X25032087Y-20794698D02*
X25041611Y-20785174D01*
X25041611Y-20785174D02*
X25060658Y-20775650D01*
X25060658Y-20775650D02*
X25098754Y-20775650D01*
X25098754Y-20775650D02*
X25117801Y-20785174D01*
X25193992Y-20985174D02*
X25203515Y-20975650D01*
X25203515Y-20975650D02*
X25222563Y-20947079D01*
X25222563Y-20947079D02*
X25232087Y-20928031D01*
X25232087Y-20928031D02*
X25241611Y-20899460D01*
X25241611Y-20899460D02*
X25251134Y-20851841D01*
X25251134Y-20851841D02*
X25251134Y-20813746D01*
X25251134Y-20813746D02*
X25241611Y-20766127D01*
X25241611Y-20766127D02*
X25232087Y-20737555D01*
X25232087Y-20737555D02*
X25222563Y-20718508D01*
X25222563Y-20718508D02*
X25203515Y-20689936D01*
X25203515Y-20689936D02*
X25193992Y-20680412D01*
D13*
X18247500Y-21107500D02*
G75*
G02*
X18062500Y-21107500I-92500J0D01*
G01*
X18062500Y-21107500D02*
G75*
G02*
X18247500Y-21107500I92500J0D01*
G01*
D11*
X18613039Y-21198984D02*
X18498753Y-21198984D01*
X18555896Y-21198984D02*
X18555896Y-20998984D01*
X18555896Y-20998984D02*
X18536848Y-21027555D01*
X18536848Y-21027555D02*
X18517801Y-21046603D01*
X18517801Y-21046603D02*
X18498753Y-21056127D01*
X18698753Y-21179936D02*
X18708277Y-21189460D01*
X18708277Y-21189460D02*
X18698753Y-21198984D01*
X18698753Y-21198984D02*
X18689229Y-21189460D01*
X18689229Y-21189460D02*
X18698753Y-21179936D01*
X18698753Y-21179936D02*
X18698753Y-21198984D01*
X18822563Y-21084698D02*
X18803515Y-21075174D01*
X18803515Y-21075174D02*
X18793991Y-21065650D01*
X18793991Y-21065650D02*
X18784467Y-21046603D01*
X18784467Y-21046603D02*
X18784467Y-21037079D01*
X18784467Y-21037079D02*
X18793991Y-21018031D01*
X18793991Y-21018031D02*
X18803515Y-21008508D01*
X18803515Y-21008508D02*
X18822563Y-20998984D01*
X18822563Y-20998984D02*
X18860658Y-20998984D01*
X18860658Y-20998984D02*
X18879705Y-21008508D01*
X18879705Y-21008508D02*
X18889229Y-21018031D01*
X18889229Y-21018031D02*
X18898753Y-21037079D01*
X18898753Y-21037079D02*
X18898753Y-21046603D01*
X18898753Y-21046603D02*
X18889229Y-21065650D01*
X18889229Y-21065650D02*
X18879705Y-21075174D01*
X18879705Y-21075174D02*
X18860658Y-21084698D01*
X18860658Y-21084698D02*
X18822563Y-21084698D01*
X18822563Y-21084698D02*
X18803515Y-21094222D01*
X18803515Y-21094222D02*
X18793991Y-21103746D01*
X18793991Y-21103746D02*
X18784467Y-21122793D01*
X18784467Y-21122793D02*
X18784467Y-21160889D01*
X18784467Y-21160889D02*
X18793991Y-21179936D01*
X18793991Y-21179936D02*
X18803515Y-21189460D01*
X18803515Y-21189460D02*
X18822563Y-21198984D01*
X18822563Y-21198984D02*
X18860658Y-21198984D01*
X18860658Y-21198984D02*
X18879705Y-21189460D01*
X18879705Y-21189460D02*
X18889229Y-21179936D01*
X18889229Y-21179936D02*
X18898753Y-21160889D01*
X18898753Y-21160889D02*
X18898753Y-21122793D01*
X18898753Y-21122793D02*
X18889229Y-21103746D01*
X18889229Y-21103746D02*
X18879705Y-21094222D01*
X18879705Y-21094222D02*
X18860658Y-21084698D01*
X19079705Y-20998984D02*
X18984467Y-20998984D01*
X18984467Y-20998984D02*
X18974944Y-21094222D01*
X18974944Y-21094222D02*
X18984467Y-21084698D01*
X18984467Y-21084698D02*
X19003515Y-21075174D01*
X19003515Y-21075174D02*
X19051134Y-21075174D01*
X19051134Y-21075174D02*
X19070182Y-21084698D01*
X19070182Y-21084698D02*
X19079705Y-21094222D01*
X19079705Y-21094222D02*
X19089229Y-21113270D01*
X19089229Y-21113270D02*
X19089229Y-21160889D01*
X19089229Y-21160889D02*
X19079705Y-21179936D01*
X19079705Y-21179936D02*
X19070182Y-21189460D01*
X19070182Y-21189460D02*
X19051134Y-21198984D01*
X19051134Y-21198984D02*
X19003515Y-21198984D01*
X19003515Y-21198984D02*
X18984467Y-21189460D01*
X18984467Y-21189460D02*
X18974944Y-21179936D01*
X19213039Y-20998984D02*
X19232086Y-20998984D01*
X19232086Y-20998984D02*
X19251134Y-21008508D01*
X19251134Y-21008508D02*
X19260658Y-21018031D01*
X19260658Y-21018031D02*
X19270182Y-21037079D01*
X19270182Y-21037079D02*
X19279705Y-21075174D01*
X19279705Y-21075174D02*
X19279705Y-21122793D01*
X19279705Y-21122793D02*
X19270182Y-21160889D01*
X19270182Y-21160889D02*
X19260658Y-21179936D01*
X19260658Y-21179936D02*
X19251134Y-21189460D01*
X19251134Y-21189460D02*
X19232086Y-21198984D01*
X19232086Y-21198984D02*
X19213039Y-21198984D01*
X19213039Y-21198984D02*
X19193991Y-21189460D01*
X19193991Y-21189460D02*
X19184467Y-21179936D01*
X19184467Y-21179936D02*
X19174944Y-21160889D01*
X19174944Y-21160889D02*
X19165420Y-21122793D01*
X19165420Y-21122793D02*
X19165420Y-21075174D01*
X19165420Y-21075174D02*
X19174944Y-21037079D01*
X19174944Y-21037079D02*
X19184467Y-21018031D01*
X19184467Y-21018031D02*
X19193991Y-21008508D01*
X19193991Y-21008508D02*
X19213039Y-20998984D01*
X19365420Y-21198984D02*
X19365420Y-21065650D01*
X19365420Y-21084698D02*
X19374944Y-21075174D01*
X19374944Y-21075174D02*
X19393991Y-21065650D01*
X19393991Y-21065650D02*
X19422563Y-21065650D01*
X19422563Y-21065650D02*
X19441610Y-21075174D01*
X19441610Y-21075174D02*
X19451134Y-21094222D01*
X19451134Y-21094222D02*
X19451134Y-21198984D01*
X19451134Y-21094222D02*
X19460658Y-21075174D01*
X19460658Y-21075174D02*
X19479705Y-21065650D01*
X19479705Y-21065650D02*
X19508277Y-21065650D01*
X19508277Y-21065650D02*
X19527325Y-21075174D01*
X19527325Y-21075174D02*
X19536848Y-21094222D01*
X19536848Y-21094222D02*
X19536848Y-21198984D01*
X19632086Y-21198984D02*
X19632086Y-21065650D01*
X19632086Y-21084698D02*
X19641610Y-21075174D01*
X19641610Y-21075174D02*
X19660658Y-21065650D01*
X19660658Y-21065650D02*
X19689229Y-21065650D01*
X19689229Y-21065650D02*
X19708277Y-21075174D01*
X19708277Y-21075174D02*
X19717801Y-21094222D01*
X19717801Y-21094222D02*
X19717801Y-21198984D01*
X19717801Y-21094222D02*
X19727325Y-21075174D01*
X19727325Y-21075174D02*
X19746372Y-21065650D01*
X19746372Y-21065650D02*
X19774944Y-21065650D01*
X19774944Y-21065650D02*
X19793991Y-21075174D01*
X19793991Y-21075174D02*
X19803515Y-21094222D01*
X19803515Y-21094222D02*
X19803515Y-21198984D01*
X20193991Y-20989460D02*
X20022563Y-21246603D01*
X20451134Y-20998984D02*
X20470182Y-20998984D01*
X20470182Y-20998984D02*
X20489229Y-21008508D01*
X20489229Y-21008508D02*
X20498753Y-21018031D01*
X20498753Y-21018031D02*
X20508277Y-21037079D01*
X20508277Y-21037079D02*
X20517801Y-21075174D01*
X20517801Y-21075174D02*
X20517801Y-21122793D01*
X20517801Y-21122793D02*
X20508277Y-21160889D01*
X20508277Y-21160889D02*
X20498753Y-21179936D01*
X20498753Y-21179936D02*
X20489229Y-21189460D01*
X20489229Y-21189460D02*
X20470182Y-21198984D01*
X20470182Y-21198984D02*
X20451134Y-21198984D01*
X20451134Y-21198984D02*
X20432087Y-21189460D01*
X20432087Y-21189460D02*
X20422563Y-21179936D01*
X20422563Y-21179936D02*
X20413039Y-21160889D01*
X20413039Y-21160889D02*
X20403515Y-21122793D01*
X20403515Y-21122793D02*
X20403515Y-21075174D01*
X20403515Y-21075174D02*
X20413039Y-21037079D01*
X20413039Y-21037079D02*
X20422563Y-21018031D01*
X20422563Y-21018031D02*
X20432087Y-21008508D01*
X20432087Y-21008508D02*
X20451134Y-20998984D01*
X20603515Y-21179936D02*
X20613039Y-21189460D01*
X20613039Y-21189460D02*
X20603515Y-21198984D01*
X20603515Y-21198984D02*
X20593991Y-21189460D01*
X20593991Y-21189460D02*
X20603515Y-21179936D01*
X20603515Y-21179936D02*
X20603515Y-21198984D01*
X20736848Y-20998984D02*
X20755896Y-20998984D01*
X20755896Y-20998984D02*
X20774944Y-21008508D01*
X20774944Y-21008508D02*
X20784468Y-21018031D01*
X20784468Y-21018031D02*
X20793991Y-21037079D01*
X20793991Y-21037079D02*
X20803515Y-21075174D01*
X20803515Y-21075174D02*
X20803515Y-21122793D01*
X20803515Y-21122793D02*
X20793991Y-21160889D01*
X20793991Y-21160889D02*
X20784468Y-21179936D01*
X20784468Y-21179936D02*
X20774944Y-21189460D01*
X20774944Y-21189460D02*
X20755896Y-21198984D01*
X20755896Y-21198984D02*
X20736848Y-21198984D01*
X20736848Y-21198984D02*
X20717801Y-21189460D01*
X20717801Y-21189460D02*
X20708277Y-21179936D01*
X20708277Y-21179936D02*
X20698753Y-21160889D01*
X20698753Y-21160889D02*
X20689229Y-21122793D01*
X20689229Y-21122793D02*
X20689229Y-21075174D01*
X20689229Y-21075174D02*
X20698753Y-21037079D01*
X20698753Y-21037079D02*
X20708277Y-21018031D01*
X20708277Y-21018031D02*
X20717801Y-21008508D01*
X20717801Y-21008508D02*
X20736848Y-20998984D01*
X20870182Y-20998984D02*
X21003515Y-20998984D01*
X21003515Y-20998984D02*
X20917801Y-21198984D01*
X21070182Y-21018031D02*
X21079706Y-21008508D01*
X21079706Y-21008508D02*
X21098753Y-20998984D01*
X21098753Y-20998984D02*
X21146372Y-20998984D01*
X21146372Y-20998984D02*
X21165420Y-21008508D01*
X21165420Y-21008508D02*
X21174944Y-21018031D01*
X21174944Y-21018031D02*
X21184468Y-21037079D01*
X21184468Y-21037079D02*
X21184468Y-21056127D01*
X21184468Y-21056127D02*
X21174944Y-21084698D01*
X21174944Y-21084698D02*
X21060658Y-21198984D01*
X21060658Y-21198984D02*
X21184468Y-21198984D01*
X21298753Y-21084698D02*
X21279706Y-21075174D01*
X21279706Y-21075174D02*
X21270182Y-21065650D01*
X21270182Y-21065650D02*
X21260658Y-21046603D01*
X21260658Y-21046603D02*
X21260658Y-21037079D01*
X21260658Y-21037079D02*
X21270182Y-21018031D01*
X21270182Y-21018031D02*
X21279706Y-21008508D01*
X21279706Y-21008508D02*
X21298753Y-20998984D01*
X21298753Y-20998984D02*
X21336849Y-20998984D01*
X21336849Y-20998984D02*
X21355896Y-21008508D01*
X21355896Y-21008508D02*
X21365420Y-21018031D01*
X21365420Y-21018031D02*
X21374944Y-21037079D01*
X21374944Y-21037079D02*
X21374944Y-21046603D01*
X21374944Y-21046603D02*
X21365420Y-21065650D01*
X21365420Y-21065650D02*
X21355896Y-21075174D01*
X21355896Y-21075174D02*
X21336849Y-21084698D01*
X21336849Y-21084698D02*
X21298753Y-21084698D01*
X21298753Y-21084698D02*
X21279706Y-21094222D01*
X21279706Y-21094222D02*
X21270182Y-21103746D01*
X21270182Y-21103746D02*
X21260658Y-21122793D01*
X21260658Y-21122793D02*
X21260658Y-21160889D01*
X21260658Y-21160889D02*
X21270182Y-21179936D01*
X21270182Y-21179936D02*
X21279706Y-21189460D01*
X21279706Y-21189460D02*
X21298753Y-21198984D01*
X21298753Y-21198984D02*
X21336849Y-21198984D01*
X21336849Y-21198984D02*
X21355896Y-21189460D01*
X21355896Y-21189460D02*
X21365420Y-21179936D01*
X21365420Y-21179936D02*
X21374944Y-21160889D01*
X21374944Y-21160889D02*
X21374944Y-21122793D01*
X21374944Y-21122793D02*
X21365420Y-21103746D01*
X21365420Y-21103746D02*
X21355896Y-21094222D01*
X21355896Y-21094222D02*
X21336849Y-21084698D01*
X21451134Y-20998984D02*
X21451134Y-21037079D01*
X21527325Y-20998984D02*
X21527325Y-21037079D01*
X21822563Y-21275174D02*
X21813039Y-21265650D01*
X21813039Y-21265650D02*
X21793991Y-21237079D01*
X21793991Y-21237079D02*
X21784468Y-21218031D01*
X21784468Y-21218031D02*
X21774944Y-21189460D01*
X21774944Y-21189460D02*
X21765420Y-21141841D01*
X21765420Y-21141841D02*
X21765420Y-21103746D01*
X21765420Y-21103746D02*
X21774944Y-21056127D01*
X21774944Y-21056127D02*
X21784468Y-21027555D01*
X21784468Y-21027555D02*
X21793991Y-21008508D01*
X21793991Y-21008508D02*
X21813039Y-20979936D01*
X21813039Y-20979936D02*
X21822563Y-20970412D01*
X21889230Y-21018031D02*
X21898753Y-21008508D01*
X21898753Y-21008508D02*
X21917801Y-20998984D01*
X21917801Y-20998984D02*
X21965420Y-20998984D01*
X21965420Y-20998984D02*
X21984468Y-21008508D01*
X21984468Y-21008508D02*
X21993991Y-21018031D01*
X21993991Y-21018031D02*
X22003515Y-21037079D01*
X22003515Y-21037079D02*
X22003515Y-21056127D01*
X22003515Y-21056127D02*
X21993991Y-21084698D01*
X21993991Y-21084698D02*
X21879706Y-21198984D01*
X21879706Y-21198984D02*
X22003515Y-21198984D01*
X22241611Y-21198984D02*
X22241611Y-20998984D01*
X22327325Y-21198984D02*
X22327325Y-21094222D01*
X22327325Y-21094222D02*
X22317801Y-21075174D01*
X22317801Y-21075174D02*
X22298753Y-21065650D01*
X22298753Y-21065650D02*
X22270182Y-21065650D01*
X22270182Y-21065650D02*
X22251134Y-21075174D01*
X22251134Y-21075174D02*
X22241611Y-21084698D01*
X22451134Y-21198984D02*
X22432087Y-21189460D01*
X22432087Y-21189460D02*
X22422563Y-21179936D01*
X22422563Y-21179936D02*
X22413039Y-21160889D01*
X22413039Y-21160889D02*
X22413039Y-21103746D01*
X22413039Y-21103746D02*
X22422563Y-21084698D01*
X22422563Y-21084698D02*
X22432087Y-21075174D01*
X22432087Y-21075174D02*
X22451134Y-21065650D01*
X22451134Y-21065650D02*
X22479706Y-21065650D01*
X22479706Y-21065650D02*
X22498753Y-21075174D01*
X22498753Y-21075174D02*
X22508277Y-21084698D01*
X22508277Y-21084698D02*
X22517801Y-21103746D01*
X22517801Y-21103746D02*
X22517801Y-21160889D01*
X22517801Y-21160889D02*
X22508277Y-21179936D01*
X22508277Y-21179936D02*
X22498753Y-21189460D01*
X22498753Y-21189460D02*
X22479706Y-21198984D01*
X22479706Y-21198984D02*
X22451134Y-21198984D01*
X22632087Y-21198984D02*
X22613039Y-21189460D01*
X22613039Y-21189460D02*
X22603515Y-21170412D01*
X22603515Y-21170412D02*
X22603515Y-20998984D01*
X22784468Y-21189460D02*
X22765420Y-21198984D01*
X22765420Y-21198984D02*
X22727325Y-21198984D01*
X22727325Y-21198984D02*
X22708277Y-21189460D01*
X22708277Y-21189460D02*
X22698753Y-21170412D01*
X22698753Y-21170412D02*
X22698753Y-21094222D01*
X22698753Y-21094222D02*
X22708277Y-21075174D01*
X22708277Y-21075174D02*
X22727325Y-21065650D01*
X22727325Y-21065650D02*
X22765420Y-21065650D01*
X22765420Y-21065650D02*
X22784468Y-21075174D01*
X22784468Y-21075174D02*
X22793991Y-21094222D01*
X22793991Y-21094222D02*
X22793991Y-21113270D01*
X22793991Y-21113270D02*
X22698753Y-21132317D01*
X22870182Y-21189460D02*
X22889230Y-21198984D01*
X22889230Y-21198984D02*
X22927325Y-21198984D01*
X22927325Y-21198984D02*
X22946372Y-21189460D01*
X22946372Y-21189460D02*
X22955896Y-21170412D01*
X22955896Y-21170412D02*
X22955896Y-21160889D01*
X22955896Y-21160889D02*
X22946372Y-21141841D01*
X22946372Y-21141841D02*
X22927325Y-21132317D01*
X22927325Y-21132317D02*
X22898753Y-21132317D01*
X22898753Y-21132317D02*
X22879706Y-21122793D01*
X22879706Y-21122793D02*
X22870182Y-21103746D01*
X22870182Y-21103746D02*
X22870182Y-21094222D01*
X22870182Y-21094222D02*
X22879706Y-21075174D01*
X22879706Y-21075174D02*
X22898753Y-21065650D01*
X22898753Y-21065650D02*
X22927325Y-21065650D01*
X22927325Y-21065650D02*
X22946372Y-21075174D01*
X23022563Y-21275174D02*
X23032087Y-21265650D01*
X23032087Y-21265650D02*
X23051134Y-21237079D01*
X23051134Y-21237079D02*
X23060658Y-21218031D01*
X23060658Y-21218031D02*
X23070182Y-21189460D01*
X23070182Y-21189460D02*
X23079706Y-21141841D01*
X23079706Y-21141841D02*
X23079706Y-21103746D01*
X23079706Y-21103746D02*
X23070182Y-21056127D01*
X23070182Y-21056127D02*
X23060658Y-21027555D01*
X23060658Y-21027555D02*
X23051134Y-21008508D01*
X23051134Y-21008508D02*
X23032087Y-20979936D01*
X23032087Y-20979936D02*
X23022563Y-20970412D01*
X23384468Y-21275174D02*
X23374944Y-21265650D01*
X23374944Y-21265650D02*
X23355896Y-21237079D01*
X23355896Y-21237079D02*
X23346372Y-21218031D01*
X23346372Y-21218031D02*
X23336849Y-21189460D01*
X23336849Y-21189460D02*
X23327325Y-21141841D01*
X23327325Y-21141841D02*
X23327325Y-21103746D01*
X23327325Y-21103746D02*
X23336849Y-21056127D01*
X23336849Y-21056127D02*
X23346372Y-21027555D01*
X23346372Y-21027555D02*
X23355896Y-21008508D01*
X23355896Y-21008508D02*
X23374944Y-20979936D01*
X23374944Y-20979936D02*
X23384468Y-20970412D01*
X23460658Y-21065650D02*
X23460658Y-21198984D01*
X23460658Y-21084698D02*
X23470182Y-21075174D01*
X23470182Y-21075174D02*
X23489230Y-21065650D01*
X23489230Y-21065650D02*
X23517801Y-21065650D01*
X23517801Y-21065650D02*
X23536849Y-21075174D01*
X23536849Y-21075174D02*
X23546372Y-21094222D01*
X23546372Y-21094222D02*
X23546372Y-21198984D01*
X23670182Y-21198984D02*
X23651134Y-21189460D01*
X23651134Y-21189460D02*
X23641611Y-21179936D01*
X23641611Y-21179936D02*
X23632087Y-21160889D01*
X23632087Y-21160889D02*
X23632087Y-21103746D01*
X23632087Y-21103746D02*
X23641611Y-21084698D01*
X23641611Y-21084698D02*
X23651134Y-21075174D01*
X23651134Y-21075174D02*
X23670182Y-21065650D01*
X23670182Y-21065650D02*
X23698753Y-21065650D01*
X23698753Y-21065650D02*
X23717801Y-21075174D01*
X23717801Y-21075174D02*
X23727325Y-21084698D01*
X23727325Y-21084698D02*
X23736849Y-21103746D01*
X23736849Y-21103746D02*
X23736849Y-21160889D01*
X23736849Y-21160889D02*
X23727325Y-21179936D01*
X23727325Y-21179936D02*
X23717801Y-21189460D01*
X23717801Y-21189460D02*
X23698753Y-21198984D01*
X23698753Y-21198984D02*
X23670182Y-21198984D01*
X23793992Y-21065650D02*
X23870182Y-21065650D01*
X23822563Y-20998984D02*
X23822563Y-21170412D01*
X23822563Y-21170412D02*
X23832087Y-21189460D01*
X23832087Y-21189460D02*
X23851134Y-21198984D01*
X23851134Y-21198984D02*
X23870182Y-21198984D01*
X24089230Y-21065650D02*
X24089230Y-21265650D01*
X24089230Y-21075174D02*
X24108277Y-21065650D01*
X24108277Y-21065650D02*
X24146373Y-21065650D01*
X24146373Y-21065650D02*
X24165420Y-21075174D01*
X24165420Y-21075174D02*
X24174944Y-21084698D01*
X24174944Y-21084698D02*
X24184468Y-21103746D01*
X24184468Y-21103746D02*
X24184468Y-21160889D01*
X24184468Y-21160889D02*
X24174944Y-21179936D01*
X24174944Y-21179936D02*
X24165420Y-21189460D01*
X24165420Y-21189460D02*
X24146373Y-21198984D01*
X24146373Y-21198984D02*
X24108277Y-21198984D01*
X24108277Y-21198984D02*
X24089230Y-21189460D01*
X24298753Y-21198984D02*
X24279706Y-21189460D01*
X24279706Y-21189460D02*
X24270182Y-21170412D01*
X24270182Y-21170412D02*
X24270182Y-20998984D01*
X24460658Y-21198984D02*
X24460658Y-21094222D01*
X24460658Y-21094222D02*
X24451134Y-21075174D01*
X24451134Y-21075174D02*
X24432087Y-21065650D01*
X24432087Y-21065650D02*
X24393992Y-21065650D01*
X24393992Y-21065650D02*
X24374944Y-21075174D01*
X24460658Y-21189460D02*
X24441611Y-21198984D01*
X24441611Y-21198984D02*
X24393992Y-21198984D01*
X24393992Y-21198984D02*
X24374944Y-21189460D01*
X24374944Y-21189460D02*
X24365420Y-21170412D01*
X24365420Y-21170412D02*
X24365420Y-21151365D01*
X24365420Y-21151365D02*
X24374944Y-21132317D01*
X24374944Y-21132317D02*
X24393992Y-21122793D01*
X24393992Y-21122793D02*
X24441611Y-21122793D01*
X24441611Y-21122793D02*
X24460658Y-21113270D01*
X24527325Y-21065650D02*
X24603515Y-21065650D01*
X24555896Y-20998984D02*
X24555896Y-21170412D01*
X24555896Y-21170412D02*
X24565420Y-21189460D01*
X24565420Y-21189460D02*
X24584468Y-21198984D01*
X24584468Y-21198984D02*
X24603515Y-21198984D01*
X24746373Y-21189460D02*
X24727325Y-21198984D01*
X24727325Y-21198984D02*
X24689230Y-21198984D01*
X24689230Y-21198984D02*
X24670182Y-21189460D01*
X24670182Y-21189460D02*
X24660658Y-21170412D01*
X24660658Y-21170412D02*
X24660658Y-21094222D01*
X24660658Y-21094222D02*
X24670182Y-21075174D01*
X24670182Y-21075174D02*
X24689230Y-21065650D01*
X24689230Y-21065650D02*
X24727325Y-21065650D01*
X24727325Y-21065650D02*
X24746373Y-21075174D01*
X24746373Y-21075174D02*
X24755896Y-21094222D01*
X24755896Y-21094222D02*
X24755896Y-21113270D01*
X24755896Y-21113270D02*
X24660658Y-21132317D01*
X24927325Y-21198984D02*
X24927325Y-20998984D01*
X24927325Y-21189460D02*
X24908277Y-21198984D01*
X24908277Y-21198984D02*
X24870182Y-21198984D01*
X24870182Y-21198984D02*
X24851134Y-21189460D01*
X24851134Y-21189460D02*
X24841611Y-21179936D01*
X24841611Y-21179936D02*
X24832087Y-21160889D01*
X24832087Y-21160889D02*
X24832087Y-21103746D01*
X24832087Y-21103746D02*
X24841611Y-21084698D01*
X24841611Y-21084698D02*
X24851134Y-21075174D01*
X24851134Y-21075174D02*
X24870182Y-21065650D01*
X24870182Y-21065650D02*
X24908277Y-21065650D01*
X24908277Y-21065650D02*
X24927325Y-21075174D01*
X25003515Y-21275174D02*
X25013039Y-21265650D01*
X25013039Y-21265650D02*
X25032087Y-21237079D01*
X25032087Y-21237079D02*
X25041611Y-21218031D01*
X25041611Y-21218031D02*
X25051134Y-21189460D01*
X25051134Y-21189460D02*
X25060658Y-21141841D01*
X25060658Y-21141841D02*
X25060658Y-21103746D01*
X25060658Y-21103746D02*
X25051134Y-21056127D01*
X25051134Y-21056127D02*
X25041611Y-21027555D01*
X25041611Y-21027555D02*
X25032087Y-21008508D01*
X25032087Y-21008508D02*
X25013039Y-20979936D01*
X25013039Y-20979936D02*
X25003515Y-20970412D01*
X18147500Y-21312500D02*
X18147500Y-21512500D01*
X18047500Y-21412500D02*
X18247500Y-21412500D01*
X18498753Y-21323031D02*
X18508277Y-21313508D01*
X18508277Y-21313508D02*
X18527324Y-21303984D01*
X18527324Y-21303984D02*
X18574944Y-21303984D01*
X18574944Y-21303984D02*
X18593991Y-21313508D01*
X18593991Y-21313508D02*
X18603515Y-21323031D01*
X18603515Y-21323031D02*
X18613039Y-21342079D01*
X18613039Y-21342079D02*
X18613039Y-21361127D01*
X18613039Y-21361127D02*
X18603515Y-21389698D01*
X18603515Y-21389698D02*
X18489229Y-21503984D01*
X18489229Y-21503984D02*
X18613039Y-21503984D01*
X18698753Y-21484936D02*
X18708277Y-21494460D01*
X18708277Y-21494460D02*
X18698753Y-21503984D01*
X18698753Y-21503984D02*
X18689229Y-21494460D01*
X18689229Y-21494460D02*
X18698753Y-21484936D01*
X18698753Y-21484936D02*
X18698753Y-21503984D01*
X18898753Y-21503984D02*
X18784467Y-21503984D01*
X18841610Y-21503984D02*
X18841610Y-21303984D01*
X18841610Y-21303984D02*
X18822563Y-21332555D01*
X18822563Y-21332555D02*
X18803515Y-21351603D01*
X18803515Y-21351603D02*
X18784467Y-21361127D01*
X19022563Y-21303984D02*
X19041610Y-21303984D01*
X19041610Y-21303984D02*
X19060658Y-21313508D01*
X19060658Y-21313508D02*
X19070182Y-21323031D01*
X19070182Y-21323031D02*
X19079705Y-21342079D01*
X19079705Y-21342079D02*
X19089229Y-21380174D01*
X19089229Y-21380174D02*
X19089229Y-21427793D01*
X19089229Y-21427793D02*
X19079705Y-21465889D01*
X19079705Y-21465889D02*
X19070182Y-21484936D01*
X19070182Y-21484936D02*
X19060658Y-21494460D01*
X19060658Y-21494460D02*
X19041610Y-21503984D01*
X19041610Y-21503984D02*
X19022563Y-21503984D01*
X19022563Y-21503984D02*
X19003515Y-21494460D01*
X19003515Y-21494460D02*
X18993991Y-21484936D01*
X18993991Y-21484936D02*
X18984467Y-21465889D01*
X18984467Y-21465889D02*
X18974944Y-21427793D01*
X18974944Y-21427793D02*
X18974944Y-21380174D01*
X18974944Y-21380174D02*
X18984467Y-21342079D01*
X18984467Y-21342079D02*
X18993991Y-21323031D01*
X18993991Y-21323031D02*
X19003515Y-21313508D01*
X19003515Y-21313508D02*
X19022563Y-21303984D01*
X19213039Y-21303984D02*
X19232086Y-21303984D01*
X19232086Y-21303984D02*
X19251134Y-21313508D01*
X19251134Y-21313508D02*
X19260658Y-21323031D01*
X19260658Y-21323031D02*
X19270182Y-21342079D01*
X19270182Y-21342079D02*
X19279705Y-21380174D01*
X19279705Y-21380174D02*
X19279705Y-21427793D01*
X19279705Y-21427793D02*
X19270182Y-21465889D01*
X19270182Y-21465889D02*
X19260658Y-21484936D01*
X19260658Y-21484936D02*
X19251134Y-21494460D01*
X19251134Y-21494460D02*
X19232086Y-21503984D01*
X19232086Y-21503984D02*
X19213039Y-21503984D01*
X19213039Y-21503984D02*
X19193991Y-21494460D01*
X19193991Y-21494460D02*
X19184467Y-21484936D01*
X19184467Y-21484936D02*
X19174944Y-21465889D01*
X19174944Y-21465889D02*
X19165420Y-21427793D01*
X19165420Y-21427793D02*
X19165420Y-21380174D01*
X19165420Y-21380174D02*
X19174944Y-21342079D01*
X19174944Y-21342079D02*
X19184467Y-21323031D01*
X19184467Y-21323031D02*
X19193991Y-21313508D01*
X19193991Y-21313508D02*
X19213039Y-21303984D01*
X19365420Y-21503984D02*
X19365420Y-21370650D01*
X19365420Y-21389698D02*
X19374944Y-21380174D01*
X19374944Y-21380174D02*
X19393991Y-21370650D01*
X19393991Y-21370650D02*
X19422563Y-21370650D01*
X19422563Y-21370650D02*
X19441610Y-21380174D01*
X19441610Y-21380174D02*
X19451134Y-21399222D01*
X19451134Y-21399222D02*
X19451134Y-21503984D01*
X19451134Y-21399222D02*
X19460658Y-21380174D01*
X19460658Y-21380174D02*
X19479705Y-21370650D01*
X19479705Y-21370650D02*
X19508277Y-21370650D01*
X19508277Y-21370650D02*
X19527325Y-21380174D01*
X19527325Y-21380174D02*
X19536848Y-21399222D01*
X19536848Y-21399222D02*
X19536848Y-21503984D01*
X19632086Y-21503984D02*
X19632086Y-21370650D01*
X19632086Y-21389698D02*
X19641610Y-21380174D01*
X19641610Y-21380174D02*
X19660658Y-21370650D01*
X19660658Y-21370650D02*
X19689229Y-21370650D01*
X19689229Y-21370650D02*
X19708277Y-21380174D01*
X19708277Y-21380174D02*
X19717801Y-21399222D01*
X19717801Y-21399222D02*
X19717801Y-21503984D01*
X19717801Y-21399222D02*
X19727325Y-21380174D01*
X19727325Y-21380174D02*
X19746372Y-21370650D01*
X19746372Y-21370650D02*
X19774944Y-21370650D01*
X19774944Y-21370650D02*
X19793991Y-21380174D01*
X19793991Y-21380174D02*
X19803515Y-21399222D01*
X19803515Y-21399222D02*
X19803515Y-21503984D01*
X20193991Y-21294460D02*
X20022563Y-21551603D01*
X20451134Y-21303984D02*
X20470182Y-21303984D01*
X20470182Y-21303984D02*
X20489229Y-21313508D01*
X20489229Y-21313508D02*
X20498753Y-21323031D01*
X20498753Y-21323031D02*
X20508277Y-21342079D01*
X20508277Y-21342079D02*
X20517801Y-21380174D01*
X20517801Y-21380174D02*
X20517801Y-21427793D01*
X20517801Y-21427793D02*
X20508277Y-21465889D01*
X20508277Y-21465889D02*
X20498753Y-21484936D01*
X20498753Y-21484936D02*
X20489229Y-21494460D01*
X20489229Y-21494460D02*
X20470182Y-21503984D01*
X20470182Y-21503984D02*
X20451134Y-21503984D01*
X20451134Y-21503984D02*
X20432087Y-21494460D01*
X20432087Y-21494460D02*
X20422563Y-21484936D01*
X20422563Y-21484936D02*
X20413039Y-21465889D01*
X20413039Y-21465889D02*
X20403515Y-21427793D01*
X20403515Y-21427793D02*
X20403515Y-21380174D01*
X20403515Y-21380174D02*
X20413039Y-21342079D01*
X20413039Y-21342079D02*
X20422563Y-21323031D01*
X20422563Y-21323031D02*
X20432087Y-21313508D01*
X20432087Y-21313508D02*
X20451134Y-21303984D01*
X20603515Y-21484936D02*
X20613039Y-21494460D01*
X20613039Y-21494460D02*
X20603515Y-21503984D01*
X20603515Y-21503984D02*
X20593991Y-21494460D01*
X20593991Y-21494460D02*
X20603515Y-21484936D01*
X20603515Y-21484936D02*
X20603515Y-21503984D01*
X20736848Y-21303984D02*
X20755896Y-21303984D01*
X20755896Y-21303984D02*
X20774944Y-21313508D01*
X20774944Y-21313508D02*
X20784468Y-21323031D01*
X20784468Y-21323031D02*
X20793991Y-21342079D01*
X20793991Y-21342079D02*
X20803515Y-21380174D01*
X20803515Y-21380174D02*
X20803515Y-21427793D01*
X20803515Y-21427793D02*
X20793991Y-21465889D01*
X20793991Y-21465889D02*
X20784468Y-21484936D01*
X20784468Y-21484936D02*
X20774944Y-21494460D01*
X20774944Y-21494460D02*
X20755896Y-21503984D01*
X20755896Y-21503984D02*
X20736848Y-21503984D01*
X20736848Y-21503984D02*
X20717801Y-21494460D01*
X20717801Y-21494460D02*
X20708277Y-21484936D01*
X20708277Y-21484936D02*
X20698753Y-21465889D01*
X20698753Y-21465889D02*
X20689229Y-21427793D01*
X20689229Y-21427793D02*
X20689229Y-21380174D01*
X20689229Y-21380174D02*
X20698753Y-21342079D01*
X20698753Y-21342079D02*
X20708277Y-21323031D01*
X20708277Y-21323031D02*
X20717801Y-21313508D01*
X20717801Y-21313508D02*
X20736848Y-21303984D01*
X20917801Y-21389698D02*
X20898753Y-21380174D01*
X20898753Y-21380174D02*
X20889229Y-21370650D01*
X20889229Y-21370650D02*
X20879706Y-21351603D01*
X20879706Y-21351603D02*
X20879706Y-21342079D01*
X20879706Y-21342079D02*
X20889229Y-21323031D01*
X20889229Y-21323031D02*
X20898753Y-21313508D01*
X20898753Y-21313508D02*
X20917801Y-21303984D01*
X20917801Y-21303984D02*
X20955896Y-21303984D01*
X20955896Y-21303984D02*
X20974944Y-21313508D01*
X20974944Y-21313508D02*
X20984468Y-21323031D01*
X20984468Y-21323031D02*
X20993991Y-21342079D01*
X20993991Y-21342079D02*
X20993991Y-21351603D01*
X20993991Y-21351603D02*
X20984468Y-21370650D01*
X20984468Y-21370650D02*
X20974944Y-21380174D01*
X20974944Y-21380174D02*
X20955896Y-21389698D01*
X20955896Y-21389698D02*
X20917801Y-21389698D01*
X20917801Y-21389698D02*
X20898753Y-21399222D01*
X20898753Y-21399222D02*
X20889229Y-21408746D01*
X20889229Y-21408746D02*
X20879706Y-21427793D01*
X20879706Y-21427793D02*
X20879706Y-21465889D01*
X20879706Y-21465889D02*
X20889229Y-21484936D01*
X20889229Y-21484936D02*
X20898753Y-21494460D01*
X20898753Y-21494460D02*
X20917801Y-21503984D01*
X20917801Y-21503984D02*
X20955896Y-21503984D01*
X20955896Y-21503984D02*
X20974944Y-21494460D01*
X20974944Y-21494460D02*
X20984468Y-21484936D01*
X20984468Y-21484936D02*
X20993991Y-21465889D01*
X20993991Y-21465889D02*
X20993991Y-21427793D01*
X20993991Y-21427793D02*
X20984468Y-21408746D01*
X20984468Y-21408746D02*
X20974944Y-21399222D01*
X20974944Y-21399222D02*
X20955896Y-21389698D01*
X21070182Y-21323031D02*
X21079706Y-21313508D01*
X21079706Y-21313508D02*
X21098753Y-21303984D01*
X21098753Y-21303984D02*
X21146372Y-21303984D01*
X21146372Y-21303984D02*
X21165420Y-21313508D01*
X21165420Y-21313508D02*
X21174944Y-21323031D01*
X21174944Y-21323031D02*
X21184468Y-21342079D01*
X21184468Y-21342079D02*
X21184468Y-21361127D01*
X21184468Y-21361127D02*
X21174944Y-21389698D01*
X21174944Y-21389698D02*
X21060658Y-21503984D01*
X21060658Y-21503984D02*
X21184468Y-21503984D01*
X21251134Y-21303984D02*
X21384468Y-21303984D01*
X21384468Y-21303984D02*
X21298753Y-21503984D01*
X21451134Y-21303984D02*
X21451134Y-21342079D01*
X21527325Y-21303984D02*
X21527325Y-21342079D01*
X21822563Y-21580174D02*
X21813039Y-21570650D01*
X21813039Y-21570650D02*
X21793991Y-21542079D01*
X21793991Y-21542079D02*
X21784468Y-21523031D01*
X21784468Y-21523031D02*
X21774944Y-21494460D01*
X21774944Y-21494460D02*
X21765420Y-21446841D01*
X21765420Y-21446841D02*
X21765420Y-21408746D01*
X21765420Y-21408746D02*
X21774944Y-21361127D01*
X21774944Y-21361127D02*
X21784468Y-21332555D01*
X21784468Y-21332555D02*
X21793991Y-21313508D01*
X21793991Y-21313508D02*
X21813039Y-21284936D01*
X21813039Y-21284936D02*
X21822563Y-21275412D01*
X21984468Y-21370650D02*
X21984468Y-21503984D01*
X21936849Y-21294460D02*
X21889230Y-21437317D01*
X21889230Y-21437317D02*
X22013039Y-21437317D01*
X22241611Y-21503984D02*
X22241611Y-21303984D01*
X22327325Y-21503984D02*
X22327325Y-21399222D01*
X22327325Y-21399222D02*
X22317801Y-21380174D01*
X22317801Y-21380174D02*
X22298753Y-21370650D01*
X22298753Y-21370650D02*
X22270182Y-21370650D01*
X22270182Y-21370650D02*
X22251134Y-21380174D01*
X22251134Y-21380174D02*
X22241611Y-21389698D01*
X22451134Y-21503984D02*
X22432087Y-21494460D01*
X22432087Y-21494460D02*
X22422563Y-21484936D01*
X22422563Y-21484936D02*
X22413039Y-21465889D01*
X22413039Y-21465889D02*
X22413039Y-21408746D01*
X22413039Y-21408746D02*
X22422563Y-21389698D01*
X22422563Y-21389698D02*
X22432087Y-21380174D01*
X22432087Y-21380174D02*
X22451134Y-21370650D01*
X22451134Y-21370650D02*
X22479706Y-21370650D01*
X22479706Y-21370650D02*
X22498753Y-21380174D01*
X22498753Y-21380174D02*
X22508277Y-21389698D01*
X22508277Y-21389698D02*
X22517801Y-21408746D01*
X22517801Y-21408746D02*
X22517801Y-21465889D01*
X22517801Y-21465889D02*
X22508277Y-21484936D01*
X22508277Y-21484936D02*
X22498753Y-21494460D01*
X22498753Y-21494460D02*
X22479706Y-21503984D01*
X22479706Y-21503984D02*
X22451134Y-21503984D01*
X22632087Y-21503984D02*
X22613039Y-21494460D01*
X22613039Y-21494460D02*
X22603515Y-21475412D01*
X22603515Y-21475412D02*
X22603515Y-21303984D01*
X22784468Y-21494460D02*
X22765420Y-21503984D01*
X22765420Y-21503984D02*
X22727325Y-21503984D01*
X22727325Y-21503984D02*
X22708277Y-21494460D01*
X22708277Y-21494460D02*
X22698753Y-21475412D01*
X22698753Y-21475412D02*
X22698753Y-21399222D01*
X22698753Y-21399222D02*
X22708277Y-21380174D01*
X22708277Y-21380174D02*
X22727325Y-21370650D01*
X22727325Y-21370650D02*
X22765420Y-21370650D01*
X22765420Y-21370650D02*
X22784468Y-21380174D01*
X22784468Y-21380174D02*
X22793991Y-21399222D01*
X22793991Y-21399222D02*
X22793991Y-21418270D01*
X22793991Y-21418270D02*
X22698753Y-21437317D01*
X22870182Y-21494460D02*
X22889230Y-21503984D01*
X22889230Y-21503984D02*
X22927325Y-21503984D01*
X22927325Y-21503984D02*
X22946372Y-21494460D01*
X22946372Y-21494460D02*
X22955896Y-21475412D01*
X22955896Y-21475412D02*
X22955896Y-21465889D01*
X22955896Y-21465889D02*
X22946372Y-21446841D01*
X22946372Y-21446841D02*
X22927325Y-21437317D01*
X22927325Y-21437317D02*
X22898753Y-21437317D01*
X22898753Y-21437317D02*
X22879706Y-21427793D01*
X22879706Y-21427793D02*
X22870182Y-21408746D01*
X22870182Y-21408746D02*
X22870182Y-21399222D01*
X22870182Y-21399222D02*
X22879706Y-21380174D01*
X22879706Y-21380174D02*
X22898753Y-21370650D01*
X22898753Y-21370650D02*
X22927325Y-21370650D01*
X22927325Y-21370650D02*
X22946372Y-21380174D01*
X23022563Y-21580174D02*
X23032087Y-21570650D01*
X23032087Y-21570650D02*
X23051134Y-21542079D01*
X23051134Y-21542079D02*
X23060658Y-21523031D01*
X23060658Y-21523031D02*
X23070182Y-21494460D01*
X23070182Y-21494460D02*
X23079706Y-21446841D01*
X23079706Y-21446841D02*
X23079706Y-21408746D01*
X23079706Y-21408746D02*
X23070182Y-21361127D01*
X23070182Y-21361127D02*
X23060658Y-21332555D01*
X23060658Y-21332555D02*
X23051134Y-21313508D01*
X23051134Y-21313508D02*
X23032087Y-21284936D01*
X23032087Y-21284936D02*
X23022563Y-21275412D01*
X23384468Y-21580174D02*
X23374944Y-21570650D01*
X23374944Y-21570650D02*
X23355896Y-21542079D01*
X23355896Y-21542079D02*
X23346372Y-21523031D01*
X23346372Y-21523031D02*
X23336849Y-21494460D01*
X23336849Y-21494460D02*
X23327325Y-21446841D01*
X23327325Y-21446841D02*
X23327325Y-21408746D01*
X23327325Y-21408746D02*
X23336849Y-21361127D01*
X23336849Y-21361127D02*
X23346372Y-21332555D01*
X23346372Y-21332555D02*
X23355896Y-21313508D01*
X23355896Y-21313508D02*
X23374944Y-21284936D01*
X23374944Y-21284936D02*
X23384468Y-21275412D01*
X23460658Y-21370650D02*
X23460658Y-21503984D01*
X23460658Y-21389698D02*
X23470182Y-21380174D01*
X23470182Y-21380174D02*
X23489230Y-21370650D01*
X23489230Y-21370650D02*
X23517801Y-21370650D01*
X23517801Y-21370650D02*
X23536849Y-21380174D01*
X23536849Y-21380174D02*
X23546372Y-21399222D01*
X23546372Y-21399222D02*
X23546372Y-21503984D01*
X23670182Y-21503984D02*
X23651134Y-21494460D01*
X23651134Y-21494460D02*
X23641611Y-21484936D01*
X23641611Y-21484936D02*
X23632087Y-21465889D01*
X23632087Y-21465889D02*
X23632087Y-21408746D01*
X23632087Y-21408746D02*
X23641611Y-21389698D01*
X23641611Y-21389698D02*
X23651134Y-21380174D01*
X23651134Y-21380174D02*
X23670182Y-21370650D01*
X23670182Y-21370650D02*
X23698753Y-21370650D01*
X23698753Y-21370650D02*
X23717801Y-21380174D01*
X23717801Y-21380174D02*
X23727325Y-21389698D01*
X23727325Y-21389698D02*
X23736849Y-21408746D01*
X23736849Y-21408746D02*
X23736849Y-21465889D01*
X23736849Y-21465889D02*
X23727325Y-21484936D01*
X23727325Y-21484936D02*
X23717801Y-21494460D01*
X23717801Y-21494460D02*
X23698753Y-21503984D01*
X23698753Y-21503984D02*
X23670182Y-21503984D01*
X23793992Y-21370650D02*
X23870182Y-21370650D01*
X23822563Y-21303984D02*
X23822563Y-21475412D01*
X23822563Y-21475412D02*
X23832087Y-21494460D01*
X23832087Y-21494460D02*
X23851134Y-21503984D01*
X23851134Y-21503984D02*
X23870182Y-21503984D01*
X24089230Y-21370650D02*
X24089230Y-21570650D01*
X24089230Y-21380174D02*
X24108277Y-21370650D01*
X24108277Y-21370650D02*
X24146373Y-21370650D01*
X24146373Y-21370650D02*
X24165420Y-21380174D01*
X24165420Y-21380174D02*
X24174944Y-21389698D01*
X24174944Y-21389698D02*
X24184468Y-21408746D01*
X24184468Y-21408746D02*
X24184468Y-21465889D01*
X24184468Y-21465889D02*
X24174944Y-21484936D01*
X24174944Y-21484936D02*
X24165420Y-21494460D01*
X24165420Y-21494460D02*
X24146373Y-21503984D01*
X24146373Y-21503984D02*
X24108277Y-21503984D01*
X24108277Y-21503984D02*
X24089230Y-21494460D01*
X24298753Y-21503984D02*
X24279706Y-21494460D01*
X24279706Y-21494460D02*
X24270182Y-21475412D01*
X24270182Y-21475412D02*
X24270182Y-21303984D01*
X24460658Y-21503984D02*
X24460658Y-21399222D01*
X24460658Y-21399222D02*
X24451134Y-21380174D01*
X24451134Y-21380174D02*
X24432087Y-21370650D01*
X24432087Y-21370650D02*
X24393992Y-21370650D01*
X24393992Y-21370650D02*
X24374944Y-21380174D01*
X24460658Y-21494460D02*
X24441611Y-21503984D01*
X24441611Y-21503984D02*
X24393992Y-21503984D01*
X24393992Y-21503984D02*
X24374944Y-21494460D01*
X24374944Y-21494460D02*
X24365420Y-21475412D01*
X24365420Y-21475412D02*
X24365420Y-21456365D01*
X24365420Y-21456365D02*
X24374944Y-21437317D01*
X24374944Y-21437317D02*
X24393992Y-21427793D01*
X24393992Y-21427793D02*
X24441611Y-21427793D01*
X24441611Y-21427793D02*
X24460658Y-21418270D01*
X24527325Y-21370650D02*
X24603515Y-21370650D01*
X24555896Y-21303984D02*
X24555896Y-21475412D01*
X24555896Y-21475412D02*
X24565420Y-21494460D01*
X24565420Y-21494460D02*
X24584468Y-21503984D01*
X24584468Y-21503984D02*
X24603515Y-21503984D01*
X24746373Y-21494460D02*
X24727325Y-21503984D01*
X24727325Y-21503984D02*
X24689230Y-21503984D01*
X24689230Y-21503984D02*
X24670182Y-21494460D01*
X24670182Y-21494460D02*
X24660658Y-21475412D01*
X24660658Y-21475412D02*
X24660658Y-21399222D01*
X24660658Y-21399222D02*
X24670182Y-21380174D01*
X24670182Y-21380174D02*
X24689230Y-21370650D01*
X24689230Y-21370650D02*
X24727325Y-21370650D01*
X24727325Y-21370650D02*
X24746373Y-21380174D01*
X24746373Y-21380174D02*
X24755896Y-21399222D01*
X24755896Y-21399222D02*
X24755896Y-21418270D01*
X24755896Y-21418270D02*
X24660658Y-21437317D01*
X24927325Y-21503984D02*
X24927325Y-21303984D01*
X24927325Y-21494460D02*
X24908277Y-21503984D01*
X24908277Y-21503984D02*
X24870182Y-21503984D01*
X24870182Y-21503984D02*
X24851134Y-21494460D01*
X24851134Y-21494460D02*
X24841611Y-21484936D01*
X24841611Y-21484936D02*
X24832087Y-21465889D01*
X24832087Y-21465889D02*
X24832087Y-21408746D01*
X24832087Y-21408746D02*
X24841611Y-21389698D01*
X24841611Y-21389698D02*
X24851134Y-21380174D01*
X24851134Y-21380174D02*
X24870182Y-21370650D01*
X24870182Y-21370650D02*
X24908277Y-21370650D01*
X24908277Y-21370650D02*
X24927325Y-21380174D01*
X25003515Y-21580174D02*
X25013039Y-21570650D01*
X25013039Y-21570650D02*
X25032087Y-21542079D01*
X25032087Y-21542079D02*
X25041611Y-21523031D01*
X25041611Y-21523031D02*
X25051134Y-21494460D01*
X25051134Y-21494460D02*
X25060658Y-21446841D01*
X25060658Y-21446841D02*
X25060658Y-21408746D01*
X25060658Y-21408746D02*
X25051134Y-21361127D01*
X25051134Y-21361127D02*
X25041611Y-21332555D01*
X25041611Y-21332555D02*
X25032087Y-21313508D01*
X25032087Y-21313508D02*
X25013039Y-21284936D01*
X25013039Y-21284936D02*
X25003515Y-21275412D01*
X18218211Y-21803211D02*
X18218211Y-21661789D01*
X18076789Y-21661789D01*
X18076789Y-21803211D01*
X18218211Y-21803211D01*
X18498753Y-21643031D02*
X18508277Y-21633508D01*
X18508277Y-21633508D02*
X18527324Y-21623984D01*
X18527324Y-21623984D02*
X18574944Y-21623984D01*
X18574944Y-21623984D02*
X18593991Y-21633508D01*
X18593991Y-21633508D02*
X18603515Y-21643031D01*
X18603515Y-21643031D02*
X18613039Y-21662079D01*
X18613039Y-21662079D02*
X18613039Y-21681127D01*
X18613039Y-21681127D02*
X18603515Y-21709698D01*
X18603515Y-21709698D02*
X18489229Y-21823984D01*
X18489229Y-21823984D02*
X18613039Y-21823984D01*
X18698753Y-21804936D02*
X18708277Y-21814460D01*
X18708277Y-21814460D02*
X18698753Y-21823984D01*
X18698753Y-21823984D02*
X18689229Y-21814460D01*
X18689229Y-21814460D02*
X18698753Y-21804936D01*
X18698753Y-21804936D02*
X18698753Y-21823984D01*
X18784467Y-21643031D02*
X18793991Y-21633508D01*
X18793991Y-21633508D02*
X18813039Y-21623984D01*
X18813039Y-21623984D02*
X18860658Y-21623984D01*
X18860658Y-21623984D02*
X18879705Y-21633508D01*
X18879705Y-21633508D02*
X18889229Y-21643031D01*
X18889229Y-21643031D02*
X18898753Y-21662079D01*
X18898753Y-21662079D02*
X18898753Y-21681127D01*
X18898753Y-21681127D02*
X18889229Y-21709698D01*
X18889229Y-21709698D02*
X18774944Y-21823984D01*
X18774944Y-21823984D02*
X18898753Y-21823984D01*
X19022563Y-21623984D02*
X19041610Y-21623984D01*
X19041610Y-21623984D02*
X19060658Y-21633508D01*
X19060658Y-21633508D02*
X19070182Y-21643031D01*
X19070182Y-21643031D02*
X19079705Y-21662079D01*
X19079705Y-21662079D02*
X19089229Y-21700174D01*
X19089229Y-21700174D02*
X19089229Y-21747793D01*
X19089229Y-21747793D02*
X19079705Y-21785889D01*
X19079705Y-21785889D02*
X19070182Y-21804936D01*
X19070182Y-21804936D02*
X19060658Y-21814460D01*
X19060658Y-21814460D02*
X19041610Y-21823984D01*
X19041610Y-21823984D02*
X19022563Y-21823984D01*
X19022563Y-21823984D02*
X19003515Y-21814460D01*
X19003515Y-21814460D02*
X18993991Y-21804936D01*
X18993991Y-21804936D02*
X18984467Y-21785889D01*
X18984467Y-21785889D02*
X18974944Y-21747793D01*
X18974944Y-21747793D02*
X18974944Y-21700174D01*
X18974944Y-21700174D02*
X18984467Y-21662079D01*
X18984467Y-21662079D02*
X18993991Y-21643031D01*
X18993991Y-21643031D02*
X19003515Y-21633508D01*
X19003515Y-21633508D02*
X19022563Y-21623984D01*
X19213039Y-21623984D02*
X19232086Y-21623984D01*
X19232086Y-21623984D02*
X19251134Y-21633508D01*
X19251134Y-21633508D02*
X19260658Y-21643031D01*
X19260658Y-21643031D02*
X19270182Y-21662079D01*
X19270182Y-21662079D02*
X19279705Y-21700174D01*
X19279705Y-21700174D02*
X19279705Y-21747793D01*
X19279705Y-21747793D02*
X19270182Y-21785889D01*
X19270182Y-21785889D02*
X19260658Y-21804936D01*
X19260658Y-21804936D02*
X19251134Y-21814460D01*
X19251134Y-21814460D02*
X19232086Y-21823984D01*
X19232086Y-21823984D02*
X19213039Y-21823984D01*
X19213039Y-21823984D02*
X19193991Y-21814460D01*
X19193991Y-21814460D02*
X19184467Y-21804936D01*
X19184467Y-21804936D02*
X19174944Y-21785889D01*
X19174944Y-21785889D02*
X19165420Y-21747793D01*
X19165420Y-21747793D02*
X19165420Y-21700174D01*
X19165420Y-21700174D02*
X19174944Y-21662079D01*
X19174944Y-21662079D02*
X19184467Y-21643031D01*
X19184467Y-21643031D02*
X19193991Y-21633508D01*
X19193991Y-21633508D02*
X19213039Y-21623984D01*
X19365420Y-21823984D02*
X19365420Y-21690650D01*
X19365420Y-21709698D02*
X19374944Y-21700174D01*
X19374944Y-21700174D02*
X19393991Y-21690650D01*
X19393991Y-21690650D02*
X19422563Y-21690650D01*
X19422563Y-21690650D02*
X19441610Y-21700174D01*
X19441610Y-21700174D02*
X19451134Y-21719222D01*
X19451134Y-21719222D02*
X19451134Y-21823984D01*
X19451134Y-21719222D02*
X19460658Y-21700174D01*
X19460658Y-21700174D02*
X19479705Y-21690650D01*
X19479705Y-21690650D02*
X19508277Y-21690650D01*
X19508277Y-21690650D02*
X19527325Y-21700174D01*
X19527325Y-21700174D02*
X19536848Y-21719222D01*
X19536848Y-21719222D02*
X19536848Y-21823984D01*
X19632086Y-21823984D02*
X19632086Y-21690650D01*
X19632086Y-21709698D02*
X19641610Y-21700174D01*
X19641610Y-21700174D02*
X19660658Y-21690650D01*
X19660658Y-21690650D02*
X19689229Y-21690650D01*
X19689229Y-21690650D02*
X19708277Y-21700174D01*
X19708277Y-21700174D02*
X19717801Y-21719222D01*
X19717801Y-21719222D02*
X19717801Y-21823984D01*
X19717801Y-21719222D02*
X19727325Y-21700174D01*
X19727325Y-21700174D02*
X19746372Y-21690650D01*
X19746372Y-21690650D02*
X19774944Y-21690650D01*
X19774944Y-21690650D02*
X19793991Y-21700174D01*
X19793991Y-21700174D02*
X19803515Y-21719222D01*
X19803515Y-21719222D02*
X19803515Y-21823984D01*
X20193991Y-21614460D02*
X20022563Y-21871603D01*
X20451134Y-21623984D02*
X20470182Y-21623984D01*
X20470182Y-21623984D02*
X20489229Y-21633508D01*
X20489229Y-21633508D02*
X20498753Y-21643031D01*
X20498753Y-21643031D02*
X20508277Y-21662079D01*
X20508277Y-21662079D02*
X20517801Y-21700174D01*
X20517801Y-21700174D02*
X20517801Y-21747793D01*
X20517801Y-21747793D02*
X20508277Y-21785889D01*
X20508277Y-21785889D02*
X20498753Y-21804936D01*
X20498753Y-21804936D02*
X20489229Y-21814460D01*
X20489229Y-21814460D02*
X20470182Y-21823984D01*
X20470182Y-21823984D02*
X20451134Y-21823984D01*
X20451134Y-21823984D02*
X20432087Y-21814460D01*
X20432087Y-21814460D02*
X20422563Y-21804936D01*
X20422563Y-21804936D02*
X20413039Y-21785889D01*
X20413039Y-21785889D02*
X20403515Y-21747793D01*
X20403515Y-21747793D02*
X20403515Y-21700174D01*
X20403515Y-21700174D02*
X20413039Y-21662079D01*
X20413039Y-21662079D02*
X20422563Y-21643031D01*
X20422563Y-21643031D02*
X20432087Y-21633508D01*
X20432087Y-21633508D02*
X20451134Y-21623984D01*
X20603515Y-21804936D02*
X20613039Y-21814460D01*
X20613039Y-21814460D02*
X20603515Y-21823984D01*
X20603515Y-21823984D02*
X20593991Y-21814460D01*
X20593991Y-21814460D02*
X20603515Y-21804936D01*
X20603515Y-21804936D02*
X20603515Y-21823984D01*
X20736848Y-21623984D02*
X20755896Y-21623984D01*
X20755896Y-21623984D02*
X20774944Y-21633508D01*
X20774944Y-21633508D02*
X20784468Y-21643031D01*
X20784468Y-21643031D02*
X20793991Y-21662079D01*
X20793991Y-21662079D02*
X20803515Y-21700174D01*
X20803515Y-21700174D02*
X20803515Y-21747793D01*
X20803515Y-21747793D02*
X20793991Y-21785889D01*
X20793991Y-21785889D02*
X20784468Y-21804936D01*
X20784468Y-21804936D02*
X20774944Y-21814460D01*
X20774944Y-21814460D02*
X20755896Y-21823984D01*
X20755896Y-21823984D02*
X20736848Y-21823984D01*
X20736848Y-21823984D02*
X20717801Y-21814460D01*
X20717801Y-21814460D02*
X20708277Y-21804936D01*
X20708277Y-21804936D02*
X20698753Y-21785889D01*
X20698753Y-21785889D02*
X20689229Y-21747793D01*
X20689229Y-21747793D02*
X20689229Y-21700174D01*
X20689229Y-21700174D02*
X20698753Y-21662079D01*
X20698753Y-21662079D02*
X20708277Y-21643031D01*
X20708277Y-21643031D02*
X20717801Y-21633508D01*
X20717801Y-21633508D02*
X20736848Y-21623984D01*
X20917801Y-21709698D02*
X20898753Y-21700174D01*
X20898753Y-21700174D02*
X20889229Y-21690650D01*
X20889229Y-21690650D02*
X20879706Y-21671603D01*
X20879706Y-21671603D02*
X20879706Y-21662079D01*
X20879706Y-21662079D02*
X20889229Y-21643031D01*
X20889229Y-21643031D02*
X20898753Y-21633508D01*
X20898753Y-21633508D02*
X20917801Y-21623984D01*
X20917801Y-21623984D02*
X20955896Y-21623984D01*
X20955896Y-21623984D02*
X20974944Y-21633508D01*
X20974944Y-21633508D02*
X20984468Y-21643031D01*
X20984468Y-21643031D02*
X20993991Y-21662079D01*
X20993991Y-21662079D02*
X20993991Y-21671603D01*
X20993991Y-21671603D02*
X20984468Y-21690650D01*
X20984468Y-21690650D02*
X20974944Y-21700174D01*
X20974944Y-21700174D02*
X20955896Y-21709698D01*
X20955896Y-21709698D02*
X20917801Y-21709698D01*
X20917801Y-21709698D02*
X20898753Y-21719222D01*
X20898753Y-21719222D02*
X20889229Y-21728746D01*
X20889229Y-21728746D02*
X20879706Y-21747793D01*
X20879706Y-21747793D02*
X20879706Y-21785889D01*
X20879706Y-21785889D02*
X20889229Y-21804936D01*
X20889229Y-21804936D02*
X20898753Y-21814460D01*
X20898753Y-21814460D02*
X20917801Y-21823984D01*
X20917801Y-21823984D02*
X20955896Y-21823984D01*
X20955896Y-21823984D02*
X20974944Y-21814460D01*
X20974944Y-21814460D02*
X20984468Y-21804936D01*
X20984468Y-21804936D02*
X20993991Y-21785889D01*
X20993991Y-21785889D02*
X20993991Y-21747793D01*
X20993991Y-21747793D02*
X20984468Y-21728746D01*
X20984468Y-21728746D02*
X20974944Y-21719222D01*
X20974944Y-21719222D02*
X20955896Y-21709698D01*
X21165420Y-21623984D02*
X21127325Y-21623984D01*
X21127325Y-21623984D02*
X21108277Y-21633508D01*
X21108277Y-21633508D02*
X21098753Y-21643031D01*
X21098753Y-21643031D02*
X21079706Y-21671603D01*
X21079706Y-21671603D02*
X21070182Y-21709698D01*
X21070182Y-21709698D02*
X21070182Y-21785889D01*
X21070182Y-21785889D02*
X21079706Y-21804936D01*
X21079706Y-21804936D02*
X21089229Y-21814460D01*
X21089229Y-21814460D02*
X21108277Y-21823984D01*
X21108277Y-21823984D02*
X21146372Y-21823984D01*
X21146372Y-21823984D02*
X21165420Y-21814460D01*
X21165420Y-21814460D02*
X21174944Y-21804936D01*
X21174944Y-21804936D02*
X21184468Y-21785889D01*
X21184468Y-21785889D02*
X21184468Y-21738270D01*
X21184468Y-21738270D02*
X21174944Y-21719222D01*
X21174944Y-21719222D02*
X21165420Y-21709698D01*
X21165420Y-21709698D02*
X21146372Y-21700174D01*
X21146372Y-21700174D02*
X21108277Y-21700174D01*
X21108277Y-21700174D02*
X21089229Y-21709698D01*
X21089229Y-21709698D02*
X21079706Y-21719222D01*
X21079706Y-21719222D02*
X21070182Y-21738270D01*
X21355896Y-21623984D02*
X21317801Y-21623984D01*
X21317801Y-21623984D02*
X21298753Y-21633508D01*
X21298753Y-21633508D02*
X21289229Y-21643031D01*
X21289229Y-21643031D02*
X21270182Y-21671603D01*
X21270182Y-21671603D02*
X21260658Y-21709698D01*
X21260658Y-21709698D02*
X21260658Y-21785889D01*
X21260658Y-21785889D02*
X21270182Y-21804936D01*
X21270182Y-21804936D02*
X21279706Y-21814460D01*
X21279706Y-21814460D02*
X21298753Y-21823984D01*
X21298753Y-21823984D02*
X21336849Y-21823984D01*
X21336849Y-21823984D02*
X21355896Y-21814460D01*
X21355896Y-21814460D02*
X21365420Y-21804936D01*
X21365420Y-21804936D02*
X21374944Y-21785889D01*
X21374944Y-21785889D02*
X21374944Y-21738270D01*
X21374944Y-21738270D02*
X21365420Y-21719222D01*
X21365420Y-21719222D02*
X21355896Y-21709698D01*
X21355896Y-21709698D02*
X21336849Y-21700174D01*
X21336849Y-21700174D02*
X21298753Y-21700174D01*
X21298753Y-21700174D02*
X21279706Y-21709698D01*
X21279706Y-21709698D02*
X21270182Y-21719222D01*
X21270182Y-21719222D02*
X21260658Y-21738270D01*
X21451134Y-21623984D02*
X21451134Y-21662079D01*
X21527325Y-21623984D02*
X21527325Y-21662079D01*
X21822563Y-21900174D02*
X21813039Y-21890650D01*
X21813039Y-21890650D02*
X21793991Y-21862079D01*
X21793991Y-21862079D02*
X21784468Y-21843031D01*
X21784468Y-21843031D02*
X21774944Y-21814460D01*
X21774944Y-21814460D02*
X21765420Y-21766841D01*
X21765420Y-21766841D02*
X21765420Y-21728746D01*
X21765420Y-21728746D02*
X21774944Y-21681127D01*
X21774944Y-21681127D02*
X21784468Y-21652555D01*
X21784468Y-21652555D02*
X21793991Y-21633508D01*
X21793991Y-21633508D02*
X21813039Y-21604936D01*
X21813039Y-21604936D02*
X21822563Y-21595412D01*
X21889230Y-21643031D02*
X21898753Y-21633508D01*
X21898753Y-21633508D02*
X21917801Y-21623984D01*
X21917801Y-21623984D02*
X21965420Y-21623984D01*
X21965420Y-21623984D02*
X21984468Y-21633508D01*
X21984468Y-21633508D02*
X21993991Y-21643031D01*
X21993991Y-21643031D02*
X22003515Y-21662079D01*
X22003515Y-21662079D02*
X22003515Y-21681127D01*
X22003515Y-21681127D02*
X21993991Y-21709698D01*
X21993991Y-21709698D02*
X21879706Y-21823984D01*
X21879706Y-21823984D02*
X22003515Y-21823984D01*
X22241611Y-21823984D02*
X22241611Y-21623984D01*
X22327325Y-21823984D02*
X22327325Y-21719222D01*
X22327325Y-21719222D02*
X22317801Y-21700174D01*
X22317801Y-21700174D02*
X22298753Y-21690650D01*
X22298753Y-21690650D02*
X22270182Y-21690650D01*
X22270182Y-21690650D02*
X22251134Y-21700174D01*
X22251134Y-21700174D02*
X22241611Y-21709698D01*
X22451134Y-21823984D02*
X22432087Y-21814460D01*
X22432087Y-21814460D02*
X22422563Y-21804936D01*
X22422563Y-21804936D02*
X22413039Y-21785889D01*
X22413039Y-21785889D02*
X22413039Y-21728746D01*
X22413039Y-21728746D02*
X22422563Y-21709698D01*
X22422563Y-21709698D02*
X22432087Y-21700174D01*
X22432087Y-21700174D02*
X22451134Y-21690650D01*
X22451134Y-21690650D02*
X22479706Y-21690650D01*
X22479706Y-21690650D02*
X22498753Y-21700174D01*
X22498753Y-21700174D02*
X22508277Y-21709698D01*
X22508277Y-21709698D02*
X22517801Y-21728746D01*
X22517801Y-21728746D02*
X22517801Y-21785889D01*
X22517801Y-21785889D02*
X22508277Y-21804936D01*
X22508277Y-21804936D02*
X22498753Y-21814460D01*
X22498753Y-21814460D02*
X22479706Y-21823984D01*
X22479706Y-21823984D02*
X22451134Y-21823984D01*
X22632087Y-21823984D02*
X22613039Y-21814460D01*
X22613039Y-21814460D02*
X22603515Y-21795412D01*
X22603515Y-21795412D02*
X22603515Y-21623984D01*
X22784468Y-21814460D02*
X22765420Y-21823984D01*
X22765420Y-21823984D02*
X22727325Y-21823984D01*
X22727325Y-21823984D02*
X22708277Y-21814460D01*
X22708277Y-21814460D02*
X22698753Y-21795412D01*
X22698753Y-21795412D02*
X22698753Y-21719222D01*
X22698753Y-21719222D02*
X22708277Y-21700174D01*
X22708277Y-21700174D02*
X22727325Y-21690650D01*
X22727325Y-21690650D02*
X22765420Y-21690650D01*
X22765420Y-21690650D02*
X22784468Y-21700174D01*
X22784468Y-21700174D02*
X22793991Y-21719222D01*
X22793991Y-21719222D02*
X22793991Y-21738270D01*
X22793991Y-21738270D02*
X22698753Y-21757317D01*
X22870182Y-21814460D02*
X22889230Y-21823984D01*
X22889230Y-21823984D02*
X22927325Y-21823984D01*
X22927325Y-21823984D02*
X22946372Y-21814460D01*
X22946372Y-21814460D02*
X22955896Y-21795412D01*
X22955896Y-21795412D02*
X22955896Y-21785889D01*
X22955896Y-21785889D02*
X22946372Y-21766841D01*
X22946372Y-21766841D02*
X22927325Y-21757317D01*
X22927325Y-21757317D02*
X22898753Y-21757317D01*
X22898753Y-21757317D02*
X22879706Y-21747793D01*
X22879706Y-21747793D02*
X22870182Y-21728746D01*
X22870182Y-21728746D02*
X22870182Y-21719222D01*
X22870182Y-21719222D02*
X22879706Y-21700174D01*
X22879706Y-21700174D02*
X22898753Y-21690650D01*
X22898753Y-21690650D02*
X22927325Y-21690650D01*
X22927325Y-21690650D02*
X22946372Y-21700174D01*
X23022563Y-21900174D02*
X23032087Y-21890650D01*
X23032087Y-21890650D02*
X23051134Y-21862079D01*
X23051134Y-21862079D02*
X23060658Y-21843031D01*
X23060658Y-21843031D02*
X23070182Y-21814460D01*
X23070182Y-21814460D02*
X23079706Y-21766841D01*
X23079706Y-21766841D02*
X23079706Y-21728746D01*
X23079706Y-21728746D02*
X23070182Y-21681127D01*
X23070182Y-21681127D02*
X23060658Y-21652555D01*
X23060658Y-21652555D02*
X23051134Y-21633508D01*
X23051134Y-21633508D02*
X23032087Y-21604936D01*
X23032087Y-21604936D02*
X23022563Y-21595412D01*
X23384468Y-21900174D02*
X23374944Y-21890650D01*
X23374944Y-21890650D02*
X23355896Y-21862079D01*
X23355896Y-21862079D02*
X23346372Y-21843031D01*
X23346372Y-21843031D02*
X23336849Y-21814460D01*
X23336849Y-21814460D02*
X23327325Y-21766841D01*
X23327325Y-21766841D02*
X23327325Y-21728746D01*
X23327325Y-21728746D02*
X23336849Y-21681127D01*
X23336849Y-21681127D02*
X23346372Y-21652555D01*
X23346372Y-21652555D02*
X23355896Y-21633508D01*
X23355896Y-21633508D02*
X23374944Y-21604936D01*
X23374944Y-21604936D02*
X23384468Y-21595412D01*
X23460658Y-21690650D02*
X23460658Y-21823984D01*
X23460658Y-21709698D02*
X23470182Y-21700174D01*
X23470182Y-21700174D02*
X23489230Y-21690650D01*
X23489230Y-21690650D02*
X23517801Y-21690650D01*
X23517801Y-21690650D02*
X23536849Y-21700174D01*
X23536849Y-21700174D02*
X23546372Y-21719222D01*
X23546372Y-21719222D02*
X23546372Y-21823984D01*
X23670182Y-21823984D02*
X23651134Y-21814460D01*
X23651134Y-21814460D02*
X23641611Y-21804936D01*
X23641611Y-21804936D02*
X23632087Y-21785889D01*
X23632087Y-21785889D02*
X23632087Y-21728746D01*
X23632087Y-21728746D02*
X23641611Y-21709698D01*
X23641611Y-21709698D02*
X23651134Y-21700174D01*
X23651134Y-21700174D02*
X23670182Y-21690650D01*
X23670182Y-21690650D02*
X23698753Y-21690650D01*
X23698753Y-21690650D02*
X23717801Y-21700174D01*
X23717801Y-21700174D02*
X23727325Y-21709698D01*
X23727325Y-21709698D02*
X23736849Y-21728746D01*
X23736849Y-21728746D02*
X23736849Y-21785889D01*
X23736849Y-21785889D02*
X23727325Y-21804936D01*
X23727325Y-21804936D02*
X23717801Y-21814460D01*
X23717801Y-21814460D02*
X23698753Y-21823984D01*
X23698753Y-21823984D02*
X23670182Y-21823984D01*
X23793992Y-21690650D02*
X23870182Y-21690650D01*
X23822563Y-21623984D02*
X23822563Y-21795412D01*
X23822563Y-21795412D02*
X23832087Y-21814460D01*
X23832087Y-21814460D02*
X23851134Y-21823984D01*
X23851134Y-21823984D02*
X23870182Y-21823984D01*
X24089230Y-21690650D02*
X24089230Y-21890650D01*
X24089230Y-21700174D02*
X24108277Y-21690650D01*
X24108277Y-21690650D02*
X24146373Y-21690650D01*
X24146373Y-21690650D02*
X24165420Y-21700174D01*
X24165420Y-21700174D02*
X24174944Y-21709698D01*
X24174944Y-21709698D02*
X24184468Y-21728746D01*
X24184468Y-21728746D02*
X24184468Y-21785889D01*
X24184468Y-21785889D02*
X24174944Y-21804936D01*
X24174944Y-21804936D02*
X24165420Y-21814460D01*
X24165420Y-21814460D02*
X24146373Y-21823984D01*
X24146373Y-21823984D02*
X24108277Y-21823984D01*
X24108277Y-21823984D02*
X24089230Y-21814460D01*
X24298753Y-21823984D02*
X24279706Y-21814460D01*
X24279706Y-21814460D02*
X24270182Y-21795412D01*
X24270182Y-21795412D02*
X24270182Y-21623984D01*
X24460658Y-21823984D02*
X24460658Y-21719222D01*
X24460658Y-21719222D02*
X24451134Y-21700174D01*
X24451134Y-21700174D02*
X24432087Y-21690650D01*
X24432087Y-21690650D02*
X24393992Y-21690650D01*
X24393992Y-21690650D02*
X24374944Y-21700174D01*
X24460658Y-21814460D02*
X24441611Y-21823984D01*
X24441611Y-21823984D02*
X24393992Y-21823984D01*
X24393992Y-21823984D02*
X24374944Y-21814460D01*
X24374944Y-21814460D02*
X24365420Y-21795412D01*
X24365420Y-21795412D02*
X24365420Y-21776365D01*
X24365420Y-21776365D02*
X24374944Y-21757317D01*
X24374944Y-21757317D02*
X24393992Y-21747793D01*
X24393992Y-21747793D02*
X24441611Y-21747793D01*
X24441611Y-21747793D02*
X24460658Y-21738270D01*
X24527325Y-21690650D02*
X24603515Y-21690650D01*
X24555896Y-21623984D02*
X24555896Y-21795412D01*
X24555896Y-21795412D02*
X24565420Y-21814460D01*
X24565420Y-21814460D02*
X24584468Y-21823984D01*
X24584468Y-21823984D02*
X24603515Y-21823984D01*
X24746373Y-21814460D02*
X24727325Y-21823984D01*
X24727325Y-21823984D02*
X24689230Y-21823984D01*
X24689230Y-21823984D02*
X24670182Y-21814460D01*
X24670182Y-21814460D02*
X24660658Y-21795412D01*
X24660658Y-21795412D02*
X24660658Y-21719222D01*
X24660658Y-21719222D02*
X24670182Y-21700174D01*
X24670182Y-21700174D02*
X24689230Y-21690650D01*
X24689230Y-21690650D02*
X24727325Y-21690650D01*
X24727325Y-21690650D02*
X24746373Y-21700174D01*
X24746373Y-21700174D02*
X24755896Y-21719222D01*
X24755896Y-21719222D02*
X24755896Y-21738270D01*
X24755896Y-21738270D02*
X24660658Y-21757317D01*
X24927325Y-21823984D02*
X24927325Y-21623984D01*
X24927325Y-21814460D02*
X24908277Y-21823984D01*
X24908277Y-21823984D02*
X24870182Y-21823984D01*
X24870182Y-21823984D02*
X24851134Y-21814460D01*
X24851134Y-21814460D02*
X24841611Y-21804936D01*
X24841611Y-21804936D02*
X24832087Y-21785889D01*
X24832087Y-21785889D02*
X24832087Y-21728746D01*
X24832087Y-21728746D02*
X24841611Y-21709698D01*
X24841611Y-21709698D02*
X24851134Y-21700174D01*
X24851134Y-21700174D02*
X24870182Y-21690650D01*
X24870182Y-21690650D02*
X24908277Y-21690650D01*
X24908277Y-21690650D02*
X24927325Y-21700174D01*
X25003515Y-21900174D02*
X25013039Y-21890650D01*
X25013039Y-21890650D02*
X25032087Y-21862079D01*
X25032087Y-21862079D02*
X25041611Y-21843031D01*
X25041611Y-21843031D02*
X25051134Y-21814460D01*
X25051134Y-21814460D02*
X25060658Y-21766841D01*
X25060658Y-21766841D02*
X25060658Y-21728746D01*
X25060658Y-21728746D02*
X25051134Y-21681127D01*
X25051134Y-21681127D02*
X25041611Y-21652555D01*
X25041611Y-21652555D02*
X25032087Y-21633508D01*
X25032087Y-21633508D02*
X25013039Y-21604936D01*
X25013039Y-21604936D02*
X25003515Y-21595412D01*
X18147500Y-22152500D02*
X18247500Y-22052500D01*
X18147500Y-21952500D01*
X18047500Y-22052500D01*
X18147500Y-22152500D01*
X18593991Y-22010650D02*
X18593991Y-22143984D01*
X18546372Y-21934460D02*
X18498753Y-22077317D01*
X18498753Y-22077317D02*
X18622563Y-22077317D01*
X18698753Y-22124936D02*
X18708277Y-22134460D01*
X18708277Y-22134460D02*
X18698753Y-22143984D01*
X18698753Y-22143984D02*
X18689229Y-22134460D01*
X18689229Y-22134460D02*
X18698753Y-22124936D01*
X18698753Y-22124936D02*
X18698753Y-22143984D01*
X18832086Y-21943984D02*
X18851134Y-21943984D01*
X18851134Y-21943984D02*
X18870182Y-21953508D01*
X18870182Y-21953508D02*
X18879705Y-21963031D01*
X18879705Y-21963031D02*
X18889229Y-21982079D01*
X18889229Y-21982079D02*
X18898753Y-22020174D01*
X18898753Y-22020174D02*
X18898753Y-22067793D01*
X18898753Y-22067793D02*
X18889229Y-22105889D01*
X18889229Y-22105889D02*
X18879705Y-22124936D01*
X18879705Y-22124936D02*
X18870182Y-22134460D01*
X18870182Y-22134460D02*
X18851134Y-22143984D01*
X18851134Y-22143984D02*
X18832086Y-22143984D01*
X18832086Y-22143984D02*
X18813039Y-22134460D01*
X18813039Y-22134460D02*
X18803515Y-22124936D01*
X18803515Y-22124936D02*
X18793991Y-22105889D01*
X18793991Y-22105889D02*
X18784467Y-22067793D01*
X18784467Y-22067793D02*
X18784467Y-22020174D01*
X18784467Y-22020174D02*
X18793991Y-21982079D01*
X18793991Y-21982079D02*
X18803515Y-21963031D01*
X18803515Y-21963031D02*
X18813039Y-21953508D01*
X18813039Y-21953508D02*
X18832086Y-21943984D01*
X19022563Y-21943984D02*
X19041610Y-21943984D01*
X19041610Y-21943984D02*
X19060658Y-21953508D01*
X19060658Y-21953508D02*
X19070182Y-21963031D01*
X19070182Y-21963031D02*
X19079705Y-21982079D01*
X19079705Y-21982079D02*
X19089229Y-22020174D01*
X19089229Y-22020174D02*
X19089229Y-22067793D01*
X19089229Y-22067793D02*
X19079705Y-22105889D01*
X19079705Y-22105889D02*
X19070182Y-22124936D01*
X19070182Y-22124936D02*
X19060658Y-22134460D01*
X19060658Y-22134460D02*
X19041610Y-22143984D01*
X19041610Y-22143984D02*
X19022563Y-22143984D01*
X19022563Y-22143984D02*
X19003515Y-22134460D01*
X19003515Y-22134460D02*
X18993991Y-22124936D01*
X18993991Y-22124936D02*
X18984467Y-22105889D01*
X18984467Y-22105889D02*
X18974944Y-22067793D01*
X18974944Y-22067793D02*
X18974944Y-22020174D01*
X18974944Y-22020174D02*
X18984467Y-21982079D01*
X18984467Y-21982079D02*
X18993991Y-21963031D01*
X18993991Y-21963031D02*
X19003515Y-21953508D01*
X19003515Y-21953508D02*
X19022563Y-21943984D01*
X19213039Y-21943984D02*
X19232086Y-21943984D01*
X19232086Y-21943984D02*
X19251134Y-21953508D01*
X19251134Y-21953508D02*
X19260658Y-21963031D01*
X19260658Y-21963031D02*
X19270182Y-21982079D01*
X19270182Y-21982079D02*
X19279705Y-22020174D01*
X19279705Y-22020174D02*
X19279705Y-22067793D01*
X19279705Y-22067793D02*
X19270182Y-22105889D01*
X19270182Y-22105889D02*
X19260658Y-22124936D01*
X19260658Y-22124936D02*
X19251134Y-22134460D01*
X19251134Y-22134460D02*
X19232086Y-22143984D01*
X19232086Y-22143984D02*
X19213039Y-22143984D01*
X19213039Y-22143984D02*
X19193991Y-22134460D01*
X19193991Y-22134460D02*
X19184467Y-22124936D01*
X19184467Y-22124936D02*
X19174944Y-22105889D01*
X19174944Y-22105889D02*
X19165420Y-22067793D01*
X19165420Y-22067793D02*
X19165420Y-22020174D01*
X19165420Y-22020174D02*
X19174944Y-21982079D01*
X19174944Y-21982079D02*
X19184467Y-21963031D01*
X19184467Y-21963031D02*
X19193991Y-21953508D01*
X19193991Y-21953508D02*
X19213039Y-21943984D01*
X19365420Y-22143984D02*
X19365420Y-22010650D01*
X19365420Y-22029698D02*
X19374944Y-22020174D01*
X19374944Y-22020174D02*
X19393991Y-22010650D01*
X19393991Y-22010650D02*
X19422563Y-22010650D01*
X19422563Y-22010650D02*
X19441610Y-22020174D01*
X19441610Y-22020174D02*
X19451134Y-22039222D01*
X19451134Y-22039222D02*
X19451134Y-22143984D01*
X19451134Y-22039222D02*
X19460658Y-22020174D01*
X19460658Y-22020174D02*
X19479705Y-22010650D01*
X19479705Y-22010650D02*
X19508277Y-22010650D01*
X19508277Y-22010650D02*
X19527325Y-22020174D01*
X19527325Y-22020174D02*
X19536848Y-22039222D01*
X19536848Y-22039222D02*
X19536848Y-22143984D01*
X19632086Y-22143984D02*
X19632086Y-22010650D01*
X19632086Y-22029698D02*
X19641610Y-22020174D01*
X19641610Y-22020174D02*
X19660658Y-22010650D01*
X19660658Y-22010650D02*
X19689229Y-22010650D01*
X19689229Y-22010650D02*
X19708277Y-22020174D01*
X19708277Y-22020174D02*
X19717801Y-22039222D01*
X19717801Y-22039222D02*
X19717801Y-22143984D01*
X19717801Y-22039222D02*
X19727325Y-22020174D01*
X19727325Y-22020174D02*
X19746372Y-22010650D01*
X19746372Y-22010650D02*
X19774944Y-22010650D01*
X19774944Y-22010650D02*
X19793991Y-22020174D01*
X19793991Y-22020174D02*
X19803515Y-22039222D01*
X19803515Y-22039222D02*
X19803515Y-22143984D01*
X20193991Y-21934460D02*
X20022563Y-22191603D01*
X20451134Y-21943984D02*
X20470182Y-21943984D01*
X20470182Y-21943984D02*
X20489229Y-21953508D01*
X20489229Y-21953508D02*
X20498753Y-21963031D01*
X20498753Y-21963031D02*
X20508277Y-21982079D01*
X20508277Y-21982079D02*
X20517801Y-22020174D01*
X20517801Y-22020174D02*
X20517801Y-22067793D01*
X20517801Y-22067793D02*
X20508277Y-22105889D01*
X20508277Y-22105889D02*
X20498753Y-22124936D01*
X20498753Y-22124936D02*
X20489229Y-22134460D01*
X20489229Y-22134460D02*
X20470182Y-22143984D01*
X20470182Y-22143984D02*
X20451134Y-22143984D01*
X20451134Y-22143984D02*
X20432087Y-22134460D01*
X20432087Y-22134460D02*
X20422563Y-22124936D01*
X20422563Y-22124936D02*
X20413039Y-22105889D01*
X20413039Y-22105889D02*
X20403515Y-22067793D01*
X20403515Y-22067793D02*
X20403515Y-22020174D01*
X20403515Y-22020174D02*
X20413039Y-21982079D01*
X20413039Y-21982079D02*
X20422563Y-21963031D01*
X20422563Y-21963031D02*
X20432087Y-21953508D01*
X20432087Y-21953508D02*
X20451134Y-21943984D01*
X20603515Y-22124936D02*
X20613039Y-22134460D01*
X20613039Y-22134460D02*
X20603515Y-22143984D01*
X20603515Y-22143984D02*
X20593991Y-22134460D01*
X20593991Y-22134460D02*
X20603515Y-22124936D01*
X20603515Y-22124936D02*
X20603515Y-22143984D01*
X20803515Y-22143984D02*
X20689229Y-22143984D01*
X20746372Y-22143984D02*
X20746372Y-21943984D01*
X20746372Y-21943984D02*
X20727325Y-21972555D01*
X20727325Y-21972555D02*
X20708277Y-21991603D01*
X20708277Y-21991603D02*
X20689229Y-22001127D01*
X20984468Y-21943984D02*
X20889229Y-21943984D01*
X20889229Y-21943984D02*
X20879706Y-22039222D01*
X20879706Y-22039222D02*
X20889229Y-22029698D01*
X20889229Y-22029698D02*
X20908277Y-22020174D01*
X20908277Y-22020174D02*
X20955896Y-22020174D01*
X20955896Y-22020174D02*
X20974944Y-22029698D01*
X20974944Y-22029698D02*
X20984468Y-22039222D01*
X20984468Y-22039222D02*
X20993991Y-22058270D01*
X20993991Y-22058270D02*
X20993991Y-22105889D01*
X20993991Y-22105889D02*
X20984468Y-22124936D01*
X20984468Y-22124936D02*
X20974944Y-22134460D01*
X20974944Y-22134460D02*
X20955896Y-22143984D01*
X20955896Y-22143984D02*
X20908277Y-22143984D01*
X20908277Y-22143984D02*
X20889229Y-22134460D01*
X20889229Y-22134460D02*
X20879706Y-22124936D01*
X21060658Y-21943984D02*
X21193991Y-21943984D01*
X21193991Y-21943984D02*
X21108277Y-22143984D01*
X21365420Y-21943984D02*
X21270182Y-21943984D01*
X21270182Y-21943984D02*
X21260658Y-22039222D01*
X21260658Y-22039222D02*
X21270182Y-22029698D01*
X21270182Y-22029698D02*
X21289229Y-22020174D01*
X21289229Y-22020174D02*
X21336849Y-22020174D01*
X21336849Y-22020174D02*
X21355896Y-22029698D01*
X21355896Y-22029698D02*
X21365420Y-22039222D01*
X21365420Y-22039222D02*
X21374944Y-22058270D01*
X21374944Y-22058270D02*
X21374944Y-22105889D01*
X21374944Y-22105889D02*
X21365420Y-22124936D01*
X21365420Y-22124936D02*
X21355896Y-22134460D01*
X21355896Y-22134460D02*
X21336849Y-22143984D01*
X21336849Y-22143984D02*
X21289229Y-22143984D01*
X21289229Y-22143984D02*
X21270182Y-22134460D01*
X21270182Y-22134460D02*
X21260658Y-22124936D01*
X21451134Y-21943984D02*
X21451134Y-21982079D01*
X21527325Y-21943984D02*
X21527325Y-21982079D01*
X21822563Y-22220174D02*
X21813039Y-22210650D01*
X21813039Y-22210650D02*
X21793991Y-22182079D01*
X21793991Y-22182079D02*
X21784468Y-22163031D01*
X21784468Y-22163031D02*
X21774944Y-22134460D01*
X21774944Y-22134460D02*
X21765420Y-22086841D01*
X21765420Y-22086841D02*
X21765420Y-22048746D01*
X21765420Y-22048746D02*
X21774944Y-22001127D01*
X21774944Y-22001127D02*
X21784468Y-21972555D01*
X21784468Y-21972555D02*
X21793991Y-21953508D01*
X21793991Y-21953508D02*
X21813039Y-21924936D01*
X21813039Y-21924936D02*
X21822563Y-21915412D01*
X21927325Y-22029698D02*
X21908277Y-22020174D01*
X21908277Y-22020174D02*
X21898753Y-22010650D01*
X21898753Y-22010650D02*
X21889230Y-21991603D01*
X21889230Y-21991603D02*
X21889230Y-21982079D01*
X21889230Y-21982079D02*
X21898753Y-21963031D01*
X21898753Y-21963031D02*
X21908277Y-21953508D01*
X21908277Y-21953508D02*
X21927325Y-21943984D01*
X21927325Y-21943984D02*
X21965420Y-21943984D01*
X21965420Y-21943984D02*
X21984468Y-21953508D01*
X21984468Y-21953508D02*
X21993991Y-21963031D01*
X21993991Y-21963031D02*
X22003515Y-21982079D01*
X22003515Y-21982079D02*
X22003515Y-21991603D01*
X22003515Y-21991603D02*
X21993991Y-22010650D01*
X21993991Y-22010650D02*
X21984468Y-22020174D01*
X21984468Y-22020174D02*
X21965420Y-22029698D01*
X21965420Y-22029698D02*
X21927325Y-22029698D01*
X21927325Y-22029698D02*
X21908277Y-22039222D01*
X21908277Y-22039222D02*
X21898753Y-22048746D01*
X21898753Y-22048746D02*
X21889230Y-22067793D01*
X21889230Y-22067793D02*
X21889230Y-22105889D01*
X21889230Y-22105889D02*
X21898753Y-22124936D01*
X21898753Y-22124936D02*
X21908277Y-22134460D01*
X21908277Y-22134460D02*
X21927325Y-22143984D01*
X21927325Y-22143984D02*
X21965420Y-22143984D01*
X21965420Y-22143984D02*
X21984468Y-22134460D01*
X21984468Y-22134460D02*
X21993991Y-22124936D01*
X21993991Y-22124936D02*
X22003515Y-22105889D01*
X22003515Y-22105889D02*
X22003515Y-22067793D01*
X22003515Y-22067793D02*
X21993991Y-22048746D01*
X21993991Y-22048746D02*
X21984468Y-22039222D01*
X21984468Y-22039222D02*
X21965420Y-22029698D01*
X22241611Y-22143984D02*
X22241611Y-21943984D01*
X22327325Y-22143984D02*
X22327325Y-22039222D01*
X22327325Y-22039222D02*
X22317801Y-22020174D01*
X22317801Y-22020174D02*
X22298753Y-22010650D01*
X22298753Y-22010650D02*
X22270182Y-22010650D01*
X22270182Y-22010650D02*
X22251134Y-22020174D01*
X22251134Y-22020174D02*
X22241611Y-22029698D01*
X22451134Y-22143984D02*
X22432087Y-22134460D01*
X22432087Y-22134460D02*
X22422563Y-22124936D01*
X22422563Y-22124936D02*
X22413039Y-22105889D01*
X22413039Y-22105889D02*
X22413039Y-22048746D01*
X22413039Y-22048746D02*
X22422563Y-22029698D01*
X22422563Y-22029698D02*
X22432087Y-22020174D01*
X22432087Y-22020174D02*
X22451134Y-22010650D01*
X22451134Y-22010650D02*
X22479706Y-22010650D01*
X22479706Y-22010650D02*
X22498753Y-22020174D01*
X22498753Y-22020174D02*
X22508277Y-22029698D01*
X22508277Y-22029698D02*
X22517801Y-22048746D01*
X22517801Y-22048746D02*
X22517801Y-22105889D01*
X22517801Y-22105889D02*
X22508277Y-22124936D01*
X22508277Y-22124936D02*
X22498753Y-22134460D01*
X22498753Y-22134460D02*
X22479706Y-22143984D01*
X22479706Y-22143984D02*
X22451134Y-22143984D01*
X22632087Y-22143984D02*
X22613039Y-22134460D01*
X22613039Y-22134460D02*
X22603515Y-22115412D01*
X22603515Y-22115412D02*
X22603515Y-21943984D01*
X22784468Y-22134460D02*
X22765420Y-22143984D01*
X22765420Y-22143984D02*
X22727325Y-22143984D01*
X22727325Y-22143984D02*
X22708277Y-22134460D01*
X22708277Y-22134460D02*
X22698753Y-22115412D01*
X22698753Y-22115412D02*
X22698753Y-22039222D01*
X22698753Y-22039222D02*
X22708277Y-22020174D01*
X22708277Y-22020174D02*
X22727325Y-22010650D01*
X22727325Y-22010650D02*
X22765420Y-22010650D01*
X22765420Y-22010650D02*
X22784468Y-22020174D01*
X22784468Y-22020174D02*
X22793991Y-22039222D01*
X22793991Y-22039222D02*
X22793991Y-22058270D01*
X22793991Y-22058270D02*
X22698753Y-22077317D01*
X22870182Y-22134460D02*
X22889230Y-22143984D01*
X22889230Y-22143984D02*
X22927325Y-22143984D01*
X22927325Y-22143984D02*
X22946372Y-22134460D01*
X22946372Y-22134460D02*
X22955896Y-22115412D01*
X22955896Y-22115412D02*
X22955896Y-22105889D01*
X22955896Y-22105889D02*
X22946372Y-22086841D01*
X22946372Y-22086841D02*
X22927325Y-22077317D01*
X22927325Y-22077317D02*
X22898753Y-22077317D01*
X22898753Y-22077317D02*
X22879706Y-22067793D01*
X22879706Y-22067793D02*
X22870182Y-22048746D01*
X22870182Y-22048746D02*
X22870182Y-22039222D01*
X22870182Y-22039222D02*
X22879706Y-22020174D01*
X22879706Y-22020174D02*
X22898753Y-22010650D01*
X22898753Y-22010650D02*
X22927325Y-22010650D01*
X22927325Y-22010650D02*
X22946372Y-22020174D01*
X23022563Y-22220174D02*
X23032087Y-22210650D01*
X23032087Y-22210650D02*
X23051134Y-22182079D01*
X23051134Y-22182079D02*
X23060658Y-22163031D01*
X23060658Y-22163031D02*
X23070182Y-22134460D01*
X23070182Y-22134460D02*
X23079706Y-22086841D01*
X23079706Y-22086841D02*
X23079706Y-22048746D01*
X23079706Y-22048746D02*
X23070182Y-22001127D01*
X23070182Y-22001127D02*
X23060658Y-21972555D01*
X23060658Y-21972555D02*
X23051134Y-21953508D01*
X23051134Y-21953508D02*
X23032087Y-21924936D01*
X23032087Y-21924936D02*
X23022563Y-21915412D01*
X23384468Y-22220174D02*
X23374944Y-22210650D01*
X23374944Y-22210650D02*
X23355896Y-22182079D01*
X23355896Y-22182079D02*
X23346372Y-22163031D01*
X23346372Y-22163031D02*
X23336849Y-22134460D01*
X23336849Y-22134460D02*
X23327325Y-22086841D01*
X23327325Y-22086841D02*
X23327325Y-22048746D01*
X23327325Y-22048746D02*
X23336849Y-22001127D01*
X23336849Y-22001127D02*
X23346372Y-21972555D01*
X23346372Y-21972555D02*
X23355896Y-21953508D01*
X23355896Y-21953508D02*
X23374944Y-21924936D01*
X23374944Y-21924936D02*
X23384468Y-21915412D01*
X23460658Y-22010650D02*
X23460658Y-22143984D01*
X23460658Y-22029698D02*
X23470182Y-22020174D01*
X23470182Y-22020174D02*
X23489230Y-22010650D01*
X23489230Y-22010650D02*
X23517801Y-22010650D01*
X23517801Y-22010650D02*
X23536849Y-22020174D01*
X23536849Y-22020174D02*
X23546372Y-22039222D01*
X23546372Y-22039222D02*
X23546372Y-22143984D01*
X23670182Y-22143984D02*
X23651134Y-22134460D01*
X23651134Y-22134460D02*
X23641611Y-22124936D01*
X23641611Y-22124936D02*
X23632087Y-22105889D01*
X23632087Y-22105889D02*
X23632087Y-22048746D01*
X23632087Y-22048746D02*
X23641611Y-22029698D01*
X23641611Y-22029698D02*
X23651134Y-22020174D01*
X23651134Y-22020174D02*
X23670182Y-22010650D01*
X23670182Y-22010650D02*
X23698753Y-22010650D01*
X23698753Y-22010650D02*
X23717801Y-22020174D01*
X23717801Y-22020174D02*
X23727325Y-22029698D01*
X23727325Y-22029698D02*
X23736849Y-22048746D01*
X23736849Y-22048746D02*
X23736849Y-22105889D01*
X23736849Y-22105889D02*
X23727325Y-22124936D01*
X23727325Y-22124936D02*
X23717801Y-22134460D01*
X23717801Y-22134460D02*
X23698753Y-22143984D01*
X23698753Y-22143984D02*
X23670182Y-22143984D01*
X23793992Y-22010650D02*
X23870182Y-22010650D01*
X23822563Y-21943984D02*
X23822563Y-22115412D01*
X23822563Y-22115412D02*
X23832087Y-22134460D01*
X23832087Y-22134460D02*
X23851134Y-22143984D01*
X23851134Y-22143984D02*
X23870182Y-22143984D01*
X24089230Y-22010650D02*
X24089230Y-22210650D01*
X24089230Y-22020174D02*
X24108277Y-22010650D01*
X24108277Y-22010650D02*
X24146373Y-22010650D01*
X24146373Y-22010650D02*
X24165420Y-22020174D01*
X24165420Y-22020174D02*
X24174944Y-22029698D01*
X24174944Y-22029698D02*
X24184468Y-22048746D01*
X24184468Y-22048746D02*
X24184468Y-22105889D01*
X24184468Y-22105889D02*
X24174944Y-22124936D01*
X24174944Y-22124936D02*
X24165420Y-22134460D01*
X24165420Y-22134460D02*
X24146373Y-22143984D01*
X24146373Y-22143984D02*
X24108277Y-22143984D01*
X24108277Y-22143984D02*
X24089230Y-22134460D01*
X24298753Y-22143984D02*
X24279706Y-22134460D01*
X24279706Y-22134460D02*
X24270182Y-22115412D01*
X24270182Y-22115412D02*
X24270182Y-21943984D01*
X24460658Y-22143984D02*
X24460658Y-22039222D01*
X24460658Y-22039222D02*
X24451134Y-22020174D01*
X24451134Y-22020174D02*
X24432087Y-22010650D01*
X24432087Y-22010650D02*
X24393992Y-22010650D01*
X24393992Y-22010650D02*
X24374944Y-22020174D01*
X24460658Y-22134460D02*
X24441611Y-22143984D01*
X24441611Y-22143984D02*
X24393992Y-22143984D01*
X24393992Y-22143984D02*
X24374944Y-22134460D01*
X24374944Y-22134460D02*
X24365420Y-22115412D01*
X24365420Y-22115412D02*
X24365420Y-22096365D01*
X24365420Y-22096365D02*
X24374944Y-22077317D01*
X24374944Y-22077317D02*
X24393992Y-22067793D01*
X24393992Y-22067793D02*
X24441611Y-22067793D01*
X24441611Y-22067793D02*
X24460658Y-22058270D01*
X24527325Y-22010650D02*
X24603515Y-22010650D01*
X24555896Y-21943984D02*
X24555896Y-22115412D01*
X24555896Y-22115412D02*
X24565420Y-22134460D01*
X24565420Y-22134460D02*
X24584468Y-22143984D01*
X24584468Y-22143984D02*
X24603515Y-22143984D01*
X24746373Y-22134460D02*
X24727325Y-22143984D01*
X24727325Y-22143984D02*
X24689230Y-22143984D01*
X24689230Y-22143984D02*
X24670182Y-22134460D01*
X24670182Y-22134460D02*
X24660658Y-22115412D01*
X24660658Y-22115412D02*
X24660658Y-22039222D01*
X24660658Y-22039222D02*
X24670182Y-22020174D01*
X24670182Y-22020174D02*
X24689230Y-22010650D01*
X24689230Y-22010650D02*
X24727325Y-22010650D01*
X24727325Y-22010650D02*
X24746373Y-22020174D01*
X24746373Y-22020174D02*
X24755896Y-22039222D01*
X24755896Y-22039222D02*
X24755896Y-22058270D01*
X24755896Y-22058270D02*
X24660658Y-22077317D01*
X24927325Y-22143984D02*
X24927325Y-21943984D01*
X24927325Y-22134460D02*
X24908277Y-22143984D01*
X24908277Y-22143984D02*
X24870182Y-22143984D01*
X24870182Y-22143984D02*
X24851134Y-22134460D01*
X24851134Y-22134460D02*
X24841611Y-22124936D01*
X24841611Y-22124936D02*
X24832087Y-22105889D01*
X24832087Y-22105889D02*
X24832087Y-22048746D01*
X24832087Y-22048746D02*
X24841611Y-22029698D01*
X24841611Y-22029698D02*
X24851134Y-22020174D01*
X24851134Y-22020174D02*
X24870182Y-22010650D01*
X24870182Y-22010650D02*
X24908277Y-22010650D01*
X24908277Y-22010650D02*
X24927325Y-22020174D01*
X25003515Y-22220174D02*
X25013039Y-22210650D01*
X25013039Y-22210650D02*
X25032087Y-22182079D01*
X25032087Y-22182079D02*
X25041611Y-22163031D01*
X25041611Y-22163031D02*
X25051134Y-22134460D01*
X25051134Y-22134460D02*
X25060658Y-22086841D01*
X25060658Y-22086841D02*
X25060658Y-22048746D01*
X25060658Y-22048746D02*
X25051134Y-22001127D01*
X25051134Y-22001127D02*
X25041611Y-21972555D01*
X25041611Y-21972555D02*
X25032087Y-21953508D01*
X25032087Y-21953508D02*
X25013039Y-21924936D01*
X25013039Y-21924936D02*
X25003515Y-21915412D01*
M02*
