G04 #@! TF.GenerationSoftware,KiCad,Pcbnew,10.0.5*
G04 #@! TF.CreationDate,2026-09-01T20:20:50+10:00*
G04 #@! TF.ProjectId,pcbfirstdesign,70636266-6972-4737-9464-657369676e2e,rev?*
G04 #@! TF.SameCoordinates,Original*
G04 #@! TF.FileFunction,Soldermask,Top*
G04 #@! TF.FilePolarity,Negative*
%FSLAX46Y46*%
G04 Gerber Fmt 4.6, Leading zero omitted, Abs format (unit mm)*
G04 Created by KiCad (PCBNEW 10.0.5) date 2026-09-01 20:20:50*
%MOMM*%
%LPD*%
G01*
G04 APERTURE LIST*
G04 Aperture macros list*
%AMRoundRect*
0 Rectangle with rounded corners*
0 $1 Rounding radius*
0 $2 $3 $4 $5 $6 $7 $8 $9 X,Y pos of 4 corners*
0 Add a 4 corners polygon primitive as box body*
4,1,4,$2,$3,$4,$5,$6,$7,$8,$9,$2,$3,0*
0 Add four circle primitives for the rounded corners*
1,1,$1+$1,$2,$3*
1,1,$1+$1,$4,$5*
1,1,$1+$1,$6,$7*
1,1,$1+$1,$8,$9*
0 Add four rect primitives between the rounded corners*
20,1,$1+$1,$2,$3,$4,$5,0*
20,1,$1+$1,$4,$5,$6,$7,0*
20,1,$1+$1,$6,$7,$8,$9,0*
20,1,$1+$1,$8,$9,$2,$3,0*%
%AMFreePoly0*
4,1,37,0.800000,0.796148,0.878414,0.796148,1.032228,0.765552,1.177117,0.705537,1.307515,0.618408,1.418408,0.507515,1.505537,0.377117,1.565552,0.232228,1.596148,0.078414,1.596148,-0.078414,1.565552,-0.232228,1.505537,-0.377117,1.418408,-0.507515,1.307515,-0.618408,1.177117,-0.705537,1.032228,-0.765552,0.878414,-0.796148,0.800000,-0.796148,0.800000,-0.800000,-1.400000,-0.800000,
-1.403843,-0.796157,-1.439018,-0.796157,-1.511114,-0.766294,-1.566294,-0.711114,-1.596157,-0.639018,-1.596157,-0.603843,-1.600000,-0.600000,-1.600000,0.600000,-1.596157,0.603843,-1.596157,0.639018,-1.566294,0.711114,-1.511114,0.766294,-1.439018,0.796157,-1.403843,0.796157,-1.400000,0.800000,0.800000,0.800000,0.800000,0.796148,0.800000,0.796148,$1*%
%AMFreePoly1*
4,1,37,1.403843,0.796157,1.439018,0.796157,1.511114,0.766294,1.566294,0.711114,1.596157,0.639018,1.596157,0.603843,1.600000,0.600000,1.600000,-0.600000,1.596157,-0.603843,1.596157,-0.639018,1.566294,-0.711114,1.511114,-0.766294,1.439018,-0.796157,1.403843,-0.796157,1.400000,-0.800000,-0.800000,-0.800000,-0.800000,-0.796148,-0.878414,-0.796148,-1.032228,-0.765552,-1.177117,-0.705537,
-1.307515,-0.618408,-1.418408,-0.507515,-1.505537,-0.377117,-1.565552,-0.232228,-1.596148,-0.078414,-1.596148,0.078414,-1.565552,0.232228,-1.505537,0.377117,-1.418408,0.507515,-1.307515,0.618408,-1.177117,0.705537,-1.032228,0.765552,-0.878414,0.796148,-0.800000,0.796148,-0.800000,0.800000,1.400000,0.800000,1.403843,0.796157,1.403843,0.796157,$1*%
G04 Aperture macros list end*
%ADD10C,1.600000*%
%ADD11RoundRect,0.200000X-0.600000X0.600000X-0.600000X-0.600000X0.600000X-0.600000X0.600000X0.600000X0*%
%ADD12RoundRect,0.800000X-0.000010X0.800000X-0.000010X-0.800000X0.000010X-0.800000X0.000010X0.800000X0*%
%ADD13FreePoly0,270.000000*%
%ADD14FreePoly1,270.000000*%
%ADD15C,2.200000*%
%ADD16C,1.850000*%
%ADD17RoundRect,0.250000X0.337500X0.475000X-0.337500X0.475000X-0.337500X-0.475000X0.337500X-0.475000X0*%
%ADD18RoundRect,0.100000X0.100000X0.575000X-0.100000X0.575000X-0.100000X-0.575000X0.100000X-0.575000X0*%
%ADD19O,1.200000X1.900000*%
%ADD20R,1.200000X1.900000*%
%ADD21C,1.450000*%
%ADD22RoundRect,0.250000X0.500000X0.700000X-0.500000X0.700000X-0.500000X-0.700000X0.500000X-0.700000X0*%
%ADD23RoundRect,0.250000X-0.337500X-0.475000X0.337500X-0.475000X0.337500X0.475000X-0.337500X0.475000X0*%
%ADD24RoundRect,0.150000X-0.512500X-0.150000X0.512500X-0.150000X0.512500X0.150000X-0.512500X0.150000X0*%
%ADD25R,1.700000X1.700000*%
%ADD26C,1.700000*%
%ADD27R,1.600000X0.850000*%
%ADD28C,4.000000*%
%ADD29C,2.100000*%
%ADD30R,2.000000X2.000000*%
%ADD31C,2.000000*%
%ADD32R,2.000000X3.200000*%
%ADD33RoundRect,0.250000X-0.350000X-0.450000X0.350000X-0.450000X0.350000X0.450000X-0.350000X0.450000X0*%
%ADD34R,2.410000X3.300000*%
%ADD35RoundRect,0.150000X0.825000X0.150000X-0.825000X0.150000X-0.825000X-0.150000X0.825000X-0.150000X0*%
G04 APERTURE END LIST*
D10*
X225900000Y-181014100D03*
D11*
X225900000Y-178474100D03*
D10*
X225900000Y-183554100D03*
D12*
X255730000Y-187580000D03*
X253190000Y-187580000D03*
D13*
X250650000Y-187580000D03*
D12*
X248110000Y-187580000D03*
X245570000Y-187580000D03*
X243030000Y-187580000D03*
X240490000Y-187580000D03*
D13*
X237950000Y-187580000D03*
D12*
X235410000Y-187580000D03*
X232870000Y-187580000D03*
X230330000Y-187580000D03*
X227790000Y-187580000D03*
D13*
X225250000Y-187580000D03*
D12*
X222710000Y-187580000D03*
X220170000Y-187580000D03*
X217630000Y-187580000D03*
X215090000Y-187580000D03*
D13*
X212550000Y-187580000D03*
D12*
X210010000Y-187580000D03*
X207470000Y-187580000D03*
X207470000Y-168200000D03*
X210010000Y-168200000D03*
D14*
X212550000Y-168200000D03*
D12*
X215090000Y-168200000D03*
X217630000Y-168200000D03*
X220170000Y-168200000D03*
X222710000Y-168200000D03*
D14*
X225250000Y-168200000D03*
D12*
X227790000Y-168200000D03*
X230330000Y-168200000D03*
X232870000Y-168200000D03*
X235410000Y-168200000D03*
D14*
X237950000Y-168200000D03*
D12*
X240490000Y-168200000D03*
X243030000Y-168200000D03*
X245570000Y-168200000D03*
X248110000Y-168200000D03*
D14*
X250650000Y-168200000D03*
D12*
X253190000Y-168200000D03*
D13*
X255730000Y-168200000D03*
D15*
X255600000Y-180615000D03*
D16*
X252570000Y-180315000D03*
X252570000Y-175465000D03*
D15*
X255600000Y-175165000D03*
D17*
X248500000Y-194750000D03*
X246425000Y-194750000D03*
D18*
X260300000Y-197200000D03*
X259650000Y-197200000D03*
X259000000Y-197200000D03*
X258350000Y-197200000D03*
X257700000Y-197200000D03*
D19*
X262500000Y-194500000D03*
D20*
X261900000Y-194500000D03*
D21*
X261500000Y-197200000D03*
D22*
X260000000Y-194500000D03*
X258000000Y-194500000D03*
D21*
X256500000Y-197200000D03*
D20*
X256100000Y-194500000D03*
D19*
X255500000Y-194500000D03*
D23*
X227537500Y-195950000D03*
X225462500Y-195950000D03*
D24*
X237250000Y-195350000D03*
X237250000Y-197250000D03*
X234975000Y-197250000D03*
X234975000Y-196300000D03*
X234975000Y-195350000D03*
D25*
X191500000Y-113000000D03*
D26*
X194040000Y-113000000D03*
X196580000Y-113000000D03*
X199120000Y-113000000D03*
X201660000Y-113000000D03*
X204200000Y-113000000D03*
X206740000Y-113000000D03*
X209280000Y-113000000D03*
X211820000Y-113000000D03*
X214360000Y-113000000D03*
X216900000Y-113000000D03*
X219440000Y-113000000D03*
X221980000Y-113000000D03*
X224520000Y-113000000D03*
D27*
X192250000Y-128000000D03*
X192250000Y-129750000D03*
X195750000Y-129750000D03*
X195750000Y-128000000D03*
X211750000Y-128000000D03*
X211750000Y-129750000D03*
X215250000Y-129750000D03*
X215250000Y-128000000D03*
D15*
X190150000Y-123960000D03*
X196500000Y-121420000D03*
D26*
X199040000Y-126500000D03*
D28*
X193960000Y-126500000D03*
D26*
X188880000Y-126500000D03*
D27*
X195750000Y-147250000D03*
X195750000Y-149000000D03*
X192250000Y-149000000D03*
X192250000Y-147250000D03*
D26*
X208163300Y-145790000D03*
D28*
X213243300Y-145790000D03*
D26*
X218323300Y-145790000D03*
D15*
X215783300Y-140710000D03*
X209433300Y-143250000D03*
D26*
X208170000Y-126500000D03*
D28*
X213250000Y-126500000D03*
D26*
X218330000Y-126500000D03*
D15*
X215790000Y-121420000D03*
X209440000Y-123960000D03*
D27*
X215000000Y-147250000D03*
X215000000Y-149000000D03*
X211500000Y-149000000D03*
X211500000Y-147250000D03*
D26*
X227446700Y-145790000D03*
D28*
X232526700Y-145790000D03*
D26*
X237606700Y-145790000D03*
D15*
X235066700Y-140710000D03*
X228716700Y-143250000D03*
D27*
X234500000Y-128000000D03*
X234500000Y-129750000D03*
X231000000Y-129750000D03*
X231000000Y-128000000D03*
X234250000Y-147000000D03*
X234250000Y-148750000D03*
X230750000Y-148750000D03*
X230750000Y-147000000D03*
D15*
X228730000Y-123960000D03*
X235080000Y-121420000D03*
D26*
X237620000Y-126500000D03*
D28*
X232540000Y-126500000D03*
D26*
X227460000Y-126500000D03*
D27*
X253500000Y-147250000D03*
X253500000Y-149000000D03*
X250000000Y-149000000D03*
X250000000Y-147250000D03*
X253750000Y-128000000D03*
X253750000Y-129750000D03*
X250250000Y-129750000D03*
X250250000Y-128000000D03*
D26*
X246750000Y-126500000D03*
D28*
X251830000Y-126500000D03*
D26*
X256910000Y-126500000D03*
D15*
X254370000Y-121420000D03*
X248020000Y-123960000D03*
X248000000Y-143250000D03*
X254350000Y-140710000D03*
D26*
X256890000Y-145790000D03*
D28*
X251810000Y-145790000D03*
D26*
X246730000Y-145790000D03*
D29*
X275250000Y-199000000D03*
D30*
X273750000Y-119750000D03*
D31*
X268750000Y-119750000D03*
X271250000Y-119750000D03*
D32*
X276850000Y-127250000D03*
X265650000Y-127250000D03*
D31*
X268750000Y-134250000D03*
X273750000Y-134250000D03*
D29*
X185000000Y-199250000D03*
D33*
X271500000Y-167500000D03*
X269500000Y-167500000D03*
D31*
X276250000Y-145500000D03*
D30*
X268650000Y-145500000D03*
D29*
X275250000Y-113250000D03*
X185250000Y-113000000D03*
D33*
X238250000Y-191500000D03*
X236250000Y-191500000D03*
D34*
X265525000Y-161155000D03*
D35*
X263050000Y-163060000D03*
X263050000Y-161790000D03*
X263050000Y-160520000D03*
X263050000Y-159250000D03*
X268000000Y-159250000D03*
X268000000Y-160520000D03*
X268000000Y-161790000D03*
X268000000Y-163060000D03*
D15*
X190150000Y-143250000D03*
X196500000Y-140710000D03*
D26*
X199040000Y-145790000D03*
D28*
X193960000Y-145790000D03*
D26*
X188880000Y-145790000D03*
M02*
