G04 #@! TF.GenerationSoftware,KiCad,Pcbnew,10.0.5*
G04 #@! TF.CreationDate,2026-09-01T20:20:50+10:00*
G04 #@! TF.ProjectId,pcbfirstdesign,70636266-6972-4737-9464-657369676e2e,rev?*
G04 #@! TF.SameCoordinates,Original*
G04 #@! TF.FileFunction,OtherDrawing,Comment*
%FSLAX46Y46*%
G04 Gerber Fmt 4.6, Leading zero omitted, Abs format (unit mm)*
G04 Created by KiCad (PCBNEW 10.0.5) date 2026-09-01 20:20:50*
%MOMM*%
%LPD*%
G01*
G04 APERTURE LIST*
%ADD10C,0.080000*%
%ADD11C,0.120000*%
%ADD12C,0.150000*%
G04 APERTURE END LIST*
D10*
X257285714Y-193277149D02*
X257285714Y-192777149D01*
X257285714Y-192777149D02*
X257476190Y-192777149D01*
X257476190Y-192777149D02*
X257523809Y-192800959D01*
X257523809Y-192800959D02*
X257547619Y-192824768D01*
X257547619Y-192824768D02*
X257571428Y-192872387D01*
X257571428Y-192872387D02*
X257571428Y-192943816D01*
X257571428Y-192943816D02*
X257547619Y-192991435D01*
X257547619Y-192991435D02*
X257523809Y-193015244D01*
X257523809Y-193015244D02*
X257476190Y-193039054D01*
X257476190Y-193039054D02*
X257285714Y-193039054D01*
X258071428Y-193229530D02*
X258047619Y-193253340D01*
X258047619Y-193253340D02*
X257976190Y-193277149D01*
X257976190Y-193277149D02*
X257928571Y-193277149D01*
X257928571Y-193277149D02*
X257857143Y-193253340D01*
X257857143Y-193253340D02*
X257809524Y-193205720D01*
X257809524Y-193205720D02*
X257785714Y-193158101D01*
X257785714Y-193158101D02*
X257761905Y-193062863D01*
X257761905Y-193062863D02*
X257761905Y-192991435D01*
X257761905Y-192991435D02*
X257785714Y-192896197D01*
X257785714Y-192896197D02*
X257809524Y-192848578D01*
X257809524Y-192848578D02*
X257857143Y-192800959D01*
X257857143Y-192800959D02*
X257928571Y-192777149D01*
X257928571Y-192777149D02*
X257976190Y-192777149D01*
X257976190Y-192777149D02*
X258047619Y-192800959D01*
X258047619Y-192800959D02*
X258071428Y-192824768D01*
X258452381Y-193015244D02*
X258523809Y-193039054D01*
X258523809Y-193039054D02*
X258547619Y-193062863D01*
X258547619Y-193062863D02*
X258571428Y-193110482D01*
X258571428Y-193110482D02*
X258571428Y-193181911D01*
X258571428Y-193181911D02*
X258547619Y-193229530D01*
X258547619Y-193229530D02*
X258523809Y-193253340D01*
X258523809Y-193253340D02*
X258476190Y-193277149D01*
X258476190Y-193277149D02*
X258285714Y-193277149D01*
X258285714Y-193277149D02*
X258285714Y-192777149D01*
X258285714Y-192777149D02*
X258452381Y-192777149D01*
X258452381Y-192777149D02*
X258500000Y-192800959D01*
X258500000Y-192800959D02*
X258523809Y-192824768D01*
X258523809Y-192824768D02*
X258547619Y-192872387D01*
X258547619Y-192872387D02*
X258547619Y-192920006D01*
X258547619Y-192920006D02*
X258523809Y-192967625D01*
X258523809Y-192967625D02*
X258500000Y-192991435D01*
X258500000Y-192991435D02*
X258452381Y-193015244D01*
X258452381Y-193015244D02*
X258285714Y-193015244D01*
X259166666Y-193015244D02*
X259333333Y-193015244D01*
X259404761Y-193277149D02*
X259166666Y-193277149D01*
X259166666Y-193277149D02*
X259166666Y-192777149D01*
X259166666Y-192777149D02*
X259404761Y-192777149D01*
X259833333Y-193277149D02*
X259833333Y-192777149D01*
X259833333Y-193253340D02*
X259785714Y-193277149D01*
X259785714Y-193277149D02*
X259690476Y-193277149D01*
X259690476Y-193277149D02*
X259642857Y-193253340D01*
X259642857Y-193253340D02*
X259619047Y-193229530D01*
X259619047Y-193229530D02*
X259595238Y-193181911D01*
X259595238Y-193181911D02*
X259595238Y-193039054D01*
X259595238Y-193039054D02*
X259619047Y-192991435D01*
X259619047Y-192991435D02*
X259642857Y-192967625D01*
X259642857Y-192967625D02*
X259690476Y-192943816D01*
X259690476Y-192943816D02*
X259785714Y-192943816D01*
X259785714Y-192943816D02*
X259833333Y-192967625D01*
X260285714Y-192943816D02*
X260285714Y-193348578D01*
X260285714Y-193348578D02*
X260261904Y-193396197D01*
X260261904Y-193396197D02*
X260238095Y-193420006D01*
X260238095Y-193420006D02*
X260190476Y-193443816D01*
X260190476Y-193443816D02*
X260119047Y-193443816D01*
X260119047Y-193443816D02*
X260071428Y-193420006D01*
X260285714Y-193253340D02*
X260238095Y-193277149D01*
X260238095Y-193277149D02*
X260142857Y-193277149D01*
X260142857Y-193277149D02*
X260095238Y-193253340D01*
X260095238Y-193253340D02*
X260071428Y-193229530D01*
X260071428Y-193229530D02*
X260047619Y-193181911D01*
X260047619Y-193181911D02*
X260047619Y-193039054D01*
X260047619Y-193039054D02*
X260071428Y-192991435D01*
X260071428Y-192991435D02*
X260095238Y-192967625D01*
X260095238Y-192967625D02*
X260142857Y-192943816D01*
X260142857Y-192943816D02*
X260238095Y-192943816D01*
X260238095Y-192943816D02*
X260285714Y-192967625D01*
X260714285Y-193253340D02*
X260666666Y-193277149D01*
X260666666Y-193277149D02*
X260571428Y-193277149D01*
X260571428Y-193277149D02*
X260523809Y-193253340D01*
X260523809Y-193253340D02*
X260500000Y-193205720D01*
X260500000Y-193205720D02*
X260500000Y-193015244D01*
X260500000Y-193015244D02*
X260523809Y-192967625D01*
X260523809Y-192967625D02*
X260571428Y-192943816D01*
X260571428Y-192943816D02*
X260666666Y-192943816D01*
X260666666Y-192943816D02*
X260714285Y-192967625D01*
X260714285Y-192967625D02*
X260738095Y-193015244D01*
X260738095Y-193015244D02*
X260738095Y-193062863D01*
X260738095Y-193062863D02*
X260500000Y-193110482D01*
D11*
X209150000Y-172190000D02*
G75*
G02*
X207050000Y-172190000I-1050000J0D01*
G01*
X207050000Y-172190000D02*
G75*
G02*
X209150000Y-172190000I1050000J0D01*
G01*
X209150000Y-183590000D02*
G75*
G02*
X207050000Y-183590000I-1050000J0D01*
G01*
X207050000Y-183590000D02*
G75*
G02*
X209150000Y-183590000I1050000J0D01*
G01*
X256150000Y-183590000D02*
G75*
G02*
X254050000Y-183590000I-1050000J0D01*
G01*
X254050000Y-183590000D02*
G75*
G02*
X256150000Y-183590000I1050000J0D01*
G01*
X256150000Y-172190000D02*
G75*
G02*
X254050000Y-172190000I-1050000J0D01*
G01*
X254050000Y-172190000D02*
G75*
G02*
X256150000Y-172190000I1050000J0D01*
G01*
D12*
X203485000Y-136025000D02*
X184435000Y-136025000D01*
X203485000Y-116975000D02*
X203485000Y-136025000D01*
X184435000Y-136025000D02*
X184435000Y-116975000D01*
X184435000Y-116975000D02*
X203485000Y-116975000D01*
X203718300Y-136265000D02*
X222768300Y-136265000D01*
X203718300Y-155315000D02*
X203718300Y-136265000D01*
X222768300Y-136265000D02*
X222768300Y-155315000D01*
X222768300Y-155315000D02*
X203718300Y-155315000D01*
X203725000Y-116975000D02*
X222775000Y-116975000D01*
X203725000Y-136025000D02*
X203725000Y-116975000D01*
X222775000Y-116975000D02*
X222775000Y-136025000D01*
X222775000Y-136025000D02*
X203725000Y-136025000D01*
X223001700Y-136265000D02*
X242051700Y-136265000D01*
X223001700Y-155315000D02*
X223001700Y-136265000D01*
X242051700Y-136265000D02*
X242051700Y-155315000D01*
X242051700Y-155315000D02*
X223001700Y-155315000D01*
X242065000Y-136025000D02*
X223015000Y-136025000D01*
X242065000Y-116975000D02*
X242065000Y-136025000D01*
X223015000Y-136025000D02*
X223015000Y-116975000D01*
X223015000Y-116975000D02*
X242065000Y-116975000D01*
X242305000Y-116975000D02*
X261355000Y-116975000D01*
X242305000Y-136025000D02*
X242305000Y-116975000D01*
X261355000Y-116975000D02*
X261355000Y-136025000D01*
X261355000Y-136025000D02*
X242305000Y-136025000D01*
X261335000Y-155315000D02*
X242285000Y-155315000D01*
X261335000Y-136265000D02*
X261335000Y-155315000D01*
X242285000Y-155315000D02*
X242285000Y-136265000D01*
X242285000Y-136265000D02*
X261335000Y-136265000D01*
X203485000Y-155315000D02*
X184435000Y-155315000D01*
X203485000Y-136265000D02*
X203485000Y-155315000D01*
X184435000Y-155315000D02*
X184435000Y-136265000D01*
X184435000Y-136265000D02*
X203485000Y-136265000D01*
M02*
