G04 #@! TF.GenerationSoftware,KiCad,Pcbnew,10.0.5*
G04 #@! TF.CreationDate,2026-09-01T20:20:49+10:00*
G04 #@! TF.ProjectId,pcbfirstdesign,70636266-6972-4737-9464-657369676e2e,rev?*
G04 #@! TF.SameCoordinates,Original*
G04 #@! TF.FileFunction,Copper,L4,Bot*
G04 #@! TF.FilePolarity,Positive*
%FSLAX46Y46*%
G04 Gerber Fmt 4.6, Leading zero omitted, Abs format (unit mm)*
G04 Created by KiCad (PCBNEW 10.0.5) date 2026-09-01 20:20:49*
%MOMM*%
%LPD*%
G01*
G04 APERTURE LIST*
G04 Aperture macros list*
%AMRoundRect*
0 Rectangle with rounded corners*
0 $1 Rounding radius*
0 $2 $3 $4 $5 $6 $7 $8 $9 X,Y pos of 4 corners*
0 Add a 4 corners polygon primitive as box body*
4,1,4,$2,$3,$4,$5,$6,$7,$8,$9,$2,$3,0*
0 Add four circle primitives for the rounded corners*
1,1,$1+$1,$2,$3*
1,1,$1+$1,$4,$5*
1,1,$1+$1,$6,$7*
1,1,$1+$1,$8,$9*
0 Add four rect primitives between the rounded corners*
20,1,$1+$1,$2,$3,$4,$5,0*
20,1,$1+$1,$4,$5,$6,$7,0*
20,1,$1+$1,$6,$7,$8,$9,0*
20,1,$1+$1,$8,$9,$2,$3,0*%
G04 Aperture macros list end*
G04 #@! TA.AperFunction,ComponentPad*
%ADD10C,1.600000*%
G04 #@! TD*
G04 #@! TA.AperFunction,ComponentPad*
%ADD11RoundRect,0.200000X-0.600000X0.600000X-0.600000X-0.600000X0.600000X-0.600000X0.600000X0.600000X0*%
G04 #@! TD*
G04 #@! TA.AperFunction,ComponentPad*
%ADD12O,1.200000X1.900000*%
G04 #@! TD*
G04 #@! TA.AperFunction,ComponentPad*
%ADD13C,1.450000*%
G04 #@! TD*
G04 #@! TA.AperFunction,ComponentPad*
%ADD14R,1.700000X1.700000*%
G04 #@! TD*
G04 #@! TA.AperFunction,ComponentPad*
%ADD15C,1.700000*%
G04 #@! TD*
G04 #@! TA.AperFunction,ComponentPad*
%ADD16C,2.200000*%
G04 #@! TD*
G04 #@! TA.AperFunction,ComponentPad*
%ADD17R,2.000000X2.000000*%
G04 #@! TD*
G04 #@! TA.AperFunction,ComponentPad*
%ADD18C,2.000000*%
G04 #@! TD*
G04 #@! TA.AperFunction,ComponentPad*
%ADD19R,2.000000X3.200000*%
G04 #@! TD*
G04 #@! TA.AperFunction,HeatsinkPad*
%ADD20C,0.500000*%
G04 #@! TD*
G04 #@! TA.AperFunction,HeatsinkPad*
%ADD21R,1.900000X2.900000*%
G04 #@! TD*
G04 #@! TA.AperFunction,ViaPad*
%ADD22C,0.900000*%
G04 #@! TD*
G04 #@! TA.AperFunction,Conductor*
%ADD23C,0.200000*%
G04 #@! TD*
G04 APERTURE END LIST*
D10*
X225900000Y-181014100D03*
D11*
X225900000Y-178474100D03*
D10*
X225900000Y-183554100D03*
D12*
X262500000Y-194500000D03*
D13*
X261500000Y-197200000D03*
X256500000Y-197200000D03*
D12*
X255500000Y-194500000D03*
D14*
X191500000Y-113000000D03*
D15*
X194040000Y-113000000D03*
X196580000Y-113000000D03*
X199120000Y-113000000D03*
X201660000Y-113000000D03*
X204200000Y-113000000D03*
X206740000Y-113000000D03*
X209280000Y-113000000D03*
X211820000Y-113000000D03*
X214360000Y-113000000D03*
X216900000Y-113000000D03*
X219440000Y-113000000D03*
X221980000Y-113000000D03*
X224520000Y-113000000D03*
D16*
X190150000Y-123960000D03*
X196500000Y-121420000D03*
X215783300Y-140710000D03*
X209433300Y-143250000D03*
X215790000Y-121420000D03*
X209440000Y-123960000D03*
X235066700Y-140710000D03*
X228716700Y-143250000D03*
X228730000Y-123960000D03*
X235080000Y-121420000D03*
X254370000Y-121420000D03*
X248020000Y-123960000D03*
X248000000Y-143250000D03*
X254350000Y-140710000D03*
D17*
X273750000Y-119750000D03*
D18*
X268750000Y-119750000D03*
X271250000Y-119750000D03*
D19*
X276850000Y-127250000D03*
X265650000Y-127250000D03*
D18*
X268750000Y-134250000D03*
X273750000Y-134250000D03*
X276250000Y-145500000D03*
D17*
X268650000Y-145500000D03*
D20*
X264825000Y-159955000D03*
X264825000Y-161155000D03*
X264825000Y-162355000D03*
D21*
X265525000Y-161155000D03*
D20*
X266225000Y-159955000D03*
X266225000Y-161155000D03*
X266225000Y-162355000D03*
D16*
X190150000Y-143250000D03*
X196500000Y-140710000D03*
D22*
X261536600Y-159919200D03*
X228803400Y-196392900D03*
X253190000Y-185316500D03*
X254250000Y-124500000D03*
X230250000Y-141750000D03*
X252126131Y-131873869D03*
X211596800Y-143250000D03*
X208500000Y-128000000D03*
X197203800Y-129799400D03*
X238250000Y-192855800D03*
X221703700Y-131811600D03*
X240758700Y-165928700D03*
X248091600Y-165893200D03*
X250920800Y-165930800D03*
X209739200Y-165930800D03*
X190796400Y-129024800D03*
X190937100Y-148094800D03*
X213452000Y-129955400D03*
X254385300Y-170038000D03*
X235106300Y-165929000D03*
X216101700Y-150050400D03*
X228136400Y-130143300D03*
X229053600Y-169817600D03*
X231536600Y-166537300D03*
X222618700Y-165435600D03*
X245570000Y-165929300D03*
X268459100Y-166459100D03*
X269631900Y-161790000D03*
X233151500Y-185321500D03*
X217893500Y-185303500D03*
X221958400Y-184359000D03*
X207495700Y-189842000D03*
X215792300Y-189751800D03*
X223973100Y-183525700D03*
X208994400Y-185741600D03*
X220453100Y-185323100D03*
X252396700Y-150044400D03*
X257190000Y-186566500D03*
X267046500Y-158296500D03*
X262561900Y-196163300D03*
X253465600Y-165935600D03*
X232790400Y-148593700D03*
X212550000Y-189839200D03*
X213108300Y-165389900D03*
X249779300Y-166222000D03*
X225248400Y-165946200D03*
X193718000Y-130116300D03*
X210294500Y-129799400D03*
X193351700Y-150045000D03*
X210398300Y-150046800D03*
X229527100Y-129748400D03*
X229289900Y-149108400D03*
X248530600Y-148632300D03*
X248797900Y-129606300D03*
X225250000Y-191197200D03*
X237974100Y-165943100D03*
X191940369Y-143440369D03*
X235250000Y-123250000D03*
D23*
X254250000Y-124500000D02*
X255750000Y-126000000D01*
X255750000Y-146691100D02*
X252396700Y-150044400D01*
X255750000Y-126000000D02*
X255750000Y-146691100D01*
X230250000Y-140500000D02*
X230250000Y-141750000D01*
X238876131Y-131873869D02*
X230250000Y-140500000D01*
X252126131Y-131873869D02*
X238876131Y-131873869D01*
X211596800Y-143250000D02*
X213870000Y-143250000D01*
X215351700Y-144731700D02*
X215351700Y-150361061D01*
X213870000Y-143250000D02*
X215351700Y-144731700D01*
X215351700Y-150361061D02*
X215791039Y-150800400D01*
X228136400Y-139113600D02*
X228136400Y-130143300D01*
X215791039Y-150800400D02*
X216449600Y-150800400D01*
X216449600Y-150800400D02*
X228136400Y-139113600D01*
X208500000Y-128000000D02*
X209960522Y-128000000D01*
X211165922Y-129205400D02*
X213762661Y-129205400D01*
X216101700Y-143008299D02*
X216101700Y-150050400D01*
X209960522Y-128000000D02*
X211165922Y-129205400D01*
X213762661Y-129205400D02*
X214383300Y-129826039D01*
X214383300Y-129826039D02*
X214383300Y-141289899D01*
X214383300Y-141289899D02*
X216101700Y-143008299D01*
X235106300Y-155757300D02*
X235106300Y-165929000D01*
X247613600Y-143250000D02*
X235106300Y-155757300D01*
X248000000Y-143250000D02*
X247613600Y-143250000D01*
X264825000Y-161155000D02*
X265525000Y-161155000D01*
X191940369Y-143440369D02*
X199967031Y-143440369D01*
X199967031Y-143440369D02*
X213452000Y-129955400D01*
X232555100Y-148358400D02*
X232790400Y-148593700D01*
X227608400Y-148358400D02*
X232555100Y-148358400D01*
X225500000Y-146250000D02*
X227608400Y-148358400D01*
X235250000Y-134736801D02*
X225500000Y-144486801D01*
X235250000Y-123250000D02*
X235250000Y-134736801D01*
X225500000Y-144486801D02*
X225500000Y-146250000D01*
G04 #@! TA.AperFunction,Conductor*
G36*
X280185148Y-110314852D02*
G01*
X280199500Y-110349500D01*
X280199500Y-201650500D01*
X280185148Y-201685148D01*
X280150500Y-201699500D01*
X198532864Y-201699500D01*
X182599320Y-201640906D01*
X182564725Y-201626427D01*
X182550500Y-201591906D01*
X182550500Y-199146535D01*
X183949500Y-199146535D01*
X183949500Y-199353465D01*
X183989870Y-199556420D01*
X184069059Y-199747598D01*
X184184023Y-199919655D01*
X184330345Y-200065977D01*
X184502402Y-200180941D01*
X184693580Y-200260130D01*
X184896535Y-200300500D01*
X184896538Y-200300500D01*
X185103462Y-200300500D01*
X185103465Y-200300500D01*
X185306420Y-200260130D01*
X185497598Y-200180941D01*
X185669655Y-200065977D01*
X185815977Y-199919655D01*
X185930941Y-199747598D01*
X186010130Y-199556420D01*
X186050500Y-199353465D01*
X186050500Y-199146535D01*
X186021353Y-199000000D01*
X196500000Y-199000000D01*
X206804396Y-199000000D01*
X206804397Y-199000000D01*
X206803999Y-198896535D01*
X274199500Y-198896535D01*
X274199500Y-199103465D01*
X274239870Y-199306420D01*
X274319059Y-199497598D01*
X274434023Y-199669655D01*
X274580345Y-199815977D01*
X274752402Y-199930941D01*
X274943580Y-200010130D01*
X275146535Y-200050500D01*
X275146538Y-200050500D01*
X275353462Y-200050500D01*
X275353465Y-200050500D01*
X275556420Y-200010130D01*
X275747598Y-199930941D01*
X275919655Y-199815977D01*
X276065977Y-199669655D01*
X276180941Y-199497598D01*
X276260130Y-199306420D01*
X276300500Y-199103465D01*
X276300500Y-198896535D01*
X276260130Y-198693580D01*
X276180941Y-198502402D01*
X276065977Y-198330345D01*
X275919655Y-198184023D01*
X275747598Y-198069059D01*
X275747596Y-198069058D01*
X275556423Y-197989871D01*
X275556417Y-197989869D01*
X275474572Y-197973589D01*
X275353465Y-197949500D01*
X275146535Y-197949500D01*
X275045520Y-197969592D01*
X274943582Y-197989869D01*
X274943576Y-197989871D01*
X274752403Y-198069058D01*
X274580345Y-198184022D01*
X274434022Y-198330345D01*
X274319058Y-198502403D01*
X274239871Y-198693576D01*
X274239869Y-198693582D01*
X274228169Y-198752403D01*
X274199500Y-198896535D01*
X206803999Y-198896535D01*
X206797099Y-197103590D01*
X255275000Y-197103590D01*
X255275000Y-197296409D01*
X255305163Y-197486852D01*
X255305164Y-197486855D01*
X255364748Y-197670238D01*
X255452282Y-197842034D01*
X255452288Y-197842043D01*
X255474217Y-197872227D01*
X255474218Y-197872227D01*
X256078274Y-197268171D01*
X256103963Y-197364044D01*
X256159916Y-197460956D01*
X256239044Y-197540084D01*
X256335956Y-197596037D01*
X256431827Y-197621725D01*
X255827771Y-198225780D01*
X255827771Y-198225781D01*
X255857953Y-198247710D01*
X255857962Y-198247715D01*
X256029761Y-198335251D01*
X256213144Y-198394835D01*
X256213147Y-198394836D01*
X256403591Y-198425000D01*
X256596409Y-198425000D01*
X256786852Y-198394836D01*
X256786855Y-198394835D01*
X256970238Y-198335251D01*
X257142037Y-198247715D01*
X257172228Y-198225781D01*
X256568172Y-197621725D01*
X256664044Y-197596037D01*
X256760956Y-197540084D01*
X256840084Y-197460956D01*
X256896037Y-197364044D01*
X256921725Y-197268172D01*
X257525781Y-197872228D01*
X257547715Y-197842037D01*
X257635251Y-197670238D01*
X257694835Y-197486855D01*
X257694836Y-197486852D01*
X257725000Y-197296409D01*
X257725000Y-197103590D01*
X260275000Y-197103590D01*
X260275000Y-197296409D01*
X260305163Y-197486852D01*
X260305164Y-197486855D01*
X260364748Y-197670238D01*
X260452282Y-197842034D01*
X260452288Y-197842043D01*
X260474217Y-197872227D01*
X260474218Y-197872227D01*
X261078274Y-197268171D01*
X261103963Y-197364044D01*
X261159916Y-197460956D01*
X261239044Y-197540084D01*
X261335956Y-197596037D01*
X261431827Y-197621725D01*
X260827771Y-198225780D01*
X260827771Y-198225781D01*
X260857953Y-198247710D01*
X260857962Y-198247715D01*
X261029761Y-198335251D01*
X261213144Y-198394835D01*
X261213147Y-198394836D01*
X261403591Y-198425000D01*
X261596409Y-198425000D01*
X261786852Y-198394836D01*
X261786855Y-198394835D01*
X261970238Y-198335251D01*
X262142037Y-198247715D01*
X262172228Y-198225781D01*
X261568172Y-197621725D01*
X261664044Y-197596037D01*
X261760956Y-197540084D01*
X261840084Y-197460956D01*
X261896037Y-197364044D01*
X261921725Y-197268171D01*
X262525781Y-197872228D01*
X262547715Y-197842037D01*
X262635251Y-197670238D01*
X262694835Y-197486855D01*
X262694836Y-197486852D01*
X262725000Y-197296409D01*
X262725000Y-197103590D01*
X262694836Y-196913147D01*
X262694835Y-196913144D01*
X262677375Y-196859406D01*
X262680318Y-196822019D01*
X262708835Y-196797662D01*
X262714403Y-196796208D01*
X262751644Y-196788801D01*
X262870027Y-196739765D01*
X262976569Y-196668576D01*
X263067176Y-196577969D01*
X263138365Y-196471427D01*
X263187401Y-196353044D01*
X263212400Y-196227369D01*
X263212400Y-196099231D01*
X263187401Y-195973556D01*
X263138365Y-195855173D01*
X263115374Y-195820765D01*
X263108059Y-195783985D01*
X263127316Y-195753902D01*
X263216603Y-195689031D01*
X263216608Y-195689028D01*
X263339028Y-195566608D01*
X263339031Y-195566603D01*
X263440800Y-195426530D01*
X263440802Y-195426527D01*
X263519410Y-195272251D01*
X263572913Y-195107584D01*
X263572914Y-195107581D01*
X263600000Y-194936571D01*
X263600000Y-194750000D01*
X262800000Y-194750000D01*
X262800000Y-194250000D01*
X263600000Y-194250000D01*
X263600000Y-194063428D01*
X263572914Y-193892418D01*
X263572913Y-193892415D01*
X263519410Y-193727748D01*
X263440802Y-193573472D01*
X263440800Y-193573469D01*
X263339031Y-193433396D01*
X263339028Y-193433392D01*
X263216608Y-193310972D01*
X263216603Y-193310968D01*
X263076530Y-193209199D01*
X263076527Y-193209197D01*
X262922251Y-193130589D01*
X262757580Y-193077085D01*
X262757577Y-193077084D01*
X262750000Y-193075883D01*
X262750000Y-193983011D01*
X262740060Y-193965795D01*
X262684205Y-193909940D01*
X262615796Y-193870444D01*
X262539496Y-193850000D01*
X262460504Y-193850000D01*
X262384204Y-193870444D01*
X262315795Y-193909940D01*
X262259940Y-193965795D01*
X262250000Y-193983011D01*
X262250000Y-193075884D01*
X262249999Y-193075883D01*
X262242422Y-193077084D01*
X262242419Y-193077085D01*
X262077748Y-193130589D01*
X261923472Y-193209197D01*
X261923469Y-193209199D01*
X261783396Y-193310968D01*
X261660968Y-193433396D01*
X261559199Y-193573469D01*
X261559197Y-193573472D01*
X261480589Y-193727748D01*
X261427086Y-193892415D01*
X261427085Y-193892418D01*
X261400000Y-194063428D01*
X261400000Y-194250000D01*
X262200000Y-194250000D01*
X262200000Y-194750000D01*
X261400000Y-194750000D01*
X261400000Y-194936571D01*
X261427085Y-195107581D01*
X261427086Y-195107584D01*
X261480589Y-195272251D01*
X261559197Y-195426527D01*
X261559199Y-195426530D01*
X261660968Y-195566603D01*
X261660972Y-195566608D01*
X261783392Y-195689028D01*
X261783396Y-195689031D01*
X261923468Y-195790799D01*
X261956294Y-195807525D01*
X261980651Y-195836043D01*
X261979319Y-195869936D01*
X261936399Y-195973553D01*
X261936397Y-195973560D01*
X261932171Y-195994804D01*
X261911334Y-196025985D01*
X261874551Y-196033300D01*
X261868972Y-196031844D01*
X261786859Y-196005165D01*
X261786852Y-196005163D01*
X261596409Y-195975000D01*
X261403591Y-195975000D01*
X261213147Y-196005163D01*
X261213144Y-196005164D01*
X261029761Y-196064748D01*
X260857965Y-196152282D01*
X260857959Y-196152286D01*
X260827771Y-196174218D01*
X261431828Y-196778274D01*
X261335956Y-196803963D01*
X261239044Y-196859916D01*
X261159916Y-196939044D01*
X261103963Y-197035956D01*
X261078274Y-197131827D01*
X260474218Y-196527771D01*
X260452286Y-196557959D01*
X260452282Y-196557965D01*
X260364748Y-196729761D01*
X260305164Y-196913144D01*
X260305163Y-196913147D01*
X260275000Y-197103590D01*
X257725000Y-197103590D01*
X257694836Y-196913147D01*
X257694835Y-196913144D01*
X257635251Y-196729761D01*
X257547715Y-196557962D01*
X257547710Y-196557953D01*
X257525781Y-196527771D01*
X257525780Y-196527771D01*
X256921725Y-197131826D01*
X256896037Y-197035956D01*
X256840084Y-196939044D01*
X256760956Y-196859916D01*
X256664044Y-196803963D01*
X256568170Y-196778274D01*
X257172227Y-196174218D01*
X257172227Y-196174217D01*
X257142043Y-196152288D01*
X257142034Y-196152282D01*
X256970238Y-196064748D01*
X256786855Y-196005164D01*
X256786852Y-196005163D01*
X256596409Y-195975000D01*
X256403591Y-195975000D01*
X256213147Y-196005163D01*
X256213144Y-196005164D01*
X256029761Y-196064748D01*
X255857965Y-196152282D01*
X255857959Y-196152286D01*
X255827771Y-196174218D01*
X256431827Y-196778274D01*
X256335956Y-196803963D01*
X256239044Y-196859916D01*
X256159916Y-196939044D01*
X256103963Y-197035956D01*
X256078274Y-197131827D01*
X255474218Y-196527771D01*
X255452286Y-196557959D01*
X255452282Y-196557965D01*
X255364748Y-196729761D01*
X255305164Y-196913144D01*
X255305163Y-196913147D01*
X255275000Y-197103590D01*
X206797099Y-197103590D01*
X206794117Y-196328827D01*
X228152900Y-196328827D01*
X228152900Y-196456972D01*
X228177897Y-196582637D01*
X228177898Y-196582642D01*
X228177899Y-196582644D01*
X228226935Y-196701027D01*
X228252819Y-196739765D01*
X228295714Y-196803963D01*
X228298124Y-196807569D01*
X228388731Y-196898176D01*
X228495273Y-196969365D01*
X228613656Y-197018401D01*
X228739331Y-197043400D01*
X228867469Y-197043400D01*
X228993144Y-197018401D01*
X229111527Y-196969365D01*
X229218069Y-196898176D01*
X229308676Y-196807569D01*
X229379865Y-196701027D01*
X229428901Y-196582644D01*
X229453900Y-196456969D01*
X229453900Y-196328831D01*
X229433718Y-196227372D01*
X229428903Y-196203164D01*
X229428901Y-196203157D01*
X229407831Y-196152288D01*
X229379865Y-196084773D01*
X229308676Y-195978231D01*
X229218069Y-195887624D01*
X229111527Y-195816435D01*
X229090017Y-195807525D01*
X228993142Y-195767398D01*
X228993137Y-195767397D01*
X228867472Y-195742400D01*
X228867469Y-195742400D01*
X228739331Y-195742400D01*
X228739327Y-195742400D01*
X228613662Y-195767397D01*
X228613657Y-195767398D01*
X228495274Y-195816434D01*
X228388731Y-195887623D01*
X228298123Y-195978231D01*
X228226934Y-196084774D01*
X228177898Y-196203157D01*
X228177897Y-196203162D01*
X228152900Y-196328827D01*
X206794117Y-196328827D01*
X206785399Y-194063428D01*
X254400000Y-194063428D01*
X254400000Y-194250000D01*
X255200000Y-194250000D01*
X255200000Y-194750000D01*
X254400000Y-194750000D01*
X254400000Y-194936571D01*
X254427085Y-195107581D01*
X254427086Y-195107584D01*
X254480589Y-195272251D01*
X254559197Y-195426527D01*
X254559199Y-195426530D01*
X254660968Y-195566603D01*
X254660972Y-195566608D01*
X254783392Y-195689028D01*
X254783396Y-195689031D01*
X254923469Y-195790800D01*
X254923472Y-195790802D01*
X255077748Y-195869410D01*
X255242416Y-195922914D01*
X255250000Y-195924115D01*
X255250000Y-195016988D01*
X255259940Y-195034205D01*
X255315795Y-195090060D01*
X255384204Y-195129556D01*
X255460504Y-195150000D01*
X255539496Y-195150000D01*
X255615796Y-195129556D01*
X255684205Y-195090060D01*
X255740060Y-195034205D01*
X255750000Y-195016988D01*
X255750000Y-195924114D01*
X255757583Y-195922914D01*
X255922251Y-195869410D01*
X256076527Y-195790802D01*
X256076530Y-195790800D01*
X256216603Y-195689031D01*
X256216608Y-195689028D01*
X256339028Y-195566608D01*
X256339031Y-195566603D01*
X256440800Y-195426530D01*
X256440802Y-195426527D01*
X256519410Y-195272251D01*
X256572913Y-195107584D01*
X256572914Y-195107581D01*
X256600000Y-194936571D01*
X256600000Y-194750000D01*
X255800000Y-194750000D01*
X255800000Y-194250000D01*
X256600000Y-194250000D01*
X256600000Y-194063428D01*
X256572914Y-193892418D01*
X256572913Y-193892415D01*
X256519410Y-193727748D01*
X256440802Y-193573472D01*
X256440800Y-193573469D01*
X256339031Y-193433396D01*
X256339028Y-193433392D01*
X256216608Y-193310972D01*
X256216603Y-193310968D01*
X256076530Y-193209199D01*
X256076527Y-193209197D01*
X255922251Y-193130589D01*
X255757580Y-193077085D01*
X255757577Y-193077084D01*
X255750000Y-193075883D01*
X255750000Y-193983011D01*
X255740060Y-193965795D01*
X255684205Y-193909940D01*
X255615796Y-193870444D01*
X255539496Y-193850000D01*
X255460504Y-193850000D01*
X255384204Y-193870444D01*
X255315795Y-193909940D01*
X255259940Y-193965795D01*
X255250000Y-193983011D01*
X255250000Y-193075884D01*
X255249999Y-193075883D01*
X255242422Y-193077084D01*
X255242419Y-193077085D01*
X255077748Y-193130589D01*
X254923472Y-193209197D01*
X254923469Y-193209199D01*
X254783396Y-193310968D01*
X254660968Y-193433396D01*
X254559199Y-193573469D01*
X254559197Y-193573472D01*
X254480589Y-193727748D01*
X254427086Y-193892415D01*
X254427085Y-193892418D01*
X254400000Y-194063428D01*
X206785399Y-194063428D01*
X206780505Y-192791727D01*
X237599500Y-192791727D01*
X237599500Y-192919872D01*
X237624497Y-193045537D01*
X237624498Y-193045542D01*
X237624499Y-193045544D01*
X237673535Y-193163927D01*
X237744724Y-193270469D01*
X237835331Y-193361076D01*
X237941873Y-193432265D01*
X238060256Y-193481301D01*
X238185931Y-193506300D01*
X238314069Y-193506300D01*
X238439744Y-193481301D01*
X238558127Y-193432265D01*
X238664669Y-193361076D01*
X238755276Y-193270469D01*
X238826465Y-193163927D01*
X238875501Y-193045544D01*
X238900500Y-192919869D01*
X238900500Y-192791731D01*
X238875501Y-192666056D01*
X238826465Y-192547673D01*
X238755276Y-192441131D01*
X238664669Y-192350524D01*
X238558127Y-192279335D01*
X238439744Y-192230299D01*
X238439742Y-192230298D01*
X238439737Y-192230297D01*
X238314072Y-192205300D01*
X238314069Y-192205300D01*
X238185931Y-192205300D01*
X238185927Y-192205300D01*
X238060262Y-192230297D01*
X238060257Y-192230298D01*
X237941874Y-192279334D01*
X237835331Y-192350523D01*
X237744723Y-192441131D01*
X237673534Y-192547674D01*
X237624498Y-192666057D01*
X237624497Y-192666062D01*
X237599500Y-192791727D01*
X206780505Y-192791727D01*
X206769857Y-190024986D01*
X206784076Y-189990283D01*
X206818668Y-189975798D01*
X206853372Y-189990017D01*
X206866915Y-190015238D01*
X206870197Y-190031737D01*
X206870198Y-190031742D01*
X206870199Y-190031744D01*
X206919235Y-190150127D01*
X206990424Y-190256669D01*
X207081031Y-190347276D01*
X207187573Y-190418465D01*
X207305956Y-190467501D01*
X207431631Y-190492500D01*
X207559769Y-190492500D01*
X207685444Y-190467501D01*
X207803827Y-190418465D01*
X207910369Y-190347276D01*
X208000976Y-190256669D01*
X208072165Y-190150127D01*
X208121201Y-190031744D01*
X208146200Y-189906069D01*
X208146200Y-189777931D01*
X208141603Y-189754825D01*
X208129681Y-189694884D01*
X208128257Y-189687727D01*
X215141800Y-189687727D01*
X215141800Y-189815872D01*
X215166797Y-189941537D01*
X215166798Y-189941542D01*
X215215834Y-190059925D01*
X215276104Y-190150127D01*
X215287024Y-190166469D01*
X215377631Y-190257076D01*
X215484173Y-190328265D01*
X215602556Y-190377301D01*
X215728231Y-190402300D01*
X215856369Y-190402300D01*
X215982044Y-190377301D01*
X216100427Y-190328265D01*
X216206969Y-190257076D01*
X216297576Y-190166469D01*
X216368765Y-190059927D01*
X216417801Y-189941544D01*
X216442800Y-189815869D01*
X216442800Y-189687731D01*
X216417801Y-189562056D01*
X216368765Y-189443673D01*
X216297576Y-189337131D01*
X216206969Y-189246524D01*
X216100427Y-189175335D01*
X215982044Y-189126299D01*
X215982042Y-189126298D01*
X215982037Y-189126297D01*
X215856372Y-189101300D01*
X215856369Y-189101300D01*
X215728231Y-189101300D01*
X215728227Y-189101300D01*
X215602562Y-189126297D01*
X215602557Y-189126298D01*
X215484174Y-189175334D01*
X215377631Y-189246523D01*
X215287023Y-189337131D01*
X215215834Y-189443674D01*
X215166798Y-189562057D01*
X215166797Y-189562062D01*
X215141800Y-189687727D01*
X208128257Y-189687727D01*
X208121202Y-189652262D01*
X208121201Y-189652257D01*
X208083839Y-189562056D01*
X208072165Y-189533873D01*
X208000976Y-189427331D01*
X207910369Y-189336724D01*
X207803827Y-189265535D01*
X207757929Y-189246523D01*
X207685442Y-189216498D01*
X207685437Y-189216497D01*
X207559772Y-189191500D01*
X207559769Y-189191500D01*
X207431631Y-189191500D01*
X207431627Y-189191500D01*
X207305962Y-189216497D01*
X207305957Y-189216498D01*
X207187574Y-189265534D01*
X207081031Y-189336723D01*
X206990423Y-189427331D01*
X206919234Y-189533874D01*
X206870198Y-189652257D01*
X206870197Y-189652261D01*
X206865534Y-189675701D01*
X206844697Y-189706883D01*
X206807915Y-189714198D01*
X206776733Y-189693361D01*
X206768477Y-189666332D01*
X206756301Y-186502427D01*
X256539500Y-186502427D01*
X256539500Y-186630572D01*
X256564497Y-186756237D01*
X256564498Y-186756242D01*
X256564499Y-186756244D01*
X256613535Y-186874627D01*
X256684724Y-186981169D01*
X256775331Y-187071776D01*
X256881873Y-187142965D01*
X257000256Y-187192001D01*
X257125931Y-187217000D01*
X257254069Y-187217000D01*
X257379744Y-187192001D01*
X257498127Y-187142965D01*
X257604669Y-187071776D01*
X257695276Y-186981169D01*
X257766465Y-186874627D01*
X257815501Y-186756244D01*
X257840500Y-186630569D01*
X257840500Y-186502431D01*
X257815501Y-186376756D01*
X257766465Y-186258373D01*
X257695276Y-186151831D01*
X257604669Y-186061224D01*
X257498127Y-185990035D01*
X257458448Y-185973599D01*
X257379742Y-185940998D01*
X257379737Y-185940997D01*
X257254072Y-185916000D01*
X257254069Y-185916000D01*
X257125931Y-185916000D01*
X257125927Y-185916000D01*
X257000262Y-185940997D01*
X257000257Y-185940998D01*
X256881874Y-185990034D01*
X256775331Y-186061223D01*
X256684723Y-186151831D01*
X256613534Y-186258374D01*
X256564498Y-186376757D01*
X256564497Y-186376762D01*
X256539500Y-186502427D01*
X206756301Y-186502427D01*
X206751629Y-185288458D01*
X206765848Y-185253755D01*
X206800438Y-185239270D01*
X208460541Y-185237155D01*
X208495206Y-185251463D01*
X208509602Y-185286093D01*
X208495294Y-185320759D01*
X208495252Y-185320801D01*
X208489126Y-185326926D01*
X208489125Y-185326928D01*
X208417934Y-185433474D01*
X208368898Y-185551857D01*
X208368897Y-185551862D01*
X208343900Y-185677527D01*
X208343900Y-185805672D01*
X208368897Y-185931337D01*
X208368898Y-185931342D01*
X208386402Y-185973599D01*
X208417935Y-186049727D01*
X208425617Y-186061224D01*
X208486158Y-186151831D01*
X208489124Y-186156269D01*
X208579731Y-186246876D01*
X208686273Y-186318065D01*
X208804656Y-186367101D01*
X208930331Y-186392100D01*
X209058469Y-186392100D01*
X209184144Y-186367101D01*
X209302527Y-186318065D01*
X209409069Y-186246876D01*
X209499676Y-186156269D01*
X209570865Y-186049727D01*
X209619901Y-185931344D01*
X209644900Y-185805669D01*
X209644900Y-185677531D01*
X209619901Y-185551856D01*
X209570865Y-185433473D01*
X209499676Y-185326931D01*
X209492190Y-185319445D01*
X209477838Y-185284797D01*
X209492190Y-185250149D01*
X209518028Y-185239427D01*
X217243000Y-185239427D01*
X217243000Y-185367572D01*
X217267997Y-185493237D01*
X217267998Y-185493242D01*
X217276118Y-185512844D01*
X217317035Y-185611627D01*
X217388224Y-185718169D01*
X217478831Y-185808776D01*
X217585373Y-185879965D01*
X217703756Y-185929001D01*
X217829431Y-185954000D01*
X217957569Y-185954000D01*
X218083244Y-185929001D01*
X218201627Y-185879965D01*
X218308169Y-185808776D01*
X218398776Y-185718169D01*
X218469965Y-185611627D01*
X218519001Y-185493244D01*
X218544000Y-185367569D01*
X218544000Y-185259027D01*
X219802600Y-185259027D01*
X219802600Y-185387172D01*
X219827597Y-185512837D01*
X219827598Y-185512842D01*
X219868516Y-185611625D01*
X219876635Y-185631227D01*
X219947824Y-185737769D01*
X220038431Y-185828376D01*
X220144973Y-185899565D01*
X220263356Y-185948601D01*
X220389031Y-185973600D01*
X220517169Y-185973600D01*
X220642844Y-185948601D01*
X220761227Y-185899565D01*
X220867769Y-185828376D01*
X220958376Y-185737769D01*
X221029565Y-185631227D01*
X221078601Y-185512844D01*
X221103600Y-185387169D01*
X221103600Y-185259031D01*
X221103281Y-185257427D01*
X232501000Y-185257427D01*
X232501000Y-185385572D01*
X232525997Y-185511237D01*
X232525998Y-185511242D01*
X232542824Y-185551862D01*
X232575035Y-185629627D01*
X232646224Y-185736169D01*
X232736831Y-185826776D01*
X232843373Y-185897965D01*
X232961756Y-185947001D01*
X233087431Y-185972000D01*
X233215569Y-185972000D01*
X233341244Y-185947001D01*
X233459627Y-185897965D01*
X233566169Y-185826776D01*
X233656776Y-185736169D01*
X233727965Y-185629627D01*
X233777001Y-185511244D01*
X233802000Y-185385569D01*
X233802000Y-185257431D01*
X233801999Y-185257423D01*
X233801005Y-185252427D01*
X252539500Y-185252427D01*
X252539500Y-185380572D01*
X252564497Y-185506237D01*
X252564498Y-185506242D01*
X252613534Y-185624625D01*
X252676037Y-185718169D01*
X252684724Y-185731169D01*
X252775331Y-185821776D01*
X252881873Y-185892965D01*
X253000256Y-185942001D01*
X253125931Y-185967000D01*
X253254069Y-185967000D01*
X253379744Y-185942001D01*
X253498127Y-185892965D01*
X253604669Y-185821776D01*
X253695276Y-185731169D01*
X253766465Y-185624627D01*
X253815501Y-185506244D01*
X253840500Y-185380569D01*
X253840500Y-185252431D01*
X253815501Y-185126756D01*
X253766465Y-185008373D01*
X253695276Y-184901831D01*
X253604669Y-184811224D01*
X253498127Y-184740035D01*
X253466743Y-184727035D01*
X253379742Y-184690998D01*
X253379737Y-184690997D01*
X253254072Y-184666000D01*
X253254069Y-184666000D01*
X253125931Y-184666000D01*
X253125927Y-184666000D01*
X253000262Y-184690997D01*
X253000257Y-184690998D01*
X252881874Y-184740034D01*
X252775331Y-184811223D01*
X252684723Y-184901831D01*
X252613534Y-185008374D01*
X252564498Y-185126757D01*
X252564497Y-185126762D01*
X252539500Y-185252427D01*
X233801005Y-185252427D01*
X233777002Y-185131762D01*
X233777001Y-185131757D01*
X233770516Y-185116099D01*
X233727965Y-185013373D01*
X233656776Y-184906831D01*
X233566169Y-184816224D01*
X233558684Y-184811223D01*
X233502479Y-184773668D01*
X233459627Y-184745035D01*
X233416172Y-184727035D01*
X233341242Y-184695998D01*
X233341237Y-184695997D01*
X233215572Y-184671000D01*
X233215569Y-184671000D01*
X233087431Y-184671000D01*
X233087427Y-184671000D01*
X232961762Y-184695997D01*
X232961757Y-184695998D01*
X232843374Y-184745034D01*
X232736831Y-184816223D01*
X232646223Y-184906831D01*
X232575034Y-185013374D01*
X232525998Y-185131757D01*
X232525997Y-185131762D01*
X232501000Y-185257427D01*
X221103281Y-185257427D01*
X221102286Y-185252427D01*
X221078602Y-185133362D01*
X221078601Y-185133357D01*
X221077941Y-185131762D01*
X221029565Y-185014973D01*
X220958376Y-184908431D01*
X220867769Y-184817824D01*
X220865374Y-184816224D01*
X220801685Y-184773668D01*
X220761227Y-184746635D01*
X220757365Y-184745035D01*
X220642842Y-184697598D01*
X220642837Y-184697597D01*
X220517172Y-184672600D01*
X220517169Y-184672600D01*
X220389031Y-184672600D01*
X220389027Y-184672600D01*
X220263362Y-184697597D01*
X220263357Y-184697598D01*
X220144974Y-184746634D01*
X220038431Y-184817823D01*
X219947823Y-184908431D01*
X219876634Y-185014974D01*
X219827598Y-185133357D01*
X219827597Y-185133362D01*
X219802600Y-185259027D01*
X218544000Y-185259027D01*
X218544000Y-185239431D01*
X218519001Y-185113756D01*
X218469965Y-184995373D01*
X218398776Y-184888831D01*
X218308169Y-184798224D01*
X218201627Y-184727035D01*
X218130563Y-184697599D01*
X218083242Y-184677998D01*
X218083237Y-184677997D01*
X217957572Y-184653000D01*
X217957569Y-184653000D01*
X217829431Y-184653000D01*
X217829427Y-184653000D01*
X217703762Y-184677997D01*
X217703757Y-184677998D01*
X217585374Y-184727034D01*
X217478831Y-184798223D01*
X217388223Y-184888831D01*
X217317034Y-184995374D01*
X217267998Y-185113757D01*
X217267997Y-185113762D01*
X217243000Y-185239427D01*
X209518028Y-185239427D01*
X209526775Y-185235797D01*
X214750230Y-185229143D01*
X214750219Y-184888831D01*
X214750201Y-184294927D01*
X221307900Y-184294927D01*
X221307900Y-184423072D01*
X221332897Y-184548737D01*
X221332898Y-184548742D01*
X221335325Y-184554600D01*
X221381935Y-184667127D01*
X221402295Y-184697598D01*
X221430650Y-184740035D01*
X221453124Y-184773669D01*
X221543731Y-184864276D01*
X221650273Y-184935465D01*
X221768656Y-184984501D01*
X221894331Y-185009500D01*
X222022469Y-185009500D01*
X222148144Y-184984501D01*
X222266527Y-184935465D01*
X222373069Y-184864276D01*
X222463676Y-184773669D01*
X222534865Y-184667127D01*
X222583901Y-184548744D01*
X222608900Y-184423069D01*
X222608900Y-184294931D01*
X222583901Y-184169256D01*
X222534865Y-184050873D01*
X222463676Y-183944331D01*
X222373069Y-183853724D01*
X222361413Y-183845936D01*
X222320157Y-183818370D01*
X222266527Y-183782535D01*
X222148144Y-183733499D01*
X222148142Y-183733498D01*
X222148137Y-183733497D01*
X222022472Y-183708500D01*
X222022469Y-183708500D01*
X221894331Y-183708500D01*
X221894327Y-183708500D01*
X221768662Y-183733497D01*
X221768657Y-183733498D01*
X221650274Y-183782534D01*
X221543731Y-183853723D01*
X221453123Y-183944331D01*
X221381934Y-184050874D01*
X221332898Y-184169257D01*
X221332897Y-184169262D01*
X221307900Y-184294927D01*
X214750201Y-184294927D01*
X214750201Y-184292526D01*
X214750174Y-183461627D01*
X223322600Y-183461627D01*
X223322600Y-183589772D01*
X223347597Y-183715437D01*
X223347598Y-183715442D01*
X223355078Y-183733499D01*
X223396635Y-183833827D01*
X223467824Y-183940369D01*
X223558431Y-184030976D01*
X223664973Y-184102165D01*
X223783356Y-184151201D01*
X223909031Y-184176200D01*
X224037169Y-184176200D01*
X224162844Y-184151201D01*
X224281227Y-184102165D01*
X224387769Y-184030976D01*
X224478376Y-183940369D01*
X224549565Y-183833827D01*
X224598601Y-183715444D01*
X224623600Y-183589769D01*
X224623600Y-183461631D01*
X224622391Y-183455555D01*
X224899500Y-183455555D01*
X224899500Y-183652644D01*
X224937947Y-183845927D01*
X224937949Y-183845936D01*
X225013366Y-184028010D01*
X225013368Y-184028014D01*
X225028642Y-184050873D01*
X225112382Y-184176200D01*
X225122861Y-184191882D01*
X225262218Y-184331239D01*
X225426086Y-184440732D01*
X225608165Y-184516151D01*
X225801459Y-184554600D01*
X225998541Y-184554600D01*
X226191835Y-184516151D01*
X226373914Y-184440732D01*
X226537782Y-184331239D01*
X226619021Y-184250000D01*
X258500000Y-184250000D01*
X279750000Y-184250000D01*
X279500000Y-171250000D01*
X258500000Y-171250000D01*
X258500000Y-184250000D01*
X226619021Y-184250000D01*
X226677139Y-184191882D01*
X226786632Y-184028014D01*
X226862051Y-183845935D01*
X226900500Y-183652641D01*
X226900500Y-183455559D01*
X226862051Y-183262265D01*
X226786632Y-183080186D01*
X226677139Y-182916318D01*
X226537782Y-182776961D01*
X226373914Y-182667468D01*
X226373911Y-182667466D01*
X226373910Y-182667466D01*
X226191836Y-182592049D01*
X226191827Y-182592047D01*
X225998544Y-182553600D01*
X225998541Y-182553600D01*
X225801459Y-182553600D01*
X225801455Y-182553600D01*
X225608172Y-182592047D01*
X225608163Y-182592049D01*
X225426089Y-182667466D01*
X225262218Y-182776960D01*
X225122860Y-182916318D01*
X225013366Y-183080189D01*
X224937949Y-183262263D01*
X224937947Y-183262272D01*
X224899500Y-183455555D01*
X224622391Y-183455555D01*
X224598601Y-183335956D01*
X224549565Y-183217573D01*
X224478376Y-183111031D01*
X224387769Y-183020424D01*
X224281227Y-182949235D01*
X224162844Y-182900199D01*
X224162842Y-182900198D01*
X224162837Y-182900197D01*
X224037172Y-182875200D01*
X224037169Y-182875200D01*
X223909031Y-182875200D01*
X223909027Y-182875200D01*
X223783362Y-182900197D01*
X223783357Y-182900198D01*
X223664974Y-182949234D01*
X223558431Y-183020423D01*
X223467823Y-183111031D01*
X223396634Y-183217574D01*
X223347598Y-183335957D01*
X223347597Y-183335962D01*
X223322600Y-183461627D01*
X214750174Y-183461627D01*
X214750174Y-183459226D01*
X214750093Y-180915555D01*
X224899500Y-180915555D01*
X224899500Y-181112644D01*
X224937947Y-181305927D01*
X224937949Y-181305936D01*
X225013366Y-181488010D01*
X225013368Y-181488014D01*
X225122861Y-181651882D01*
X225262218Y-181791239D01*
X225426086Y-181900732D01*
X225608165Y-181976151D01*
X225801459Y-182014600D01*
X225998541Y-182014600D01*
X226191835Y-181976151D01*
X226373914Y-181900732D01*
X226537782Y-181791239D01*
X226677139Y-181651882D01*
X226786632Y-181488014D01*
X226862051Y-181305935D01*
X226900500Y-181112641D01*
X226900500Y-180915559D01*
X226862051Y-180722265D01*
X226786632Y-180540186D01*
X226677139Y-180376318D01*
X226537782Y-180236961D01*
X226518148Y-180223842D01*
X251644500Y-180223842D01*
X251644500Y-180406157D01*
X251680065Y-180584950D01*
X251680067Y-180584959D01*
X251728386Y-180701611D01*
X251749833Y-180753389D01*
X251851117Y-180904972D01*
X251980028Y-181033883D01*
X252131611Y-181135167D01*
X252300042Y-181204933D01*
X252478846Y-181240500D01*
X252661154Y-181240500D01*
X252839958Y-181204933D01*
X253008389Y-181135167D01*
X253159972Y-181033883D01*
X253288883Y-180904972D01*
X253390167Y-180753389D01*
X253459933Y-180584958D01*
X253495500Y-180406154D01*
X253495500Y-180223846D01*
X253459933Y-180045042D01*
X253390167Y-179876611D01*
X253288883Y-179725028D01*
X253159972Y-179596117D01*
X253158490Y-179595127D01*
X253078378Y-179541598D01*
X253008389Y-179494833D01*
X253008386Y-179494831D01*
X253008385Y-179494831D01*
X252839959Y-179425067D01*
X252839950Y-179425065D01*
X252661157Y-179389500D01*
X252661154Y-179389500D01*
X252478846Y-179389500D01*
X252478842Y-179389500D01*
X252300049Y-179425065D01*
X252300040Y-179425067D01*
X252131614Y-179494831D01*
X251980028Y-179596116D01*
X251851116Y-179725028D01*
X251749831Y-179876614D01*
X251680067Y-180045040D01*
X251680065Y-180045049D01*
X251644500Y-180223842D01*
X226518148Y-180223842D01*
X226373914Y-180127468D01*
X226373911Y-180127466D01*
X226373910Y-180127466D01*
X226191836Y-180052049D01*
X226191827Y-180052047D01*
X225998544Y-180013600D01*
X225998541Y-180013600D01*
X225801459Y-180013600D01*
X225801455Y-180013600D01*
X225608172Y-180052047D01*
X225608163Y-180052049D01*
X225426089Y-180127466D01*
X225262218Y-180236960D01*
X225122860Y-180376318D01*
X225013366Y-180540189D01*
X224937949Y-180722263D01*
X224937947Y-180722272D01*
X224899500Y-180915555D01*
X214750093Y-180915555D01*
X214750093Y-180913154D01*
X214749995Y-177842582D01*
X224899500Y-177842582D01*
X224899500Y-179105617D01*
X224914353Y-179199403D01*
X224971945Y-179312435D01*
X224971950Y-179312442D01*
X225061657Y-179402149D01*
X225061664Y-179402154D01*
X225174691Y-179459744D01*
X225174692Y-179459744D01*
X225174696Y-179459746D01*
X225268481Y-179474600D01*
X226531518Y-179474599D01*
X226625304Y-179459746D01*
X226693369Y-179425065D01*
X226738335Y-179402154D01*
X226738337Y-179402152D01*
X226738342Y-179402150D01*
X226828050Y-179312442D01*
X226828054Y-179312435D01*
X226885644Y-179199409D01*
X226885644Y-179199407D01*
X226885646Y-179199404D01*
X226900500Y-179105619D01*
X226900499Y-177842582D01*
X226885646Y-177748796D01*
X226885643Y-177748790D01*
X226828054Y-177635764D01*
X226828049Y-177635757D01*
X226738342Y-177546050D01*
X226738335Y-177546045D01*
X226625308Y-177488455D01*
X226625305Y-177488454D01*
X226625304Y-177488454D01*
X226531519Y-177473600D01*
X226531517Y-177473600D01*
X225268482Y-177473600D01*
X225174696Y-177488453D01*
X225061664Y-177546045D01*
X225061657Y-177546050D01*
X224971950Y-177635757D01*
X224971945Y-177635764D01*
X224914355Y-177748790D01*
X224914355Y-177748792D01*
X224899500Y-177842582D01*
X214749995Y-177842582D01*
X214749995Y-177840658D01*
X214749995Y-177840657D01*
X214749970Y-177045531D01*
X251500000Y-177045531D01*
X251519107Y-177066287D01*
X251521992Y-177079893D01*
X251649999Y-179000000D01*
X251650000Y-179000000D01*
X253750000Y-179000000D01*
X253513932Y-176750000D01*
X251500000Y-176750000D01*
X251500000Y-177045531D01*
X214749970Y-177045531D01*
X214749960Y-176729706D01*
X214749872Y-174000000D01*
X241233332Y-174000000D01*
X241499999Y-175999998D01*
X241500000Y-176000000D01*
X241957833Y-176500000D01*
X249750000Y-176337861D01*
X250000000Y-176250000D01*
X250050000Y-175840000D01*
X250075970Y-175373842D01*
X251644500Y-175373842D01*
X251644500Y-175556157D01*
X251680065Y-175734950D01*
X251680067Y-175734959D01*
X251749831Y-175903385D01*
X251749833Y-175903389D01*
X251851117Y-176054972D01*
X251980028Y-176183883D01*
X252131611Y-176285167D01*
X252300042Y-176354933D01*
X252478846Y-176390500D01*
X252661154Y-176390500D01*
X252839958Y-176354933D01*
X253008389Y-176285167D01*
X253159972Y-176183883D01*
X253288883Y-176054972D01*
X253390167Y-175903389D01*
X253459933Y-175734958D01*
X253495500Y-175556154D01*
X253495500Y-175373846D01*
X253459933Y-175195042D01*
X253411614Y-175078389D01*
X254499500Y-175078389D01*
X254499500Y-175251610D01*
X254526597Y-175422698D01*
X254526598Y-175422701D01*
X254580127Y-175587446D01*
X254658764Y-175741782D01*
X254658767Y-175741786D01*
X254658768Y-175741788D01*
X254740642Y-175854478D01*
X254750000Y-175883278D01*
X254750000Y-179803933D01*
X254756371Y-179810883D01*
X254774869Y-179820503D01*
X254786160Y-179856266D01*
X254771995Y-179886662D01*
X254760589Y-179898068D01*
X254658764Y-180038217D01*
X254580127Y-180192553D01*
X254526598Y-180357298D01*
X254526597Y-180357301D01*
X254499500Y-180528389D01*
X254499500Y-180701610D01*
X254526597Y-180872698D01*
X254526598Y-180872701D01*
X254580127Y-181037446D01*
X254658764Y-181191782D01*
X254658767Y-181191786D01*
X254658768Y-181191788D01*
X254760586Y-181331928D01*
X254760588Y-181331930D01*
X254760591Y-181331934D01*
X254883065Y-181454408D01*
X254883068Y-181454410D01*
X254883072Y-181454414D01*
X255023212Y-181556232D01*
X255023214Y-181556233D01*
X255023217Y-181556235D01*
X255177553Y-181634872D01*
X255177555Y-181634873D01*
X255342299Y-181688402D01*
X255513389Y-181715500D01*
X255513390Y-181715500D01*
X255686610Y-181715500D01*
X255686611Y-181715500D01*
X255857701Y-181688402D01*
X256022445Y-181634873D01*
X256176788Y-181556232D01*
X256316928Y-181454414D01*
X256439414Y-181331928D01*
X256541232Y-181191788D01*
X256619873Y-181037445D01*
X256673402Y-180872701D01*
X256700500Y-180701611D01*
X256700500Y-180528389D01*
X256673402Y-180357299D01*
X256619873Y-180192555D01*
X256586709Y-180127466D01*
X256540358Y-180036496D01*
X256541021Y-180036157D01*
X256535518Y-180001427D01*
X256557558Y-179971084D01*
X256587414Y-179964046D01*
X257000000Y-180000000D01*
X257000000Y-175750000D01*
X256617008Y-175750000D01*
X256582360Y-175735648D01*
X256568008Y-175701000D01*
X256573349Y-175678755D01*
X256619872Y-175587446D01*
X256619873Y-175587445D01*
X256673402Y-175422701D01*
X256700500Y-175251611D01*
X256700500Y-175078389D01*
X256673402Y-174907299D01*
X256619873Y-174742555D01*
X256541232Y-174588212D01*
X256439414Y-174448072D01*
X256439410Y-174448068D01*
X256439408Y-174448065D01*
X256316934Y-174325591D01*
X256316935Y-174325591D01*
X256176782Y-174223764D01*
X256022446Y-174145127D01*
X255857701Y-174091598D01*
X255857698Y-174091597D01*
X255726271Y-174070781D01*
X255686611Y-174064500D01*
X255513389Y-174064500D01*
X255481192Y-174069599D01*
X255342301Y-174091597D01*
X255342298Y-174091598D01*
X255177553Y-174145127D01*
X255023217Y-174223764D01*
X254883065Y-174325591D01*
X254760591Y-174448065D01*
X254658764Y-174588217D01*
X254580127Y-174742553D01*
X254526598Y-174907298D01*
X254526597Y-174907301D01*
X254499500Y-175078389D01*
X253411614Y-175078389D01*
X253390167Y-175026611D01*
X253288883Y-174875028D01*
X253159972Y-174746117D01*
X253154641Y-174742555D01*
X253109897Y-174712658D01*
X253008389Y-174644833D01*
X253008386Y-174644831D01*
X253008385Y-174644831D01*
X252839959Y-174575067D01*
X252839950Y-174575065D01*
X252661157Y-174539500D01*
X252661154Y-174539500D01*
X252478846Y-174539500D01*
X252478842Y-174539500D01*
X252300049Y-174575065D01*
X252300040Y-174575067D01*
X252131614Y-174644831D01*
X251980028Y-174746116D01*
X251851116Y-174875028D01*
X251749831Y-175026614D01*
X251680067Y-175195040D01*
X251680065Y-175195049D01*
X251644500Y-175373842D01*
X250075970Y-175373842D01*
X250152507Y-174000000D01*
X241233332Y-174000000D01*
X214749872Y-174000000D01*
X214749872Y-173984447D01*
X214749784Y-171229706D01*
X214749783Y-171212867D01*
X214749762Y-170539975D01*
X213520997Y-170452668D01*
X207044679Y-169992508D01*
X207011135Y-169975736D01*
X206999161Y-169944550D01*
X206995586Y-169753527D01*
X228403100Y-169753527D01*
X228403100Y-169881672D01*
X228428097Y-170007337D01*
X228428098Y-170007342D01*
X228467336Y-170102069D01*
X228477135Y-170125727D01*
X228548324Y-170232269D01*
X228638931Y-170322876D01*
X228745473Y-170394065D01*
X228863856Y-170443101D01*
X228989531Y-170468100D01*
X229117669Y-170468100D01*
X229243344Y-170443101D01*
X229361727Y-170394065D01*
X229468269Y-170322876D01*
X229558876Y-170232269D01*
X229630065Y-170125727D01*
X229679101Y-170007344D01*
X229685748Y-169973927D01*
X253734800Y-169973927D01*
X253734800Y-170102072D01*
X253759797Y-170227737D01*
X253759798Y-170227742D01*
X253808834Y-170346125D01*
X253873631Y-170443102D01*
X253880024Y-170452669D01*
X253970631Y-170543276D01*
X254077173Y-170614465D01*
X254195556Y-170663501D01*
X254321231Y-170688500D01*
X254449369Y-170688500D01*
X254575044Y-170663501D01*
X254693427Y-170614465D01*
X254799969Y-170543276D01*
X254890576Y-170452669D01*
X254961765Y-170346127D01*
X255010801Y-170227744D01*
X255035800Y-170102069D01*
X255035800Y-169973931D01*
X255010801Y-169848256D01*
X254961765Y-169729873D01*
X254890576Y-169623331D01*
X254799969Y-169532724D01*
X254765171Y-169509473D01*
X254747057Y-169497370D01*
X254693427Y-169461535D01*
X254575044Y-169412499D01*
X254575042Y-169412498D01*
X254575037Y-169412497D01*
X254449372Y-169387500D01*
X254449369Y-169387500D01*
X254321231Y-169387500D01*
X254321227Y-169387500D01*
X254195562Y-169412497D01*
X254195557Y-169412498D01*
X254077174Y-169461534D01*
X253970631Y-169532723D01*
X253880023Y-169623331D01*
X253808834Y-169729874D01*
X253759798Y-169848257D01*
X253759797Y-169848262D01*
X253734800Y-169973927D01*
X229685748Y-169973927D01*
X229704100Y-169881669D01*
X229704100Y-169753531D01*
X229679101Y-169627856D01*
X229630065Y-169509473D01*
X229558876Y-169402931D01*
X229468269Y-169312324D01*
X229361727Y-169241135D01*
X229243344Y-169192099D01*
X229243342Y-169192098D01*
X229243337Y-169192097D01*
X229117672Y-169167100D01*
X229117669Y-169167100D01*
X228989531Y-169167100D01*
X228989527Y-169167100D01*
X228863862Y-169192097D01*
X228863857Y-169192098D01*
X228745474Y-169241134D01*
X228638931Y-169312323D01*
X228548323Y-169402931D01*
X228477134Y-169509474D01*
X228428098Y-169627857D01*
X228428097Y-169627862D01*
X228403100Y-169753527D01*
X206995586Y-169753527D01*
X206922855Y-165866727D01*
X209088700Y-165866727D01*
X209088700Y-165994872D01*
X209113697Y-166120537D01*
X209113698Y-166120542D01*
X209161989Y-166237125D01*
X209162735Y-166238927D01*
X209183067Y-166269356D01*
X209232921Y-166343969D01*
X209233924Y-166345469D01*
X209324531Y-166436076D01*
X209431073Y-166507265D01*
X209549456Y-166556301D01*
X209675131Y-166581300D01*
X209803269Y-166581300D01*
X209928944Y-166556301D01*
X210047327Y-166507265D01*
X210098269Y-166473227D01*
X230886100Y-166473227D01*
X230886100Y-166601372D01*
X230911097Y-166727037D01*
X230911098Y-166727042D01*
X230927743Y-166767225D01*
X230960135Y-166845427D01*
X231031324Y-166951969D01*
X231121931Y-167042576D01*
X231228473Y-167113765D01*
X231346856Y-167162801D01*
X231472531Y-167187800D01*
X231600669Y-167187800D01*
X231726344Y-167162801D01*
X231844727Y-167113765D01*
X231951269Y-167042576D01*
X232041876Y-166951969D01*
X232113065Y-166845427D01*
X232162101Y-166727044D01*
X232187100Y-166601369D01*
X232187100Y-166473231D01*
X232162101Y-166347556D01*
X232113065Y-166229173D01*
X232041876Y-166122631D01*
X231951269Y-166032024D01*
X231844727Y-165960835D01*
X231836126Y-165957272D01*
X231726342Y-165911798D01*
X231726337Y-165911797D01*
X231720229Y-165910582D01*
X231600672Y-165886800D01*
X231600669Y-165886800D01*
X231472531Y-165886800D01*
X231472527Y-165886800D01*
X231346862Y-165911797D01*
X231346857Y-165911798D01*
X231228474Y-165960834D01*
X231121931Y-166032023D01*
X231031323Y-166122631D01*
X230960134Y-166229174D01*
X230911098Y-166347557D01*
X230911097Y-166347562D01*
X230886100Y-166473227D01*
X210098269Y-166473227D01*
X210153869Y-166436076D01*
X210244476Y-166345469D01*
X210315665Y-166238927D01*
X210364701Y-166120544D01*
X210389700Y-165994869D01*
X210389700Y-165866731D01*
X210364701Y-165741056D01*
X210315665Y-165622673D01*
X210244476Y-165516131D01*
X210153869Y-165425524D01*
X210151624Y-165424024D01*
X210130435Y-165409866D01*
X210073057Y-165371527D01*
X221968200Y-165371527D01*
X221968200Y-165499672D01*
X221993197Y-165625337D01*
X221993198Y-165625342D01*
X222041129Y-165741056D01*
X222042235Y-165743727D01*
X222043662Y-165745862D01*
X222104079Y-165836284D01*
X222113424Y-165850269D01*
X222204031Y-165940876D01*
X222310573Y-166012065D01*
X222428956Y-166061101D01*
X222554631Y-166086100D01*
X222682769Y-166086100D01*
X222808444Y-166061101D01*
X222926827Y-166012065D01*
X223033369Y-165940876D01*
X223109318Y-165864927D01*
X234455800Y-165864927D01*
X234455800Y-165993072D01*
X234480797Y-166118737D01*
X234480798Y-166118742D01*
X234481545Y-166120544D01*
X234529835Y-166237127D01*
X234551374Y-166269362D01*
X234600823Y-166343369D01*
X234601024Y-166343669D01*
X234691631Y-166434276D01*
X234798173Y-166505465D01*
X234916556Y-166554501D01*
X235042231Y-166579500D01*
X235170369Y-166579500D01*
X235296044Y-166554501D01*
X235414427Y-166505465D01*
X235520969Y-166434276D01*
X235611576Y-166343669D01*
X235682765Y-166237127D01*
X235731801Y-166118744D01*
X235756800Y-165993069D01*
X235756800Y-165864931D01*
X235756799Y-165864927D01*
X235756739Y-165864627D01*
X240108200Y-165864627D01*
X240108200Y-165992772D01*
X240133197Y-166118437D01*
X240133198Y-166118442D01*
X240179065Y-166229173D01*
X240182235Y-166236827D01*
X240253424Y-166343369D01*
X240344031Y-166433976D01*
X240450573Y-166505165D01*
X240568956Y-166554201D01*
X240694631Y-166579200D01*
X240822769Y-166579200D01*
X240948444Y-166554201D01*
X241066827Y-166505165D01*
X241173369Y-166433976D01*
X241263976Y-166343369D01*
X241335165Y-166236827D01*
X241384201Y-166118444D01*
X241409200Y-165992769D01*
X241409200Y-165865227D01*
X244919500Y-165865227D01*
X244919500Y-165993372D01*
X244944497Y-166119037D01*
X244944498Y-166119042D01*
X244993286Y-166236825D01*
X244993535Y-166237427D01*
X244997743Y-166243725D01*
X245064523Y-166343669D01*
X245064724Y-166343969D01*
X245155331Y-166434576D01*
X245261873Y-166505765D01*
X245380256Y-166554801D01*
X245505931Y-166579800D01*
X245634069Y-166579800D01*
X245759744Y-166554801D01*
X245878127Y-166505765D01*
X245984669Y-166434576D01*
X246075276Y-166343969D01*
X246146465Y-166237427D01*
X246195501Y-166119044D01*
X246220500Y-165993369D01*
X246220500Y-165865231D01*
X246214208Y-165833598D01*
X246213319Y-165829127D01*
X247441100Y-165829127D01*
X247441100Y-165957272D01*
X247466097Y-166082937D01*
X247466098Y-166082942D01*
X247494278Y-166150973D01*
X247515135Y-166201327D01*
X247586324Y-166307869D01*
X247676931Y-166398476D01*
X247783473Y-166469665D01*
X247901856Y-166518701D01*
X248027531Y-166543700D01*
X248155669Y-166543700D01*
X248281344Y-166518701D01*
X248399727Y-166469665D01*
X248506269Y-166398476D01*
X248596876Y-166307869D01*
X248668065Y-166201327D01*
X248717101Y-166082944D01*
X248742100Y-165957269D01*
X248742100Y-165866727D01*
X250270300Y-165866727D01*
X250270300Y-165994872D01*
X250295297Y-166120537D01*
X250295298Y-166120542D01*
X250343589Y-166237125D01*
X250344335Y-166238927D01*
X250364667Y-166269356D01*
X250414521Y-166343969D01*
X250415524Y-166345469D01*
X250506131Y-166436076D01*
X250612673Y-166507265D01*
X250731056Y-166556301D01*
X250856731Y-166581300D01*
X250984869Y-166581300D01*
X251110544Y-166556301D01*
X251228927Y-166507265D01*
X251335469Y-166436076D01*
X251426076Y-166345469D01*
X251497265Y-166238927D01*
X251546301Y-166120544D01*
X251571300Y-165994869D01*
X251571300Y-165871527D01*
X252815100Y-165871527D01*
X252815100Y-165999672D01*
X252840097Y-166125337D01*
X252840098Y-166125342D01*
X252886525Y-166237425D01*
X252889135Y-166243727D01*
X252906264Y-166269362D01*
X252957116Y-166345469D01*
X252960324Y-166350269D01*
X253050931Y-166440876D01*
X253157473Y-166512065D01*
X253275856Y-166561101D01*
X253401531Y-166586100D01*
X253529669Y-166586100D01*
X253655344Y-166561101D01*
X253773727Y-166512065D01*
X253880269Y-166440876D01*
X253926118Y-166395027D01*
X267808600Y-166395027D01*
X267808600Y-166523172D01*
X267833597Y-166648837D01*
X267833598Y-166648842D01*
X267882634Y-166767225D01*
X267934886Y-166845427D01*
X267953824Y-166873769D01*
X268044431Y-166964376D01*
X268150973Y-167035565D01*
X268269356Y-167084601D01*
X268395031Y-167109600D01*
X268523169Y-167109600D01*
X268648844Y-167084601D01*
X268767227Y-167035565D01*
X268873769Y-166964376D01*
X268964376Y-166873769D01*
X269035565Y-166767227D01*
X269084601Y-166648844D01*
X269109600Y-166523169D01*
X269109600Y-166395031D01*
X269084601Y-166269356D01*
X269035565Y-166150973D01*
X268964376Y-166044431D01*
X268873769Y-165953824D01*
X268767227Y-165882635D01*
X268728832Y-165866731D01*
X268648842Y-165833598D01*
X268648837Y-165833597D01*
X268523172Y-165808600D01*
X268523169Y-165808600D01*
X268395031Y-165808600D01*
X268395027Y-165808600D01*
X268269362Y-165833597D01*
X268269357Y-165833598D01*
X268150974Y-165882634D01*
X268044431Y-165953823D01*
X267953823Y-166044431D01*
X267882634Y-166150974D01*
X267833598Y-166269357D01*
X267833597Y-166269362D01*
X267808600Y-166395027D01*
X253926118Y-166395027D01*
X253970876Y-166350269D01*
X254042065Y-166243727D01*
X254091101Y-166125344D01*
X254116100Y-165999669D01*
X254116100Y-165871531D01*
X254091101Y-165745856D01*
X254042065Y-165627473D01*
X253970876Y-165520931D01*
X253880269Y-165430324D01*
X253873085Y-165425524D01*
X253777998Y-165361989D01*
X253773727Y-165359135D01*
X253762137Y-165354334D01*
X253655342Y-165310098D01*
X253655337Y-165310097D01*
X253529672Y-165285100D01*
X253529669Y-165285100D01*
X253401531Y-165285100D01*
X253401527Y-165285100D01*
X253275862Y-165310097D01*
X253275857Y-165310098D01*
X253157474Y-165359134D01*
X253050931Y-165430323D01*
X252960323Y-165520931D01*
X252889134Y-165627474D01*
X252840098Y-165745857D01*
X252840097Y-165745862D01*
X252815100Y-165871527D01*
X251571300Y-165871527D01*
X251571300Y-165866731D01*
X251546301Y-165741056D01*
X251497265Y-165622673D01*
X251426076Y-165516131D01*
X251335469Y-165425524D01*
X251333224Y-165424024D01*
X251279195Y-165387923D01*
X251228927Y-165354335D01*
X251225304Y-165352834D01*
X251110542Y-165305298D01*
X251110537Y-165305297D01*
X250984872Y-165280300D01*
X250984869Y-165280300D01*
X250856731Y-165280300D01*
X250856727Y-165280300D01*
X250731062Y-165305297D01*
X250731057Y-165305298D01*
X250612674Y-165354334D01*
X250506131Y-165425523D01*
X250415523Y-165516131D01*
X250344334Y-165622674D01*
X250295298Y-165741057D01*
X250295297Y-165741062D01*
X250270300Y-165866727D01*
X248742100Y-165866727D01*
X248742100Y-165829131D01*
X248717101Y-165703456D01*
X248668065Y-165585073D01*
X248596876Y-165478531D01*
X248506269Y-165387924D01*
X248467454Y-165361989D01*
X248448576Y-165349375D01*
X248399727Y-165316735D01*
X248383707Y-165310099D01*
X248281342Y-165267698D01*
X248281337Y-165267697D01*
X248155672Y-165242700D01*
X248155669Y-165242700D01*
X248027531Y-165242700D01*
X248027527Y-165242700D01*
X247901862Y-165267697D01*
X247901857Y-165267698D01*
X247783474Y-165316734D01*
X247676931Y-165387923D01*
X247586323Y-165478531D01*
X247515134Y-165585074D01*
X247466098Y-165703457D01*
X247466097Y-165703462D01*
X247441100Y-165829127D01*
X246213319Y-165829127D01*
X246195503Y-165739564D01*
X246195501Y-165739557D01*
X246195377Y-165739256D01*
X246146465Y-165621173D01*
X246075276Y-165514631D01*
X245984669Y-165424024D01*
X245984220Y-165423724D01*
X245930640Y-165387923D01*
X245878127Y-165352835D01*
X245876679Y-165352235D01*
X245759742Y-165303798D01*
X245759737Y-165303797D01*
X245634072Y-165278800D01*
X245634069Y-165278800D01*
X245505931Y-165278800D01*
X245505927Y-165278800D01*
X245380262Y-165303797D01*
X245380257Y-165303798D01*
X245261874Y-165352834D01*
X245155331Y-165424023D01*
X245064723Y-165514631D01*
X244993534Y-165621174D01*
X244944498Y-165739557D01*
X244944497Y-165739562D01*
X244919500Y-165865227D01*
X241409200Y-165865227D01*
X241409200Y-165864631D01*
X241384201Y-165738956D01*
X241335165Y-165620573D01*
X241263976Y-165514031D01*
X241173369Y-165423424D01*
X241066827Y-165352235D01*
X241059923Y-165349375D01*
X240948442Y-165303198D01*
X240948437Y-165303197D01*
X240822772Y-165278200D01*
X240822769Y-165278200D01*
X240694631Y-165278200D01*
X240694627Y-165278200D01*
X240568962Y-165303197D01*
X240568957Y-165303198D01*
X240450574Y-165352234D01*
X240344031Y-165423423D01*
X240253423Y-165514031D01*
X240182234Y-165620574D01*
X240133198Y-165738957D01*
X240133197Y-165738962D01*
X240108200Y-165864627D01*
X235756739Y-165864627D01*
X235731861Y-165739557D01*
X235731801Y-165739256D01*
X235682765Y-165620873D01*
X235611576Y-165514331D01*
X235520969Y-165423724D01*
X235520968Y-165423723D01*
X235428577Y-165361989D01*
X235407741Y-165330806D01*
X235406800Y-165321247D01*
X235406800Y-163032577D01*
X264500975Y-163032577D01*
X264500975Y-163032578D01*
X264606229Y-163076176D01*
X264606244Y-163076180D01*
X264751125Y-163104999D01*
X264751132Y-163105000D01*
X264898868Y-163105000D01*
X264898874Y-163104999D01*
X265043755Y-163076180D01*
X265043770Y-163076176D01*
X265149023Y-163032578D01*
X265149023Y-163032577D01*
X265900975Y-163032577D01*
X265900975Y-163032578D01*
X266006229Y-163076176D01*
X266006244Y-163076180D01*
X266151125Y-163104999D01*
X266151132Y-163105000D01*
X266298868Y-163105000D01*
X266298874Y-163104999D01*
X266443755Y-163076180D01*
X266443770Y-163076176D01*
X266549023Y-163032578D01*
X266549023Y-163032577D01*
X266225000Y-162708554D01*
X265900975Y-163032577D01*
X265149023Y-163032577D01*
X264825000Y-162708554D01*
X264500975Y-163032577D01*
X235406800Y-163032577D01*
X235406800Y-162281125D01*
X264075000Y-162281125D01*
X264075000Y-162428874D01*
X264103819Y-162573755D01*
X264103823Y-162573770D01*
X264147421Y-162679023D01*
X264471446Y-162355000D01*
X264441609Y-162325163D01*
X264675000Y-162325163D01*
X264675000Y-162384837D01*
X264697836Y-162439968D01*
X264740032Y-162482164D01*
X264795163Y-162505000D01*
X264854837Y-162505000D01*
X264909968Y-162482164D01*
X264952164Y-162439968D01*
X264975000Y-162384837D01*
X264975000Y-162354999D01*
X265178554Y-162354999D01*
X265178554Y-162355000D01*
X265502578Y-162679024D01*
X265515439Y-162676466D01*
X265534558Y-162676466D01*
X265547420Y-162679024D01*
X265871446Y-162355000D01*
X265841609Y-162325163D01*
X266075000Y-162325163D01*
X266075000Y-162384837D01*
X266097836Y-162439968D01*
X266140032Y-162482164D01*
X266195163Y-162505000D01*
X266254837Y-162505000D01*
X266309968Y-162482164D01*
X266352164Y-162439968D01*
X266375000Y-162384837D01*
X266375000Y-162354999D01*
X266578554Y-162354999D01*
X266578554Y-162355000D01*
X266902577Y-162679023D01*
X266902578Y-162679023D01*
X266946176Y-162573770D01*
X266946180Y-162573755D01*
X266974999Y-162428874D01*
X266975000Y-162428867D01*
X266975000Y-162281132D01*
X266974999Y-162281125D01*
X266946180Y-162136244D01*
X266946176Y-162136229D01*
X266902577Y-162030975D01*
X266578554Y-162354999D01*
X266375000Y-162354999D01*
X266375000Y-162325163D01*
X266352164Y-162270032D01*
X266309968Y-162227836D01*
X266254837Y-162205000D01*
X266195163Y-162205000D01*
X266140032Y-162227836D01*
X266097836Y-162270032D01*
X266075000Y-162325163D01*
X265841609Y-162325163D01*
X265547420Y-162030974D01*
X265534557Y-162033533D01*
X265515441Y-162033533D01*
X265502577Y-162030974D01*
X265178554Y-162354999D01*
X264975000Y-162354999D01*
X264975000Y-162325163D01*
X264952164Y-162270032D01*
X264909968Y-162227836D01*
X264854837Y-162205000D01*
X264795163Y-162205000D01*
X264740032Y-162227836D01*
X264697836Y-162270032D01*
X264675000Y-162325163D01*
X264441609Y-162325163D01*
X264147421Y-162030975D01*
X264147420Y-162030975D01*
X264103822Y-162136231D01*
X264103819Y-162136242D01*
X264075000Y-162281125D01*
X235406800Y-162281125D01*
X235406800Y-161755000D01*
X264578554Y-161755000D01*
X264825000Y-162001446D01*
X265071446Y-161755000D01*
X265978554Y-161755000D01*
X266225000Y-162001446D01*
X266471446Y-161755000D01*
X266442373Y-161725927D01*
X268981400Y-161725927D01*
X268981400Y-161854072D01*
X269006397Y-161979737D01*
X269006398Y-161979742D01*
X269027620Y-162030975D01*
X269055435Y-162098127D01*
X269126624Y-162204669D01*
X269217231Y-162295276D01*
X269323773Y-162366465D01*
X269442156Y-162415501D01*
X269567831Y-162440500D01*
X269695969Y-162440500D01*
X269821644Y-162415501D01*
X269940027Y-162366465D01*
X270046569Y-162295276D01*
X270137176Y-162204669D01*
X270208365Y-162098127D01*
X270257401Y-161979744D01*
X270282400Y-161854069D01*
X270282400Y-161725931D01*
X270257401Y-161600256D01*
X270208365Y-161481873D01*
X270137176Y-161375331D01*
X270046569Y-161284724D01*
X269940027Y-161213535D01*
X269870745Y-161184837D01*
X269821642Y-161164498D01*
X269821637Y-161164497D01*
X269695972Y-161139500D01*
X269695969Y-161139500D01*
X269567831Y-161139500D01*
X269567827Y-161139500D01*
X269442162Y-161164497D01*
X269442157Y-161164498D01*
X269323774Y-161213534D01*
X269217231Y-161284723D01*
X269126623Y-161375331D01*
X269055434Y-161481874D01*
X269006398Y-161600257D01*
X269006397Y-161600262D01*
X268981400Y-161725927D01*
X266442373Y-161725927D01*
X266225000Y-161508554D01*
X265978554Y-161755000D01*
X265071446Y-161755000D01*
X264825000Y-161508554D01*
X264578554Y-161755000D01*
X235406800Y-161755000D01*
X235406800Y-161081125D01*
X264075000Y-161081125D01*
X264075000Y-161228874D01*
X264103819Y-161373755D01*
X264103823Y-161373770D01*
X264147421Y-161479023D01*
X264471446Y-161155000D01*
X264441609Y-161125163D01*
X264675000Y-161125163D01*
X264675000Y-161184837D01*
X264697836Y-161239968D01*
X264740032Y-161282164D01*
X264795163Y-161305000D01*
X264854837Y-161305000D01*
X264909968Y-161282164D01*
X264952164Y-161239968D01*
X264975000Y-161184837D01*
X264975000Y-161154999D01*
X265178554Y-161154999D01*
X265178554Y-161155000D01*
X265502578Y-161479024D01*
X265515439Y-161476466D01*
X265534558Y-161476466D01*
X265547420Y-161479024D01*
X265871446Y-161155000D01*
X265841609Y-161125163D01*
X266075000Y-161125163D01*
X266075000Y-161184837D01*
X266097836Y-161239968D01*
X266140032Y-161282164D01*
X266195163Y-161305000D01*
X266254837Y-161305000D01*
X266309968Y-161282164D01*
X266352164Y-161239968D01*
X266375000Y-161184837D01*
X266375000Y-161154999D01*
X266578554Y-161154999D01*
X266578554Y-161155000D01*
X266902577Y-161479023D01*
X266902578Y-161479023D01*
X266946176Y-161373770D01*
X266946180Y-161373755D01*
X266974999Y-161228874D01*
X266975000Y-161228867D01*
X266975000Y-161081132D01*
X266974999Y-161081125D01*
X266946180Y-160936244D01*
X266946176Y-160936229D01*
X266902577Y-160830975D01*
X266578554Y-161154999D01*
X266375000Y-161154999D01*
X266375000Y-161125163D01*
X266352164Y-161070032D01*
X266309968Y-161027836D01*
X266254837Y-161005000D01*
X266195163Y-161005000D01*
X266140032Y-161027836D01*
X266097836Y-161070032D01*
X266075000Y-161125163D01*
X265841609Y-161125163D01*
X265547420Y-160830974D01*
X265534557Y-160833533D01*
X265515441Y-160833533D01*
X265502577Y-160830974D01*
X265178554Y-161154999D01*
X264975000Y-161154999D01*
X264975000Y-161125163D01*
X264952164Y-161070032D01*
X264909968Y-161027836D01*
X264854837Y-161005000D01*
X264795163Y-161005000D01*
X264740032Y-161027836D01*
X264697836Y-161070032D01*
X264675000Y-161125163D01*
X264441609Y-161125163D01*
X264147421Y-160830975D01*
X264147420Y-160830975D01*
X264103822Y-160936231D01*
X264103819Y-160936242D01*
X264075000Y-161081125D01*
X235406800Y-161081125D01*
X235406800Y-159855127D01*
X260886100Y-159855127D01*
X260886100Y-159983272D01*
X260911097Y-160108937D01*
X260911098Y-160108942D01*
X260911099Y-160108944D01*
X260960135Y-160227327D01*
X261031324Y-160333869D01*
X261121931Y-160424476D01*
X261228473Y-160495665D01*
X261346856Y-160544701D01*
X261472531Y-160569700D01*
X261600669Y-160569700D01*
X261674569Y-160555000D01*
X264578554Y-160555000D01*
X264825000Y-160801446D01*
X265071446Y-160555000D01*
X265978554Y-160555000D01*
X266225000Y-160801446D01*
X266471446Y-160555000D01*
X266225000Y-160308554D01*
X265978554Y-160555000D01*
X265071446Y-160555000D01*
X264825000Y-160308554D01*
X264578554Y-160555000D01*
X261674569Y-160555000D01*
X261726344Y-160544701D01*
X261844727Y-160495665D01*
X261951269Y-160424476D01*
X262041876Y-160333869D01*
X262113065Y-160227327D01*
X262162101Y-160108944D01*
X262187100Y-159983269D01*
X262187100Y-159881125D01*
X264075000Y-159881125D01*
X264075000Y-160028874D01*
X264103819Y-160173755D01*
X264103823Y-160173770D01*
X264147421Y-160279023D01*
X264471446Y-159955000D01*
X264441609Y-159925163D01*
X264675000Y-159925163D01*
X264675000Y-159984837D01*
X264697836Y-160039968D01*
X264740032Y-160082164D01*
X264795163Y-160105000D01*
X264854837Y-160105000D01*
X264909968Y-160082164D01*
X264952164Y-160039968D01*
X264975000Y-159984837D01*
X264975000Y-159954999D01*
X265178554Y-159954999D01*
X265178554Y-159955000D01*
X265502578Y-160279024D01*
X265515439Y-160276466D01*
X265534558Y-160276466D01*
X265547420Y-160279024D01*
X265871446Y-159955000D01*
X265841609Y-159925163D01*
X266075000Y-159925163D01*
X266075000Y-159984837D01*
X266097836Y-160039968D01*
X266140032Y-160082164D01*
X266195163Y-160105000D01*
X266254837Y-160105000D01*
X266309968Y-160082164D01*
X266352164Y-160039968D01*
X266375000Y-159984837D01*
X266375000Y-159954999D01*
X266578554Y-159954999D01*
X266578554Y-159955000D01*
X266902577Y-160279023D01*
X266902578Y-160279023D01*
X266946176Y-160173770D01*
X266946180Y-160173755D01*
X266974999Y-160028874D01*
X266975000Y-160028867D01*
X266975000Y-159881132D01*
X266974999Y-159881125D01*
X266946180Y-159736244D01*
X266946176Y-159736229D01*
X266902577Y-159630975D01*
X266578554Y-159954999D01*
X266375000Y-159954999D01*
X266375000Y-159925163D01*
X266352164Y-159870032D01*
X266309968Y-159827836D01*
X266254837Y-159805000D01*
X266195163Y-159805000D01*
X266140032Y-159827836D01*
X266097836Y-159870032D01*
X266075000Y-159925163D01*
X265841609Y-159925163D01*
X265547420Y-159630974D01*
X265534557Y-159633533D01*
X265515441Y-159633533D01*
X265502577Y-159630974D01*
X265178554Y-159954999D01*
X264975000Y-159954999D01*
X264975000Y-159925163D01*
X264952164Y-159870032D01*
X264909968Y-159827836D01*
X264854837Y-159805000D01*
X264795163Y-159805000D01*
X264740032Y-159827836D01*
X264697836Y-159870032D01*
X264675000Y-159925163D01*
X264441609Y-159925163D01*
X264147421Y-159630975D01*
X264147420Y-159630975D01*
X264103822Y-159736231D01*
X264103819Y-159736242D01*
X264075000Y-159881125D01*
X262187100Y-159881125D01*
X262187100Y-159855131D01*
X262162101Y-159729456D01*
X262113065Y-159611073D01*
X262041876Y-159504531D01*
X261951269Y-159413924D01*
X261844727Y-159342735D01*
X261844724Y-159342733D01*
X261844723Y-159342733D01*
X261835273Y-159338819D01*
X261726344Y-159293699D01*
X261726342Y-159293698D01*
X261726337Y-159293697D01*
X261644509Y-159277420D01*
X264500975Y-159277420D01*
X264500975Y-159277421D01*
X264825000Y-159601446D01*
X264825001Y-159601446D01*
X265149023Y-159277421D01*
X265149021Y-159277420D01*
X265900975Y-159277420D01*
X265900975Y-159277421D01*
X266225000Y-159601446D01*
X266225001Y-159601446D01*
X266549023Y-159277421D01*
X266443770Y-159233823D01*
X266443755Y-159233819D01*
X266298874Y-159205000D01*
X266151125Y-159205000D01*
X266006242Y-159233819D01*
X266006231Y-159233822D01*
X265900975Y-159277420D01*
X265149021Y-159277420D01*
X265043770Y-159233823D01*
X265043755Y-159233819D01*
X264898874Y-159205000D01*
X264751125Y-159205000D01*
X264606242Y-159233819D01*
X264606231Y-159233822D01*
X264500975Y-159277420D01*
X261644509Y-159277420D01*
X261600672Y-159268700D01*
X261600669Y-159268700D01*
X261472531Y-159268700D01*
X261472527Y-159268700D01*
X261346862Y-159293697D01*
X261346857Y-159293698D01*
X261228474Y-159342734D01*
X261121931Y-159413923D01*
X261031323Y-159504531D01*
X260960134Y-159611074D01*
X260911098Y-159729457D01*
X260911097Y-159729462D01*
X260886100Y-159855127D01*
X235406800Y-159855127D01*
X235406800Y-158232427D01*
X266396000Y-158232427D01*
X266396000Y-158360572D01*
X266420997Y-158486237D01*
X266420998Y-158486242D01*
X266420999Y-158486244D01*
X266470035Y-158604627D01*
X266541224Y-158711169D01*
X266631831Y-158801776D01*
X266738373Y-158872965D01*
X266856756Y-158922001D01*
X266982431Y-158947000D01*
X267110569Y-158947000D01*
X267236244Y-158922001D01*
X267354627Y-158872965D01*
X267461169Y-158801776D01*
X267551776Y-158711169D01*
X267622965Y-158604627D01*
X267672001Y-158486244D01*
X267697000Y-158360569D01*
X267697000Y-158232431D01*
X267672001Y-158106756D01*
X267622965Y-157988373D01*
X267551776Y-157881831D01*
X267461169Y-157791224D01*
X267354627Y-157720035D01*
X267236244Y-157670999D01*
X267236242Y-157670998D01*
X267236237Y-157670997D01*
X267110572Y-157646000D01*
X267110569Y-157646000D01*
X266982431Y-157646000D01*
X266982427Y-157646000D01*
X266856762Y-157670997D01*
X266856757Y-157670998D01*
X266738374Y-157720034D01*
X266631831Y-157791223D01*
X266541223Y-157881831D01*
X266470034Y-157988374D01*
X266420998Y-158106757D01*
X266420997Y-158106762D01*
X266396000Y-158232427D01*
X235406800Y-158232427D01*
X235406800Y-155902067D01*
X235421152Y-155867419D01*
X235771731Y-155516840D01*
X241308243Y-149980327D01*
X251746200Y-149980327D01*
X251746200Y-150108472D01*
X251771197Y-150234137D01*
X251771198Y-150234142D01*
X251771199Y-150234144D01*
X251820235Y-150352527D01*
X251891424Y-150459069D01*
X251982031Y-150549676D01*
X252088573Y-150620865D01*
X252206956Y-150669901D01*
X252332631Y-150694900D01*
X252460769Y-150694900D01*
X252586444Y-150669901D01*
X252704827Y-150620865D01*
X252811369Y-150549676D01*
X252901976Y-150459069D01*
X252973165Y-150352527D01*
X253022201Y-150234144D01*
X253047200Y-150108469D01*
X253047200Y-149980331D01*
X253025521Y-149871346D01*
X253032837Y-149834563D01*
X253038926Y-149827143D01*
X255990460Y-146875611D01*
X256030021Y-146807089D01*
X256050500Y-146730662D01*
X256050500Y-146225990D01*
X256064852Y-146191342D01*
X256099500Y-146176990D01*
X256134148Y-146191342D01*
X256140242Y-146198767D01*
X256229371Y-146332159D01*
X256347840Y-146450628D01*
X256451280Y-146519744D01*
X256487137Y-146543703D01*
X256641918Y-146607816D01*
X256806233Y-146640500D01*
X256806236Y-146640500D01*
X256973764Y-146640500D01*
X256973767Y-146640500D01*
X257138082Y-146607816D01*
X257292863Y-146543703D01*
X257432162Y-146450626D01*
X257550626Y-146332162D01*
X257643703Y-146192863D01*
X257707816Y-146038082D01*
X257740500Y-145873767D01*
X257740500Y-145706233D01*
X257707816Y-145541918D01*
X257643703Y-145387137D01*
X257627955Y-145363568D01*
X257550628Y-145247840D01*
X257432159Y-145129371D01*
X257292862Y-145036296D01*
X257138085Y-144972185D01*
X257138079Y-144972183D01*
X257071816Y-144959002D01*
X256973767Y-144939500D01*
X256806233Y-144939500D01*
X256724451Y-144955767D01*
X256641920Y-144972183D01*
X256641914Y-144972185D01*
X256487137Y-145036296D01*
X256347840Y-145129371D01*
X256229371Y-145247840D01*
X256140242Y-145381232D01*
X256109059Y-145402067D01*
X256072277Y-145394751D01*
X256051442Y-145363568D01*
X256050500Y-145354009D01*
X256050500Y-144480252D01*
X267449500Y-144480252D01*
X267449500Y-146519748D01*
X267461133Y-146578231D01*
X267462970Y-146580980D01*
X267505447Y-146644552D01*
X267517941Y-146652900D01*
X267571769Y-146688867D01*
X267630252Y-146700500D01*
X267630255Y-146700500D01*
X269669745Y-146700500D01*
X269669748Y-146700500D01*
X269728231Y-146688867D01*
X269794552Y-146644552D01*
X269838867Y-146578231D01*
X269850500Y-146519748D01*
X269850500Y-145381947D01*
X274750000Y-145381947D01*
X274750000Y-145618052D01*
X274786934Y-145851248D01*
X274786935Y-145851251D01*
X274859896Y-146075801D01*
X274967083Y-146286168D01*
X275027339Y-146369105D01*
X275767037Y-145629408D01*
X275784075Y-145692993D01*
X275849901Y-145807007D01*
X275942993Y-145900099D01*
X276057007Y-145965925D01*
X276120591Y-145982962D01*
X275380893Y-146722659D01*
X275463831Y-146782916D01*
X275674198Y-146890103D01*
X275898748Y-146963064D01*
X275898751Y-146963065D01*
X276131948Y-147000000D01*
X276368052Y-147000000D01*
X276601248Y-146963065D01*
X276601251Y-146963064D01*
X276825801Y-146890103D01*
X277036165Y-146782918D01*
X277119104Y-146722658D01*
X276379408Y-145982962D01*
X276442993Y-145965925D01*
X276557007Y-145900099D01*
X276650099Y-145807007D01*
X276715925Y-145692993D01*
X276732962Y-145629408D01*
X277472658Y-146369104D01*
X277532918Y-146286165D01*
X277640103Y-146075801D01*
X277713064Y-145851251D01*
X277713065Y-145851248D01*
X277750000Y-145618052D01*
X277750000Y-145381947D01*
X277713065Y-145148751D01*
X277713064Y-145148748D01*
X277640103Y-144924198D01*
X277532916Y-144713831D01*
X277472659Y-144630893D01*
X276732962Y-145370590D01*
X276715925Y-145307007D01*
X276650099Y-145192993D01*
X276557007Y-145099901D01*
X276442993Y-145034075D01*
X276379407Y-145017036D01*
X277119105Y-144277339D01*
X277036168Y-144217083D01*
X276825801Y-144109896D01*
X276601251Y-144036935D01*
X276601248Y-144036934D01*
X276368052Y-144000000D01*
X276131948Y-144000000D01*
X275898751Y-144036934D01*
X275898748Y-144036935D01*
X275674198Y-144109896D01*
X275463831Y-144217083D01*
X275463822Y-144217088D01*
X275380893Y-144277339D01*
X276120591Y-145017037D01*
X276057007Y-145034075D01*
X275942993Y-145099901D01*
X275849901Y-145192993D01*
X275784075Y-145307007D01*
X275767037Y-145370591D01*
X275027339Y-144630893D01*
X274967088Y-144713822D01*
X274967083Y-144713831D01*
X274859896Y-144924198D01*
X274786935Y-145148748D01*
X274786934Y-145148751D01*
X274750000Y-145381947D01*
X269850500Y-145381947D01*
X269850500Y-144480252D01*
X269838867Y-144421769D01*
X269804818Y-144370812D01*
X269794552Y-144355447D01*
X269766579Y-144336757D01*
X269728231Y-144311133D01*
X269669748Y-144299500D01*
X267630252Y-144299500D01*
X267571769Y-144311133D01*
X267505447Y-144355447D01*
X267461133Y-144421769D01*
X267449500Y-144480252D01*
X256050500Y-144480252D01*
X256050500Y-134155519D01*
X267549500Y-134155519D01*
X267549500Y-134344480D01*
X267579059Y-134531115D01*
X267579060Y-134531118D01*
X267637453Y-134710833D01*
X267723236Y-134879193D01*
X267723239Y-134879197D01*
X267723240Y-134879199D01*
X267834310Y-135032073D01*
X267834312Y-135032075D01*
X267834315Y-135032079D01*
X267967920Y-135165684D01*
X267967923Y-135165686D01*
X267967927Y-135165690D01*
X268120801Y-135276760D01*
X268120803Y-135276761D01*
X268120806Y-135276763D01*
X268289166Y-135362546D01*
X268289168Y-135362547D01*
X268468882Y-135420940D01*
X268655519Y-135450500D01*
X268655520Y-135450500D01*
X268844480Y-135450500D01*
X268844481Y-135450500D01*
X269031118Y-135420940D01*
X269210832Y-135362547D01*
X269379199Y-135276760D01*
X269532073Y-135165690D01*
X269665690Y-135032073D01*
X269776760Y-134879199D01*
X269862547Y-134710832D01*
X269920940Y-134531118D01*
X269950500Y-134344481D01*
X269950500Y-134155519D01*
X272549500Y-134155519D01*
X272549500Y-134344480D01*
X272579059Y-134531115D01*
X272579060Y-134531118D01*
X272637453Y-134710833D01*
X272723236Y-134879193D01*
X272723239Y-134879197D01*
X272723240Y-134879199D01*
X272834310Y-135032073D01*
X272834312Y-135032075D01*
X272834315Y-135032079D01*
X272967920Y-135165684D01*
X272967923Y-135165686D01*
X272967927Y-135165690D01*
X273120801Y-135276760D01*
X273120803Y-135276761D01*
X273120806Y-135276763D01*
X273289166Y-135362546D01*
X273289168Y-135362547D01*
X273468882Y-135420940D01*
X273655519Y-135450500D01*
X273655520Y-135450500D01*
X273844480Y-135450500D01*
X273844481Y-135450500D01*
X274031118Y-135420940D01*
X274210832Y-135362547D01*
X274379199Y-135276760D01*
X274532073Y-135165690D01*
X274665690Y-135032073D01*
X274776760Y-134879199D01*
X274862547Y-134710832D01*
X274920940Y-134531118D01*
X274950500Y-134344481D01*
X274950500Y-134155519D01*
X274920940Y-133968882D01*
X274862547Y-133789168D01*
X274776760Y-133620801D01*
X274665690Y-133467927D01*
X274665686Y-133467923D01*
X274665684Y-133467920D01*
X274532079Y-133334315D01*
X274532080Y-133334315D01*
X274379193Y-133223236D01*
X274210833Y-133137453D01*
X274031118Y-133079060D01*
X274031115Y-133079059D01*
X273887744Y-133056352D01*
X273844481Y-133049500D01*
X273655519Y-133049500D01*
X273620397Y-133055062D01*
X273468884Y-133079059D01*
X273468881Y-133079060D01*
X273289166Y-133137453D01*
X273120806Y-133223236D01*
X272967920Y-133334315D01*
X272834315Y-133467920D01*
X272723236Y-133620806D01*
X272637453Y-133789166D01*
X272579060Y-133968881D01*
X272579059Y-133968884D01*
X272549500Y-134155519D01*
X269950500Y-134155519D01*
X269920940Y-133968882D01*
X269862547Y-133789168D01*
X269776760Y-133620801D01*
X269665690Y-133467927D01*
X269665686Y-133467923D01*
X269665684Y-133467920D01*
X269532079Y-133334315D01*
X269532080Y-133334315D01*
X269379193Y-133223236D01*
X269210833Y-133137453D01*
X269031118Y-133079060D01*
X269031115Y-133079059D01*
X268887744Y-133056352D01*
X268844481Y-133049500D01*
X268655519Y-133049500D01*
X268620397Y-133055062D01*
X268468884Y-133079059D01*
X268468881Y-133079060D01*
X268289166Y-133137453D01*
X268120806Y-133223236D01*
X267967920Y-133334315D01*
X267834315Y-133467920D01*
X267723236Y-133620806D01*
X267637453Y-133789166D01*
X267579060Y-133968881D01*
X267579059Y-133968884D01*
X267549500Y-134155519D01*
X256050500Y-134155519D01*
X256050500Y-126893786D01*
X256064852Y-126859138D01*
X256099500Y-126844786D01*
X256134148Y-126859138D01*
X256144770Y-126875035D01*
X256156295Y-126902860D01*
X256249371Y-127042159D01*
X256367840Y-127160628D01*
X256507136Y-127253702D01*
X256507137Y-127253703D01*
X256661918Y-127317816D01*
X256826233Y-127350500D01*
X256826236Y-127350500D01*
X256993764Y-127350500D01*
X256993767Y-127350500D01*
X257158082Y-127317816D01*
X257312863Y-127253703D01*
X257452162Y-127160626D01*
X257570626Y-127042162D01*
X257663703Y-126902863D01*
X257727816Y-126748082D01*
X257760500Y-126583767D01*
X257760500Y-126416233D01*
X257727816Y-126251918D01*
X257663703Y-126097137D01*
X257570628Y-125957840D01*
X257452159Y-125839371D01*
X257312862Y-125746296D01*
X257158085Y-125682185D01*
X257158079Y-125682183D01*
X257142311Y-125679047D01*
X256993767Y-125649500D01*
X256826233Y-125649500D01*
X256744451Y-125665767D01*
X256661920Y-125682183D01*
X256661914Y-125682185D01*
X256507137Y-125746296D01*
X256367840Y-125839371D01*
X256249371Y-125957840D01*
X256156296Y-126097137D01*
X256144770Y-126124965D01*
X256118251Y-126151483D01*
X256080748Y-126151483D01*
X256054230Y-126124964D01*
X256050500Y-126106213D01*
X256050500Y-125960436D01*
X256041843Y-125928134D01*
X256030021Y-125884011D01*
X256030020Y-125884009D01*
X256030020Y-125884008D01*
X255990459Y-125815488D01*
X255805223Y-125630252D01*
X264449500Y-125630252D01*
X264449500Y-128869748D01*
X264461133Y-128928231D01*
X264478882Y-128954795D01*
X264505447Y-128994552D01*
X264532012Y-129012301D01*
X264571769Y-129038867D01*
X264630252Y-129050500D01*
X264630255Y-129050500D01*
X266669745Y-129050500D01*
X266669748Y-129050500D01*
X266728231Y-129038867D01*
X266794552Y-128994552D01*
X266838867Y-128928231D01*
X266850500Y-128869748D01*
X266850500Y-125630252D01*
X275649500Y-125630252D01*
X275649500Y-128869748D01*
X275661133Y-128928231D01*
X275678882Y-128954795D01*
X275705447Y-128994552D01*
X275732012Y-129012301D01*
X275771769Y-129038867D01*
X275830252Y-129050500D01*
X275830255Y-129050500D01*
X277869745Y-129050500D01*
X277869748Y-129050500D01*
X277928231Y-129038867D01*
X277994552Y-128994552D01*
X278038867Y-128928231D01*
X278050500Y-128869748D01*
X278050500Y-125630252D01*
X278038867Y-125571769D01*
X278012301Y-125532012D01*
X277994552Y-125505447D01*
X277954795Y-125478882D01*
X277928231Y-125461133D01*
X277869748Y-125449500D01*
X275830252Y-125449500D01*
X275771769Y-125461133D01*
X275705447Y-125505447D01*
X275661133Y-125571769D01*
X275649500Y-125630252D01*
X266850500Y-125630252D01*
X266838867Y-125571769D01*
X266812301Y-125532012D01*
X266794552Y-125505447D01*
X266754795Y-125478882D01*
X266728231Y-125461133D01*
X266669748Y-125449500D01*
X264630252Y-125449500D01*
X264571769Y-125461133D01*
X264505447Y-125505447D01*
X264461133Y-125571769D01*
X264449500Y-125630252D01*
X255805223Y-125630252D01*
X254892231Y-124717260D01*
X254877879Y-124682612D01*
X254878821Y-124673052D01*
X254900500Y-124564069D01*
X254900500Y-124435931D01*
X254875501Y-124310256D01*
X254826465Y-124191873D01*
X254755276Y-124085331D01*
X254664669Y-123994724D01*
X254558127Y-123923535D01*
X254439744Y-123874499D01*
X254439742Y-123874498D01*
X254439737Y-123874497D01*
X254314072Y-123849500D01*
X254314069Y-123849500D01*
X254185931Y-123849500D01*
X254185927Y-123849500D01*
X254060262Y-123874497D01*
X254060257Y-123874498D01*
X253941874Y-123923534D01*
X253835331Y-123994723D01*
X253744723Y-124085331D01*
X253673534Y-124191874D01*
X253624498Y-124310257D01*
X253624497Y-124310262D01*
X253599500Y-124435927D01*
X253599500Y-124564072D01*
X253624497Y-124689737D01*
X253624498Y-124689742D01*
X253635897Y-124717260D01*
X253673535Y-124808127D01*
X253744724Y-124914669D01*
X253835331Y-125005276D01*
X253941873Y-125076465D01*
X254060256Y-125125501D01*
X254185931Y-125150500D01*
X254314069Y-125150500D01*
X254423052Y-125128821D01*
X254459834Y-125136137D01*
X254467260Y-125142231D01*
X255435148Y-126110119D01*
X255449500Y-126144767D01*
X255449500Y-139434956D01*
X255435148Y-139469604D01*
X255400500Y-139483956D01*
X255371699Y-139474598D01*
X255188582Y-139341557D01*
X254964185Y-139227220D01*
X254724668Y-139149397D01*
X254724665Y-139149396D01*
X254475922Y-139110000D01*
X254224078Y-139110000D01*
X253975334Y-139149396D01*
X253975331Y-139149397D01*
X253735814Y-139227220D01*
X253511414Y-139341558D01*
X253511411Y-139341560D01*
X253409300Y-139415747D01*
X254025974Y-140032421D01*
X253994742Y-140045359D01*
X253871903Y-140127437D01*
X253767437Y-140231903D01*
X253685359Y-140354742D01*
X253672421Y-140385974D01*
X253055747Y-139769300D01*
X252981560Y-139871411D01*
X252981558Y-139871414D01*
X252867220Y-140095814D01*
X252789397Y-140335331D01*
X252789396Y-140335334D01*
X252750000Y-140584077D01*
X252750000Y-140835922D01*
X252789396Y-141084665D01*
X252789397Y-141084668D01*
X252867220Y-141324185D01*
X252981557Y-141548582D01*
X253055747Y-141650698D01*
X253672421Y-141034024D01*
X253685359Y-141065258D01*
X253767437Y-141188097D01*
X253871903Y-141292563D01*
X253994742Y-141374641D01*
X254025973Y-141387577D01*
X253409300Y-142004251D01*
X253511417Y-142078442D01*
X253735814Y-142192779D01*
X253975331Y-142270602D01*
X253975334Y-142270603D01*
X254224078Y-142310000D01*
X254475922Y-142310000D01*
X254724665Y-142270603D01*
X254724668Y-142270602D01*
X254964185Y-142192779D01*
X255188579Y-142078444D01*
X255371698Y-141945401D01*
X255408165Y-141936646D01*
X255440142Y-141956241D01*
X255449500Y-141985043D01*
X255449500Y-146546332D01*
X255435148Y-146580980D01*
X252613959Y-149402168D01*
X252579311Y-149416520D01*
X252569751Y-149415578D01*
X252460772Y-149393900D01*
X252460769Y-149393900D01*
X252332631Y-149393900D01*
X252332627Y-149393900D01*
X252206962Y-149418897D01*
X252206957Y-149418898D01*
X252088574Y-149467934D01*
X251982031Y-149539123D01*
X251891423Y-149629731D01*
X251820234Y-149736274D01*
X251771198Y-149854657D01*
X251771197Y-149854662D01*
X251746200Y-149980327D01*
X241308243Y-149980327D01*
X245855045Y-145433525D01*
X245889692Y-145419174D01*
X245924340Y-145433526D01*
X245938692Y-145468174D01*
X245934962Y-145486925D01*
X245912186Y-145541910D01*
X245912183Y-145541920D01*
X245907428Y-145565826D01*
X245879500Y-145706233D01*
X245879500Y-145873767D01*
X245888919Y-145921120D01*
X245912183Y-146038079D01*
X245912185Y-146038085D01*
X245976296Y-146192862D01*
X246069371Y-146332159D01*
X246187840Y-146450628D01*
X246291280Y-146519744D01*
X246327137Y-146543703D01*
X246481918Y-146607816D01*
X246646233Y-146640500D01*
X246646236Y-146640500D01*
X246813764Y-146640500D01*
X246813767Y-146640500D01*
X246978082Y-146607816D01*
X247132863Y-146543703D01*
X247272162Y-146450626D01*
X247390626Y-146332162D01*
X247483703Y-146192863D01*
X247547816Y-146038082D01*
X247580500Y-145873767D01*
X247580500Y-145706233D01*
X247571081Y-145658882D01*
X247571081Y-145658880D01*
X249809500Y-145658880D01*
X249809500Y-145921120D01*
X249843730Y-146181116D01*
X249843731Y-146181120D01*
X249843732Y-146181127D01*
X249911599Y-146434412D01*
X249911602Y-146434419D01*
X250011957Y-146676697D01*
X250038493Y-146722659D01*
X250143074Y-146903800D01*
X250143084Y-146903815D01*
X250302709Y-147111841D01*
X250302720Y-147111853D01*
X250488146Y-147297279D01*
X250488158Y-147297290D01*
X250696184Y-147456915D01*
X250696193Y-147456921D01*
X250696197Y-147456924D01*
X250923303Y-147588043D01*
X251165581Y-147688398D01*
X251165584Y-147688398D01*
X251165587Y-147688400D01*
X251418872Y-147756267D01*
X251418873Y-147756267D01*
X251418884Y-147756270D01*
X251678880Y-147790500D01*
X251678883Y-147790500D01*
X251941117Y-147790500D01*
X251941120Y-147790500D01*
X252201116Y-147756270D01*
X252454419Y-147688398D01*
X252696697Y-147588043D01*
X252923803Y-147456924D01*
X253131851Y-147297282D01*
X253317282Y-147111851D01*
X253431451Y-146963065D01*
X253476915Y-146903815D01*
X253476916Y-146903812D01*
X253476924Y-146903803D01*
X253608043Y-146676697D01*
X253708398Y-146434419D01*
X253776270Y-146181116D01*
X253810500Y-145921120D01*
X253810500Y-145658880D01*
X253776270Y-145398884D01*
X253775163Y-145394751D01*
X253708400Y-145145587D01*
X253708396Y-145145577D01*
X253608043Y-144903303D01*
X253476924Y-144676197D01*
X253476921Y-144676193D01*
X253476915Y-144676184D01*
X253317290Y-144468158D01*
X253317279Y-144468146D01*
X253131853Y-144282720D01*
X253131841Y-144282709D01*
X252923815Y-144123084D01*
X252923800Y-144123074D01*
X252810250Y-144057516D01*
X252696697Y-143991957D01*
X252475901Y-143900500D01*
X252454422Y-143891603D01*
X252454412Y-143891599D01*
X252201127Y-143823732D01*
X252201120Y-143823731D01*
X252201116Y-143823730D01*
X251941120Y-143789500D01*
X251678880Y-143789500D01*
X251418884Y-143823730D01*
X251418880Y-143823730D01*
X251418872Y-143823732D01*
X251165587Y-143891599D01*
X251165577Y-143891603D01*
X251068993Y-143931610D01*
X250923303Y-143991957D01*
X250923300Y-143991958D01*
X250923299Y-143991959D01*
X250696199Y-144123074D01*
X250696184Y-144123084D01*
X250488158Y-144282709D01*
X250488146Y-144282720D01*
X250302720Y-144468146D01*
X250302709Y-144468158D01*
X250143084Y-144676184D01*
X250143074Y-144676199D01*
X250011959Y-144903299D01*
X250011957Y-144903303D01*
X249996964Y-144939500D01*
X249911603Y-145145577D01*
X249911599Y-145145587D01*
X249843732Y-145398872D01*
X249843730Y-145398880D01*
X249843730Y-145398884D01*
X249809500Y-145658880D01*
X247571081Y-145658880D01*
X247557848Y-145592355D01*
X247547816Y-145541918D01*
X247483703Y-145387137D01*
X247467955Y-145363568D01*
X247390628Y-145247840D01*
X247272159Y-145129371D01*
X247132862Y-145036296D01*
X246978085Y-144972185D01*
X246978079Y-144972183D01*
X246911816Y-144959002D01*
X246813767Y-144939500D01*
X246646233Y-144939500D01*
X246564451Y-144955767D01*
X246481920Y-144972183D01*
X246481910Y-144972186D01*
X246426925Y-144994962D01*
X246389422Y-144994962D01*
X246362904Y-144968443D01*
X246362904Y-144930940D01*
X246373523Y-144915047D01*
X247065045Y-144223525D01*
X247099692Y-144209174D01*
X247134340Y-144223526D01*
X247152775Y-144241961D01*
X247152779Y-144241964D01*
X247152781Y-144241966D01*
X247235809Y-144302289D01*
X247308976Y-144355448D01*
X247318390Y-144362287D01*
X247500781Y-144455220D01*
X247695466Y-144518477D01*
X247897648Y-144550500D01*
X247897649Y-144550500D01*
X248102351Y-144550500D01*
X248102352Y-144550500D01*
X248304534Y-144518477D01*
X248499219Y-144455220D01*
X248681610Y-144362287D01*
X248847219Y-144241966D01*
X248847222Y-144241962D01*
X248847225Y-144241961D01*
X248991961Y-144097225D01*
X248991962Y-144097222D01*
X248991966Y-144097219D01*
X249112287Y-143931610D01*
X249205220Y-143749219D01*
X249268477Y-143554534D01*
X249300500Y-143352352D01*
X249300500Y-143147648D01*
X249268477Y-142945466D01*
X249205220Y-142750781D01*
X249112287Y-142568390D01*
X248991966Y-142402781D01*
X248991964Y-142402779D01*
X248991961Y-142402775D01*
X248847225Y-142258039D01*
X248847220Y-142258035D01*
X248681615Y-142137716D01*
X248681612Y-142137714D01*
X248499217Y-142044779D01*
X248304534Y-141981523D01*
X248304531Y-141981522D01*
X248134097Y-141954528D01*
X248102352Y-141949500D01*
X247897648Y-141949500D01*
X247865903Y-141954528D01*
X247695468Y-141981522D01*
X247695465Y-141981523D01*
X247500782Y-142044779D01*
X247318387Y-142137714D01*
X247318384Y-142137716D01*
X247152779Y-142258035D01*
X247008035Y-142402779D01*
X246887716Y-142568384D01*
X246887714Y-142568387D01*
X246794779Y-142750782D01*
X246731523Y-142945465D01*
X246731522Y-142945468D01*
X246699500Y-143147648D01*
X246699500Y-143352351D01*
X246731522Y-143554531D01*
X246731523Y-143554534D01*
X246759660Y-143641131D01*
X246756717Y-143678519D01*
X246747706Y-143690921D01*
X234921789Y-155516840D01*
X234865841Y-155572788D01*
X234865840Y-155572788D01*
X234826279Y-155641308D01*
X234826279Y-155641310D01*
X234805800Y-155717736D01*
X234805800Y-165321247D01*
X234791448Y-165355895D01*
X234784023Y-165361989D01*
X234691631Y-165423723D01*
X234601023Y-165514331D01*
X234529834Y-165620874D01*
X234480798Y-165739257D01*
X234480797Y-165739262D01*
X234455800Y-165864927D01*
X223109318Y-165864927D01*
X223123976Y-165850269D01*
X223195165Y-165743727D01*
X223244201Y-165625344D01*
X223269200Y-165499669D01*
X223269200Y-165371531D01*
X223244201Y-165245856D01*
X223195165Y-165127473D01*
X223123976Y-165020931D01*
X223033369Y-164930324D01*
X222926827Y-164859135D01*
X222808444Y-164810099D01*
X222808442Y-164810098D01*
X222808437Y-164810097D01*
X222682772Y-164785100D01*
X222682769Y-164785100D01*
X222554631Y-164785100D01*
X222554627Y-164785100D01*
X222428962Y-164810097D01*
X222428957Y-164810098D01*
X222310574Y-164859134D01*
X222204031Y-164930323D01*
X222113423Y-165020931D01*
X222042234Y-165127474D01*
X221993198Y-165245857D01*
X221993197Y-165245862D01*
X221968200Y-165371527D01*
X210073057Y-165371527D01*
X210047327Y-165354335D01*
X210043704Y-165352834D01*
X209928942Y-165305298D01*
X209928937Y-165305297D01*
X209803272Y-165280300D01*
X209803269Y-165280300D01*
X209675131Y-165280300D01*
X209675127Y-165280300D01*
X209549462Y-165305297D01*
X209549457Y-165305298D01*
X209431074Y-165354334D01*
X209324531Y-165425523D01*
X209233923Y-165516131D01*
X209162734Y-165622674D01*
X209113698Y-165741057D01*
X209113697Y-165741062D01*
X209088700Y-165866727D01*
X206922855Y-165866727D01*
X206854329Y-162204668D01*
X206750001Y-156629334D01*
X206750000Y-156629334D01*
X196500000Y-156629334D01*
X196500000Y-199000000D01*
X186021353Y-199000000D01*
X186010130Y-198943580D01*
X185930941Y-198752402D01*
X185815977Y-198580345D01*
X185669655Y-198434023D01*
X185497598Y-198319059D01*
X185497596Y-198319058D01*
X185306423Y-198239871D01*
X185306417Y-198239869D01*
X185224572Y-198223589D01*
X185103465Y-198199500D01*
X184896535Y-198199500D01*
X184795520Y-198219592D01*
X184693582Y-198239869D01*
X184693576Y-198239871D01*
X184502403Y-198319058D01*
X184330345Y-198434022D01*
X184184022Y-198580345D01*
X184069058Y-198752403D01*
X183989871Y-198943576D01*
X183989869Y-198943582D01*
X183978647Y-199000000D01*
X183949500Y-199146535D01*
X182550500Y-199146535D01*
X182550500Y-148030727D01*
X190286600Y-148030727D01*
X190286600Y-148158872D01*
X190311597Y-148284537D01*
X190311598Y-148284542D01*
X190312026Y-148285574D01*
X190360635Y-148402927D01*
X190431824Y-148509469D01*
X190522431Y-148600076D01*
X190628973Y-148671265D01*
X190747356Y-148720301D01*
X190873031Y-148745300D01*
X191001169Y-148745300D01*
X191126844Y-148720301D01*
X191245227Y-148671265D01*
X191351769Y-148600076D01*
X191442376Y-148509469D01*
X191513565Y-148402927D01*
X191562601Y-148284544D01*
X191587600Y-148158869D01*
X191587600Y-148030731D01*
X191562601Y-147905056D01*
X191513565Y-147786673D01*
X191442376Y-147680131D01*
X191351769Y-147589524D01*
X191349548Y-147588040D01*
X191298857Y-147554170D01*
X191245227Y-147518335D01*
X191126844Y-147469299D01*
X191126842Y-147469298D01*
X191126837Y-147469297D01*
X191001172Y-147444300D01*
X191001169Y-147444300D01*
X190873031Y-147444300D01*
X190873027Y-147444300D01*
X190747362Y-147469297D01*
X190747357Y-147469298D01*
X190628974Y-147518334D01*
X190522431Y-147589523D01*
X190431823Y-147680131D01*
X190360634Y-147786674D01*
X190311598Y-147905057D01*
X190311597Y-147905062D01*
X190286600Y-148030727D01*
X182550500Y-148030727D01*
X182550500Y-145706233D01*
X188029500Y-145706233D01*
X188029500Y-145873767D01*
X188038919Y-145921120D01*
X188062183Y-146038079D01*
X188062185Y-146038085D01*
X188126296Y-146192862D01*
X188219371Y-146332159D01*
X188337840Y-146450628D01*
X188441280Y-146519744D01*
X188477137Y-146543703D01*
X188631918Y-146607816D01*
X188796233Y-146640500D01*
X188796236Y-146640500D01*
X188963764Y-146640500D01*
X188963767Y-146640500D01*
X189128082Y-146607816D01*
X189282863Y-146543703D01*
X189422162Y-146450626D01*
X189540626Y-146332162D01*
X189633703Y-146192863D01*
X189697816Y-146038082D01*
X189730500Y-145873767D01*
X189730500Y-145706233D01*
X189697816Y-145541918D01*
X189633703Y-145387137D01*
X189617955Y-145363568D01*
X189540628Y-145247840D01*
X189422159Y-145129371D01*
X189282862Y-145036296D01*
X189128085Y-144972185D01*
X189128079Y-144972183D01*
X189061816Y-144959002D01*
X188963767Y-144939500D01*
X188796233Y-144939500D01*
X188714451Y-144955767D01*
X188631920Y-144972183D01*
X188631914Y-144972185D01*
X188477137Y-145036296D01*
X188337840Y-145129371D01*
X188219371Y-145247840D01*
X188126296Y-145387137D01*
X188062185Y-145541914D01*
X188062183Y-145541920D01*
X188057428Y-145565826D01*
X188029500Y-145706233D01*
X182550500Y-145706233D01*
X182550500Y-143147648D01*
X188849500Y-143147648D01*
X188849500Y-143352351D01*
X188881522Y-143554531D01*
X188881523Y-143554534D01*
X188944779Y-143749217D01*
X189037714Y-143931612D01*
X189037716Y-143931615D01*
X189087401Y-144000000D01*
X189153420Y-144090869D01*
X189158035Y-144097220D01*
X189158039Y-144097225D01*
X189302775Y-144241961D01*
X189302779Y-144241964D01*
X189302781Y-144241966D01*
X189385809Y-144302289D01*
X189458976Y-144355448D01*
X189468390Y-144362287D01*
X189650781Y-144455220D01*
X189845466Y-144518477D01*
X190047648Y-144550500D01*
X190047649Y-144550500D01*
X190252351Y-144550500D01*
X190252352Y-144550500D01*
X190454534Y-144518477D01*
X190649219Y-144455220D01*
X190831610Y-144362287D01*
X190997219Y-144241966D01*
X190997222Y-144241962D01*
X190997225Y-144241961D01*
X191141961Y-144097225D01*
X191141962Y-144097222D01*
X191141966Y-144097219D01*
X191262287Y-143931610D01*
X191321231Y-143815924D01*
X191349748Y-143791568D01*
X191387135Y-143794511D01*
X191405632Y-143810947D01*
X191416001Y-143826465D01*
X191435093Y-143855038D01*
X191525700Y-143945645D01*
X191632242Y-144016834D01*
X191750625Y-144065870D01*
X191876300Y-144090869D01*
X192004438Y-144090869D01*
X192130113Y-144065870D01*
X192248496Y-144016834D01*
X192355038Y-143945645D01*
X192445645Y-143855038D01*
X192486088Y-143794511D01*
X192507380Y-143762646D01*
X192538563Y-143741810D01*
X192548122Y-143740869D01*
X193505932Y-143740869D01*
X193540580Y-143755221D01*
X193554932Y-143789869D01*
X193540580Y-143824517D01*
X193518614Y-143837199D01*
X193315587Y-143891599D01*
X193315577Y-143891603D01*
X193218993Y-143931610D01*
X193073303Y-143991957D01*
X193073300Y-143991958D01*
X193073299Y-143991959D01*
X192846199Y-144123074D01*
X192846184Y-144123084D01*
X192638158Y-144282709D01*
X192638146Y-144282720D01*
X192452720Y-144468146D01*
X192452709Y-144468158D01*
X192293084Y-144676184D01*
X192293074Y-144676199D01*
X192161959Y-144903299D01*
X192161957Y-144903303D01*
X192146964Y-144939500D01*
X192061603Y-145145577D01*
X192061599Y-145145587D01*
X191993732Y-145398872D01*
X191993730Y-145398880D01*
X191993730Y-145398884D01*
X191959500Y-145658880D01*
X191959500Y-145921120D01*
X191993730Y-146181116D01*
X191993731Y-146181120D01*
X191993732Y-146181127D01*
X192061599Y-146434412D01*
X192061602Y-146434419D01*
X192161957Y-146676697D01*
X192188493Y-146722659D01*
X192293074Y-146903800D01*
X192293084Y-146903815D01*
X192452709Y-147111841D01*
X192452720Y-147111853D01*
X192638146Y-147297279D01*
X192638158Y-147297290D01*
X192846184Y-147456915D01*
X192846193Y-147456921D01*
X192846197Y-147456924D01*
X193073303Y-147588043D01*
X193315581Y-147688398D01*
X193315584Y-147688398D01*
X193315587Y-147688400D01*
X193568872Y-147756267D01*
X193568873Y-147756267D01*
X193568884Y-147756270D01*
X193828880Y-147790500D01*
X193828883Y-147790500D01*
X194091117Y-147790500D01*
X194091120Y-147790500D01*
X194351116Y-147756270D01*
X194604419Y-147688398D01*
X194846697Y-147588043D01*
X195073803Y-147456924D01*
X195281851Y-147297282D01*
X195467282Y-147111851D01*
X195581451Y-146963065D01*
X195626915Y-146903815D01*
X195626916Y-146903812D01*
X195626924Y-146903803D01*
X195758043Y-146676697D01*
X195858398Y-146434419D01*
X195926270Y-146181116D01*
X195960500Y-145921120D01*
X195960500Y-145706233D01*
X198189500Y-145706233D01*
X198189500Y-145873767D01*
X198198919Y-145921120D01*
X198222183Y-146038079D01*
X198222185Y-146038085D01*
X198286296Y-146192862D01*
X198379371Y-146332159D01*
X198497840Y-146450628D01*
X198601280Y-146519744D01*
X198637137Y-146543703D01*
X198791918Y-146607816D01*
X198956233Y-146640500D01*
X198956236Y-146640500D01*
X199123764Y-146640500D01*
X199123767Y-146640500D01*
X199288082Y-146607816D01*
X199442863Y-146543703D01*
X199582162Y-146450626D01*
X199700626Y-146332162D01*
X199793703Y-146192863D01*
X199857816Y-146038082D01*
X199890500Y-145873767D01*
X199890500Y-145706233D01*
X207312800Y-145706233D01*
X207312800Y-145873767D01*
X207322219Y-145921120D01*
X207345483Y-146038079D01*
X207345485Y-146038085D01*
X207409596Y-146192862D01*
X207502671Y-146332159D01*
X207621140Y-146450628D01*
X207724580Y-146519744D01*
X207760437Y-146543703D01*
X207915218Y-146607816D01*
X208079533Y-146640500D01*
X208079536Y-146640500D01*
X208247064Y-146640500D01*
X208247067Y-146640500D01*
X208411382Y-146607816D01*
X208566163Y-146543703D01*
X208705462Y-146450626D01*
X208823926Y-146332162D01*
X208917003Y-146192863D01*
X208981116Y-146038082D01*
X209013800Y-145873767D01*
X209013800Y-145706233D01*
X208981116Y-145541918D01*
X208917003Y-145387137D01*
X208901255Y-145363568D01*
X208823928Y-145247840D01*
X208705459Y-145129371D01*
X208566162Y-145036296D01*
X208411385Y-144972185D01*
X208411379Y-144972183D01*
X208345116Y-144959002D01*
X208247067Y-144939500D01*
X208079533Y-144939500D01*
X207997751Y-144955767D01*
X207915220Y-144972183D01*
X207915214Y-144972185D01*
X207760437Y-145036296D01*
X207621140Y-145129371D01*
X207502671Y-145247840D01*
X207409596Y-145387137D01*
X207345485Y-145541914D01*
X207345483Y-145541920D01*
X207340728Y-145565826D01*
X207312800Y-145706233D01*
X199890500Y-145706233D01*
X199857816Y-145541918D01*
X199793703Y-145387137D01*
X199777955Y-145363568D01*
X199700628Y-145247840D01*
X199582159Y-145129371D01*
X199442862Y-145036296D01*
X199288085Y-144972185D01*
X199288079Y-144972183D01*
X199221816Y-144959002D01*
X199123767Y-144939500D01*
X198956233Y-144939500D01*
X198874451Y-144955767D01*
X198791920Y-144972183D01*
X198791914Y-144972185D01*
X198637137Y-145036296D01*
X198497840Y-145129371D01*
X198379371Y-145247840D01*
X198286296Y-145387137D01*
X198222185Y-145541914D01*
X198222183Y-145541920D01*
X198217428Y-145565826D01*
X198189500Y-145706233D01*
X195960500Y-145706233D01*
X195960500Y-145658880D01*
X195926270Y-145398884D01*
X195925163Y-145394751D01*
X195858400Y-145145587D01*
X195858396Y-145145577D01*
X195758043Y-144903303D01*
X195626924Y-144676197D01*
X195626921Y-144676193D01*
X195626915Y-144676184D01*
X195467290Y-144468158D01*
X195467279Y-144468146D01*
X195281853Y-144282720D01*
X195281841Y-144282709D01*
X195073815Y-144123084D01*
X195073800Y-144123074D01*
X194960250Y-144057516D01*
X194846697Y-143991957D01*
X194625901Y-143900500D01*
X194604422Y-143891603D01*
X194604412Y-143891599D01*
X194401386Y-143837199D01*
X194371633Y-143814369D01*
X194366738Y-143777187D01*
X194389568Y-143747434D01*
X194414068Y-143740869D01*
X200006595Y-143740869D01*
X200033261Y-143733723D01*
X200083020Y-143720390D01*
X200151542Y-143680829D01*
X200207491Y-143624880D01*
X200684723Y-143147648D01*
X208132800Y-143147648D01*
X208132800Y-143352351D01*
X208164822Y-143554531D01*
X208164823Y-143554534D01*
X208228079Y-143749217D01*
X208321014Y-143931612D01*
X208321016Y-143931615D01*
X208370701Y-144000000D01*
X208436720Y-144090869D01*
X208441335Y-144097220D01*
X208441339Y-144097225D01*
X208586075Y-144241961D01*
X208586079Y-144241964D01*
X208586081Y-144241966D01*
X208669109Y-144302289D01*
X208742276Y-144355448D01*
X208751690Y-144362287D01*
X208934081Y-144455220D01*
X209128766Y-144518477D01*
X209330948Y-144550500D01*
X209330949Y-144550500D01*
X209535651Y-144550500D01*
X209535652Y-144550500D01*
X209737834Y-144518477D01*
X209932519Y-144455220D01*
X210114910Y-144362287D01*
X210280519Y-144241966D01*
X210280522Y-144241962D01*
X210280525Y-144241961D01*
X210425261Y-144097225D01*
X210425262Y-144097222D01*
X210425266Y-144097219D01*
X210545587Y-143931610D01*
X210638520Y-143749219D01*
X210701777Y-143554534D01*
X210733800Y-143352352D01*
X210733800Y-143147648D01*
X210701777Y-142945466D01*
X210638520Y-142750781D01*
X210545587Y-142568390D01*
X210425266Y-142402781D01*
X210425264Y-142402779D01*
X210425261Y-142402775D01*
X210280525Y-142258039D01*
X210280520Y-142258035D01*
X210114915Y-142137716D01*
X210114912Y-142137714D01*
X209932517Y-142044779D01*
X209737834Y-141981523D01*
X209737831Y-141981522D01*
X209567397Y-141954528D01*
X209535652Y-141949500D01*
X209330948Y-141949500D01*
X209299203Y-141954528D01*
X209128768Y-141981522D01*
X209128765Y-141981523D01*
X208934082Y-142044779D01*
X208751687Y-142137714D01*
X208751684Y-142137716D01*
X208586079Y-142258035D01*
X208441335Y-142402779D01*
X208321016Y-142568384D01*
X208321014Y-142568387D01*
X208228079Y-142750782D01*
X208164823Y-142945465D01*
X208164822Y-142945468D01*
X208132800Y-143147648D01*
X200684723Y-143147648D01*
X213234739Y-130597630D01*
X213269386Y-130583279D01*
X213278946Y-130584221D01*
X213387931Y-130605900D01*
X213516069Y-130605900D01*
X213641744Y-130580901D01*
X213760127Y-130531865D01*
X213866669Y-130460676D01*
X213957276Y-130370069D01*
X213993058Y-130316516D01*
X214024240Y-130295681D01*
X214061022Y-130302997D01*
X214081858Y-130334179D01*
X214082800Y-130343739D01*
X214082800Y-141329462D01*
X214103278Y-141405886D01*
X214103279Y-141405890D01*
X214124055Y-141441873D01*
X214124056Y-141441874D01*
X214142837Y-141474406D01*
X214142842Y-141474412D01*
X215786848Y-143118418D01*
X215801200Y-143153066D01*
X215801200Y-149442647D01*
X215786848Y-149477295D01*
X215779423Y-149483389D01*
X215728423Y-149517466D01*
X215691641Y-149524782D01*
X215660458Y-149503947D01*
X215652200Y-149476724D01*
X215652200Y-144692136D01*
X215643543Y-144659834D01*
X215631721Y-144615711D01*
X215631720Y-144615709D01*
X215631720Y-144615708D01*
X215606639Y-144572268D01*
X215592160Y-144547189D01*
X215536211Y-144491240D01*
X214054511Y-143009540D01*
X213985990Y-142969979D01*
X213909564Y-142949500D01*
X213909562Y-142949500D01*
X212204553Y-142949500D01*
X212169905Y-142935148D01*
X212163811Y-142927723D01*
X212102076Y-142835331D01*
X212011468Y-142744723D01*
X211958557Y-142709370D01*
X211904927Y-142673535D01*
X211786544Y-142624499D01*
X211786542Y-142624498D01*
X211786537Y-142624497D01*
X211660872Y-142599500D01*
X211660869Y-142599500D01*
X211532731Y-142599500D01*
X211532727Y-142599500D01*
X211407062Y-142624497D01*
X211407057Y-142624498D01*
X211288674Y-142673534D01*
X211182131Y-142744723D01*
X211091523Y-142835331D01*
X211020334Y-142941874D01*
X210971298Y-143060257D01*
X210971297Y-143060262D01*
X210946300Y-143185927D01*
X210946300Y-143314072D01*
X210971297Y-143439737D01*
X210971298Y-143439742D01*
X211017566Y-143551441D01*
X211020335Y-143558127D01*
X211091524Y-143664669D01*
X211182131Y-143755276D01*
X211288673Y-143826465D01*
X211407056Y-143875501D01*
X211532731Y-143900500D01*
X211660869Y-143900500D01*
X211786544Y-143875501D01*
X211904927Y-143826465D01*
X212011469Y-143755276D01*
X212102076Y-143664669D01*
X212131877Y-143620067D01*
X212163811Y-143572277D01*
X212194994Y-143551441D01*
X212204553Y-143550500D01*
X213725233Y-143550500D01*
X213759881Y-143564852D01*
X214053095Y-143858066D01*
X214067447Y-143892714D01*
X214053095Y-143927362D01*
X214018447Y-143941714D01*
X213999695Y-143937984D01*
X213887722Y-143891603D01*
X213887712Y-143891599D01*
X213634427Y-143823732D01*
X213634420Y-143823731D01*
X213634416Y-143823730D01*
X213374420Y-143789500D01*
X213112180Y-143789500D01*
X212852184Y-143823730D01*
X212852180Y-143823730D01*
X212852172Y-143823732D01*
X212598887Y-143891599D01*
X212598877Y-143891603D01*
X212502293Y-143931610D01*
X212356603Y-143991957D01*
X212356600Y-143991958D01*
X212356599Y-143991959D01*
X212129499Y-144123074D01*
X212129484Y-144123084D01*
X211921458Y-144282709D01*
X211921446Y-144282720D01*
X211736020Y-144468146D01*
X211736009Y-144468158D01*
X211576384Y-144676184D01*
X211576374Y-144676199D01*
X211445259Y-144903299D01*
X211445257Y-144903303D01*
X211430264Y-144939500D01*
X211344903Y-145145577D01*
X211344899Y-145145587D01*
X211277032Y-145398872D01*
X211277030Y-145398880D01*
X211277030Y-145398884D01*
X211242800Y-145658880D01*
X211242800Y-145921120D01*
X211277030Y-146181116D01*
X211277031Y-146181120D01*
X211277032Y-146181127D01*
X211344899Y-146434412D01*
X211344902Y-146434419D01*
X211445257Y-146676697D01*
X211471793Y-146722659D01*
X211576374Y-146903800D01*
X211576384Y-146903815D01*
X211736009Y-147111841D01*
X211736020Y-147111853D01*
X211921446Y-147297279D01*
X211921458Y-147297290D01*
X212129484Y-147456915D01*
X212129493Y-147456921D01*
X212129497Y-147456924D01*
X212356603Y-147588043D01*
X212598881Y-147688398D01*
X212598884Y-147688398D01*
X212598887Y-147688400D01*
X212852172Y-147756267D01*
X212852173Y-147756267D01*
X212852184Y-147756270D01*
X213112180Y-147790500D01*
X213112183Y-147790500D01*
X213374417Y-147790500D01*
X213374420Y-147790500D01*
X213634416Y-147756270D01*
X213887719Y-147688398D01*
X214129997Y-147588043D01*
X214357103Y-147456924D01*
X214565151Y-147297282D01*
X214750582Y-147111851D01*
X214864751Y-146963065D01*
X214910215Y-146903815D01*
X214910216Y-146903812D01*
X214910224Y-146903803D01*
X214959766Y-146817993D01*
X214989518Y-146795164D01*
X215026700Y-146800059D01*
X215049530Y-146829812D01*
X215051200Y-146842494D01*
X215051200Y-150400624D01*
X215071678Y-150477048D01*
X215071679Y-150477052D01*
X215091160Y-150510792D01*
X215091161Y-150510793D01*
X215111237Y-150545568D01*
X215111239Y-150545570D01*
X215111240Y-150545572D01*
X215550579Y-150984911D01*
X215606528Y-151040860D01*
X215675050Y-151080421D01*
X215710517Y-151089924D01*
X215751475Y-151100900D01*
X215751477Y-151100900D01*
X216489164Y-151100900D01*
X216515830Y-151093754D01*
X216565589Y-151080421D01*
X216634111Y-151040860D01*
X216690060Y-150984911D01*
X223227734Y-144447237D01*
X225199500Y-144447237D01*
X225199500Y-146289563D01*
X225219979Y-146365989D01*
X225219979Y-146365991D01*
X225234188Y-146390600D01*
X225259540Y-146434511D01*
X227367940Y-148542911D01*
X227423889Y-148598860D01*
X227492411Y-148638421D01*
X227527878Y-148647924D01*
X227568836Y-148658900D01*
X227568838Y-148658900D01*
X227647962Y-148658900D01*
X232099912Y-148658900D01*
X232134560Y-148673252D01*
X232147970Y-148698341D01*
X232164896Y-148783435D01*
X232164898Y-148783442D01*
X232164899Y-148783444D01*
X232213935Y-148901827D01*
X232285124Y-149008369D01*
X232375731Y-149098976D01*
X232482273Y-149170165D01*
X232600656Y-149219201D01*
X232726331Y-149244200D01*
X232854469Y-149244200D01*
X232980144Y-149219201D01*
X233098527Y-149170165D01*
X233205069Y-149098976D01*
X233295676Y-149008369D01*
X233366865Y-148901827D01*
X233415901Y-148783444D01*
X233440900Y-148657769D01*
X233440900Y-148529631D01*
X233415901Y-148403956D01*
X233366865Y-148285573D01*
X233295676Y-148179031D01*
X233205069Y-148088424D01*
X233098527Y-148017235D01*
X232980144Y-147968199D01*
X232980142Y-147968198D01*
X232980137Y-147968197D01*
X232854472Y-147943200D01*
X232854469Y-147943200D01*
X232726331Y-147943200D01*
X232726327Y-147943200D01*
X232600662Y-147968197D01*
X232600657Y-147968198D01*
X232482272Y-148017235D01*
X232482271Y-148017235D01*
X232433771Y-148049642D01*
X232406549Y-148057900D01*
X227753167Y-148057900D01*
X227718519Y-148043548D01*
X225814852Y-146139881D01*
X225800500Y-146105233D01*
X225800500Y-145706233D01*
X226596200Y-145706233D01*
X226596200Y-145873767D01*
X226605619Y-145921120D01*
X226628883Y-146038079D01*
X226628885Y-146038085D01*
X226692996Y-146192862D01*
X226786071Y-146332159D01*
X226904540Y-146450628D01*
X227007980Y-146519744D01*
X227043837Y-146543703D01*
X227198618Y-146607816D01*
X227362933Y-146640500D01*
X227362936Y-146640500D01*
X227530464Y-146640500D01*
X227530467Y-146640500D01*
X227694782Y-146607816D01*
X227849563Y-146543703D01*
X227988862Y-146450626D01*
X228107326Y-146332162D01*
X228200403Y-146192863D01*
X228264516Y-146038082D01*
X228297200Y-145873767D01*
X228297200Y-145706233D01*
X228287781Y-145658882D01*
X228287781Y-145658880D01*
X230526200Y-145658880D01*
X230526200Y-145921120D01*
X230560430Y-146181116D01*
X230560431Y-146181120D01*
X230560432Y-146181127D01*
X230628299Y-146434412D01*
X230628302Y-146434419D01*
X230728657Y-146676697D01*
X230755193Y-146722659D01*
X230859774Y-146903800D01*
X230859784Y-146903815D01*
X231019409Y-147111841D01*
X231019420Y-147111853D01*
X231204846Y-147297279D01*
X231204858Y-147297290D01*
X231412884Y-147456915D01*
X231412893Y-147456921D01*
X231412897Y-147456924D01*
X231640003Y-147588043D01*
X231882281Y-147688398D01*
X231882284Y-147688398D01*
X231882287Y-147688400D01*
X232135572Y-147756267D01*
X232135573Y-147756267D01*
X232135584Y-147756270D01*
X232395580Y-147790500D01*
X232395583Y-147790500D01*
X232657817Y-147790500D01*
X232657820Y-147790500D01*
X232917816Y-147756270D01*
X233171119Y-147688398D01*
X233413397Y-147588043D01*
X233640503Y-147456924D01*
X233848551Y-147297282D01*
X234033982Y-147111851D01*
X234148151Y-146963065D01*
X234193615Y-146903815D01*
X234193616Y-146903812D01*
X234193624Y-146903803D01*
X234324743Y-146676697D01*
X234425098Y-146434419D01*
X234492970Y-146181116D01*
X234527200Y-145921120D01*
X234527200Y-145706233D01*
X236756200Y-145706233D01*
X236756200Y-145873767D01*
X236765619Y-145921120D01*
X236788883Y-146038079D01*
X236788885Y-146038085D01*
X236852996Y-146192862D01*
X236946071Y-146332159D01*
X237064540Y-146450628D01*
X237167980Y-146519744D01*
X237203837Y-146543703D01*
X237358618Y-146607816D01*
X237522933Y-146640500D01*
X237522936Y-146640500D01*
X237690464Y-146640500D01*
X237690467Y-146640500D01*
X237854782Y-146607816D01*
X238009563Y-146543703D01*
X238148862Y-146450626D01*
X238267326Y-146332162D01*
X238360403Y-146192863D01*
X238424516Y-146038082D01*
X238457200Y-145873767D01*
X238457200Y-145706233D01*
X238424516Y-145541918D01*
X238360403Y-145387137D01*
X238344655Y-145363568D01*
X238267328Y-145247840D01*
X238148859Y-145129371D01*
X238009562Y-145036296D01*
X237854785Y-144972185D01*
X237854779Y-144972183D01*
X237788516Y-144959002D01*
X237690467Y-144939500D01*
X237522933Y-144939500D01*
X237441151Y-144955767D01*
X237358620Y-144972183D01*
X237358614Y-144972185D01*
X237203837Y-145036296D01*
X237064540Y-145129371D01*
X236946071Y-145247840D01*
X236852996Y-145387137D01*
X236788885Y-145541914D01*
X236788883Y-145541920D01*
X236784128Y-145565826D01*
X236756200Y-145706233D01*
X234527200Y-145706233D01*
X234527200Y-145658880D01*
X234492970Y-145398884D01*
X234491863Y-145394751D01*
X234425100Y-145145587D01*
X234425096Y-145145577D01*
X234324743Y-144903303D01*
X234193624Y-144676197D01*
X234193621Y-144676193D01*
X234193615Y-144676184D01*
X234033990Y-144468158D01*
X234033979Y-144468146D01*
X233848553Y-144282720D01*
X233848541Y-144282709D01*
X233640515Y-144123084D01*
X233640500Y-144123074D01*
X233526950Y-144057516D01*
X233413397Y-143991957D01*
X233192601Y-143900500D01*
X233171122Y-143891603D01*
X233171112Y-143891599D01*
X232917827Y-143823732D01*
X232917820Y-143823731D01*
X232917816Y-143823730D01*
X232657820Y-143789500D01*
X232395580Y-143789500D01*
X232135584Y-143823730D01*
X232135580Y-143823730D01*
X232135572Y-143823732D01*
X231882287Y-143891599D01*
X231882277Y-143891603D01*
X231785693Y-143931610D01*
X231640003Y-143991957D01*
X231640000Y-143991958D01*
X231639999Y-143991959D01*
X231412899Y-144123074D01*
X231412884Y-144123084D01*
X231204858Y-144282709D01*
X231204846Y-144282720D01*
X231019420Y-144468146D01*
X231019409Y-144468158D01*
X230859784Y-144676184D01*
X230859774Y-144676199D01*
X230728659Y-144903299D01*
X230728657Y-144903303D01*
X230713664Y-144939500D01*
X230628303Y-145145577D01*
X230628299Y-145145587D01*
X230560432Y-145398872D01*
X230560430Y-145398880D01*
X230560430Y-145398884D01*
X230526200Y-145658880D01*
X228287781Y-145658880D01*
X228274548Y-145592355D01*
X228264516Y-145541918D01*
X228200403Y-145387137D01*
X228184655Y-145363568D01*
X228107328Y-145247840D01*
X227988859Y-145129371D01*
X227849562Y-145036296D01*
X227694785Y-144972185D01*
X227694779Y-144972183D01*
X227628516Y-144959002D01*
X227530467Y-144939500D01*
X227362933Y-144939500D01*
X227281151Y-144955767D01*
X227198620Y-144972183D01*
X227198614Y-144972185D01*
X227043837Y-145036296D01*
X226904540Y-145129371D01*
X226786071Y-145247840D01*
X226692996Y-145387137D01*
X226628885Y-145541914D01*
X226628883Y-145541920D01*
X226624128Y-145565826D01*
X226596200Y-145706233D01*
X225800500Y-145706233D01*
X225800500Y-144631567D01*
X225814851Y-144596920D01*
X227338184Y-143073586D01*
X227372831Y-143059235D01*
X227407479Y-143073587D01*
X227421831Y-143108235D01*
X227421228Y-143115900D01*
X227416200Y-143147648D01*
X227416200Y-143352351D01*
X227448222Y-143554531D01*
X227448223Y-143554534D01*
X227511479Y-143749217D01*
X227604414Y-143931612D01*
X227604416Y-143931615D01*
X227654101Y-144000000D01*
X227720120Y-144090869D01*
X227724735Y-144097220D01*
X227724739Y-144097225D01*
X227869475Y-144241961D01*
X227869479Y-144241964D01*
X227869481Y-144241966D01*
X227952509Y-144302289D01*
X228025676Y-144355448D01*
X228035090Y-144362287D01*
X228217481Y-144455220D01*
X228412166Y-144518477D01*
X228614348Y-144550500D01*
X228614349Y-144550500D01*
X228819051Y-144550500D01*
X228819052Y-144550500D01*
X229021234Y-144518477D01*
X229215919Y-144455220D01*
X229398310Y-144362287D01*
X229563919Y-144241966D01*
X229563922Y-144241962D01*
X229563925Y-144241961D01*
X229708661Y-144097225D01*
X229708662Y-144097222D01*
X229708666Y-144097219D01*
X229828987Y-143931610D01*
X229921920Y-143749219D01*
X229985177Y-143554534D01*
X230017200Y-143352352D01*
X230017200Y-143147648D01*
X229985177Y-142945466D01*
X229921920Y-142750781D01*
X229828987Y-142568390D01*
X229708666Y-142402781D01*
X229708664Y-142402779D01*
X229708661Y-142402775D01*
X229563925Y-142258039D01*
X229563920Y-142258035D01*
X229398315Y-142137716D01*
X229398312Y-142137714D01*
X229215917Y-142044779D01*
X229021234Y-141981523D01*
X229021231Y-141981522D01*
X228850797Y-141954528D01*
X228819052Y-141949500D01*
X228614348Y-141949500D01*
X228582600Y-141954528D01*
X228546133Y-141945772D01*
X228526538Y-141913796D01*
X228535294Y-141877329D01*
X228540280Y-141871490D01*
X229865853Y-140545918D01*
X229900500Y-140531567D01*
X229935148Y-140545919D01*
X229949500Y-140580567D01*
X229949500Y-141142247D01*
X229935148Y-141176895D01*
X229927723Y-141182989D01*
X229835331Y-141244723D01*
X229744723Y-141335331D01*
X229673534Y-141441874D01*
X229624498Y-141560257D01*
X229624497Y-141560262D01*
X229599500Y-141685927D01*
X229599500Y-141814072D01*
X229624497Y-141939737D01*
X229624498Y-141939742D01*
X229662787Y-142032178D01*
X229673535Y-142058127D01*
X229709370Y-142111757D01*
X229726714Y-142137716D01*
X229744724Y-142164669D01*
X229835331Y-142255276D01*
X229941873Y-142326465D01*
X230060256Y-142375501D01*
X230185931Y-142400500D01*
X230314069Y-142400500D01*
X230439744Y-142375501D01*
X230558127Y-142326465D01*
X230664669Y-142255276D01*
X230755276Y-142164669D01*
X230826465Y-142058127D01*
X230875501Y-141939744D01*
X230900500Y-141814069D01*
X230900500Y-141685931D01*
X230875501Y-141560256D01*
X230826465Y-141441873D01*
X230755276Y-141335331D01*
X230664669Y-141244724D01*
X230664668Y-141244723D01*
X230572277Y-141182989D01*
X230551441Y-141151806D01*
X230550500Y-141142247D01*
X230550500Y-140644767D01*
X230564852Y-140610119D01*
X230590894Y-140584077D01*
X233466700Y-140584077D01*
X233466700Y-140835922D01*
X233506096Y-141084665D01*
X233506097Y-141084668D01*
X233583920Y-141324185D01*
X233698257Y-141548582D01*
X233772447Y-141650698D01*
X234389121Y-141034024D01*
X234402059Y-141065258D01*
X234484137Y-141188097D01*
X234588603Y-141292563D01*
X234711442Y-141374641D01*
X234742674Y-141387577D01*
X234126000Y-142004251D01*
X234228117Y-142078442D01*
X234452514Y-142192779D01*
X234692031Y-142270602D01*
X234692034Y-142270603D01*
X234940778Y-142310000D01*
X235192622Y-142310000D01*
X235441365Y-142270603D01*
X235441368Y-142270602D01*
X235680885Y-142192779D01*
X235905279Y-142078444D01*
X236007397Y-142004250D01*
X235390725Y-141387578D01*
X235421958Y-141374641D01*
X235544797Y-141292563D01*
X235649263Y-141188097D01*
X235731341Y-141065258D01*
X235744278Y-141034025D01*
X236360950Y-141650697D01*
X236435144Y-141548579D01*
X236549479Y-141324185D01*
X236627302Y-141084668D01*
X236627303Y-141084665D01*
X236666700Y-140835922D01*
X236666700Y-140584077D01*
X236627303Y-140335334D01*
X236627302Y-140335331D01*
X236549479Y-140095814D01*
X236435142Y-139871417D01*
X236360951Y-139769300D01*
X235744277Y-140385973D01*
X235731341Y-140354742D01*
X235649263Y-140231903D01*
X235544797Y-140127437D01*
X235421958Y-140045359D01*
X235390723Y-140032421D01*
X236007398Y-139415747D01*
X235905282Y-139341557D01*
X235680885Y-139227220D01*
X235441368Y-139149397D01*
X235441365Y-139149396D01*
X235192622Y-139110000D01*
X234940778Y-139110000D01*
X234692034Y-139149396D01*
X234692031Y-139149397D01*
X234452514Y-139227220D01*
X234228114Y-139341558D01*
X234228111Y-139341560D01*
X234126000Y-139415747D01*
X234742674Y-140032421D01*
X234711442Y-140045359D01*
X234588603Y-140127437D01*
X234484137Y-140231903D01*
X234402059Y-140354742D01*
X234389121Y-140385974D01*
X233772447Y-139769300D01*
X233698260Y-139871411D01*
X233698258Y-139871414D01*
X233583920Y-140095814D01*
X233506097Y-140335331D01*
X233506096Y-140335334D01*
X233466700Y-140584077D01*
X230590894Y-140584077D01*
X238986250Y-132188721D01*
X239020898Y-132174369D01*
X251518378Y-132174369D01*
X251553026Y-132188721D01*
X251559120Y-132196146D01*
X251579248Y-132226269D01*
X251620855Y-132288538D01*
X251711462Y-132379145D01*
X251818004Y-132450334D01*
X251936387Y-132499370D01*
X252062062Y-132524369D01*
X252190200Y-132524369D01*
X252315875Y-132499370D01*
X252434258Y-132450334D01*
X252540800Y-132379145D01*
X252631407Y-132288538D01*
X252702596Y-132181996D01*
X252751632Y-132063613D01*
X252776631Y-131937938D01*
X252776631Y-131809800D01*
X252751632Y-131684125D01*
X252702596Y-131565742D01*
X252631407Y-131459200D01*
X252540800Y-131368593D01*
X252434258Y-131297404D01*
X252315875Y-131248368D01*
X252315873Y-131248367D01*
X252315868Y-131248366D01*
X252190203Y-131223369D01*
X252190200Y-131223369D01*
X252062062Y-131223369D01*
X252062058Y-131223369D01*
X251936393Y-131248366D01*
X251936388Y-131248367D01*
X251818005Y-131297403D01*
X251711462Y-131368592D01*
X251620854Y-131459200D01*
X251559120Y-131551592D01*
X251527937Y-131572428D01*
X251518378Y-131573369D01*
X238836567Y-131573369D01*
X238760141Y-131593848D01*
X238760139Y-131593848D01*
X238691619Y-131633409D01*
X238691619Y-131633410D01*
X235634148Y-134690881D01*
X235599500Y-134705233D01*
X235564852Y-134690881D01*
X235550500Y-134656233D01*
X235550500Y-126416233D01*
X236769500Y-126416233D01*
X236769500Y-126583767D01*
X236778919Y-126631120D01*
X236802183Y-126748079D01*
X236802185Y-126748085D01*
X236866296Y-126902862D01*
X236959371Y-127042159D01*
X237077840Y-127160628D01*
X237217136Y-127253702D01*
X237217137Y-127253703D01*
X237371918Y-127317816D01*
X237536233Y-127350500D01*
X237536236Y-127350500D01*
X237703764Y-127350500D01*
X237703767Y-127350500D01*
X237868082Y-127317816D01*
X238022863Y-127253703D01*
X238162162Y-127160626D01*
X238280626Y-127042162D01*
X238373703Y-126902863D01*
X238437816Y-126748082D01*
X238470500Y-126583767D01*
X238470500Y-126416233D01*
X245899500Y-126416233D01*
X245899500Y-126583767D01*
X245908919Y-126631120D01*
X245932183Y-126748079D01*
X245932185Y-126748085D01*
X245996296Y-126902862D01*
X246089371Y-127042159D01*
X246207840Y-127160628D01*
X246347136Y-127253702D01*
X246347137Y-127253703D01*
X246501918Y-127317816D01*
X246666233Y-127350500D01*
X246666236Y-127350500D01*
X246833764Y-127350500D01*
X246833767Y-127350500D01*
X246998082Y-127317816D01*
X247152863Y-127253703D01*
X247292162Y-127160626D01*
X247410626Y-127042162D01*
X247503703Y-126902863D01*
X247567816Y-126748082D01*
X247600500Y-126583767D01*
X247600500Y-126416233D01*
X247591081Y-126368882D01*
X247591081Y-126368880D01*
X249829500Y-126368880D01*
X249829500Y-126631120D01*
X249863730Y-126891116D01*
X249863731Y-126891120D01*
X249863732Y-126891127D01*
X249931599Y-127144412D01*
X249931602Y-127144419D01*
X250031957Y-127386697D01*
X250031959Y-127386700D01*
X250163074Y-127613800D01*
X250163084Y-127613815D01*
X250322709Y-127821841D01*
X250322720Y-127821853D01*
X250508146Y-128007279D01*
X250508158Y-128007290D01*
X250716184Y-128166915D01*
X250716193Y-128166921D01*
X250716197Y-128166924D01*
X250943303Y-128298043D01*
X251185581Y-128398398D01*
X251185584Y-128398398D01*
X251185587Y-128398400D01*
X251438872Y-128466267D01*
X251438873Y-128466267D01*
X251438884Y-128466270D01*
X251698880Y-128500500D01*
X251698883Y-128500500D01*
X251961117Y-128500500D01*
X251961120Y-128500500D01*
X252221116Y-128466270D01*
X252413695Y-128414669D01*
X252474412Y-128398400D01*
X252474412Y-128398399D01*
X252474419Y-128398398D01*
X252716697Y-128298043D01*
X252943803Y-128166924D01*
X252943815Y-128166915D01*
X253151841Y-128007290D01*
X253151843Y-128007287D01*
X253151851Y-128007282D01*
X253337282Y-127821851D01*
X253346179Y-127810257D01*
X253496915Y-127613815D01*
X253496916Y-127613812D01*
X253496924Y-127613803D01*
X253628043Y-127386697D01*
X253728398Y-127144419D01*
X253796270Y-126891116D01*
X253830500Y-126631120D01*
X253830500Y-126368880D01*
X253796270Y-126108884D01*
X253796267Y-126108872D01*
X253728400Y-125855587D01*
X253728396Y-125855577D01*
X253628043Y-125613303D01*
X253496924Y-125386197D01*
X253496921Y-125386193D01*
X253496915Y-125386184D01*
X253337290Y-125178158D01*
X253337279Y-125178146D01*
X253151853Y-124992720D01*
X253151841Y-124992709D01*
X252943815Y-124833084D01*
X252943800Y-124833074D01*
X252830250Y-124767516D01*
X252716697Y-124701957D01*
X252533209Y-124625953D01*
X252474422Y-124601603D01*
X252474412Y-124601599D01*
X252221127Y-124533732D01*
X252221120Y-124533731D01*
X252221116Y-124533730D01*
X251961120Y-124499500D01*
X251698880Y-124499500D01*
X251438884Y-124533730D01*
X251438880Y-124533730D01*
X251438872Y-124533732D01*
X251185587Y-124601599D01*
X251185577Y-124601603D01*
X251088993Y-124641610D01*
X250943303Y-124701957D01*
X250943300Y-124701958D01*
X250943299Y-124701959D01*
X250716199Y-124833074D01*
X250716184Y-124833084D01*
X250508158Y-124992709D01*
X250508146Y-124992720D01*
X250322720Y-125178146D01*
X250322709Y-125178158D01*
X250163084Y-125386184D01*
X250163074Y-125386199D01*
X250031959Y-125613299D01*
X250031957Y-125613303D01*
X250016964Y-125649500D01*
X249931603Y-125855577D01*
X249931599Y-125855587D01*
X249863732Y-126108872D01*
X249863730Y-126108880D01*
X249863730Y-126108884D01*
X249829500Y-126368880D01*
X247591081Y-126368880D01*
X247567818Y-126251929D01*
X247567816Y-126251920D01*
X247567816Y-126251918D01*
X247503703Y-126097137D01*
X247410628Y-125957840D01*
X247292159Y-125839371D01*
X247152862Y-125746296D01*
X246998085Y-125682185D01*
X246998079Y-125682183D01*
X246931816Y-125669002D01*
X246833767Y-125649500D01*
X246666233Y-125649500D01*
X246584451Y-125665767D01*
X246501920Y-125682183D01*
X246501914Y-125682185D01*
X246347137Y-125746296D01*
X246207840Y-125839371D01*
X246089371Y-125957840D01*
X245996296Y-126097137D01*
X245932185Y-126251914D01*
X245932183Y-126251920D01*
X245915767Y-126334451D01*
X245899500Y-126416233D01*
X238470500Y-126416233D01*
X238437816Y-126251918D01*
X238373703Y-126097137D01*
X238280628Y-125957840D01*
X238162159Y-125839371D01*
X238022862Y-125746296D01*
X237868085Y-125682185D01*
X237868079Y-125682183D01*
X237801816Y-125669002D01*
X237703767Y-125649500D01*
X237536233Y-125649500D01*
X237454451Y-125665767D01*
X237371920Y-125682183D01*
X237371914Y-125682185D01*
X237217137Y-125746296D01*
X237077840Y-125839371D01*
X236959371Y-125957840D01*
X236866296Y-126097137D01*
X236802185Y-126251914D01*
X236802183Y-126251920D01*
X236785767Y-126334451D01*
X236769500Y-126416233D01*
X235550500Y-126416233D01*
X235550500Y-123857752D01*
X235550543Y-123857648D01*
X246719500Y-123857648D01*
X246719500Y-124062351D01*
X246751522Y-124264531D01*
X246751523Y-124264534D01*
X246814779Y-124459217D01*
X246907714Y-124641612D01*
X246907716Y-124641615D01*
X247028035Y-124807220D01*
X247028039Y-124807225D01*
X247172775Y-124951961D01*
X247172779Y-124951964D01*
X247172781Y-124951966D01*
X247338390Y-125072287D01*
X247520781Y-125165220D01*
X247715466Y-125228477D01*
X247917648Y-125260500D01*
X247917649Y-125260500D01*
X248122351Y-125260500D01*
X248122352Y-125260500D01*
X248324534Y-125228477D01*
X248519219Y-125165220D01*
X248701610Y-125072287D01*
X248867219Y-124951966D01*
X248867222Y-124951962D01*
X248867225Y-124951961D01*
X249011961Y-124807225D01*
X249011962Y-124807222D01*
X249011966Y-124807219D01*
X249132287Y-124641610D01*
X249225220Y-124459219D01*
X249288477Y-124264534D01*
X249320500Y-124062352D01*
X249320500Y-123857648D01*
X249288477Y-123655466D01*
X249225220Y-123460781D01*
X249132287Y-123278390D01*
X249011966Y-123112781D01*
X249011964Y-123112779D01*
X249011961Y-123112775D01*
X248867225Y-122968039D01*
X248867220Y-122968035D01*
X248831212Y-122941874D01*
X248817242Y-122931724D01*
X248701615Y-122847716D01*
X248701612Y-122847714D01*
X248519217Y-122754779D01*
X248480434Y-122742178D01*
X248394480Y-122714250D01*
X248324534Y-122691523D01*
X248324531Y-122691522D01*
X248169220Y-122666923D01*
X248122352Y-122659500D01*
X247917648Y-122659500D01*
X247879599Y-122665526D01*
X247715468Y-122691522D01*
X247715465Y-122691523D01*
X247520782Y-122754779D01*
X247338387Y-122847714D01*
X247338384Y-122847716D01*
X247172779Y-122968035D01*
X247028035Y-123112779D01*
X246907716Y-123278384D01*
X246907714Y-123278387D01*
X246814779Y-123460782D01*
X246751523Y-123655465D01*
X246751522Y-123655468D01*
X246719500Y-123857648D01*
X235550543Y-123857648D01*
X235552421Y-123853114D01*
X235551442Y-123848190D01*
X235559383Y-123836305D01*
X235564852Y-123823104D01*
X235572277Y-123817010D01*
X235664669Y-123755276D01*
X235755276Y-123664669D01*
X235826465Y-123558127D01*
X235875501Y-123439744D01*
X235900500Y-123314069D01*
X235900500Y-123185931D01*
X235875501Y-123060256D01*
X235826465Y-122941873D01*
X235755276Y-122835331D01*
X235664669Y-122744724D01*
X235595738Y-122698666D01*
X235574904Y-122667485D01*
X235582220Y-122630702D01*
X235600717Y-122614266D01*
X235761610Y-122532287D01*
X235927219Y-122411966D01*
X235927222Y-122411962D01*
X235927225Y-122411961D01*
X236071961Y-122267225D01*
X236071962Y-122267222D01*
X236071966Y-122267219D01*
X236192287Y-122101610D01*
X236285220Y-121919219D01*
X236348477Y-121724534D01*
X236380500Y-121522352D01*
X236380500Y-121317648D01*
X236376767Y-121294077D01*
X252770000Y-121294077D01*
X252770000Y-121545922D01*
X252809396Y-121794665D01*
X252809397Y-121794668D01*
X252887220Y-122034185D01*
X253001557Y-122258582D01*
X253075747Y-122360698D01*
X253692421Y-121744024D01*
X253705359Y-121775258D01*
X253787437Y-121898097D01*
X253891903Y-122002563D01*
X254014742Y-122084641D01*
X254045974Y-122097577D01*
X253429300Y-122714251D01*
X253531417Y-122788442D01*
X253755814Y-122902779D01*
X253995331Y-122980602D01*
X253995334Y-122980603D01*
X254244078Y-123020000D01*
X254495922Y-123020000D01*
X254744665Y-122980603D01*
X254744668Y-122980602D01*
X254984185Y-122902779D01*
X255208579Y-122788444D01*
X255310697Y-122714250D01*
X254694025Y-122097578D01*
X254725258Y-122084641D01*
X254848097Y-122002563D01*
X254952563Y-121898097D01*
X255034641Y-121775258D01*
X255047578Y-121744025D01*
X255664250Y-122360697D01*
X255738444Y-122258579D01*
X255852779Y-122034185D01*
X255930602Y-121794668D01*
X255930603Y-121794665D01*
X255970000Y-121545922D01*
X255970000Y-121294077D01*
X255930603Y-121045334D01*
X255930602Y-121045331D01*
X255852779Y-120805814D01*
X255738442Y-120581417D01*
X255664251Y-120479300D01*
X255047577Y-121095973D01*
X255034641Y-121064742D01*
X254952563Y-120941903D01*
X254848097Y-120837437D01*
X254725258Y-120755359D01*
X254694023Y-120742421D01*
X255310698Y-120125747D01*
X255208582Y-120051557D01*
X254984185Y-119937220D01*
X254744668Y-119859397D01*
X254744665Y-119859396D01*
X254495922Y-119820000D01*
X254244078Y-119820000D01*
X253995334Y-119859396D01*
X253995331Y-119859397D01*
X253755814Y-119937220D01*
X253531414Y-120051558D01*
X253531411Y-120051560D01*
X253429300Y-120125747D01*
X254045974Y-120742421D01*
X254014742Y-120755359D01*
X253891903Y-120837437D01*
X253787437Y-120941903D01*
X253705359Y-121064742D01*
X253692421Y-121095974D01*
X253075747Y-120479300D01*
X253001560Y-120581411D01*
X253001558Y-120581414D01*
X252887220Y-120805814D01*
X252809397Y-121045331D01*
X252809396Y-121045334D01*
X252770000Y-121294077D01*
X236376767Y-121294077D01*
X236348477Y-121115466D01*
X236285220Y-120920781D01*
X236192287Y-120738390D01*
X236163539Y-120698822D01*
X236078236Y-120581411D01*
X236071966Y-120572781D01*
X236071964Y-120572779D01*
X236071961Y-120572775D01*
X235927225Y-120428039D01*
X235927220Y-120428035D01*
X235761615Y-120307716D01*
X235761612Y-120307714D01*
X235579217Y-120214779D01*
X235506109Y-120191025D01*
X235384534Y-120151523D01*
X235384531Y-120151522D01*
X235221793Y-120125747D01*
X235182352Y-120119500D01*
X234977648Y-120119500D01*
X234939599Y-120125526D01*
X234775468Y-120151522D01*
X234775465Y-120151523D01*
X234580782Y-120214779D01*
X234398387Y-120307714D01*
X234398384Y-120307716D01*
X234232779Y-120428035D01*
X234088035Y-120572779D01*
X233967716Y-120738384D01*
X233967714Y-120738387D01*
X233874779Y-120920782D01*
X233811523Y-121115465D01*
X233811522Y-121115468D01*
X233779500Y-121317648D01*
X233779500Y-121522351D01*
X233811522Y-121724531D01*
X233811523Y-121724534D01*
X233874779Y-121919217D01*
X233967714Y-122101612D01*
X233967716Y-122101615D01*
X234088035Y-122267220D01*
X234088039Y-122267225D01*
X234232775Y-122411961D01*
X234232779Y-122411964D01*
X234232781Y-122411966D01*
X234398390Y-122532287D01*
X234580781Y-122625220D01*
X234775466Y-122688477D01*
X234778191Y-122688908D01*
X234780718Y-122689309D01*
X234812694Y-122708905D01*
X234821449Y-122745372D01*
X234807701Y-122772354D01*
X234744722Y-122835333D01*
X234673534Y-122941874D01*
X234624498Y-123060257D01*
X234624497Y-123060262D01*
X234599500Y-123185927D01*
X234599500Y-123314072D01*
X234624497Y-123439737D01*
X234624498Y-123439742D01*
X234673534Y-123558125D01*
X234738574Y-123655466D01*
X234744724Y-123664669D01*
X234835331Y-123755276D01*
X234924681Y-123814978D01*
X234927723Y-123817010D01*
X234948558Y-123848192D01*
X234949500Y-123857752D01*
X234949500Y-134592034D01*
X234935148Y-134626682D01*
X225259541Y-144302289D01*
X225259540Y-144302289D01*
X225219979Y-144370809D01*
X225219979Y-144370811D01*
X225199500Y-144447237D01*
X223227734Y-144447237D01*
X228376860Y-139298111D01*
X228416421Y-139229589D01*
X228436900Y-139153162D01*
X228436900Y-130751052D01*
X228451252Y-130716404D01*
X228458677Y-130710310D01*
X228551069Y-130648576D01*
X228641676Y-130557969D01*
X228712865Y-130451427D01*
X228761901Y-130333044D01*
X228786900Y-130207369D01*
X228786900Y-130079231D01*
X228761901Y-129953556D01*
X228712865Y-129835173D01*
X228641676Y-129728631D01*
X228551069Y-129638024D01*
X228444527Y-129566835D01*
X228415714Y-129554900D01*
X228326142Y-129517798D01*
X228326137Y-129517797D01*
X228200472Y-129492800D01*
X228200469Y-129492800D01*
X228072331Y-129492800D01*
X228072327Y-129492800D01*
X227946662Y-129517797D01*
X227946657Y-129517798D01*
X227828274Y-129566834D01*
X227721731Y-129638023D01*
X227631123Y-129728631D01*
X227559934Y-129835174D01*
X227510898Y-129953557D01*
X227510897Y-129953562D01*
X227485900Y-130079227D01*
X227485900Y-130207372D01*
X227510897Y-130333037D01*
X227510898Y-130333042D01*
X227559934Y-130451425D01*
X227631123Y-130557968D01*
X227721731Y-130648576D01*
X227814123Y-130710310D01*
X227834958Y-130741492D01*
X227835900Y-130751052D01*
X227835900Y-138968833D01*
X227821548Y-139003481D01*
X216831373Y-149993655D01*
X216796725Y-150008007D01*
X216762077Y-149993655D01*
X216748667Y-149968567D01*
X216727202Y-149860662D01*
X216727201Y-149860657D01*
X216724716Y-149854656D01*
X216678165Y-149742273D01*
X216606976Y-149635731D01*
X216516369Y-149545124D01*
X216516368Y-149545123D01*
X216423977Y-149483389D01*
X216403141Y-149452206D01*
X216402200Y-149442647D01*
X216402200Y-145706233D01*
X217472800Y-145706233D01*
X217472800Y-145873767D01*
X217482219Y-145921120D01*
X217505483Y-146038079D01*
X217505485Y-146038085D01*
X217569596Y-146192862D01*
X217662671Y-146332159D01*
X217781140Y-146450628D01*
X217884580Y-146519744D01*
X217920437Y-146543703D01*
X218075218Y-146607816D01*
X218239533Y-146640500D01*
X218239536Y-146640500D01*
X218407064Y-146640500D01*
X218407067Y-146640500D01*
X218571382Y-146607816D01*
X218726163Y-146543703D01*
X218865462Y-146450626D01*
X218983926Y-146332162D01*
X219077003Y-146192863D01*
X219141116Y-146038082D01*
X219173800Y-145873767D01*
X219173800Y-145706233D01*
X219141116Y-145541918D01*
X219077003Y-145387137D01*
X219061255Y-145363568D01*
X218983928Y-145247840D01*
X218865459Y-145129371D01*
X218726162Y-145036296D01*
X218571385Y-144972185D01*
X218571379Y-144972183D01*
X218505116Y-144959002D01*
X218407067Y-144939500D01*
X218239533Y-144939500D01*
X218157751Y-144955767D01*
X218075220Y-144972183D01*
X218075214Y-144972185D01*
X217920437Y-145036296D01*
X217781140Y-145129371D01*
X217662671Y-145247840D01*
X217569596Y-145387137D01*
X217505485Y-145541914D01*
X217505483Y-145541920D01*
X217500728Y-145565826D01*
X217472800Y-145706233D01*
X216402200Y-145706233D01*
X216402200Y-142968734D01*
X216402199Y-142968733D01*
X216381722Y-142892312D01*
X216381721Y-142892309D01*
X216365321Y-142863904D01*
X216342160Y-142823788D01*
X215907427Y-142389055D01*
X215893075Y-142354407D01*
X215907427Y-142319759D01*
X215934410Y-142306010D01*
X216157965Y-142270603D01*
X216157968Y-142270602D01*
X216397485Y-142192779D01*
X216621879Y-142078444D01*
X216723997Y-142004250D01*
X216107325Y-141387578D01*
X216138558Y-141374641D01*
X216261397Y-141292563D01*
X216365863Y-141188097D01*
X216447941Y-141065258D01*
X216460878Y-141034025D01*
X217077550Y-141650697D01*
X217151744Y-141548579D01*
X217266079Y-141324185D01*
X217343902Y-141084668D01*
X217343903Y-141084665D01*
X217383300Y-140835922D01*
X217383300Y-140584077D01*
X217343903Y-140335334D01*
X217343902Y-140335331D01*
X217266079Y-140095814D01*
X217151742Y-139871417D01*
X217077551Y-139769300D01*
X216460877Y-140385973D01*
X216447941Y-140354742D01*
X216365863Y-140231903D01*
X216261397Y-140127437D01*
X216138558Y-140045359D01*
X216107324Y-140032421D01*
X216723998Y-139415747D01*
X216621882Y-139341557D01*
X216397485Y-139227220D01*
X216157968Y-139149397D01*
X216157965Y-139149396D01*
X215909222Y-139110000D01*
X215657378Y-139110000D01*
X215408634Y-139149396D01*
X215408631Y-139149397D01*
X215169114Y-139227220D01*
X214944717Y-139341557D01*
X214761601Y-139474598D01*
X214725135Y-139483353D01*
X214693158Y-139463757D01*
X214683800Y-139434956D01*
X214683800Y-131747527D01*
X221053200Y-131747527D01*
X221053200Y-131875672D01*
X221078197Y-132001337D01*
X221078198Y-132001342D01*
X221078199Y-132001344D01*
X221127235Y-132119727D01*
X221198424Y-132226269D01*
X221289031Y-132316876D01*
X221395573Y-132388065D01*
X221513956Y-132437101D01*
X221639631Y-132462100D01*
X221767769Y-132462100D01*
X221893444Y-132437101D01*
X222011827Y-132388065D01*
X222118369Y-132316876D01*
X222208976Y-132226269D01*
X222280165Y-132119727D01*
X222329201Y-132001344D01*
X222354200Y-131875669D01*
X222354200Y-131747531D01*
X222329201Y-131621856D01*
X222280165Y-131503473D01*
X222208976Y-131396931D01*
X222118369Y-131306324D01*
X222105019Y-131297404D01*
X222065457Y-131270970D01*
X222011827Y-131235135D01*
X221983422Y-131223369D01*
X221893442Y-131186098D01*
X221893437Y-131186097D01*
X221767772Y-131161100D01*
X221767769Y-131161100D01*
X221639631Y-131161100D01*
X221639627Y-131161100D01*
X221513962Y-131186097D01*
X221513957Y-131186098D01*
X221395574Y-131235134D01*
X221289031Y-131306323D01*
X221198423Y-131396931D01*
X221127234Y-131503474D01*
X221078198Y-131621857D01*
X221078197Y-131621862D01*
X221053200Y-131747527D01*
X214683800Y-131747527D01*
X214683800Y-129786475D01*
X214670094Y-129735327D01*
X214663321Y-129710050D01*
X214663320Y-129710048D01*
X214663320Y-129710047D01*
X214638239Y-129666607D01*
X214623760Y-129641528D01*
X214567811Y-129585579D01*
X213947172Y-128964940D01*
X213947170Y-128964939D01*
X213947168Y-128964937D01*
X213936723Y-128958907D01*
X213878652Y-128925379D01*
X213878648Y-128925378D01*
X213802225Y-128904900D01*
X213802223Y-128904900D01*
X211310689Y-128904900D01*
X211276041Y-128890548D01*
X210145033Y-127759540D01*
X210076512Y-127719979D01*
X210000086Y-127699500D01*
X210000084Y-127699500D01*
X209107753Y-127699500D01*
X209073105Y-127685148D01*
X209067011Y-127677723D01*
X209005276Y-127585331D01*
X208914668Y-127494723D01*
X208824010Y-127434148D01*
X208808127Y-127423535D01*
X208719193Y-127386697D01*
X208689742Y-127374498D01*
X208689737Y-127374496D01*
X208572193Y-127351115D01*
X208541011Y-127330280D01*
X208533695Y-127293497D01*
X208554530Y-127262315D01*
X208562993Y-127257791D01*
X208572863Y-127253703D01*
X208712162Y-127160626D01*
X208830626Y-127042162D01*
X208923703Y-126902863D01*
X208987816Y-126748082D01*
X209020500Y-126583767D01*
X209020500Y-126416233D01*
X209011081Y-126368882D01*
X209011081Y-126368880D01*
X211249500Y-126368880D01*
X211249500Y-126631120D01*
X211283730Y-126891116D01*
X211283731Y-126891120D01*
X211283732Y-126891127D01*
X211351599Y-127144412D01*
X211351602Y-127144419D01*
X211451957Y-127386697D01*
X211451959Y-127386700D01*
X211583074Y-127613800D01*
X211583084Y-127613815D01*
X211742709Y-127821841D01*
X211742720Y-127821853D01*
X211928146Y-128007279D01*
X211928158Y-128007290D01*
X212136184Y-128166915D01*
X212136193Y-128166921D01*
X212136197Y-128166924D01*
X212363303Y-128298043D01*
X212605581Y-128398398D01*
X212605584Y-128398398D01*
X212605587Y-128398400D01*
X212858872Y-128466267D01*
X212858873Y-128466267D01*
X212858884Y-128466270D01*
X213118880Y-128500500D01*
X213118883Y-128500500D01*
X213381117Y-128500500D01*
X213381120Y-128500500D01*
X213641116Y-128466270D01*
X213833695Y-128414669D01*
X213894412Y-128398400D01*
X213894412Y-128398399D01*
X213894419Y-128398398D01*
X214136697Y-128298043D01*
X214363803Y-128166924D01*
X214363815Y-128166915D01*
X214571841Y-128007290D01*
X214571843Y-128007287D01*
X214571851Y-128007282D01*
X214757282Y-127821851D01*
X214766179Y-127810257D01*
X214916915Y-127613815D01*
X214916916Y-127613812D01*
X214916924Y-127613803D01*
X215048043Y-127386697D01*
X215148398Y-127144419D01*
X215216270Y-126891116D01*
X215250500Y-126631120D01*
X215250500Y-126416233D01*
X217479500Y-126416233D01*
X217479500Y-126583767D01*
X217488919Y-126631120D01*
X217512183Y-126748079D01*
X217512185Y-126748085D01*
X217576296Y-126902862D01*
X217669371Y-127042159D01*
X217787840Y-127160628D01*
X217927136Y-127253702D01*
X217927137Y-127253703D01*
X218081918Y-127317816D01*
X218246233Y-127350500D01*
X218246236Y-127350500D01*
X218413764Y-127350500D01*
X218413767Y-127350500D01*
X218578082Y-127317816D01*
X218732863Y-127253703D01*
X218872162Y-127160626D01*
X218990626Y-127042162D01*
X219083703Y-126902863D01*
X219147816Y-126748082D01*
X219180500Y-126583767D01*
X219180500Y-126416233D01*
X226609500Y-126416233D01*
X226609500Y-126583767D01*
X226618919Y-126631120D01*
X226642183Y-126748079D01*
X226642185Y-126748085D01*
X226706296Y-126902862D01*
X226799371Y-127042159D01*
X226917840Y-127160628D01*
X227057136Y-127253702D01*
X227057137Y-127253703D01*
X227211918Y-127317816D01*
X227376233Y-127350500D01*
X227376236Y-127350500D01*
X227543764Y-127350500D01*
X227543767Y-127350500D01*
X227708082Y-127317816D01*
X227862863Y-127253703D01*
X228002162Y-127160626D01*
X228120626Y-127042162D01*
X228213703Y-126902863D01*
X228277816Y-126748082D01*
X228310500Y-126583767D01*
X228310500Y-126416233D01*
X228301081Y-126368882D01*
X228301081Y-126368880D01*
X230539500Y-126368880D01*
X230539500Y-126631120D01*
X230573730Y-126891116D01*
X230573731Y-126891120D01*
X230573732Y-126891127D01*
X230641599Y-127144412D01*
X230641602Y-127144419D01*
X230741957Y-127386697D01*
X230741959Y-127386700D01*
X230873074Y-127613800D01*
X230873084Y-127613815D01*
X231032709Y-127821841D01*
X231032720Y-127821853D01*
X231218146Y-128007279D01*
X231218158Y-128007290D01*
X231426184Y-128166915D01*
X231426193Y-128166921D01*
X231426197Y-128166924D01*
X231653303Y-128298043D01*
X231895581Y-128398398D01*
X231895584Y-128398398D01*
X231895587Y-128398400D01*
X232148872Y-128466267D01*
X232148873Y-128466267D01*
X232148884Y-128466270D01*
X232408880Y-128500500D01*
X232408883Y-128500500D01*
X232671117Y-128500500D01*
X232671120Y-128500500D01*
X232931116Y-128466270D01*
X233123695Y-128414669D01*
X233184412Y-128398400D01*
X233184412Y-128398399D01*
X233184419Y-128398398D01*
X233426697Y-128298043D01*
X233653803Y-128166924D01*
X233653815Y-128166915D01*
X233861841Y-128007290D01*
X233861843Y-128007287D01*
X233861851Y-128007282D01*
X234047282Y-127821851D01*
X234056179Y-127810257D01*
X234206915Y-127613815D01*
X234206916Y-127613812D01*
X234206924Y-127613803D01*
X234338043Y-127386697D01*
X234438398Y-127144419D01*
X234506270Y-126891116D01*
X234540500Y-126631120D01*
X234540500Y-126368880D01*
X234506270Y-126108884D01*
X234506267Y-126108872D01*
X234438400Y-125855587D01*
X234438396Y-125855577D01*
X234338043Y-125613303D01*
X234206924Y-125386197D01*
X234206921Y-125386193D01*
X234206915Y-125386184D01*
X234047290Y-125178158D01*
X234047279Y-125178146D01*
X233861853Y-124992720D01*
X233861841Y-124992709D01*
X233653815Y-124833084D01*
X233653800Y-124833074D01*
X233540250Y-124767516D01*
X233426697Y-124701957D01*
X233243209Y-124625953D01*
X233184422Y-124601603D01*
X233184412Y-124601599D01*
X232931127Y-124533732D01*
X232931120Y-124533731D01*
X232931116Y-124533730D01*
X232671120Y-124499500D01*
X232408880Y-124499500D01*
X232148884Y-124533730D01*
X232148880Y-124533730D01*
X232148872Y-124533732D01*
X231895587Y-124601599D01*
X231895577Y-124601603D01*
X231798993Y-124641610D01*
X231653303Y-124701957D01*
X231653300Y-124701958D01*
X231653299Y-124701959D01*
X231426199Y-124833074D01*
X231426184Y-124833084D01*
X231218158Y-124992709D01*
X231218146Y-124992720D01*
X231032720Y-125178146D01*
X231032709Y-125178158D01*
X230873084Y-125386184D01*
X230873074Y-125386199D01*
X230741959Y-125613299D01*
X230741957Y-125613303D01*
X230726964Y-125649500D01*
X230641603Y-125855577D01*
X230641599Y-125855587D01*
X230573732Y-126108872D01*
X230573730Y-126108880D01*
X230573730Y-126108884D01*
X230539500Y-126368880D01*
X228301081Y-126368880D01*
X228277818Y-126251929D01*
X228277816Y-126251920D01*
X228277816Y-126251918D01*
X228213703Y-126097137D01*
X228120628Y-125957840D01*
X228002159Y-125839371D01*
X227862862Y-125746296D01*
X227708085Y-125682185D01*
X227708079Y-125682183D01*
X227641816Y-125669002D01*
X227543767Y-125649500D01*
X227376233Y-125649500D01*
X227294451Y-125665767D01*
X227211920Y-125682183D01*
X227211914Y-125682185D01*
X227057137Y-125746296D01*
X226917840Y-125839371D01*
X226799371Y-125957840D01*
X226706296Y-126097137D01*
X226642185Y-126251914D01*
X226642183Y-126251920D01*
X226625767Y-126334451D01*
X226609500Y-126416233D01*
X219180500Y-126416233D01*
X219147816Y-126251918D01*
X219083703Y-126097137D01*
X218990628Y-125957840D01*
X218872159Y-125839371D01*
X218732862Y-125746296D01*
X218578085Y-125682185D01*
X218578079Y-125682183D01*
X218511816Y-125669002D01*
X218413767Y-125649500D01*
X218246233Y-125649500D01*
X218164451Y-125665767D01*
X218081920Y-125682183D01*
X218081914Y-125682185D01*
X217927137Y-125746296D01*
X217787840Y-125839371D01*
X217669371Y-125957840D01*
X217576296Y-126097137D01*
X217512185Y-126251914D01*
X217512183Y-126251920D01*
X217495767Y-126334451D01*
X217479500Y-126416233D01*
X215250500Y-126416233D01*
X215250500Y-126368880D01*
X215216270Y-126108884D01*
X215216267Y-126108872D01*
X215148400Y-125855587D01*
X215148396Y-125855577D01*
X215048043Y-125613303D01*
X214916924Y-125386197D01*
X214916921Y-125386193D01*
X214916915Y-125386184D01*
X214757290Y-125178158D01*
X214757279Y-125178146D01*
X214571853Y-124992720D01*
X214571841Y-124992709D01*
X214363815Y-124833084D01*
X214363800Y-124833074D01*
X214250250Y-124767516D01*
X214136697Y-124701957D01*
X213953209Y-124625953D01*
X213894422Y-124601603D01*
X213894412Y-124601599D01*
X213641127Y-124533732D01*
X213641120Y-124533731D01*
X213641116Y-124533730D01*
X213381120Y-124499500D01*
X213118880Y-124499500D01*
X212858884Y-124533730D01*
X212858880Y-124533730D01*
X212858872Y-124533732D01*
X212605587Y-124601599D01*
X212605577Y-124601603D01*
X212508993Y-124641610D01*
X212363303Y-124701957D01*
X212363300Y-124701958D01*
X212363299Y-124701959D01*
X212136199Y-124833074D01*
X212136184Y-124833084D01*
X211928158Y-124992709D01*
X211928146Y-124992720D01*
X211742720Y-125178146D01*
X211742709Y-125178158D01*
X211583084Y-125386184D01*
X211583074Y-125386199D01*
X211451959Y-125613299D01*
X211451957Y-125613303D01*
X211436964Y-125649500D01*
X211351603Y-125855577D01*
X211351599Y-125855587D01*
X211283732Y-126108872D01*
X211283730Y-126108880D01*
X211283730Y-126108884D01*
X211249500Y-126368880D01*
X209011081Y-126368880D01*
X208987818Y-126251929D01*
X208987816Y-126251920D01*
X208987816Y-126251918D01*
X208923703Y-126097137D01*
X208830628Y-125957840D01*
X208712159Y-125839371D01*
X208572862Y-125746296D01*
X208418085Y-125682185D01*
X208418079Y-125682183D01*
X208351816Y-125669002D01*
X208253767Y-125649500D01*
X208086233Y-125649500D01*
X208004451Y-125665767D01*
X207921920Y-125682183D01*
X207921914Y-125682185D01*
X207767137Y-125746296D01*
X207627840Y-125839371D01*
X207509371Y-125957840D01*
X207416296Y-126097137D01*
X207352185Y-126251914D01*
X207352183Y-126251920D01*
X207335767Y-126334451D01*
X207319500Y-126416233D01*
X207319500Y-126583767D01*
X207328919Y-126631120D01*
X207352183Y-126748079D01*
X207352185Y-126748085D01*
X207416296Y-126902862D01*
X207509371Y-127042159D01*
X207627840Y-127160628D01*
X207767136Y-127253702D01*
X207767137Y-127253703D01*
X207921918Y-127317816D01*
X208086233Y-127350500D01*
X208086236Y-127350500D01*
X208139647Y-127350500D01*
X208174295Y-127364852D01*
X208188647Y-127399500D01*
X208174295Y-127434148D01*
X208166873Y-127440239D01*
X208137927Y-127459580D01*
X208085331Y-127494723D01*
X207994723Y-127585331D01*
X207923534Y-127691874D01*
X207874498Y-127810257D01*
X207874497Y-127810262D01*
X207849500Y-127935927D01*
X207849500Y-128064072D01*
X207874497Y-128189737D01*
X207874498Y-128189742D01*
X207920766Y-128301441D01*
X207923535Y-128308127D01*
X207994724Y-128414669D01*
X208085331Y-128505276D01*
X208191873Y-128576465D01*
X208310256Y-128625501D01*
X208435931Y-128650500D01*
X208564069Y-128650500D01*
X208689744Y-128625501D01*
X208808127Y-128576465D01*
X208914669Y-128505276D01*
X209005276Y-128414669D01*
X209035077Y-128370067D01*
X209067011Y-128322277D01*
X209098194Y-128301441D01*
X209107753Y-128300500D01*
X209815755Y-128300500D01*
X209850403Y-128314852D01*
X210925462Y-129389911D01*
X210981411Y-129445860D01*
X211049933Y-129485421D01*
X211085400Y-129494924D01*
X211126358Y-129505900D01*
X211126360Y-129505900D01*
X211205484Y-129505900D01*
X212878325Y-129505900D01*
X212912973Y-129520252D01*
X212927325Y-129554900D01*
X212919067Y-129582123D01*
X212875534Y-129647274D01*
X212826498Y-129765657D01*
X212826497Y-129765662D01*
X212801500Y-129891327D01*
X212801500Y-130019472D01*
X212823178Y-130128451D01*
X212815862Y-130165234D01*
X212809768Y-130172659D01*
X199856912Y-143125517D01*
X199822264Y-143139869D01*
X192548122Y-143139869D01*
X192513474Y-143125517D01*
X192507380Y-143118092D01*
X192445645Y-143025700D01*
X192355037Y-142935092D01*
X192291007Y-142892309D01*
X192248496Y-142863904D01*
X192151646Y-142823787D01*
X192130111Y-142814867D01*
X192130106Y-142814866D01*
X192004441Y-142789869D01*
X192004438Y-142789869D01*
X191876300Y-142789869D01*
X191876296Y-142789869D01*
X191750631Y-142814866D01*
X191750626Y-142814867D01*
X191632243Y-142863903D01*
X191525702Y-142935091D01*
X191498769Y-142962024D01*
X191464120Y-142976375D01*
X191429472Y-142962023D01*
X191417519Y-142942517D01*
X191355220Y-142750782D01*
X191355220Y-142750781D01*
X191262287Y-142568390D01*
X191141966Y-142402781D01*
X191141964Y-142402779D01*
X191141961Y-142402775D01*
X190997225Y-142258039D01*
X190997220Y-142258035D01*
X190831615Y-142137716D01*
X190831612Y-142137714D01*
X190649217Y-142044779D01*
X190610434Y-142032178D01*
X190524480Y-142004250D01*
X190454534Y-141981523D01*
X190454531Y-141981522D01*
X190284097Y-141954528D01*
X190252352Y-141949500D01*
X190047648Y-141949500D01*
X190015903Y-141954528D01*
X189845468Y-141981522D01*
X189845465Y-141981523D01*
X189650782Y-142044779D01*
X189468387Y-142137714D01*
X189468384Y-142137716D01*
X189302779Y-142258035D01*
X189158035Y-142402779D01*
X189037716Y-142568384D01*
X189037714Y-142568387D01*
X188944779Y-142750782D01*
X188881523Y-142945465D01*
X188881522Y-142945468D01*
X188849500Y-143147648D01*
X182550500Y-143147648D01*
X182550500Y-140584077D01*
X194900000Y-140584077D01*
X194900000Y-140835922D01*
X194939396Y-141084665D01*
X194939397Y-141084668D01*
X195017220Y-141324185D01*
X195131557Y-141548582D01*
X195205747Y-141650698D01*
X195822421Y-141034024D01*
X195835359Y-141065258D01*
X195917437Y-141188097D01*
X196021903Y-141292563D01*
X196144742Y-141374641D01*
X196175974Y-141387577D01*
X195559300Y-142004251D01*
X195661417Y-142078442D01*
X195885814Y-142192779D01*
X196125331Y-142270602D01*
X196125334Y-142270603D01*
X196374078Y-142310000D01*
X196625922Y-142310000D01*
X196874665Y-142270603D01*
X196874668Y-142270602D01*
X197114185Y-142192779D01*
X197338579Y-142078444D01*
X197440697Y-142004250D01*
X196824025Y-141387578D01*
X196855258Y-141374641D01*
X196978097Y-141292563D01*
X197082563Y-141188097D01*
X197164641Y-141065258D01*
X197177578Y-141034025D01*
X197794250Y-141650697D01*
X197868444Y-141548579D01*
X197982779Y-141324185D01*
X198060602Y-141084668D01*
X198060603Y-141084665D01*
X198100000Y-140835922D01*
X198100000Y-140584077D01*
X198060603Y-140335334D01*
X198060602Y-140335331D01*
X197982779Y-140095814D01*
X197868442Y-139871417D01*
X197794251Y-139769300D01*
X197177577Y-140385973D01*
X197164641Y-140354742D01*
X197082563Y-140231903D01*
X196978097Y-140127437D01*
X196855258Y-140045359D01*
X196824023Y-140032421D01*
X197440698Y-139415747D01*
X197338582Y-139341557D01*
X197114185Y-139227220D01*
X196874668Y-139149397D01*
X196874665Y-139149396D01*
X196625922Y-139110000D01*
X196374078Y-139110000D01*
X196125334Y-139149396D01*
X196125331Y-139149397D01*
X195885814Y-139227220D01*
X195661414Y-139341558D01*
X195661411Y-139341560D01*
X195559300Y-139415747D01*
X196175974Y-140032421D01*
X196144742Y-140045359D01*
X196021903Y-140127437D01*
X195917437Y-140231903D01*
X195835359Y-140354742D01*
X195822421Y-140385974D01*
X195205747Y-139769300D01*
X195131560Y-139871411D01*
X195131558Y-139871414D01*
X195017220Y-140095814D01*
X194939397Y-140335331D01*
X194939396Y-140335334D01*
X194900000Y-140584077D01*
X182550500Y-140584077D01*
X182550500Y-129735327D01*
X196553300Y-129735327D01*
X196553300Y-129863472D01*
X196578297Y-129989137D01*
X196578298Y-129989142D01*
X196578299Y-129989144D01*
X196627335Y-130107527D01*
X196698524Y-130214069D01*
X196789131Y-130304676D01*
X196895673Y-130375865D01*
X197014056Y-130424901D01*
X197139731Y-130449900D01*
X197267869Y-130449900D01*
X197393544Y-130424901D01*
X197511927Y-130375865D01*
X197618469Y-130304676D01*
X197709076Y-130214069D01*
X197780265Y-130107527D01*
X197829301Y-129989144D01*
X197854300Y-129863469D01*
X197854300Y-129735331D01*
X197829301Y-129609656D01*
X197780265Y-129491273D01*
X197709076Y-129384731D01*
X197618469Y-129294124D01*
X197511927Y-129222935D01*
X197491670Y-129214544D01*
X197393542Y-129173898D01*
X197393537Y-129173897D01*
X197267872Y-129148900D01*
X197267869Y-129148900D01*
X197139731Y-129148900D01*
X197139727Y-129148900D01*
X197014062Y-129173897D01*
X197014057Y-129173898D01*
X196895674Y-129222934D01*
X196789131Y-129294123D01*
X196698523Y-129384731D01*
X196627334Y-129491274D01*
X196578298Y-129609657D01*
X196578297Y-129609662D01*
X196553300Y-129735327D01*
X182550500Y-129735327D01*
X182550500Y-128960727D01*
X190145900Y-128960727D01*
X190145900Y-129088872D01*
X190170897Y-129214537D01*
X190170898Y-129214542D01*
X190170899Y-129214544D01*
X190219935Y-129332927D01*
X190291124Y-129439469D01*
X190381731Y-129530076D01*
X190488273Y-129601265D01*
X190606656Y-129650301D01*
X190732331Y-129675300D01*
X190860469Y-129675300D01*
X190986144Y-129650301D01*
X191104527Y-129601265D01*
X191211069Y-129530076D01*
X191301676Y-129439469D01*
X191372865Y-129332927D01*
X191421901Y-129214544D01*
X191446900Y-129088869D01*
X191446900Y-128960731D01*
X191421901Y-128835056D01*
X191372865Y-128716673D01*
X191301676Y-128610131D01*
X191211069Y-128519524D01*
X191189745Y-128505276D01*
X191158157Y-128484170D01*
X191104527Y-128448335D01*
X191023251Y-128414669D01*
X190986142Y-128399298D01*
X190986137Y-128399297D01*
X190860472Y-128374300D01*
X190860469Y-128374300D01*
X190732331Y-128374300D01*
X190732327Y-128374300D01*
X190606662Y-128399297D01*
X190606657Y-128399298D01*
X190488274Y-128448334D01*
X190381731Y-128519523D01*
X190291123Y-128610131D01*
X190219934Y-128716674D01*
X190170898Y-128835057D01*
X190170897Y-128835062D01*
X190145900Y-128960727D01*
X182550500Y-128960727D01*
X182550500Y-126416233D01*
X188029500Y-126416233D01*
X188029500Y-126583767D01*
X188038919Y-126631120D01*
X188062183Y-126748079D01*
X188062185Y-126748085D01*
X188126296Y-126902862D01*
X188219371Y-127042159D01*
X188337840Y-127160628D01*
X188477136Y-127253702D01*
X188477137Y-127253703D01*
X188631918Y-127317816D01*
X188796233Y-127350500D01*
X188796236Y-127350500D01*
X188963764Y-127350500D01*
X188963767Y-127350500D01*
X189128082Y-127317816D01*
X189282863Y-127253703D01*
X189422162Y-127160626D01*
X189540626Y-127042162D01*
X189633703Y-126902863D01*
X189697816Y-126748082D01*
X189730500Y-126583767D01*
X189730500Y-126416233D01*
X189721081Y-126368882D01*
X189721081Y-126368880D01*
X191959500Y-126368880D01*
X191959500Y-126631120D01*
X191993730Y-126891116D01*
X191993731Y-126891120D01*
X191993732Y-126891127D01*
X192061599Y-127144412D01*
X192061602Y-127144419D01*
X192161957Y-127386697D01*
X192161959Y-127386700D01*
X192293074Y-127613800D01*
X192293084Y-127613815D01*
X192452709Y-127821841D01*
X192452720Y-127821853D01*
X192638146Y-128007279D01*
X192638158Y-128007290D01*
X192846184Y-128166915D01*
X192846193Y-128166921D01*
X192846197Y-128166924D01*
X193073303Y-128298043D01*
X193315581Y-128398398D01*
X193315584Y-128398398D01*
X193315587Y-128398400D01*
X193568872Y-128466267D01*
X193568873Y-128466267D01*
X193568884Y-128466270D01*
X193828880Y-128500500D01*
X193828883Y-128500500D01*
X194091117Y-128500500D01*
X194091120Y-128500500D01*
X194351116Y-128466270D01*
X194543695Y-128414669D01*
X194604412Y-128398400D01*
X194604412Y-128398399D01*
X194604419Y-128398398D01*
X194846697Y-128298043D01*
X195073803Y-128166924D01*
X195073815Y-128166915D01*
X195281841Y-128007290D01*
X195281843Y-128007287D01*
X195281851Y-128007282D01*
X195467282Y-127821851D01*
X195476179Y-127810257D01*
X195626915Y-127613815D01*
X195626916Y-127613812D01*
X195626924Y-127613803D01*
X195758043Y-127386697D01*
X195858398Y-127144419D01*
X195926270Y-126891116D01*
X195960500Y-126631120D01*
X195960500Y-126416233D01*
X198189500Y-126416233D01*
X198189500Y-126583767D01*
X198198919Y-126631120D01*
X198222183Y-126748079D01*
X198222185Y-126748085D01*
X198286296Y-126902862D01*
X198379371Y-127042159D01*
X198497840Y-127160628D01*
X198637136Y-127253702D01*
X198637137Y-127253703D01*
X198791918Y-127317816D01*
X198956233Y-127350500D01*
X198956236Y-127350500D01*
X199123764Y-127350500D01*
X199123767Y-127350500D01*
X199288082Y-127317816D01*
X199442863Y-127253703D01*
X199582162Y-127160626D01*
X199700626Y-127042162D01*
X199793703Y-126902863D01*
X199857816Y-126748082D01*
X199890500Y-126583767D01*
X199890500Y-126416233D01*
X199857816Y-126251918D01*
X199793703Y-126097137D01*
X199700628Y-125957840D01*
X199582159Y-125839371D01*
X199442862Y-125746296D01*
X199288085Y-125682185D01*
X199288079Y-125682183D01*
X199221816Y-125669002D01*
X199123767Y-125649500D01*
X198956233Y-125649500D01*
X198874451Y-125665767D01*
X198791920Y-125682183D01*
X198791914Y-125682185D01*
X198637137Y-125746296D01*
X198497840Y-125839371D01*
X198379371Y-125957840D01*
X198286296Y-126097137D01*
X198222185Y-126251914D01*
X198222183Y-126251920D01*
X198205767Y-126334451D01*
X198189500Y-126416233D01*
X195960500Y-126416233D01*
X195960500Y-126368880D01*
X195926270Y-126108884D01*
X195926267Y-126108872D01*
X195858400Y-125855587D01*
X195858396Y-125855577D01*
X195758043Y-125613303D01*
X195626924Y-125386197D01*
X195626921Y-125386193D01*
X195626915Y-125386184D01*
X195467290Y-125178158D01*
X195467279Y-125178146D01*
X195281853Y-124992720D01*
X195281841Y-124992709D01*
X195073815Y-124833084D01*
X195073800Y-124833074D01*
X194960250Y-124767516D01*
X194846697Y-124701957D01*
X194663209Y-124625953D01*
X194604422Y-124601603D01*
X194604412Y-124601599D01*
X194351127Y-124533732D01*
X194351120Y-124533731D01*
X194351116Y-124533730D01*
X194091120Y-124499500D01*
X193828880Y-124499500D01*
X193568884Y-124533730D01*
X193568880Y-124533730D01*
X193568872Y-124533732D01*
X193315587Y-124601599D01*
X193315577Y-124601603D01*
X193218993Y-124641610D01*
X193073303Y-124701957D01*
X193073300Y-124701958D01*
X193073299Y-124701959D01*
X192846199Y-124833074D01*
X192846184Y-124833084D01*
X192638158Y-124992709D01*
X192638146Y-124992720D01*
X192452720Y-125178146D01*
X192452709Y-125178158D01*
X192293084Y-125386184D01*
X192293074Y-125386199D01*
X192161959Y-125613299D01*
X192161957Y-125613303D01*
X192146964Y-125649500D01*
X192061603Y-125855577D01*
X192061599Y-125855587D01*
X191993732Y-126108872D01*
X191993730Y-126108880D01*
X191993730Y-126108884D01*
X191959500Y-126368880D01*
X189721081Y-126368880D01*
X189697818Y-126251929D01*
X189697816Y-126251920D01*
X189697816Y-126251918D01*
X189633703Y-126097137D01*
X189540628Y-125957840D01*
X189422159Y-125839371D01*
X189282862Y-125746296D01*
X189128085Y-125682185D01*
X189128079Y-125682183D01*
X189061816Y-125669002D01*
X188963767Y-125649500D01*
X188796233Y-125649500D01*
X188714451Y-125665767D01*
X188631920Y-125682183D01*
X188631914Y-125682185D01*
X188477137Y-125746296D01*
X188337840Y-125839371D01*
X188219371Y-125957840D01*
X188126296Y-126097137D01*
X188062185Y-126251914D01*
X188062183Y-126251920D01*
X188045767Y-126334451D01*
X188029500Y-126416233D01*
X182550500Y-126416233D01*
X182550500Y-123857648D01*
X188849500Y-123857648D01*
X188849500Y-124062351D01*
X188881522Y-124264531D01*
X188881523Y-124264534D01*
X188944779Y-124459217D01*
X189037714Y-124641612D01*
X189037716Y-124641615D01*
X189158035Y-124807220D01*
X189158039Y-124807225D01*
X189302775Y-124951961D01*
X189302779Y-124951964D01*
X189302781Y-124951966D01*
X189468390Y-125072287D01*
X189650781Y-125165220D01*
X189845466Y-125228477D01*
X190047648Y-125260500D01*
X190047649Y-125260500D01*
X190252351Y-125260500D01*
X190252352Y-125260500D01*
X190454534Y-125228477D01*
X190649219Y-125165220D01*
X190831610Y-125072287D01*
X190997219Y-124951966D01*
X190997222Y-124951962D01*
X190997225Y-124951961D01*
X191141961Y-124807225D01*
X191141962Y-124807222D01*
X191141966Y-124807219D01*
X191262287Y-124641610D01*
X191355220Y-124459219D01*
X191418477Y-124264534D01*
X191450500Y-124062352D01*
X191450500Y-123857648D01*
X208139500Y-123857648D01*
X208139500Y-124062351D01*
X208171522Y-124264531D01*
X208171523Y-124264534D01*
X208234779Y-124459217D01*
X208327714Y-124641612D01*
X208327716Y-124641615D01*
X208448035Y-124807220D01*
X208448039Y-124807225D01*
X208592775Y-124951961D01*
X208592779Y-124951964D01*
X208592781Y-124951966D01*
X208758390Y-125072287D01*
X208940781Y-125165220D01*
X209135466Y-125228477D01*
X209337648Y-125260500D01*
X209337649Y-125260500D01*
X209542351Y-125260500D01*
X209542352Y-125260500D01*
X209744534Y-125228477D01*
X209939219Y-125165220D01*
X210121610Y-125072287D01*
X210287219Y-124951966D01*
X210287222Y-124951962D01*
X210287225Y-124951961D01*
X210431961Y-124807225D01*
X210431962Y-124807222D01*
X210431966Y-124807219D01*
X210552287Y-124641610D01*
X210645220Y-124459219D01*
X210708477Y-124264534D01*
X210740500Y-124062352D01*
X210740500Y-123857648D01*
X227429500Y-123857648D01*
X227429500Y-124062351D01*
X227461522Y-124264531D01*
X227461523Y-124264534D01*
X227524779Y-124459217D01*
X227617714Y-124641612D01*
X227617716Y-124641615D01*
X227738035Y-124807220D01*
X227738039Y-124807225D01*
X227882775Y-124951961D01*
X227882779Y-124951964D01*
X227882781Y-124951966D01*
X228048390Y-125072287D01*
X228230781Y-125165220D01*
X228425466Y-125228477D01*
X228627648Y-125260500D01*
X228627649Y-125260500D01*
X228832351Y-125260500D01*
X228832352Y-125260500D01*
X229034534Y-125228477D01*
X229229219Y-125165220D01*
X229411610Y-125072287D01*
X229577219Y-124951966D01*
X229577222Y-124951962D01*
X229577225Y-124951961D01*
X229721961Y-124807225D01*
X229721962Y-124807222D01*
X229721966Y-124807219D01*
X229842287Y-124641610D01*
X229935220Y-124459219D01*
X229998477Y-124264534D01*
X230030500Y-124062352D01*
X230030500Y-123857648D01*
X229998477Y-123655466D01*
X229935220Y-123460781D01*
X229842287Y-123278390D01*
X229721966Y-123112781D01*
X229721964Y-123112779D01*
X229721961Y-123112775D01*
X229577225Y-122968039D01*
X229577220Y-122968035D01*
X229541212Y-122941874D01*
X229527242Y-122931724D01*
X229411615Y-122847716D01*
X229411612Y-122847714D01*
X229229217Y-122754779D01*
X229034534Y-122691523D01*
X229034531Y-122691522D01*
X228879220Y-122666923D01*
X228832352Y-122659500D01*
X228627648Y-122659500D01*
X228589599Y-122665526D01*
X228425468Y-122691522D01*
X228425465Y-122691523D01*
X228230782Y-122754779D01*
X228048387Y-122847714D01*
X228048384Y-122847716D01*
X227882779Y-122968035D01*
X227738035Y-123112779D01*
X227617716Y-123278384D01*
X227617714Y-123278387D01*
X227524779Y-123460782D01*
X227461523Y-123655465D01*
X227461522Y-123655468D01*
X227429500Y-123857648D01*
X210740500Y-123857648D01*
X210708477Y-123655466D01*
X210645220Y-123460781D01*
X210552287Y-123278390D01*
X210431966Y-123112781D01*
X210431964Y-123112779D01*
X210431961Y-123112775D01*
X210287225Y-122968039D01*
X210287220Y-122968035D01*
X210251212Y-122941874D01*
X210237242Y-122931724D01*
X210121615Y-122847716D01*
X210121612Y-122847714D01*
X209939217Y-122754779D01*
X209900434Y-122742178D01*
X209814480Y-122714250D01*
X209744534Y-122691523D01*
X209744531Y-122691522D01*
X209589220Y-122666923D01*
X209542352Y-122659500D01*
X209337648Y-122659500D01*
X209299599Y-122665526D01*
X209135468Y-122691522D01*
X209135465Y-122691523D01*
X208940782Y-122754779D01*
X208758387Y-122847714D01*
X208758384Y-122847716D01*
X208592779Y-122968035D01*
X208448035Y-123112779D01*
X208327716Y-123278384D01*
X208327714Y-123278387D01*
X208234779Y-123460782D01*
X208171523Y-123655465D01*
X208171522Y-123655468D01*
X208139500Y-123857648D01*
X191450500Y-123857648D01*
X191418477Y-123655466D01*
X191355220Y-123460781D01*
X191262287Y-123278390D01*
X191141966Y-123112781D01*
X191141964Y-123112779D01*
X191141961Y-123112775D01*
X190997225Y-122968039D01*
X190997220Y-122968035D01*
X190961212Y-122941874D01*
X190947242Y-122931724D01*
X190831615Y-122847716D01*
X190831612Y-122847714D01*
X190649217Y-122754779D01*
X190610434Y-122742178D01*
X190524480Y-122714250D01*
X190454534Y-122691523D01*
X190454531Y-122691522D01*
X190299220Y-122666923D01*
X190252352Y-122659500D01*
X190047648Y-122659500D01*
X190009599Y-122665526D01*
X189845468Y-122691522D01*
X189845465Y-122691523D01*
X189650782Y-122754779D01*
X189468387Y-122847714D01*
X189468384Y-122847716D01*
X189302779Y-122968035D01*
X189158035Y-123112779D01*
X189037716Y-123278384D01*
X189037714Y-123278387D01*
X188944779Y-123460782D01*
X188881523Y-123655465D01*
X188881522Y-123655468D01*
X188849500Y-123857648D01*
X182550500Y-123857648D01*
X182550500Y-121294077D01*
X194900000Y-121294077D01*
X194900000Y-121545922D01*
X194939396Y-121794665D01*
X194939397Y-121794668D01*
X195017220Y-122034185D01*
X195131557Y-122258582D01*
X195205747Y-122360698D01*
X195822421Y-121744024D01*
X195835359Y-121775258D01*
X195917437Y-121898097D01*
X196021903Y-122002563D01*
X196144742Y-122084641D01*
X196175974Y-122097577D01*
X195559300Y-122714251D01*
X195661417Y-122788442D01*
X195885814Y-122902779D01*
X196125331Y-122980602D01*
X196125334Y-122980603D01*
X196374078Y-123020000D01*
X196625922Y-123020000D01*
X196874665Y-122980603D01*
X196874668Y-122980602D01*
X197114185Y-122902779D01*
X197338579Y-122788444D01*
X197440697Y-122714250D01*
X196824025Y-122097578D01*
X196855258Y-122084641D01*
X196978097Y-122002563D01*
X197082563Y-121898097D01*
X197164641Y-121775258D01*
X197177578Y-121744025D01*
X197794250Y-122360697D01*
X197868444Y-122258579D01*
X197982779Y-122034185D01*
X198060602Y-121794668D01*
X198060603Y-121794665D01*
X198100000Y-121545922D01*
X198100000Y-121294077D01*
X214190000Y-121294077D01*
X214190000Y-121545922D01*
X214229396Y-121794665D01*
X214229397Y-121794668D01*
X214307220Y-122034185D01*
X214421557Y-122258582D01*
X214495747Y-122360698D01*
X215112421Y-121744024D01*
X215125359Y-121775258D01*
X215207437Y-121898097D01*
X215311903Y-122002563D01*
X215434742Y-122084641D01*
X215465974Y-122097577D01*
X214849300Y-122714251D01*
X214951417Y-122788442D01*
X215175814Y-122902779D01*
X215415331Y-122980602D01*
X215415334Y-122980603D01*
X215664078Y-123020000D01*
X215915922Y-123020000D01*
X216164665Y-122980603D01*
X216164668Y-122980602D01*
X216404185Y-122902779D01*
X216628579Y-122788444D01*
X216730697Y-122714250D01*
X216114025Y-122097578D01*
X216145258Y-122084641D01*
X216268097Y-122002563D01*
X216372563Y-121898097D01*
X216454641Y-121775258D01*
X216467578Y-121744025D01*
X217084250Y-122360697D01*
X217158444Y-122258579D01*
X217272779Y-122034185D01*
X217350602Y-121794668D01*
X217350603Y-121794665D01*
X217390000Y-121545922D01*
X217390000Y-121294077D01*
X217350603Y-121045334D01*
X217350602Y-121045331D01*
X217272779Y-120805814D01*
X217158442Y-120581417D01*
X217084251Y-120479300D01*
X216467577Y-121095973D01*
X216454641Y-121064742D01*
X216372563Y-120941903D01*
X216268097Y-120837437D01*
X216145258Y-120755359D01*
X216114023Y-120742421D01*
X216730698Y-120125747D01*
X216628582Y-120051557D01*
X216404185Y-119937220D01*
X216164668Y-119859397D01*
X216164665Y-119859396D01*
X215915922Y-119820000D01*
X215664078Y-119820000D01*
X215415334Y-119859396D01*
X215415331Y-119859397D01*
X215175814Y-119937220D01*
X214951414Y-120051558D01*
X214951411Y-120051560D01*
X214849300Y-120125747D01*
X215465974Y-120742421D01*
X215434742Y-120755359D01*
X215311903Y-120837437D01*
X215207437Y-120941903D01*
X215125359Y-121064742D01*
X215112421Y-121095974D01*
X214495747Y-120479300D01*
X214421560Y-120581411D01*
X214421558Y-120581414D01*
X214307220Y-120805814D01*
X214229397Y-121045331D01*
X214229396Y-121045334D01*
X214190000Y-121294077D01*
X198100000Y-121294077D01*
X198060603Y-121045334D01*
X198060602Y-121045331D01*
X197982779Y-120805814D01*
X197868442Y-120581417D01*
X197794251Y-120479300D01*
X197177577Y-121095973D01*
X197164641Y-121064742D01*
X197082563Y-120941903D01*
X196978097Y-120837437D01*
X196855258Y-120755359D01*
X196824023Y-120742421D01*
X197440698Y-120125747D01*
X197338582Y-120051557D01*
X197114185Y-119937220D01*
X196874668Y-119859397D01*
X196874665Y-119859396D01*
X196625922Y-119820000D01*
X196374078Y-119820000D01*
X196125334Y-119859396D01*
X196125331Y-119859397D01*
X195885814Y-119937220D01*
X195661414Y-120051558D01*
X195661411Y-120051560D01*
X195559300Y-120125747D01*
X196175974Y-120742421D01*
X196144742Y-120755359D01*
X196021903Y-120837437D01*
X195917437Y-120941903D01*
X195835359Y-121064742D01*
X195822421Y-121095974D01*
X195205747Y-120479300D01*
X195131560Y-120581411D01*
X195131558Y-120581414D01*
X195017220Y-120805814D01*
X194939397Y-121045331D01*
X194939396Y-121045334D01*
X194900000Y-121294077D01*
X182550500Y-121294077D01*
X182550500Y-119655519D01*
X267549500Y-119655519D01*
X267549500Y-119844481D01*
X267556352Y-119887744D01*
X267579059Y-120031115D01*
X267579060Y-120031118D01*
X267637453Y-120210833D01*
X267723236Y-120379193D01*
X267723239Y-120379197D01*
X267723240Y-120379199D01*
X267834310Y-120532073D01*
X267834312Y-120532075D01*
X267834315Y-120532079D01*
X267967920Y-120665684D01*
X267967923Y-120665686D01*
X267967927Y-120665690D01*
X268120801Y-120776760D01*
X268120803Y-120776761D01*
X268120806Y-120776763D01*
X268289166Y-120862546D01*
X268289168Y-120862547D01*
X268468882Y-120920940D01*
X268655519Y-120950500D01*
X268655520Y-120950500D01*
X268844480Y-120950500D01*
X268844481Y-120950500D01*
X269031118Y-120920940D01*
X269210832Y-120862547D01*
X269379199Y-120776760D01*
X269532073Y-120665690D01*
X269665690Y-120532073D01*
X269776760Y-120379199D01*
X269862547Y-120210832D01*
X269920940Y-120031118D01*
X269950500Y-119844481D01*
X269950500Y-119655519D01*
X270049500Y-119655519D01*
X270049500Y-119844481D01*
X270056352Y-119887744D01*
X270079059Y-120031115D01*
X270079060Y-120031118D01*
X270137453Y-120210833D01*
X270223236Y-120379193D01*
X270223239Y-120379197D01*
X270223240Y-120379199D01*
X270334310Y-120532073D01*
X270334312Y-120532075D01*
X270334315Y-120532079D01*
X270467920Y-120665684D01*
X270467923Y-120665686D01*
X270467927Y-120665690D01*
X270620801Y-120776760D01*
X270620803Y-120776761D01*
X270620806Y-120776763D01*
X270789166Y-120862546D01*
X270789168Y-120862547D01*
X270968882Y-120920940D01*
X271155519Y-120950500D01*
X271155520Y-120950500D01*
X271344480Y-120950500D01*
X271344481Y-120950500D01*
X271531118Y-120920940D01*
X271710832Y-120862547D01*
X271879199Y-120776760D01*
X272032073Y-120665690D01*
X272165690Y-120532073D01*
X272276760Y-120379199D01*
X272362547Y-120210832D01*
X272420940Y-120031118D01*
X272450500Y-119844481D01*
X272450500Y-119655519D01*
X272420940Y-119468882D01*
X272362547Y-119289168D01*
X272276760Y-119120801D01*
X272165690Y-118967927D01*
X272165686Y-118967923D01*
X272165684Y-118967920D01*
X272032079Y-118834315D01*
X272032074Y-118834311D01*
X271940099Y-118767487D01*
X271888850Y-118730252D01*
X272549500Y-118730252D01*
X272549500Y-120769748D01*
X272561133Y-120828231D01*
X272578882Y-120854795D01*
X272605447Y-120894552D01*
X272632012Y-120912301D01*
X272671769Y-120938867D01*
X272730252Y-120950500D01*
X272730255Y-120950500D01*
X274769745Y-120950500D01*
X274769748Y-120950500D01*
X274828231Y-120938867D01*
X274894552Y-120894552D01*
X274938867Y-120828231D01*
X274950500Y-120769748D01*
X274950500Y-118730252D01*
X274938867Y-118671769D01*
X274912301Y-118632012D01*
X274894552Y-118605447D01*
X274854795Y-118578882D01*
X274828231Y-118561133D01*
X274769748Y-118549500D01*
X272730252Y-118549500D01*
X272671769Y-118561133D01*
X272605447Y-118605447D01*
X272561133Y-118671769D01*
X272549500Y-118730252D01*
X271888850Y-118730252D01*
X271879199Y-118723240D01*
X271879193Y-118723237D01*
X271879192Y-118723236D01*
X271710833Y-118637453D01*
X271531118Y-118579060D01*
X271531115Y-118579059D01*
X271387744Y-118556352D01*
X271344481Y-118549500D01*
X271155519Y-118549500D01*
X271120397Y-118555062D01*
X270968884Y-118579059D01*
X270968881Y-118579060D01*
X270789166Y-118637453D01*
X270620806Y-118723236D01*
X270467920Y-118834315D01*
X270334315Y-118967920D01*
X270223236Y-119120806D01*
X270137453Y-119289166D01*
X270079060Y-119468881D01*
X270079059Y-119468884D01*
X270049500Y-119655519D01*
X269950500Y-119655519D01*
X269920940Y-119468882D01*
X269862547Y-119289168D01*
X269776760Y-119120801D01*
X269665690Y-118967927D01*
X269665686Y-118967923D01*
X269665684Y-118967920D01*
X269532079Y-118834315D01*
X269532080Y-118834315D01*
X269379193Y-118723236D01*
X269210833Y-118637453D01*
X269031118Y-118579060D01*
X269031115Y-118579059D01*
X268887744Y-118556352D01*
X268844481Y-118549500D01*
X268655519Y-118549500D01*
X268620397Y-118555062D01*
X268468884Y-118579059D01*
X268468881Y-118579060D01*
X268289166Y-118637453D01*
X268120806Y-118723236D01*
X267967920Y-118834315D01*
X267834315Y-118967920D01*
X267723236Y-119120806D01*
X267637453Y-119289166D01*
X267579060Y-119468881D01*
X267579059Y-119468884D01*
X267549500Y-119655519D01*
X182550500Y-119655519D01*
X182550500Y-112896535D01*
X184199500Y-112896535D01*
X184199500Y-113103465D01*
X184208068Y-113146538D01*
X184239869Y-113306417D01*
X184239871Y-113306423D01*
X184319058Y-113497596D01*
X184319059Y-113497598D01*
X184434023Y-113669655D01*
X184580345Y-113815977D01*
X184752402Y-113930941D01*
X184943580Y-114010130D01*
X185146535Y-114050500D01*
X185146538Y-114050500D01*
X185353462Y-114050500D01*
X185353465Y-114050500D01*
X185556420Y-114010130D01*
X185747598Y-113930941D01*
X185919655Y-113815977D01*
X186065977Y-113669655D01*
X186180941Y-113497598D01*
X186260130Y-113306420D01*
X186300500Y-113103465D01*
X186300500Y-112896535D01*
X186260130Y-112693580D01*
X186180941Y-112502402D01*
X186065977Y-112330345D01*
X185919655Y-112184023D01*
X185839180Y-112130252D01*
X190449500Y-112130252D01*
X190449500Y-113869748D01*
X190461133Y-113928231D01*
X190462944Y-113930941D01*
X190505447Y-113994552D01*
X190528759Y-114010128D01*
X190571769Y-114038867D01*
X190630252Y-114050500D01*
X190630255Y-114050500D01*
X192369745Y-114050500D01*
X192369748Y-114050500D01*
X192428231Y-114038867D01*
X192494552Y-113994552D01*
X192538867Y-113928231D01*
X192550500Y-113869748D01*
X192550500Y-112893753D01*
X192690000Y-112893753D01*
X192690000Y-113106246D01*
X192723241Y-113316123D01*
X192723242Y-113316126D01*
X192788905Y-113518218D01*
X192885378Y-113707556D01*
X192885380Y-113707560D01*
X192924727Y-113761716D01*
X192924728Y-113761716D01*
X193557036Y-113129407D01*
X193574075Y-113192993D01*
X193639901Y-113307007D01*
X193732993Y-113400099D01*
X193847007Y-113465925D01*
X193910591Y-113482962D01*
X193278281Y-114115271D01*
X193332440Y-114154619D01*
X193332443Y-114154621D01*
X193521781Y-114251094D01*
X193723873Y-114316757D01*
X193723876Y-114316758D01*
X193933754Y-114350000D01*
X194146246Y-114350000D01*
X194356123Y-114316758D01*
X194356126Y-114316757D01*
X194558218Y-114251094D01*
X194747553Y-114154622D01*
X194801717Y-114115271D01*
X194169408Y-113482962D01*
X194232993Y-113465925D01*
X194347007Y-113400099D01*
X194440099Y-113307007D01*
X194505925Y-113192993D01*
X194522962Y-113129408D01*
X195155271Y-113761717D01*
X195194622Y-113707553D01*
X195291094Y-113518218D01*
X195356757Y-113316126D01*
X195356758Y-113316123D01*
X195390000Y-113106246D01*
X195390000Y-112896535D01*
X195529500Y-112896535D01*
X195529500Y-113103465D01*
X195538068Y-113146538D01*
X195569869Y-113306417D01*
X195569871Y-113306423D01*
X195649058Y-113497596D01*
X195649059Y-113497598D01*
X195764023Y-113669655D01*
X195910345Y-113815977D01*
X196082402Y-113930941D01*
X196273580Y-114010130D01*
X196476535Y-114050500D01*
X196476538Y-114050500D01*
X196683462Y-114050500D01*
X196683465Y-114050500D01*
X196886420Y-114010130D01*
X197077598Y-113930941D01*
X197249655Y-113815977D01*
X197395977Y-113669655D01*
X197510941Y-113497598D01*
X197590130Y-113306420D01*
X197630500Y-113103465D01*
X197630500Y-112896535D01*
X198069500Y-112896535D01*
X198069500Y-113103465D01*
X198078068Y-113146538D01*
X198109869Y-113306417D01*
X198109871Y-113306423D01*
X198189058Y-113497596D01*
X198189059Y-113497598D01*
X198304023Y-113669655D01*
X198450345Y-113815977D01*
X198622402Y-113930941D01*
X198813580Y-114010130D01*
X199016535Y-114050500D01*
X199016538Y-114050500D01*
X199223462Y-114050500D01*
X199223465Y-114050500D01*
X199426420Y-114010130D01*
X199617598Y-113930941D01*
X199789655Y-113815977D01*
X199935977Y-113669655D01*
X200050941Y-113497598D01*
X200130130Y-113306420D01*
X200170500Y-113103465D01*
X200170500Y-112896535D01*
X200609500Y-112896535D01*
X200609500Y-113103465D01*
X200618068Y-113146538D01*
X200649869Y-113306417D01*
X200649871Y-113306423D01*
X200729058Y-113497596D01*
X200729059Y-113497598D01*
X200844023Y-113669655D01*
X200990345Y-113815977D01*
X201162402Y-113930941D01*
X201353580Y-114010130D01*
X201556535Y-114050500D01*
X201556538Y-114050500D01*
X201763462Y-114050500D01*
X201763465Y-114050500D01*
X201966420Y-114010130D01*
X202157598Y-113930941D01*
X202329655Y-113815977D01*
X202475977Y-113669655D01*
X202590941Y-113497598D01*
X202670130Y-113306420D01*
X202710500Y-113103465D01*
X202710500Y-112896535D01*
X203149500Y-112896535D01*
X203149500Y-113103465D01*
X203158068Y-113146538D01*
X203189869Y-113306417D01*
X203189871Y-113306423D01*
X203269058Y-113497596D01*
X203269059Y-113497598D01*
X203384023Y-113669655D01*
X203530345Y-113815977D01*
X203702402Y-113930941D01*
X203893580Y-114010130D01*
X204096535Y-114050500D01*
X204096538Y-114050500D01*
X204303462Y-114050500D01*
X204303465Y-114050500D01*
X204506420Y-114010130D01*
X204697598Y-113930941D01*
X204869655Y-113815977D01*
X205015977Y-113669655D01*
X205130941Y-113497598D01*
X205210130Y-113306420D01*
X205250500Y-113103465D01*
X205250500Y-112896535D01*
X205689500Y-112896535D01*
X205689500Y-113103465D01*
X205698068Y-113146538D01*
X205729869Y-113306417D01*
X205729871Y-113306423D01*
X205809058Y-113497596D01*
X205809059Y-113497598D01*
X205924023Y-113669655D01*
X206070345Y-113815977D01*
X206242402Y-113930941D01*
X206433580Y-114010130D01*
X206636535Y-114050500D01*
X206636538Y-114050500D01*
X206843462Y-114050500D01*
X206843465Y-114050500D01*
X207046420Y-114010130D01*
X207237598Y-113930941D01*
X207409655Y-113815977D01*
X207555977Y-113669655D01*
X207670941Y-113497598D01*
X207750130Y-113306420D01*
X207790500Y-113103465D01*
X207790500Y-112896535D01*
X208229500Y-112896535D01*
X208229500Y-113103465D01*
X208238068Y-113146538D01*
X208269869Y-113306417D01*
X208269871Y-113306423D01*
X208349058Y-113497596D01*
X208349059Y-113497598D01*
X208464023Y-113669655D01*
X208610345Y-113815977D01*
X208782402Y-113930941D01*
X208973580Y-114010130D01*
X209176535Y-114050500D01*
X209176538Y-114050500D01*
X209383462Y-114050500D01*
X209383465Y-114050500D01*
X209586420Y-114010130D01*
X209777598Y-113930941D01*
X209949655Y-113815977D01*
X210095977Y-113669655D01*
X210210941Y-113497598D01*
X210290130Y-113306420D01*
X210330500Y-113103465D01*
X210330500Y-112896535D01*
X210769500Y-112896535D01*
X210769500Y-113103465D01*
X210778068Y-113146538D01*
X210809869Y-113306417D01*
X210809871Y-113306423D01*
X210889058Y-113497596D01*
X210889059Y-113497598D01*
X211004023Y-113669655D01*
X211150345Y-113815977D01*
X211322402Y-113930941D01*
X211513580Y-114010130D01*
X211716535Y-114050500D01*
X211716538Y-114050500D01*
X211923462Y-114050500D01*
X211923465Y-114050500D01*
X212126420Y-114010130D01*
X212317598Y-113930941D01*
X212489655Y-113815977D01*
X212635977Y-113669655D01*
X212750941Y-113497598D01*
X212830130Y-113306420D01*
X212870500Y-113103465D01*
X212870500Y-112896535D01*
X213309500Y-112896535D01*
X213309500Y-113103465D01*
X213318068Y-113146538D01*
X213349869Y-113306417D01*
X213349871Y-113306423D01*
X213429058Y-113497596D01*
X213429059Y-113497598D01*
X213544023Y-113669655D01*
X213690345Y-113815977D01*
X213862402Y-113930941D01*
X214053580Y-114010130D01*
X214256535Y-114050500D01*
X214256538Y-114050500D01*
X214463462Y-114050500D01*
X214463465Y-114050500D01*
X214666420Y-114010130D01*
X214857598Y-113930941D01*
X215029655Y-113815977D01*
X215175977Y-113669655D01*
X215290941Y-113497598D01*
X215370130Y-113306420D01*
X215410500Y-113103465D01*
X215410500Y-112896535D01*
X215849500Y-112896535D01*
X215849500Y-113103465D01*
X215858068Y-113146538D01*
X215889869Y-113306417D01*
X215889871Y-113306423D01*
X215969058Y-113497596D01*
X215969059Y-113497598D01*
X216084023Y-113669655D01*
X216230345Y-113815977D01*
X216402402Y-113930941D01*
X216593580Y-114010130D01*
X216796535Y-114050500D01*
X216796538Y-114050500D01*
X217003462Y-114050500D01*
X217003465Y-114050500D01*
X217206420Y-114010130D01*
X217397598Y-113930941D01*
X217569655Y-113815977D01*
X217715977Y-113669655D01*
X217830941Y-113497598D01*
X217910130Y-113306420D01*
X217950500Y-113103465D01*
X217950500Y-112896535D01*
X218389500Y-112896535D01*
X218389500Y-113103465D01*
X218398068Y-113146538D01*
X218429869Y-113306417D01*
X218429871Y-113306423D01*
X218509058Y-113497596D01*
X218509059Y-113497598D01*
X218624023Y-113669655D01*
X218770345Y-113815977D01*
X218942402Y-113930941D01*
X219133580Y-114010130D01*
X219336535Y-114050500D01*
X219336538Y-114050500D01*
X219543462Y-114050500D01*
X219543465Y-114050500D01*
X219746420Y-114010130D01*
X219937598Y-113930941D01*
X220109655Y-113815977D01*
X220255977Y-113669655D01*
X220370941Y-113497598D01*
X220450130Y-113306420D01*
X220490500Y-113103465D01*
X220490500Y-112896535D01*
X220929500Y-112896535D01*
X220929500Y-113103465D01*
X220938068Y-113146538D01*
X220969869Y-113306417D01*
X220969871Y-113306423D01*
X221049058Y-113497596D01*
X221049059Y-113497598D01*
X221164023Y-113669655D01*
X221310345Y-113815977D01*
X221482402Y-113930941D01*
X221673580Y-114010130D01*
X221876535Y-114050500D01*
X221876538Y-114050500D01*
X222083462Y-114050500D01*
X222083465Y-114050500D01*
X222286420Y-114010130D01*
X222477598Y-113930941D01*
X222649655Y-113815977D01*
X222795977Y-113669655D01*
X222910941Y-113497598D01*
X222990130Y-113306420D01*
X223030500Y-113103465D01*
X223030500Y-112896535D01*
X223469500Y-112896535D01*
X223469500Y-113103465D01*
X223478068Y-113146538D01*
X223509869Y-113306417D01*
X223509871Y-113306423D01*
X223589058Y-113497596D01*
X223589059Y-113497598D01*
X223704023Y-113669655D01*
X223850345Y-113815977D01*
X224022402Y-113930941D01*
X224213580Y-114010130D01*
X224416535Y-114050500D01*
X224416538Y-114050500D01*
X224623462Y-114050500D01*
X224623465Y-114050500D01*
X224826420Y-114010130D01*
X225017598Y-113930941D01*
X225189655Y-113815977D01*
X225335977Y-113669655D01*
X225450941Y-113497598D01*
X225530130Y-113306420D01*
X225561933Y-113146535D01*
X274199500Y-113146535D01*
X274199500Y-113353465D01*
X274221870Y-113465925D01*
X274239869Y-113556417D01*
X274239871Y-113556423D01*
X274319058Y-113747596D01*
X274319059Y-113747598D01*
X274434023Y-113919655D01*
X274580345Y-114065977D01*
X274752402Y-114180941D01*
X274943580Y-114260130D01*
X275146535Y-114300500D01*
X275146538Y-114300500D01*
X275353462Y-114300500D01*
X275353465Y-114300500D01*
X275556420Y-114260130D01*
X275747598Y-114180941D01*
X275919655Y-114065977D01*
X276065977Y-113919655D01*
X276180941Y-113747598D01*
X276260130Y-113556420D01*
X276300500Y-113353465D01*
X276300500Y-113146535D01*
X276260130Y-112943580D01*
X276180941Y-112752402D01*
X276065977Y-112580345D01*
X275919655Y-112434023D01*
X275747598Y-112319059D01*
X275747596Y-112319058D01*
X275556423Y-112239871D01*
X275556417Y-112239869D01*
X275474572Y-112223589D01*
X275353465Y-112199500D01*
X275146535Y-112199500D01*
X275045520Y-112219592D01*
X274943582Y-112239869D01*
X274943576Y-112239871D01*
X274752403Y-112319058D01*
X274580345Y-112434022D01*
X274434022Y-112580345D01*
X274319058Y-112752403D01*
X274239871Y-112943576D01*
X274239869Y-112943582D01*
X274228647Y-113000000D01*
X274199500Y-113146535D01*
X225561933Y-113146535D01*
X225570500Y-113103465D01*
X225570500Y-112896535D01*
X225530130Y-112693580D01*
X225450941Y-112502402D01*
X225335977Y-112330345D01*
X225189655Y-112184023D01*
X225166553Y-112168587D01*
X225104207Y-112126929D01*
X225017598Y-112069059D01*
X225017596Y-112069058D01*
X224826423Y-111989871D01*
X224826417Y-111989869D01*
X224744572Y-111973589D01*
X224623465Y-111949500D01*
X224416535Y-111949500D01*
X224315520Y-111969592D01*
X224213582Y-111989869D01*
X224213576Y-111989871D01*
X224022403Y-112069058D01*
X223850345Y-112184022D01*
X223704022Y-112330345D01*
X223589058Y-112502403D01*
X223509871Y-112693576D01*
X223509869Y-112693582D01*
X223498169Y-112752403D01*
X223469500Y-112896535D01*
X223030500Y-112896535D01*
X222990130Y-112693580D01*
X222910941Y-112502402D01*
X222795977Y-112330345D01*
X222649655Y-112184023D01*
X222626553Y-112168587D01*
X222564207Y-112126929D01*
X222477598Y-112069059D01*
X222477596Y-112069058D01*
X222286423Y-111989871D01*
X222286417Y-111989869D01*
X222204572Y-111973589D01*
X222083465Y-111949500D01*
X221876535Y-111949500D01*
X221775520Y-111969592D01*
X221673582Y-111989869D01*
X221673576Y-111989871D01*
X221482403Y-112069058D01*
X221310345Y-112184022D01*
X221164022Y-112330345D01*
X221049058Y-112502403D01*
X220969871Y-112693576D01*
X220969869Y-112693582D01*
X220958169Y-112752403D01*
X220929500Y-112896535D01*
X220490500Y-112896535D01*
X220450130Y-112693580D01*
X220370941Y-112502402D01*
X220255977Y-112330345D01*
X220109655Y-112184023D01*
X220086553Y-112168587D01*
X220024207Y-112126929D01*
X219937598Y-112069059D01*
X219937596Y-112069058D01*
X219746423Y-111989871D01*
X219746417Y-111989869D01*
X219664572Y-111973589D01*
X219543465Y-111949500D01*
X219336535Y-111949500D01*
X219235520Y-111969592D01*
X219133582Y-111989869D01*
X219133576Y-111989871D01*
X218942403Y-112069058D01*
X218770345Y-112184022D01*
X218624022Y-112330345D01*
X218509058Y-112502403D01*
X218429871Y-112693576D01*
X218429869Y-112693582D01*
X218418169Y-112752403D01*
X218389500Y-112896535D01*
X217950500Y-112896535D01*
X217910130Y-112693580D01*
X217830941Y-112502402D01*
X217715977Y-112330345D01*
X217569655Y-112184023D01*
X217546553Y-112168587D01*
X217484207Y-112126929D01*
X217397598Y-112069059D01*
X217397596Y-112069058D01*
X217206423Y-111989871D01*
X217206417Y-111989869D01*
X217124572Y-111973589D01*
X217003465Y-111949500D01*
X216796535Y-111949500D01*
X216695520Y-111969592D01*
X216593582Y-111989869D01*
X216593576Y-111989871D01*
X216402403Y-112069058D01*
X216230345Y-112184022D01*
X216084022Y-112330345D01*
X215969058Y-112502403D01*
X215889871Y-112693576D01*
X215889869Y-112693582D01*
X215878169Y-112752403D01*
X215849500Y-112896535D01*
X215410500Y-112896535D01*
X215370130Y-112693580D01*
X215290941Y-112502402D01*
X215175977Y-112330345D01*
X215029655Y-112184023D01*
X215006553Y-112168587D01*
X214944207Y-112126929D01*
X214857598Y-112069059D01*
X214857596Y-112069058D01*
X214666423Y-111989871D01*
X214666417Y-111989869D01*
X214584572Y-111973589D01*
X214463465Y-111949500D01*
X214256535Y-111949500D01*
X214155520Y-111969592D01*
X214053582Y-111989869D01*
X214053576Y-111989871D01*
X213862403Y-112069058D01*
X213690345Y-112184022D01*
X213544022Y-112330345D01*
X213429058Y-112502403D01*
X213349871Y-112693576D01*
X213349869Y-112693582D01*
X213338169Y-112752403D01*
X213309500Y-112896535D01*
X212870500Y-112896535D01*
X212830130Y-112693580D01*
X212750941Y-112502402D01*
X212635977Y-112330345D01*
X212489655Y-112184023D01*
X212466553Y-112168587D01*
X212404207Y-112126929D01*
X212317598Y-112069059D01*
X212317596Y-112069058D01*
X212126423Y-111989871D01*
X212126417Y-111989869D01*
X212044572Y-111973589D01*
X211923465Y-111949500D01*
X211716535Y-111949500D01*
X211615520Y-111969592D01*
X211513582Y-111989869D01*
X211513576Y-111989871D01*
X211322403Y-112069058D01*
X211150345Y-112184022D01*
X211004022Y-112330345D01*
X210889058Y-112502403D01*
X210809871Y-112693576D01*
X210809869Y-112693582D01*
X210798169Y-112752403D01*
X210769500Y-112896535D01*
X210330500Y-112896535D01*
X210290130Y-112693580D01*
X210210941Y-112502402D01*
X210095977Y-112330345D01*
X209949655Y-112184023D01*
X209926553Y-112168587D01*
X209864207Y-112126929D01*
X209777598Y-112069059D01*
X209777596Y-112069058D01*
X209586423Y-111989871D01*
X209586417Y-111989869D01*
X209504572Y-111973589D01*
X209383465Y-111949500D01*
X209176535Y-111949500D01*
X209075520Y-111969592D01*
X208973582Y-111989869D01*
X208973576Y-111989871D01*
X208782403Y-112069058D01*
X208610345Y-112184022D01*
X208464022Y-112330345D01*
X208349058Y-112502403D01*
X208269871Y-112693576D01*
X208269869Y-112693582D01*
X208258169Y-112752403D01*
X208229500Y-112896535D01*
X207790500Y-112896535D01*
X207750130Y-112693580D01*
X207670941Y-112502402D01*
X207555977Y-112330345D01*
X207409655Y-112184023D01*
X207386553Y-112168587D01*
X207324207Y-112126929D01*
X207237598Y-112069059D01*
X207237596Y-112069058D01*
X207046423Y-111989871D01*
X207046417Y-111989869D01*
X206964572Y-111973589D01*
X206843465Y-111949500D01*
X206636535Y-111949500D01*
X206535520Y-111969592D01*
X206433582Y-111989869D01*
X206433576Y-111989871D01*
X206242403Y-112069058D01*
X206070345Y-112184022D01*
X205924022Y-112330345D01*
X205809058Y-112502403D01*
X205729871Y-112693576D01*
X205729869Y-112693582D01*
X205718169Y-112752403D01*
X205689500Y-112896535D01*
X205250500Y-112896535D01*
X205210130Y-112693580D01*
X205130941Y-112502402D01*
X205015977Y-112330345D01*
X204869655Y-112184023D01*
X204846553Y-112168587D01*
X204784207Y-112126929D01*
X204697598Y-112069059D01*
X204697596Y-112069058D01*
X204506423Y-111989871D01*
X204506417Y-111989869D01*
X204424572Y-111973589D01*
X204303465Y-111949500D01*
X204096535Y-111949500D01*
X203995520Y-111969592D01*
X203893582Y-111989869D01*
X203893576Y-111989871D01*
X203702403Y-112069058D01*
X203530345Y-112184022D01*
X203384022Y-112330345D01*
X203269058Y-112502403D01*
X203189871Y-112693576D01*
X203189869Y-112693582D01*
X203178169Y-112752403D01*
X203149500Y-112896535D01*
X202710500Y-112896535D01*
X202670130Y-112693580D01*
X202590941Y-112502402D01*
X202475977Y-112330345D01*
X202329655Y-112184023D01*
X202306553Y-112168587D01*
X202244207Y-112126929D01*
X202157598Y-112069059D01*
X202157596Y-112069058D01*
X201966423Y-111989871D01*
X201966417Y-111989869D01*
X201884572Y-111973589D01*
X201763465Y-111949500D01*
X201556535Y-111949500D01*
X201455520Y-111969592D01*
X201353582Y-111989869D01*
X201353576Y-111989871D01*
X201162403Y-112069058D01*
X200990345Y-112184022D01*
X200844022Y-112330345D01*
X200729058Y-112502403D01*
X200649871Y-112693576D01*
X200649869Y-112693582D01*
X200638169Y-112752403D01*
X200609500Y-112896535D01*
X200170500Y-112896535D01*
X200130130Y-112693580D01*
X200050941Y-112502402D01*
X199935977Y-112330345D01*
X199789655Y-112184023D01*
X199766553Y-112168587D01*
X199704207Y-112126929D01*
X199617598Y-112069059D01*
X199617596Y-112069058D01*
X199426423Y-111989871D01*
X199426417Y-111989869D01*
X199344572Y-111973589D01*
X199223465Y-111949500D01*
X199016535Y-111949500D01*
X198915520Y-111969592D01*
X198813582Y-111989869D01*
X198813576Y-111989871D01*
X198622403Y-112069058D01*
X198450345Y-112184022D01*
X198304022Y-112330345D01*
X198189058Y-112502403D01*
X198109871Y-112693576D01*
X198109869Y-112693582D01*
X198098169Y-112752403D01*
X198069500Y-112896535D01*
X197630500Y-112896535D01*
X197590130Y-112693580D01*
X197510941Y-112502402D01*
X197395977Y-112330345D01*
X197249655Y-112184023D01*
X197226553Y-112168587D01*
X197164207Y-112126929D01*
X197077598Y-112069059D01*
X197077596Y-112069058D01*
X196886423Y-111989871D01*
X196886417Y-111989869D01*
X196804572Y-111973589D01*
X196683465Y-111949500D01*
X196476535Y-111949500D01*
X196375520Y-111969592D01*
X196273582Y-111989869D01*
X196273576Y-111989871D01*
X196082403Y-112069058D01*
X195910345Y-112184022D01*
X195764022Y-112330345D01*
X195649058Y-112502403D01*
X195569871Y-112693576D01*
X195569869Y-112693582D01*
X195558169Y-112752403D01*
X195529500Y-112896535D01*
X195390000Y-112896535D01*
X195390000Y-112893753D01*
X195356758Y-112683876D01*
X195356757Y-112683873D01*
X195291094Y-112481781D01*
X195194621Y-112292443D01*
X195194619Y-112292440D01*
X195155271Y-112238281D01*
X194522962Y-112870590D01*
X194505925Y-112807007D01*
X194440099Y-112692993D01*
X194347007Y-112599901D01*
X194232993Y-112534075D01*
X194169407Y-112517036D01*
X194801716Y-111884728D01*
X194801716Y-111884727D01*
X194747560Y-111845380D01*
X194747556Y-111845378D01*
X194558218Y-111748905D01*
X194356126Y-111683242D01*
X194356123Y-111683241D01*
X194146246Y-111650000D01*
X193933754Y-111650000D01*
X193723876Y-111683241D01*
X193723873Y-111683242D01*
X193521781Y-111748905D01*
X193332447Y-111845376D01*
X193332442Y-111845379D01*
X193278282Y-111884727D01*
X193278282Y-111884728D01*
X193910591Y-112517037D01*
X193847007Y-112534075D01*
X193732993Y-112599901D01*
X193639901Y-112692993D01*
X193574075Y-112807007D01*
X193557037Y-112870591D01*
X192924728Y-112238282D01*
X192924727Y-112238282D01*
X192885379Y-112292442D01*
X192885376Y-112292447D01*
X192788905Y-112481781D01*
X192723242Y-112683873D01*
X192723241Y-112683876D01*
X192690000Y-112893753D01*
X192550500Y-112893753D01*
X192550500Y-112130252D01*
X192538867Y-112071769D01*
X192512301Y-112032012D01*
X192494552Y-112005447D01*
X192454795Y-111978882D01*
X192428231Y-111961133D01*
X192369748Y-111949500D01*
X190630252Y-111949500D01*
X190571769Y-111961133D01*
X190505447Y-112005447D01*
X190462944Y-112069058D01*
X190461133Y-112071769D01*
X190449500Y-112130252D01*
X185839180Y-112130252D01*
X185747598Y-112069059D01*
X185747596Y-112069058D01*
X185556423Y-111989871D01*
X185556417Y-111989869D01*
X185474572Y-111973589D01*
X185353465Y-111949500D01*
X185146535Y-111949500D01*
X185045520Y-111969592D01*
X184943582Y-111989869D01*
X184943576Y-111989871D01*
X184752403Y-112069058D01*
X184580345Y-112184022D01*
X184434022Y-112330345D01*
X184319058Y-112502403D01*
X184239871Y-112693576D01*
X184239869Y-112693582D01*
X184228169Y-112752403D01*
X184199500Y-112896535D01*
X182550500Y-112896535D01*
X182550500Y-110427411D01*
X182564852Y-110392763D01*
X182599369Y-110378411D01*
X212128037Y-110300500D01*
X280150500Y-110300500D01*
X280185148Y-110314852D01*
G37*
G04 #@! TD.AperFunction*
M02*
