M48
; DRILL file KiCad 10.0.5 date 2026-09-01T20:21:26
; FORMAT={-:-/ absolute / metric / decimal}
; #@! TF.CreationDate,2026-09-01T20:21:26+10:00
; #@! TF.GenerationSoftware,Kicad,Pcbnew,10.0.5
; #@! TF.FileFunction,NonPlated,1,4,NPTH
FMAT,2
METRIC
; #@! TA.AperFunction,NonPlated,NPTH,ComponentDrill
T1C1.700
; #@! TA.AperFunction,NonPlated,NPTH,ComponentDrill
T2C1.850
; #@! TA.AperFunction,NonPlated,NPTH,ComponentDrill
T3C2.100
; #@! TA.AperFunction,NonPlated,NPTH,ComponentDrill
T4C2.200
; #@! TA.AperFunction,NonPlated,NPTH,ComponentDrill
T5C4.000
%
G90
G05
T1
X188.88Y-126.5
X188.88Y-145.79
X199.04Y-126.5
X199.04Y-145.79
X208.163Y-145.79
X208.17Y-126.5
X218.323Y-145.79
X218.33Y-126.5
X227.447Y-145.79
X227.46Y-126.5
X237.607Y-145.79
X237.62Y-126.5
X246.73Y-145.79
X246.75Y-126.5
X256.89Y-145.79
X256.91Y-126.5
T2
X252.57Y-175.465
X252.57Y-180.315
T3
X185.0Y-199.25
X185.25Y-113.0
X275.25Y-113.25
X275.25Y-199.0
T4
X255.6Y-175.165
X255.6Y-180.615
T5
X193.96Y-126.5
X193.96Y-145.79
X213.243Y-145.79
X213.25Y-126.5
X232.527Y-145.79
X232.54Y-126.5
X251.81Y-145.79
X251.83Y-126.5
M30
