M48
; DRILL file KiCad 10.0.5 date 2026-09-01T20:21:26
; FORMAT={-:-/ absolute / metric / decimal}
; #@! TF.CreationDate,2026-09-01T20:21:26+10:00
; #@! TF.GenerationSoftware,Kicad,Pcbnew,10.0.5
; #@! TF.FileFunction,Plated,1,4,PTH
FMAT,2
METRIC
; #@! TA.AperFunction,Plated,PTH,ComponentDrill
T1C0.300
; #@! TA.AperFunction,Plated,PTH,ViaDrill
T2C0.600
; #@! TA.AperFunction,Plated,PTH,ComponentDrill
T3C0.600
; #@! TA.AperFunction,Plated,PTH,ComponentDrill
T4C0.850
; #@! TA.AperFunction,Plated,PTH,ComponentDrill
T5C1.000
; #@! TA.AperFunction,Plated,PTH,ComponentDrill
T6C1.500
%
G90
G05
T1
X264.825Y-159.955
X264.825Y-161.155
X264.825Y-162.355
X266.225Y-159.955
X266.225Y-161.155
X266.225Y-162.355
T2
X190.796Y-129.025
X190.937Y-148.095
X191.94Y-143.44
X193.352Y-150.045
X193.718Y-130.116
X197.204Y-129.799
X207.496Y-189.842
X208.5Y-128.0
X208.994Y-185.742
X209.739Y-165.931
X210.294Y-129.799
X210.398Y-150.047
X211.597Y-143.25
X212.55Y-189.839
X213.108Y-165.39
X213.452Y-129.955
X215.792Y-189.752
X216.102Y-150.05
X217.893Y-185.303
X220.453Y-185.323
X221.704Y-131.812
X221.958Y-184.359
X222.619Y-165.436
X223.973Y-183.526
X225.248Y-165.946
X225.25Y-191.197
X228.136Y-130.143
X228.803Y-196.393
X229.054Y-169.818
X229.29Y-149.108
X229.527Y-129.748
X230.25Y-141.75
X231.537Y-166.537
X232.79Y-148.594
X233.151Y-185.321
X235.106Y-165.929
X235.25Y-123.25
X237.974Y-165.943
X238.25Y-192.856
X240.759Y-165.929
X245.57Y-165.929
X248.092Y-165.893
X248.531Y-148.632
X248.798Y-129.606
X249.779Y-166.222
X250.921Y-165.931
X252.126Y-131.874
X252.397Y-150.044
X253.19Y-185.316
X253.466Y-165.936
X254.25Y-124.5
X254.385Y-170.038
X257.19Y-186.566
X261.537Y-159.919
X262.562Y-196.163
X267.046Y-158.296
X268.459Y-166.459
X269.632Y-161.79
T4
X256.5Y-197.2
X261.5Y-197.2
T5
X191.5Y-113.0
X194.04Y-113.0
X196.58Y-113.0
X199.12Y-113.0
X201.66Y-113.0
X204.2Y-113.0
X206.74Y-113.0
X209.28Y-113.0
X211.82Y-113.0
X214.36Y-113.0
X216.9Y-113.0
X219.44Y-113.0
X221.98Y-113.0
X224.52Y-113.0
X225.9Y-178.474
X225.9Y-181.014
X225.9Y-183.554
X268.65Y-145.5
X268.75Y-119.75
X268.75Y-134.25
X271.25Y-119.75
X273.75Y-119.75
X273.75Y-134.25
X276.25Y-145.5
T6
X190.15Y-123.96
X190.15Y-143.25
X196.5Y-121.42
X196.5Y-140.71
X209.433Y-143.25
X209.44Y-123.96
X215.783Y-140.71
X215.79Y-121.42
X228.717Y-143.25
X228.73Y-123.96
X235.067Y-140.71
X235.08Y-121.42
X248.0Y-143.25
X248.02Y-123.96
X254.35Y-140.71
X254.37Y-121.42
T3
G00X255.5Y-194.85
M15
G01X255.5Y-194.15
M16
G05
G00X262.5Y-194.15
M15
G01X262.5Y-194.85
M16
G05
T6
G00X265.65Y-126.6
M15
G01X265.65Y-127.9
M16
G05
G00X276.85Y-126.6
M15
G01X276.85Y-127.9
M16
G05
M30
