%TF.GenerationSoftware,KiCad,Pcbnew,10.0.5*%
%TF.CreationDate,2026-09-01T20:21:26+10:00*%
%TF.ProjectId,pcbfirstdesign,70636266-6972-4737-9464-657369676e2e,rev?*%
%TF.SameCoordinates,Original*%
%TF.FileFunction,Drillmap*%
%TF.FilePolarity,Positive*%
%FSLAX45Y45*%
G04 Gerber Fmt 4.5, Leading zero omitted, Abs format (unit mm)*
G04 Created by KiCad (PCBNEW 10.0.5) date 2026-09-01 20:21:26*
%MOMM*%
%LPD*%
G01*
G04 APERTURE LIST*
%ADD10C,0.050000*%
%ADD11C,0.200000*%
%ADD12C,0.100000*%
%ADD13C,0.150000*%
G04 APERTURE END LIST*
D10*
X18250000Y-11025000D02*
X28025000Y-11025000D01*
X28025000Y-20175000D01*
X18250000Y-20175000D01*
X18250000Y-11025000D01*
D11*
D12*
X26467500Y-15980500D02*
X26497500Y-16010500D01*
X26497500Y-15980500D02*
X26467500Y-16010500D01*
X26467500Y-16100500D02*
X26497500Y-16130500D01*
X26497500Y-16100500D02*
X26467500Y-16130500D01*
X26467500Y-16220500D02*
X26497500Y-16250500D01*
X26497500Y-16220500D02*
X26467500Y-16250500D01*
X26607500Y-15980500D02*
X26637500Y-16010500D01*
X26637500Y-15980500D02*
X26607500Y-16010500D01*
X26607500Y-16100500D02*
X26637500Y-16130500D01*
X26637500Y-16100500D02*
X26607500Y-16130500D01*
X26607500Y-16220500D02*
X26637500Y-16250500D01*
X26637500Y-16220500D02*
X26607500Y-16250500D01*
X19109640Y-12902480D02*
G75*
G02*
X19049640Y-12902480I-30000J0D01*
G01*
X19049640Y-12902480D02*
G75*
G02*
X19109640Y-12902480I30000J0D01*
G01*
X19123710Y-14809480D02*
G75*
G02*
X19063710Y-14809480I-30000J0D01*
G01*
X19063710Y-14809480D02*
G75*
G02*
X19123710Y-14809480I30000J0D01*
G01*
X19224037Y-14344037D02*
G75*
G02*
X19164037Y-14344037I-30000J0D01*
G01*
X19164037Y-14344037D02*
G75*
G02*
X19224037Y-14344037I30000J0D01*
G01*
X19365170Y-15004500D02*
G75*
G02*
X19305170Y-15004500I-30000J0D01*
G01*
X19305170Y-15004500D02*
G75*
G02*
X19365170Y-15004500I30000J0D01*
G01*
X19401800Y-13011630D02*
G75*
G02*
X19341800Y-13011630I-30000J0D01*
G01*
X19341800Y-13011630D02*
G75*
G02*
X19401800Y-13011630I30000J0D01*
G01*
X19750380Y-12979940D02*
G75*
G02*
X19690380Y-12979940I-30000J0D01*
G01*
X19690380Y-12979940D02*
G75*
G02*
X19750380Y-12979940I30000J0D01*
G01*
X20779570Y-18984200D02*
G75*
G02*
X20719570Y-18984200I-30000J0D01*
G01*
X20719570Y-18984200D02*
G75*
G02*
X20779570Y-18984200I30000J0D01*
G01*
X20880000Y-12800000D02*
G75*
G02*
X20820000Y-12800000I-30000J0D01*
G01*
X20820000Y-12800000D02*
G75*
G02*
X20880000Y-12800000I30000J0D01*
G01*
X20929440Y-18574160D02*
G75*
G02*
X20869440Y-18574160I-30000J0D01*
G01*
X20869440Y-18574160D02*
G75*
G02*
X20929440Y-18574160I30000J0D01*
G01*
X21003920Y-16593080D02*
G75*
G02*
X20943920Y-16593080I-30000J0D01*
G01*
X20943920Y-16593080D02*
G75*
G02*
X21003920Y-16593080I30000J0D01*
G01*
X21059450Y-12979940D02*
G75*
G02*
X20999450Y-12979940I-30000J0D01*
G01*
X20999450Y-12979940D02*
G75*
G02*
X21059450Y-12979940I30000J0D01*
G01*
X21069830Y-15004680D02*
G75*
G02*
X21009830Y-15004680I-30000J0D01*
G01*
X21009830Y-15004680D02*
G75*
G02*
X21069830Y-15004680I30000J0D01*
G01*
X21189680Y-14325000D02*
G75*
G02*
X21129680Y-14325000I-30000J0D01*
G01*
X21129680Y-14325000D02*
G75*
G02*
X21189680Y-14325000I30000J0D01*
G01*
X21285000Y-18983920D02*
G75*
G02*
X21225000Y-18983920I-30000J0D01*
G01*
X21225000Y-18983920D02*
G75*
G02*
X21285000Y-18983920I30000J0D01*
G01*
X21340830Y-16538990D02*
G75*
G02*
X21280830Y-16538990I-30000J0D01*
G01*
X21280830Y-16538990D02*
G75*
G02*
X21340830Y-16538990I30000J0D01*
G01*
X21375200Y-12995540D02*
G75*
G02*
X21315200Y-12995540I-30000J0D01*
G01*
X21315200Y-12995540D02*
G75*
G02*
X21375200Y-12995540I30000J0D01*
G01*
X21609230Y-18975180D02*
G75*
G02*
X21549230Y-18975180I-30000J0D01*
G01*
X21549230Y-18975180D02*
G75*
G02*
X21609230Y-18975180I30000J0D01*
G01*
X21640170Y-15005040D02*
G75*
G02*
X21580170Y-15005040I-30000J0D01*
G01*
X21580170Y-15005040D02*
G75*
G02*
X21640170Y-15005040I30000J0D01*
G01*
X21819350Y-18530350D02*
G75*
G02*
X21759350Y-18530350I-30000J0D01*
G01*
X21759350Y-18530350D02*
G75*
G02*
X21819350Y-18530350I30000J0D01*
G01*
X22075310Y-18532310D02*
G75*
G02*
X22015310Y-18532310I-30000J0D01*
G01*
X22015310Y-18532310D02*
G75*
G02*
X22075310Y-18532310I30000J0D01*
G01*
X22200370Y-13181160D02*
G75*
G02*
X22140370Y-13181160I-30000J0D01*
G01*
X22140370Y-13181160D02*
G75*
G02*
X22200370Y-13181160I30000J0D01*
G01*
X22225840Y-18435900D02*
G75*
G02*
X22165840Y-18435900I-30000J0D01*
G01*
X22165840Y-18435900D02*
G75*
G02*
X22225840Y-18435900I30000J0D01*
G01*
X22291870Y-16543560D02*
G75*
G02*
X22231870Y-16543560I-30000J0D01*
G01*
X22231870Y-16543560D02*
G75*
G02*
X22291870Y-16543560I30000J0D01*
G01*
X22427310Y-18352570D02*
G75*
G02*
X22367310Y-18352570I-30000J0D01*
G01*
X22367310Y-18352570D02*
G75*
G02*
X22427310Y-18352570I30000J0D01*
G01*
X22554840Y-16594620D02*
G75*
G02*
X22494840Y-16594620I-30000J0D01*
G01*
X22494840Y-16594620D02*
G75*
G02*
X22554840Y-16594620I30000J0D01*
G01*
X22555000Y-19119720D02*
G75*
G02*
X22495000Y-19119720I-30000J0D01*
G01*
X22495000Y-19119720D02*
G75*
G02*
X22555000Y-19119720I30000J0D01*
G01*
X22843640Y-13014330D02*
G75*
G02*
X22783640Y-13014330I-30000J0D01*
G01*
X22783640Y-13014330D02*
G75*
G02*
X22843640Y-13014330I30000J0D01*
G01*
X22910340Y-19639290D02*
G75*
G02*
X22850340Y-19639290I-30000J0D01*
G01*
X22850340Y-19639290D02*
G75*
G02*
X22910340Y-19639290I30000J0D01*
G01*
X22935360Y-16981760D02*
G75*
G02*
X22875360Y-16981760I-30000J0D01*
G01*
X22875360Y-16981760D02*
G75*
G02*
X22935360Y-16981760I30000J0D01*
G01*
X22958990Y-14910840D02*
G75*
G02*
X22898990Y-14910840I-30000J0D01*
G01*
X22898990Y-14910840D02*
G75*
G02*
X22958990Y-14910840I30000J0D01*
G01*
X22982710Y-12974840D02*
G75*
G02*
X22922710Y-12974840I-30000J0D01*
G01*
X22922710Y-12974840D02*
G75*
G02*
X22982710Y-12974840I30000J0D01*
G01*
X23055000Y-14175000D02*
G75*
G02*
X22995000Y-14175000I-30000J0D01*
G01*
X22995000Y-14175000D02*
G75*
G02*
X23055000Y-14175000I30000J0D01*
G01*
X23183660Y-16653730D02*
G75*
G02*
X23123660Y-16653730I-30000J0D01*
G01*
X23123660Y-16653730D02*
G75*
G02*
X23183660Y-16653730I30000J0D01*
G01*
X23309040Y-14859370D02*
G75*
G02*
X23249040Y-14859370I-30000J0D01*
G01*
X23249040Y-14859370D02*
G75*
G02*
X23309040Y-14859370I30000J0D01*
G01*
X23345150Y-18532150D02*
G75*
G02*
X23285150Y-18532150I-30000J0D01*
G01*
X23285150Y-18532150D02*
G75*
G02*
X23345150Y-18532150I30000J0D01*
G01*
X23540630Y-16592900D02*
G75*
G02*
X23480630Y-16592900I-30000J0D01*
G01*
X23480630Y-16592900D02*
G75*
G02*
X23540630Y-16592900I30000J0D01*
G01*
X23555000Y-12325000D02*
G75*
G02*
X23495000Y-12325000I-30000J0D01*
G01*
X23495000Y-12325000D02*
G75*
G02*
X23555000Y-12325000I30000J0D01*
G01*
X23827410Y-16594310D02*
G75*
G02*
X23767410Y-16594310I-30000J0D01*
G01*
X23767410Y-16594310D02*
G75*
G02*
X23827410Y-16594310I30000J0D01*
G01*
X23855000Y-19285580D02*
G75*
G02*
X23795000Y-19285580I-30000J0D01*
G01*
X23795000Y-19285580D02*
G75*
G02*
X23855000Y-19285580I30000J0D01*
G01*
X24105870Y-16592870D02*
G75*
G02*
X24045870Y-16592870I-30000J0D01*
G01*
X24045870Y-16592870D02*
G75*
G02*
X24105870Y-16592870I30000J0D01*
G01*
X24587000Y-16592930D02*
G75*
G02*
X24527000Y-16592930I-30000J0D01*
G01*
X24527000Y-16592930D02*
G75*
G02*
X24587000Y-16592930I30000J0D01*
G01*
X24839160Y-16589320D02*
G75*
G02*
X24779160Y-16589320I-30000J0D01*
G01*
X24779160Y-16589320D02*
G75*
G02*
X24839160Y-16589320I30000J0D01*
G01*
X24883060Y-14863230D02*
G75*
G02*
X24823060Y-14863230I-30000J0D01*
G01*
X24823060Y-14863230D02*
G75*
G02*
X24883060Y-14863230I30000J0D01*
G01*
X24909790Y-12960630D02*
G75*
G02*
X24849790Y-12960630I-30000J0D01*
G01*
X24849790Y-12960630D02*
G75*
G02*
X24909790Y-12960630I30000J0D01*
G01*
X25007930Y-16622200D02*
G75*
G02*
X24947930Y-16622200I-30000J0D01*
G01*
X24947930Y-16622200D02*
G75*
G02*
X25007930Y-16622200I30000J0D01*
G01*
X25122080Y-16593080D02*
G75*
G02*
X25062080Y-16593080I-30000J0D01*
G01*
X25062080Y-16593080D02*
G75*
G02*
X25122080Y-16593080I30000J0D01*
G01*
X25242613Y-13187387D02*
G75*
G02*
X25182613Y-13187387I-30000J0D01*
G01*
X25182613Y-13187387D02*
G75*
G02*
X25242613Y-13187387I30000J0D01*
G01*
X25269670Y-15004440D02*
G75*
G02*
X25209670Y-15004440I-30000J0D01*
G01*
X25209670Y-15004440D02*
G75*
G02*
X25269670Y-15004440I30000J0D01*
G01*
X25349000Y-18531650D02*
G75*
G02*
X25289000Y-18531650I-30000J0D01*
G01*
X25289000Y-18531650D02*
G75*
G02*
X25349000Y-18531650I30000J0D01*
G01*
X25376560Y-16593560D02*
G75*
G02*
X25316560Y-16593560I-30000J0D01*
G01*
X25316560Y-16593560D02*
G75*
G02*
X25376560Y-16593560I30000J0D01*
G01*
X25455000Y-12450000D02*
G75*
G02*
X25395000Y-12450000I-30000J0D01*
G01*
X25395000Y-12450000D02*
G75*
G02*
X25455000Y-12450000I30000J0D01*
G01*
X25468530Y-17003800D02*
G75*
G02*
X25408530Y-17003800I-30000J0D01*
G01*
X25408530Y-17003800D02*
G75*
G02*
X25468530Y-17003800I30000J0D01*
G01*
X25749000Y-18656650D02*
G75*
G02*
X25689000Y-18656650I-30000J0D01*
G01*
X25689000Y-18656650D02*
G75*
G02*
X25749000Y-18656650I30000J0D01*
G01*
X26183660Y-15991920D02*
G75*
G02*
X26123660Y-15991920I-30000J0D01*
G01*
X26123660Y-15991920D02*
G75*
G02*
X26183660Y-15991920I30000J0D01*
G01*
X26286190Y-19616330D02*
G75*
G02*
X26226190Y-19616330I-30000J0D01*
G01*
X26226190Y-19616330D02*
G75*
G02*
X26286190Y-19616330I30000J0D01*
G01*
X26734650Y-15829650D02*
G75*
G02*
X26674650Y-15829650I-30000J0D01*
G01*
X26674650Y-15829650D02*
G75*
G02*
X26734650Y-15829650I30000J0D01*
G01*
X26875910Y-16645910D02*
G75*
G02*
X26815910Y-16645910I-30000J0D01*
G01*
X26815910Y-16645910D02*
G75*
G02*
X26875910Y-16645910I30000J0D01*
G01*
X26993190Y-16179000D02*
G75*
G02*
X26933190Y-16179000I-30000J0D01*
G01*
X26933190Y-16179000D02*
G75*
G02*
X26993190Y-16179000I30000J0D01*
G01*
X25550000Y-19420000D02*
X25550000Y-19480000D01*
X25520000Y-19450000D02*
X25580000Y-19450000D01*
X25580000Y-19485000D02*
X25580000Y-19415000D01*
X25520000Y-19415000D02*
G75*
G02*
X25580000Y-19415000I30000J0D01*
G01*
X25520000Y-19415000D02*
X25520000Y-19485000D01*
X25520000Y-19485000D02*
G75*
G03*
X25580000Y-19485000I30000J0D01*
G01*
X26250000Y-19420000D02*
X26250000Y-19480000D01*
X26220000Y-19450000D02*
X26280000Y-19450000D01*
X26220000Y-19415000D02*
X26220000Y-19485000D01*
X26280000Y-19485000D02*
G75*
G02*
X26220000Y-19485000I-30000J0D01*
G01*
X26280000Y-19485000D02*
X26280000Y-19415000D01*
X26280000Y-19415000D02*
G75*
G03*
X26220000Y-19415000I-30000J0D01*
G01*
X25680052Y-19750052D02*
X25680052Y-19689948D01*
X25619948Y-19689948D01*
X25619948Y-19750052D01*
X25680052Y-19750052D01*
X26180052Y-19750052D02*
X26180052Y-19689948D01*
X26119948Y-19689948D01*
X26119948Y-19750052D01*
X26180052Y-19750052D01*
X19150000Y-11350000D02*
X19200000Y-11300000D01*
X19150000Y-11250000D01*
X19100000Y-11300000D01*
X19150000Y-11350000D01*
X19404000Y-11350000D02*
X19454000Y-11300000D01*
X19404000Y-11250000D01*
X19354000Y-11300000D01*
X19404000Y-11350000D01*
X19658000Y-11350000D02*
X19708000Y-11300000D01*
X19658000Y-11250000D01*
X19608000Y-11300000D01*
X19658000Y-11350000D01*
X19912000Y-11350000D02*
X19962000Y-11300000D01*
X19912000Y-11250000D01*
X19862000Y-11300000D01*
X19912000Y-11350000D01*
X20166000Y-11350000D02*
X20216000Y-11300000D01*
X20166000Y-11250000D01*
X20116000Y-11300000D01*
X20166000Y-11350000D01*
X20420000Y-11350000D02*
X20470000Y-11300000D01*
X20420000Y-11250000D01*
X20370000Y-11300000D01*
X20420000Y-11350000D01*
X20674000Y-11350000D02*
X20724000Y-11300000D01*
X20674000Y-11250000D01*
X20624000Y-11300000D01*
X20674000Y-11350000D01*
X20928000Y-11350000D02*
X20978000Y-11300000D01*
X20928000Y-11250000D01*
X20878000Y-11300000D01*
X20928000Y-11350000D01*
X21182000Y-11350000D02*
X21232000Y-11300000D01*
X21182000Y-11250000D01*
X21132000Y-11300000D01*
X21182000Y-11350000D01*
X21436000Y-11350000D02*
X21486000Y-11300000D01*
X21436000Y-11250000D01*
X21386000Y-11300000D01*
X21436000Y-11350000D01*
X21690000Y-11350000D02*
X21740000Y-11300000D01*
X21690000Y-11250000D01*
X21640000Y-11300000D01*
X21690000Y-11350000D01*
X21944000Y-11350000D02*
X21994000Y-11300000D01*
X21944000Y-11250000D01*
X21894000Y-11300000D01*
X21944000Y-11350000D01*
X22198000Y-11350000D02*
X22248000Y-11300000D01*
X22198000Y-11250000D01*
X22148000Y-11300000D01*
X22198000Y-11350000D01*
X22452000Y-11350000D02*
X22502000Y-11300000D01*
X22452000Y-11250000D01*
X22402000Y-11300000D01*
X22452000Y-11350000D01*
X22590000Y-17897410D02*
X22640000Y-17847410D01*
X22590000Y-17797410D01*
X22540000Y-17847410D01*
X22590000Y-17897410D01*
X22590000Y-18151410D02*
X22640000Y-18101410D01*
X22590000Y-18051410D01*
X22540000Y-18101410D01*
X22590000Y-18151410D01*
X22590000Y-18405410D02*
X22640000Y-18355410D01*
X22590000Y-18305410D01*
X22540000Y-18355410D01*
X22590000Y-18405410D01*
X26865000Y-14600000D02*
X26915000Y-14550000D01*
X26865000Y-14500000D01*
X26815000Y-14550000D01*
X26865000Y-14600000D01*
X26875000Y-12025000D02*
X26925000Y-11975000D01*
X26875000Y-11925000D01*
X26825000Y-11975000D01*
X26875000Y-12025000D01*
X26875000Y-13475000D02*
X26925000Y-13425000D01*
X26875000Y-13375000D01*
X26825000Y-13425000D01*
X26875000Y-13475000D01*
X27125000Y-12025000D02*
X27175000Y-11975000D01*
X27125000Y-11925000D01*
X27075000Y-11975000D01*
X27125000Y-12025000D01*
X27375000Y-12025000D02*
X27425000Y-11975000D01*
X27375000Y-11925000D01*
X27325000Y-11975000D01*
X27375000Y-12025000D01*
X27375000Y-13475000D02*
X27425000Y-13425000D01*
X27375000Y-13375000D01*
X27325000Y-13425000D01*
X27375000Y-13475000D01*
X27625000Y-14600000D02*
X27675000Y-14550000D01*
X27625000Y-14500000D01*
X27575000Y-14550000D01*
X27625000Y-14600000D01*
D13*
X18940000Y-12321000D02*
X19090000Y-12471000D01*
X19090000Y-12321000D02*
X18940000Y-12471000D01*
X19090000Y-12396000D02*
G75*
G02*
X18940000Y-12396000I-75000J0D01*
G01*
X18940000Y-12396000D02*
G75*
G02*
X19090000Y-12396000I75000J0D01*
G01*
X18940000Y-14250000D02*
X19090000Y-14400000D01*
X19090000Y-14250000D02*
X18940000Y-14400000D01*
X19090000Y-14325000D02*
G75*
G02*
X18940000Y-14325000I-75000J0D01*
G01*
X18940000Y-14325000D02*
G75*
G02*
X19090000Y-14325000I75000J0D01*
G01*
X19575000Y-12067000D02*
X19725000Y-12217000D01*
X19725000Y-12067000D02*
X19575000Y-12217000D01*
X19725000Y-12142000D02*
G75*
G02*
X19575000Y-12142000I-75000J0D01*
G01*
X19575000Y-12142000D02*
G75*
G02*
X19725000Y-12142000I75000J0D01*
G01*
X19575000Y-13996000D02*
X19725000Y-14146000D01*
X19725000Y-13996000D02*
X19575000Y-14146000D01*
X19725000Y-14071000D02*
G75*
G02*
X19575000Y-14071000I-75000J0D01*
G01*
X19575000Y-14071000D02*
G75*
G02*
X19725000Y-14071000I75000J0D01*
G01*
X20868330Y-14250000D02*
X21018330Y-14400000D01*
X21018330Y-14250000D02*
X20868330Y-14400000D01*
X21018330Y-14325000D02*
G75*
G02*
X20868330Y-14325000I-75000J0D01*
G01*
X20868330Y-14325000D02*
G75*
G02*
X21018330Y-14325000I75000J0D01*
G01*
X20869000Y-12321000D02*
X21019000Y-12471000D01*
X21019000Y-12321000D02*
X20869000Y-12471000D01*
X21019000Y-12396000D02*
G75*
G02*
X20869000Y-12396000I-75000J0D01*
G01*
X20869000Y-12396000D02*
G75*
G02*
X21019000Y-12396000I75000J0D01*
G01*
X21503330Y-13996000D02*
X21653330Y-14146000D01*
X21653330Y-13996000D02*
X21503330Y-14146000D01*
X21653330Y-14071000D02*
G75*
G02*
X21503330Y-14071000I-75000J0D01*
G01*
X21503330Y-14071000D02*
G75*
G02*
X21653330Y-14071000I75000J0D01*
G01*
X21504000Y-12067000D02*
X21654000Y-12217000D01*
X21654000Y-12067000D02*
X21504000Y-12217000D01*
X21654000Y-12142000D02*
G75*
G02*
X21504000Y-12142000I-75000J0D01*
G01*
X21504000Y-12142000D02*
G75*
G02*
X21654000Y-12142000I75000J0D01*
G01*
X22796670Y-14250000D02*
X22946670Y-14400000D01*
X22946670Y-14250000D02*
X22796670Y-14400000D01*
X22946670Y-14325000D02*
G75*
G02*
X22796670Y-14325000I-75000J0D01*
G01*
X22796670Y-14325000D02*
G75*
G02*
X22946670Y-14325000I75000J0D01*
G01*
X22798000Y-12321000D02*
X22948000Y-12471000D01*
X22948000Y-12321000D02*
X22798000Y-12471000D01*
X22948000Y-12396000D02*
G75*
G02*
X22798000Y-12396000I-75000J0D01*
G01*
X22798000Y-12396000D02*
G75*
G02*
X22948000Y-12396000I75000J0D01*
G01*
X23431670Y-13996000D02*
X23581670Y-14146000D01*
X23581670Y-13996000D02*
X23431670Y-14146000D01*
X23581670Y-14071000D02*
G75*
G02*
X23431670Y-14071000I-75000J0D01*
G01*
X23431670Y-14071000D02*
G75*
G02*
X23581670Y-14071000I75000J0D01*
G01*
X23433000Y-12067000D02*
X23583000Y-12217000D01*
X23583000Y-12067000D02*
X23433000Y-12217000D01*
X23583000Y-12142000D02*
G75*
G02*
X23433000Y-12142000I-75000J0D01*
G01*
X23433000Y-12142000D02*
G75*
G02*
X23583000Y-12142000I75000J0D01*
G01*
X24725000Y-14250000D02*
X24875000Y-14400000D01*
X24875000Y-14250000D02*
X24725000Y-14400000D01*
X24875000Y-14325000D02*
G75*
G02*
X24725000Y-14325000I-75000J0D01*
G01*
X24725000Y-14325000D02*
G75*
G02*
X24875000Y-14325000I75000J0D01*
G01*
X24727000Y-12321000D02*
X24877000Y-12471000D01*
X24877000Y-12321000D02*
X24727000Y-12471000D01*
X24877000Y-12396000D02*
G75*
G02*
X24727000Y-12396000I-75000J0D01*
G01*
X24727000Y-12396000D02*
G75*
G02*
X24877000Y-12396000I75000J0D01*
G01*
X25360000Y-13996000D02*
X25510000Y-14146000D01*
X25510000Y-13996000D02*
X25360000Y-14146000D01*
X25510000Y-14071000D02*
G75*
G02*
X25360000Y-14071000I-75000J0D01*
G01*
X25360000Y-14071000D02*
G75*
G02*
X25510000Y-14071000I75000J0D01*
G01*
X25362000Y-12067000D02*
X25512000Y-12217000D01*
X25512000Y-12067000D02*
X25362000Y-12217000D01*
X25512000Y-12142000D02*
G75*
G02*
X25362000Y-12142000I-75000J0D01*
G01*
X25362000Y-12142000D02*
G75*
G02*
X25512000Y-12142000I75000J0D01*
G01*
X26490000Y-12650000D02*
X26640000Y-12800000D01*
X26640000Y-12650000D02*
X26490000Y-12800000D01*
X26640000Y-12725000D02*
G75*
G02*
X26490000Y-12725000I-75000J0D01*
G01*
X26490000Y-12725000D02*
G75*
G02*
X26640000Y-12725000I75000J0D01*
G01*
D12*
X26490000Y-12660000D02*
X26490000Y-12790000D01*
X26640000Y-12790000D02*
G75*
G02*
X26490000Y-12790000I-75000J0D01*
G01*
X26640000Y-12790000D02*
X26640000Y-12660000D01*
X26640000Y-12660000D02*
G75*
G03*
X26490000Y-12660000I-75000J0D01*
G01*
D13*
X27610000Y-12650000D02*
X27760000Y-12800000D01*
X27760000Y-12650000D02*
X27610000Y-12800000D01*
X27760000Y-12725000D02*
G75*
G02*
X27610000Y-12725000I-75000J0D01*
G01*
X27610000Y-12725000D02*
G75*
G02*
X27760000Y-12725000I75000J0D01*
G01*
D12*
X27610000Y-12660000D02*
X27610000Y-12790000D01*
X27760000Y-12790000D02*
G75*
G02*
X27610000Y-12790000I-75000J0D01*
G01*
X27760000Y-12790000D02*
X27760000Y-12660000D01*
X27760000Y-12660000D02*
G75*
G03*
X27610000Y-12660000I-75000J0D01*
G01*
D11*
X18508277Y-20488984D02*
X18508277Y-20288984D01*
X18508277Y-20288984D02*
X18555896Y-20288984D01*
X18555896Y-20288984D02*
X18584467Y-20298508D01*
X18584467Y-20298508D02*
X18603515Y-20317555D01*
X18603515Y-20317555D02*
X18613039Y-20336603D01*
X18613039Y-20336603D02*
X18622563Y-20374698D01*
X18622563Y-20374698D02*
X18622563Y-20403270D01*
X18622563Y-20403270D02*
X18613039Y-20441365D01*
X18613039Y-20441365D02*
X18603515Y-20460412D01*
X18603515Y-20460412D02*
X18584467Y-20479460D01*
X18584467Y-20479460D02*
X18555896Y-20488984D01*
X18555896Y-20488984D02*
X18508277Y-20488984D01*
X18708277Y-20488984D02*
X18708277Y-20355650D01*
X18708277Y-20393746D02*
X18717801Y-20374698D01*
X18717801Y-20374698D02*
X18727324Y-20365174D01*
X18727324Y-20365174D02*
X18746372Y-20355650D01*
X18746372Y-20355650D02*
X18765420Y-20355650D01*
X18832086Y-20488984D02*
X18832086Y-20355650D01*
X18832086Y-20288984D02*
X18822563Y-20298508D01*
X18822563Y-20298508D02*
X18832086Y-20308031D01*
X18832086Y-20308031D02*
X18841610Y-20298508D01*
X18841610Y-20298508D02*
X18832086Y-20288984D01*
X18832086Y-20288984D02*
X18832086Y-20308031D01*
X18955896Y-20488984D02*
X18936848Y-20479460D01*
X18936848Y-20479460D02*
X18927324Y-20460412D01*
X18927324Y-20460412D02*
X18927324Y-20288984D01*
X19060658Y-20488984D02*
X19041610Y-20479460D01*
X19041610Y-20479460D02*
X19032086Y-20460412D01*
X19032086Y-20460412D02*
X19032086Y-20288984D01*
X19289229Y-20488984D02*
X19289229Y-20288984D01*
X19289229Y-20288984D02*
X19355896Y-20431841D01*
X19355896Y-20431841D02*
X19422563Y-20288984D01*
X19422563Y-20288984D02*
X19422563Y-20488984D01*
X19603515Y-20488984D02*
X19603515Y-20384222D01*
X19603515Y-20384222D02*
X19593991Y-20365174D01*
X19593991Y-20365174D02*
X19574944Y-20355650D01*
X19574944Y-20355650D02*
X19536848Y-20355650D01*
X19536848Y-20355650D02*
X19517801Y-20365174D01*
X19603515Y-20479460D02*
X19584467Y-20488984D01*
X19584467Y-20488984D02*
X19536848Y-20488984D01*
X19536848Y-20488984D02*
X19517801Y-20479460D01*
X19517801Y-20479460D02*
X19508277Y-20460412D01*
X19508277Y-20460412D02*
X19508277Y-20441365D01*
X19508277Y-20441365D02*
X19517801Y-20422317D01*
X19517801Y-20422317D02*
X19536848Y-20412793D01*
X19536848Y-20412793D02*
X19584467Y-20412793D01*
X19584467Y-20412793D02*
X19603515Y-20403270D01*
X19698753Y-20355650D02*
X19698753Y-20555650D01*
X19698753Y-20365174D02*
X19717801Y-20355650D01*
X19717801Y-20355650D02*
X19755896Y-20355650D01*
X19755896Y-20355650D02*
X19774944Y-20365174D01*
X19774944Y-20365174D02*
X19784467Y-20374698D01*
X19784467Y-20374698D02*
X19793991Y-20393746D01*
X19793991Y-20393746D02*
X19793991Y-20450889D01*
X19793991Y-20450889D02*
X19784467Y-20469936D01*
X19784467Y-20469936D02*
X19774944Y-20479460D01*
X19774944Y-20479460D02*
X19755896Y-20488984D01*
X19755896Y-20488984D02*
X19717801Y-20488984D01*
X19717801Y-20488984D02*
X19698753Y-20479460D01*
X19879705Y-20469936D02*
X19889229Y-20479460D01*
X19889229Y-20479460D02*
X19879705Y-20488984D01*
X19879705Y-20488984D02*
X19870182Y-20479460D01*
X19870182Y-20479460D02*
X19879705Y-20469936D01*
X19879705Y-20469936D02*
X19879705Y-20488984D01*
X19879705Y-20365174D02*
X19889229Y-20374698D01*
X19889229Y-20374698D02*
X19879705Y-20384222D01*
X19879705Y-20384222D02*
X19870182Y-20374698D01*
X19870182Y-20374698D02*
X19879705Y-20365174D01*
X19879705Y-20365174D02*
X19879705Y-20384222D01*
D12*
X18217500Y-20802500D02*
X18247500Y-20832500D01*
X18247500Y-20802500D02*
X18217500Y-20832500D01*
D11*
X18546372Y-20708984D02*
X18565420Y-20708984D01*
X18565420Y-20708984D02*
X18584467Y-20718508D01*
X18584467Y-20718508D02*
X18593991Y-20728031D01*
X18593991Y-20728031D02*
X18603515Y-20747079D01*
X18603515Y-20747079D02*
X18613039Y-20785174D01*
X18613039Y-20785174D02*
X18613039Y-20832793D01*
X18613039Y-20832793D02*
X18603515Y-20870889D01*
X18603515Y-20870889D02*
X18593991Y-20889936D01*
X18593991Y-20889936D02*
X18584467Y-20899460D01*
X18584467Y-20899460D02*
X18565420Y-20908984D01*
X18565420Y-20908984D02*
X18546372Y-20908984D01*
X18546372Y-20908984D02*
X18527324Y-20899460D01*
X18527324Y-20899460D02*
X18517801Y-20889936D01*
X18517801Y-20889936D02*
X18508277Y-20870889D01*
X18508277Y-20870889D02*
X18498753Y-20832793D01*
X18498753Y-20832793D02*
X18498753Y-20785174D01*
X18498753Y-20785174D02*
X18508277Y-20747079D01*
X18508277Y-20747079D02*
X18517801Y-20728031D01*
X18517801Y-20728031D02*
X18527324Y-20718508D01*
X18527324Y-20718508D02*
X18546372Y-20708984D01*
X18698753Y-20889936D02*
X18708277Y-20899460D01*
X18708277Y-20899460D02*
X18698753Y-20908984D01*
X18698753Y-20908984D02*
X18689229Y-20899460D01*
X18689229Y-20899460D02*
X18698753Y-20889936D01*
X18698753Y-20889936D02*
X18698753Y-20908984D01*
X18774944Y-20708984D02*
X18898753Y-20708984D01*
X18898753Y-20708984D02*
X18832086Y-20785174D01*
X18832086Y-20785174D02*
X18860658Y-20785174D01*
X18860658Y-20785174D02*
X18879705Y-20794698D01*
X18879705Y-20794698D02*
X18889229Y-20804222D01*
X18889229Y-20804222D02*
X18898753Y-20823270D01*
X18898753Y-20823270D02*
X18898753Y-20870889D01*
X18898753Y-20870889D02*
X18889229Y-20889936D01*
X18889229Y-20889936D02*
X18879705Y-20899460D01*
X18879705Y-20899460D02*
X18860658Y-20908984D01*
X18860658Y-20908984D02*
X18803515Y-20908984D01*
X18803515Y-20908984D02*
X18784467Y-20899460D01*
X18784467Y-20899460D02*
X18774944Y-20889936D01*
X19022563Y-20708984D02*
X19041610Y-20708984D01*
X19041610Y-20708984D02*
X19060658Y-20718508D01*
X19060658Y-20718508D02*
X19070182Y-20728031D01*
X19070182Y-20728031D02*
X19079705Y-20747079D01*
X19079705Y-20747079D02*
X19089229Y-20785174D01*
X19089229Y-20785174D02*
X19089229Y-20832793D01*
X19089229Y-20832793D02*
X19079705Y-20870889D01*
X19079705Y-20870889D02*
X19070182Y-20889936D01*
X19070182Y-20889936D02*
X19060658Y-20899460D01*
X19060658Y-20899460D02*
X19041610Y-20908984D01*
X19041610Y-20908984D02*
X19022563Y-20908984D01*
X19022563Y-20908984D02*
X19003515Y-20899460D01*
X19003515Y-20899460D02*
X18993991Y-20889936D01*
X18993991Y-20889936D02*
X18984467Y-20870889D01*
X18984467Y-20870889D02*
X18974944Y-20832793D01*
X18974944Y-20832793D02*
X18974944Y-20785174D01*
X18974944Y-20785174D02*
X18984467Y-20747079D01*
X18984467Y-20747079D02*
X18993991Y-20728031D01*
X18993991Y-20728031D02*
X19003515Y-20718508D01*
X19003515Y-20718508D02*
X19022563Y-20708984D01*
X19213039Y-20708984D02*
X19232086Y-20708984D01*
X19232086Y-20708984D02*
X19251134Y-20718508D01*
X19251134Y-20718508D02*
X19260658Y-20728031D01*
X19260658Y-20728031D02*
X19270182Y-20747079D01*
X19270182Y-20747079D02*
X19279705Y-20785174D01*
X19279705Y-20785174D02*
X19279705Y-20832793D01*
X19279705Y-20832793D02*
X19270182Y-20870889D01*
X19270182Y-20870889D02*
X19260658Y-20889936D01*
X19260658Y-20889936D02*
X19251134Y-20899460D01*
X19251134Y-20899460D02*
X19232086Y-20908984D01*
X19232086Y-20908984D02*
X19213039Y-20908984D01*
X19213039Y-20908984D02*
X19193991Y-20899460D01*
X19193991Y-20899460D02*
X19184467Y-20889936D01*
X19184467Y-20889936D02*
X19174944Y-20870889D01*
X19174944Y-20870889D02*
X19165420Y-20832793D01*
X19165420Y-20832793D02*
X19165420Y-20785174D01*
X19165420Y-20785174D02*
X19174944Y-20747079D01*
X19174944Y-20747079D02*
X19184467Y-20728031D01*
X19184467Y-20728031D02*
X19193991Y-20718508D01*
X19193991Y-20718508D02*
X19213039Y-20708984D01*
X19365420Y-20908984D02*
X19365420Y-20775650D01*
X19365420Y-20794698D02*
X19374944Y-20785174D01*
X19374944Y-20785174D02*
X19393991Y-20775650D01*
X19393991Y-20775650D02*
X19422563Y-20775650D01*
X19422563Y-20775650D02*
X19441610Y-20785174D01*
X19441610Y-20785174D02*
X19451134Y-20804222D01*
X19451134Y-20804222D02*
X19451134Y-20908984D01*
X19451134Y-20804222D02*
X19460658Y-20785174D01*
X19460658Y-20785174D02*
X19479705Y-20775650D01*
X19479705Y-20775650D02*
X19508277Y-20775650D01*
X19508277Y-20775650D02*
X19527325Y-20785174D01*
X19527325Y-20785174D02*
X19536848Y-20804222D01*
X19536848Y-20804222D02*
X19536848Y-20908984D01*
X19632086Y-20908984D02*
X19632086Y-20775650D01*
X19632086Y-20794698D02*
X19641610Y-20785174D01*
X19641610Y-20785174D02*
X19660658Y-20775650D01*
X19660658Y-20775650D02*
X19689229Y-20775650D01*
X19689229Y-20775650D02*
X19708277Y-20785174D01*
X19708277Y-20785174D02*
X19717801Y-20804222D01*
X19717801Y-20804222D02*
X19717801Y-20908984D01*
X19717801Y-20804222D02*
X19727325Y-20785174D01*
X19727325Y-20785174D02*
X19746372Y-20775650D01*
X19746372Y-20775650D02*
X19774944Y-20775650D01*
X19774944Y-20775650D02*
X19793991Y-20785174D01*
X19793991Y-20785174D02*
X19803515Y-20804222D01*
X19803515Y-20804222D02*
X19803515Y-20908984D01*
X20193991Y-20699460D02*
X20022563Y-20956603D01*
X20451134Y-20708984D02*
X20470182Y-20708984D01*
X20470182Y-20708984D02*
X20489229Y-20718508D01*
X20489229Y-20718508D02*
X20498753Y-20728031D01*
X20498753Y-20728031D02*
X20508277Y-20747079D01*
X20508277Y-20747079D02*
X20517801Y-20785174D01*
X20517801Y-20785174D02*
X20517801Y-20832793D01*
X20517801Y-20832793D02*
X20508277Y-20870889D01*
X20508277Y-20870889D02*
X20498753Y-20889936D01*
X20498753Y-20889936D02*
X20489229Y-20899460D01*
X20489229Y-20899460D02*
X20470182Y-20908984D01*
X20470182Y-20908984D02*
X20451134Y-20908984D01*
X20451134Y-20908984D02*
X20432087Y-20899460D01*
X20432087Y-20899460D02*
X20422563Y-20889936D01*
X20422563Y-20889936D02*
X20413039Y-20870889D01*
X20413039Y-20870889D02*
X20403515Y-20832793D01*
X20403515Y-20832793D02*
X20403515Y-20785174D01*
X20403515Y-20785174D02*
X20413039Y-20747079D01*
X20413039Y-20747079D02*
X20422563Y-20728031D01*
X20422563Y-20728031D02*
X20432087Y-20718508D01*
X20432087Y-20718508D02*
X20451134Y-20708984D01*
X20603515Y-20889936D02*
X20613039Y-20899460D01*
X20613039Y-20899460D02*
X20603515Y-20908984D01*
X20603515Y-20908984D02*
X20593991Y-20899460D01*
X20593991Y-20899460D02*
X20603515Y-20889936D01*
X20603515Y-20889936D02*
X20603515Y-20908984D01*
X20736848Y-20708984D02*
X20755896Y-20708984D01*
X20755896Y-20708984D02*
X20774944Y-20718508D01*
X20774944Y-20718508D02*
X20784468Y-20728031D01*
X20784468Y-20728031D02*
X20793991Y-20747079D01*
X20793991Y-20747079D02*
X20803515Y-20785174D01*
X20803515Y-20785174D02*
X20803515Y-20832793D01*
X20803515Y-20832793D02*
X20793991Y-20870889D01*
X20793991Y-20870889D02*
X20784468Y-20889936D01*
X20784468Y-20889936D02*
X20774944Y-20899460D01*
X20774944Y-20899460D02*
X20755896Y-20908984D01*
X20755896Y-20908984D02*
X20736848Y-20908984D01*
X20736848Y-20908984D02*
X20717801Y-20899460D01*
X20717801Y-20899460D02*
X20708277Y-20889936D01*
X20708277Y-20889936D02*
X20698753Y-20870889D01*
X20698753Y-20870889D02*
X20689229Y-20832793D01*
X20689229Y-20832793D02*
X20689229Y-20785174D01*
X20689229Y-20785174D02*
X20698753Y-20747079D01*
X20698753Y-20747079D02*
X20708277Y-20728031D01*
X20708277Y-20728031D02*
X20717801Y-20718508D01*
X20717801Y-20718508D02*
X20736848Y-20708984D01*
X20993991Y-20908984D02*
X20879706Y-20908984D01*
X20936848Y-20908984D02*
X20936848Y-20708984D01*
X20936848Y-20708984D02*
X20917801Y-20737555D01*
X20917801Y-20737555D02*
X20898753Y-20756603D01*
X20898753Y-20756603D02*
X20879706Y-20766127D01*
X21184468Y-20908984D02*
X21070182Y-20908984D01*
X21127325Y-20908984D02*
X21127325Y-20708984D01*
X21127325Y-20708984D02*
X21108277Y-20737555D01*
X21108277Y-20737555D02*
X21089229Y-20756603D01*
X21089229Y-20756603D02*
X21070182Y-20766127D01*
X21298753Y-20794698D02*
X21279706Y-20785174D01*
X21279706Y-20785174D02*
X21270182Y-20775650D01*
X21270182Y-20775650D02*
X21260658Y-20756603D01*
X21260658Y-20756603D02*
X21260658Y-20747079D01*
X21260658Y-20747079D02*
X21270182Y-20728031D01*
X21270182Y-20728031D02*
X21279706Y-20718508D01*
X21279706Y-20718508D02*
X21298753Y-20708984D01*
X21298753Y-20708984D02*
X21336849Y-20708984D01*
X21336849Y-20708984D02*
X21355896Y-20718508D01*
X21355896Y-20718508D02*
X21365420Y-20728031D01*
X21365420Y-20728031D02*
X21374944Y-20747079D01*
X21374944Y-20747079D02*
X21374944Y-20756603D01*
X21374944Y-20756603D02*
X21365420Y-20775650D01*
X21365420Y-20775650D02*
X21355896Y-20785174D01*
X21355896Y-20785174D02*
X21336849Y-20794698D01*
X21336849Y-20794698D02*
X21298753Y-20794698D01*
X21298753Y-20794698D02*
X21279706Y-20804222D01*
X21279706Y-20804222D02*
X21270182Y-20813746D01*
X21270182Y-20813746D02*
X21260658Y-20832793D01*
X21260658Y-20832793D02*
X21260658Y-20870889D01*
X21260658Y-20870889D02*
X21270182Y-20889936D01*
X21270182Y-20889936D02*
X21279706Y-20899460D01*
X21279706Y-20899460D02*
X21298753Y-20908984D01*
X21298753Y-20908984D02*
X21336849Y-20908984D01*
X21336849Y-20908984D02*
X21355896Y-20899460D01*
X21355896Y-20899460D02*
X21365420Y-20889936D01*
X21365420Y-20889936D02*
X21374944Y-20870889D01*
X21374944Y-20870889D02*
X21374944Y-20832793D01*
X21374944Y-20832793D02*
X21365420Y-20813746D01*
X21365420Y-20813746D02*
X21355896Y-20804222D01*
X21355896Y-20804222D02*
X21336849Y-20794698D01*
X21451134Y-20708984D02*
X21451134Y-20747079D01*
X21527325Y-20708984D02*
X21527325Y-20747079D01*
X21822563Y-20985174D02*
X21813039Y-20975650D01*
X21813039Y-20975650D02*
X21793991Y-20947079D01*
X21793991Y-20947079D02*
X21784468Y-20928031D01*
X21784468Y-20928031D02*
X21774944Y-20899460D01*
X21774944Y-20899460D02*
X21765420Y-20851841D01*
X21765420Y-20851841D02*
X21765420Y-20813746D01*
X21765420Y-20813746D02*
X21774944Y-20766127D01*
X21774944Y-20766127D02*
X21784468Y-20737555D01*
X21784468Y-20737555D02*
X21793991Y-20718508D01*
X21793991Y-20718508D02*
X21813039Y-20689936D01*
X21813039Y-20689936D02*
X21822563Y-20680412D01*
X21984468Y-20708984D02*
X21946372Y-20708984D01*
X21946372Y-20708984D02*
X21927325Y-20718508D01*
X21927325Y-20718508D02*
X21917801Y-20728031D01*
X21917801Y-20728031D02*
X21898753Y-20756603D01*
X21898753Y-20756603D02*
X21889230Y-20794698D01*
X21889230Y-20794698D02*
X21889230Y-20870889D01*
X21889230Y-20870889D02*
X21898753Y-20889936D01*
X21898753Y-20889936D02*
X21908277Y-20899460D01*
X21908277Y-20899460D02*
X21927325Y-20908984D01*
X21927325Y-20908984D02*
X21965420Y-20908984D01*
X21965420Y-20908984D02*
X21984468Y-20899460D01*
X21984468Y-20899460D02*
X21993991Y-20889936D01*
X21993991Y-20889936D02*
X22003515Y-20870889D01*
X22003515Y-20870889D02*
X22003515Y-20823270D01*
X22003515Y-20823270D02*
X21993991Y-20804222D01*
X21993991Y-20804222D02*
X21984468Y-20794698D01*
X21984468Y-20794698D02*
X21965420Y-20785174D01*
X21965420Y-20785174D02*
X21927325Y-20785174D01*
X21927325Y-20785174D02*
X21908277Y-20794698D01*
X21908277Y-20794698D02*
X21898753Y-20804222D01*
X21898753Y-20804222D02*
X21889230Y-20823270D01*
X22241611Y-20908984D02*
X22241611Y-20708984D01*
X22327325Y-20908984D02*
X22327325Y-20804222D01*
X22327325Y-20804222D02*
X22317801Y-20785174D01*
X22317801Y-20785174D02*
X22298753Y-20775650D01*
X22298753Y-20775650D02*
X22270182Y-20775650D01*
X22270182Y-20775650D02*
X22251134Y-20785174D01*
X22251134Y-20785174D02*
X22241611Y-20794698D01*
X22451134Y-20908984D02*
X22432087Y-20899460D01*
X22432087Y-20899460D02*
X22422563Y-20889936D01*
X22422563Y-20889936D02*
X22413039Y-20870889D01*
X22413039Y-20870889D02*
X22413039Y-20813746D01*
X22413039Y-20813746D02*
X22422563Y-20794698D01*
X22422563Y-20794698D02*
X22432087Y-20785174D01*
X22432087Y-20785174D02*
X22451134Y-20775650D01*
X22451134Y-20775650D02*
X22479706Y-20775650D01*
X22479706Y-20775650D02*
X22498753Y-20785174D01*
X22498753Y-20785174D02*
X22508277Y-20794698D01*
X22508277Y-20794698D02*
X22517801Y-20813746D01*
X22517801Y-20813746D02*
X22517801Y-20870889D01*
X22517801Y-20870889D02*
X22508277Y-20889936D01*
X22508277Y-20889936D02*
X22498753Y-20899460D01*
X22498753Y-20899460D02*
X22479706Y-20908984D01*
X22479706Y-20908984D02*
X22451134Y-20908984D01*
X22632087Y-20908984D02*
X22613039Y-20899460D01*
X22613039Y-20899460D02*
X22603515Y-20880412D01*
X22603515Y-20880412D02*
X22603515Y-20708984D01*
X22784468Y-20899460D02*
X22765420Y-20908984D01*
X22765420Y-20908984D02*
X22727325Y-20908984D01*
X22727325Y-20908984D02*
X22708277Y-20899460D01*
X22708277Y-20899460D02*
X22698753Y-20880412D01*
X22698753Y-20880412D02*
X22698753Y-20804222D01*
X22698753Y-20804222D02*
X22708277Y-20785174D01*
X22708277Y-20785174D02*
X22727325Y-20775650D01*
X22727325Y-20775650D02*
X22765420Y-20775650D01*
X22765420Y-20775650D02*
X22784468Y-20785174D01*
X22784468Y-20785174D02*
X22793991Y-20804222D01*
X22793991Y-20804222D02*
X22793991Y-20823270D01*
X22793991Y-20823270D02*
X22698753Y-20842317D01*
X22870182Y-20899460D02*
X22889230Y-20908984D01*
X22889230Y-20908984D02*
X22927325Y-20908984D01*
X22927325Y-20908984D02*
X22946372Y-20899460D01*
X22946372Y-20899460D02*
X22955896Y-20880412D01*
X22955896Y-20880412D02*
X22955896Y-20870889D01*
X22955896Y-20870889D02*
X22946372Y-20851841D01*
X22946372Y-20851841D02*
X22927325Y-20842317D01*
X22927325Y-20842317D02*
X22898753Y-20842317D01*
X22898753Y-20842317D02*
X22879706Y-20832793D01*
X22879706Y-20832793D02*
X22870182Y-20813746D01*
X22870182Y-20813746D02*
X22870182Y-20804222D01*
X22870182Y-20804222D02*
X22879706Y-20785174D01*
X22879706Y-20785174D02*
X22898753Y-20775650D01*
X22898753Y-20775650D02*
X22927325Y-20775650D01*
X22927325Y-20775650D02*
X22946372Y-20785174D01*
X23022563Y-20985174D02*
X23032087Y-20975650D01*
X23032087Y-20975650D02*
X23051134Y-20947079D01*
X23051134Y-20947079D02*
X23060658Y-20928031D01*
X23060658Y-20928031D02*
X23070182Y-20899460D01*
X23070182Y-20899460D02*
X23079706Y-20851841D01*
X23079706Y-20851841D02*
X23079706Y-20813746D01*
X23079706Y-20813746D02*
X23070182Y-20766127D01*
X23070182Y-20766127D02*
X23060658Y-20737555D01*
X23060658Y-20737555D02*
X23051134Y-20718508D01*
X23051134Y-20718508D02*
X23032087Y-20689936D01*
X23032087Y-20689936D02*
X23022563Y-20680412D01*
D12*
X18247500Y-21081500D02*
G75*
G02*
X18187500Y-21081500I-30000J0D01*
G01*
X18187500Y-21081500D02*
G75*
G02*
X18247500Y-21081500I30000J0D01*
G01*
D11*
X18546372Y-20972984D02*
X18565420Y-20972984D01*
X18565420Y-20972984D02*
X18584467Y-20982508D01*
X18584467Y-20982508D02*
X18593991Y-20992031D01*
X18593991Y-20992031D02*
X18603515Y-21011079D01*
X18603515Y-21011079D02*
X18613039Y-21049174D01*
X18613039Y-21049174D02*
X18613039Y-21096793D01*
X18613039Y-21096793D02*
X18603515Y-21134889D01*
X18603515Y-21134889D02*
X18593991Y-21153936D01*
X18593991Y-21153936D02*
X18584467Y-21163460D01*
X18584467Y-21163460D02*
X18565420Y-21172984D01*
X18565420Y-21172984D02*
X18546372Y-21172984D01*
X18546372Y-21172984D02*
X18527324Y-21163460D01*
X18527324Y-21163460D02*
X18517801Y-21153936D01*
X18517801Y-21153936D02*
X18508277Y-21134889D01*
X18508277Y-21134889D02*
X18498753Y-21096793D01*
X18498753Y-21096793D02*
X18498753Y-21049174D01*
X18498753Y-21049174D02*
X18508277Y-21011079D01*
X18508277Y-21011079D02*
X18517801Y-20992031D01*
X18517801Y-20992031D02*
X18527324Y-20982508D01*
X18527324Y-20982508D02*
X18546372Y-20972984D01*
X18698753Y-21153936D02*
X18708277Y-21163460D01*
X18708277Y-21163460D02*
X18698753Y-21172984D01*
X18698753Y-21172984D02*
X18689229Y-21163460D01*
X18689229Y-21163460D02*
X18698753Y-21153936D01*
X18698753Y-21153936D02*
X18698753Y-21172984D01*
X18879705Y-20972984D02*
X18841610Y-20972984D01*
X18841610Y-20972984D02*
X18822563Y-20982508D01*
X18822563Y-20982508D02*
X18813039Y-20992031D01*
X18813039Y-20992031D02*
X18793991Y-21020603D01*
X18793991Y-21020603D02*
X18784467Y-21058698D01*
X18784467Y-21058698D02*
X18784467Y-21134889D01*
X18784467Y-21134889D02*
X18793991Y-21153936D01*
X18793991Y-21153936D02*
X18803515Y-21163460D01*
X18803515Y-21163460D02*
X18822563Y-21172984D01*
X18822563Y-21172984D02*
X18860658Y-21172984D01*
X18860658Y-21172984D02*
X18879705Y-21163460D01*
X18879705Y-21163460D02*
X18889229Y-21153936D01*
X18889229Y-21153936D02*
X18898753Y-21134889D01*
X18898753Y-21134889D02*
X18898753Y-21087270D01*
X18898753Y-21087270D02*
X18889229Y-21068222D01*
X18889229Y-21068222D02*
X18879705Y-21058698D01*
X18879705Y-21058698D02*
X18860658Y-21049174D01*
X18860658Y-21049174D02*
X18822563Y-21049174D01*
X18822563Y-21049174D02*
X18803515Y-21058698D01*
X18803515Y-21058698D02*
X18793991Y-21068222D01*
X18793991Y-21068222D02*
X18784467Y-21087270D01*
X19022563Y-20972984D02*
X19041610Y-20972984D01*
X19041610Y-20972984D02*
X19060658Y-20982508D01*
X19060658Y-20982508D02*
X19070182Y-20992031D01*
X19070182Y-20992031D02*
X19079705Y-21011079D01*
X19079705Y-21011079D02*
X19089229Y-21049174D01*
X19089229Y-21049174D02*
X19089229Y-21096793D01*
X19089229Y-21096793D02*
X19079705Y-21134889D01*
X19079705Y-21134889D02*
X19070182Y-21153936D01*
X19070182Y-21153936D02*
X19060658Y-21163460D01*
X19060658Y-21163460D02*
X19041610Y-21172984D01*
X19041610Y-21172984D02*
X19022563Y-21172984D01*
X19022563Y-21172984D02*
X19003515Y-21163460D01*
X19003515Y-21163460D02*
X18993991Y-21153936D01*
X18993991Y-21153936D02*
X18984467Y-21134889D01*
X18984467Y-21134889D02*
X18974944Y-21096793D01*
X18974944Y-21096793D02*
X18974944Y-21049174D01*
X18974944Y-21049174D02*
X18984467Y-21011079D01*
X18984467Y-21011079D02*
X18993991Y-20992031D01*
X18993991Y-20992031D02*
X19003515Y-20982508D01*
X19003515Y-20982508D02*
X19022563Y-20972984D01*
X19213039Y-20972984D02*
X19232086Y-20972984D01*
X19232086Y-20972984D02*
X19251134Y-20982508D01*
X19251134Y-20982508D02*
X19260658Y-20992031D01*
X19260658Y-20992031D02*
X19270182Y-21011079D01*
X19270182Y-21011079D02*
X19279705Y-21049174D01*
X19279705Y-21049174D02*
X19279705Y-21096793D01*
X19279705Y-21096793D02*
X19270182Y-21134889D01*
X19270182Y-21134889D02*
X19260658Y-21153936D01*
X19260658Y-21153936D02*
X19251134Y-21163460D01*
X19251134Y-21163460D02*
X19232086Y-21172984D01*
X19232086Y-21172984D02*
X19213039Y-21172984D01*
X19213039Y-21172984D02*
X19193991Y-21163460D01*
X19193991Y-21163460D02*
X19184467Y-21153936D01*
X19184467Y-21153936D02*
X19174944Y-21134889D01*
X19174944Y-21134889D02*
X19165420Y-21096793D01*
X19165420Y-21096793D02*
X19165420Y-21049174D01*
X19165420Y-21049174D02*
X19174944Y-21011079D01*
X19174944Y-21011079D02*
X19184467Y-20992031D01*
X19184467Y-20992031D02*
X19193991Y-20982508D01*
X19193991Y-20982508D02*
X19213039Y-20972984D01*
X19365420Y-21172984D02*
X19365420Y-21039650D01*
X19365420Y-21058698D02*
X19374944Y-21049174D01*
X19374944Y-21049174D02*
X19393991Y-21039650D01*
X19393991Y-21039650D02*
X19422563Y-21039650D01*
X19422563Y-21039650D02*
X19441610Y-21049174D01*
X19441610Y-21049174D02*
X19451134Y-21068222D01*
X19451134Y-21068222D02*
X19451134Y-21172984D01*
X19451134Y-21068222D02*
X19460658Y-21049174D01*
X19460658Y-21049174D02*
X19479705Y-21039650D01*
X19479705Y-21039650D02*
X19508277Y-21039650D01*
X19508277Y-21039650D02*
X19527325Y-21049174D01*
X19527325Y-21049174D02*
X19536848Y-21068222D01*
X19536848Y-21068222D02*
X19536848Y-21172984D01*
X19632086Y-21172984D02*
X19632086Y-21039650D01*
X19632086Y-21058698D02*
X19641610Y-21049174D01*
X19641610Y-21049174D02*
X19660658Y-21039650D01*
X19660658Y-21039650D02*
X19689229Y-21039650D01*
X19689229Y-21039650D02*
X19708277Y-21049174D01*
X19708277Y-21049174D02*
X19717801Y-21068222D01*
X19717801Y-21068222D02*
X19717801Y-21172984D01*
X19717801Y-21068222D02*
X19727325Y-21049174D01*
X19727325Y-21049174D02*
X19746372Y-21039650D01*
X19746372Y-21039650D02*
X19774944Y-21039650D01*
X19774944Y-21039650D02*
X19793991Y-21049174D01*
X19793991Y-21049174D02*
X19803515Y-21068222D01*
X19803515Y-21068222D02*
X19803515Y-21172984D01*
X20193991Y-20963460D02*
X20022563Y-21220603D01*
X20451134Y-20972984D02*
X20470182Y-20972984D01*
X20470182Y-20972984D02*
X20489229Y-20982508D01*
X20489229Y-20982508D02*
X20498753Y-20992031D01*
X20498753Y-20992031D02*
X20508277Y-21011079D01*
X20508277Y-21011079D02*
X20517801Y-21049174D01*
X20517801Y-21049174D02*
X20517801Y-21096793D01*
X20517801Y-21096793D02*
X20508277Y-21134889D01*
X20508277Y-21134889D02*
X20498753Y-21153936D01*
X20498753Y-21153936D02*
X20489229Y-21163460D01*
X20489229Y-21163460D02*
X20470182Y-21172984D01*
X20470182Y-21172984D02*
X20451134Y-21172984D01*
X20451134Y-21172984D02*
X20432087Y-21163460D01*
X20432087Y-21163460D02*
X20422563Y-21153936D01*
X20422563Y-21153936D02*
X20413039Y-21134889D01*
X20413039Y-21134889D02*
X20403515Y-21096793D01*
X20403515Y-21096793D02*
X20403515Y-21049174D01*
X20403515Y-21049174D02*
X20413039Y-21011079D01*
X20413039Y-21011079D02*
X20422563Y-20992031D01*
X20422563Y-20992031D02*
X20432087Y-20982508D01*
X20432087Y-20982508D02*
X20451134Y-20972984D01*
X20603515Y-21153936D02*
X20613039Y-21163460D01*
X20613039Y-21163460D02*
X20603515Y-21172984D01*
X20603515Y-21172984D02*
X20593991Y-21163460D01*
X20593991Y-21163460D02*
X20603515Y-21153936D01*
X20603515Y-21153936D02*
X20603515Y-21172984D01*
X20736848Y-20972984D02*
X20755896Y-20972984D01*
X20755896Y-20972984D02*
X20774944Y-20982508D01*
X20774944Y-20982508D02*
X20784468Y-20992031D01*
X20784468Y-20992031D02*
X20793991Y-21011079D01*
X20793991Y-21011079D02*
X20803515Y-21049174D01*
X20803515Y-21049174D02*
X20803515Y-21096793D01*
X20803515Y-21096793D02*
X20793991Y-21134889D01*
X20793991Y-21134889D02*
X20784468Y-21153936D01*
X20784468Y-21153936D02*
X20774944Y-21163460D01*
X20774944Y-21163460D02*
X20755896Y-21172984D01*
X20755896Y-21172984D02*
X20736848Y-21172984D01*
X20736848Y-21172984D02*
X20717801Y-21163460D01*
X20717801Y-21163460D02*
X20708277Y-21153936D01*
X20708277Y-21153936D02*
X20698753Y-21134889D01*
X20698753Y-21134889D02*
X20689229Y-21096793D01*
X20689229Y-21096793D02*
X20689229Y-21049174D01*
X20689229Y-21049174D02*
X20698753Y-21011079D01*
X20698753Y-21011079D02*
X20708277Y-20992031D01*
X20708277Y-20992031D02*
X20717801Y-20982508D01*
X20717801Y-20982508D02*
X20736848Y-20972984D01*
X20879706Y-20992031D02*
X20889229Y-20982508D01*
X20889229Y-20982508D02*
X20908277Y-20972984D01*
X20908277Y-20972984D02*
X20955896Y-20972984D01*
X20955896Y-20972984D02*
X20974944Y-20982508D01*
X20974944Y-20982508D02*
X20984468Y-20992031D01*
X20984468Y-20992031D02*
X20993991Y-21011079D01*
X20993991Y-21011079D02*
X20993991Y-21030127D01*
X20993991Y-21030127D02*
X20984468Y-21058698D01*
X20984468Y-21058698D02*
X20870182Y-21172984D01*
X20870182Y-21172984D02*
X20993991Y-21172984D01*
X21060658Y-20972984D02*
X21184468Y-20972984D01*
X21184468Y-20972984D02*
X21117801Y-21049174D01*
X21117801Y-21049174D02*
X21146372Y-21049174D01*
X21146372Y-21049174D02*
X21165420Y-21058698D01*
X21165420Y-21058698D02*
X21174944Y-21068222D01*
X21174944Y-21068222D02*
X21184468Y-21087270D01*
X21184468Y-21087270D02*
X21184468Y-21134889D01*
X21184468Y-21134889D02*
X21174944Y-21153936D01*
X21174944Y-21153936D02*
X21165420Y-21163460D01*
X21165420Y-21163460D02*
X21146372Y-21172984D01*
X21146372Y-21172984D02*
X21089229Y-21172984D01*
X21089229Y-21172984D02*
X21070182Y-21163460D01*
X21070182Y-21163460D02*
X21060658Y-21153936D01*
X21355896Y-20972984D02*
X21317801Y-20972984D01*
X21317801Y-20972984D02*
X21298753Y-20982508D01*
X21298753Y-20982508D02*
X21289229Y-20992031D01*
X21289229Y-20992031D02*
X21270182Y-21020603D01*
X21270182Y-21020603D02*
X21260658Y-21058698D01*
X21260658Y-21058698D02*
X21260658Y-21134889D01*
X21260658Y-21134889D02*
X21270182Y-21153936D01*
X21270182Y-21153936D02*
X21279706Y-21163460D01*
X21279706Y-21163460D02*
X21298753Y-21172984D01*
X21298753Y-21172984D02*
X21336849Y-21172984D01*
X21336849Y-21172984D02*
X21355896Y-21163460D01*
X21355896Y-21163460D02*
X21365420Y-21153936D01*
X21365420Y-21153936D02*
X21374944Y-21134889D01*
X21374944Y-21134889D02*
X21374944Y-21087270D01*
X21374944Y-21087270D02*
X21365420Y-21068222D01*
X21365420Y-21068222D02*
X21355896Y-21058698D01*
X21355896Y-21058698D02*
X21336849Y-21049174D01*
X21336849Y-21049174D02*
X21298753Y-21049174D01*
X21298753Y-21049174D02*
X21279706Y-21058698D01*
X21279706Y-21058698D02*
X21270182Y-21068222D01*
X21270182Y-21068222D02*
X21260658Y-21087270D01*
X21451134Y-20972984D02*
X21451134Y-21011079D01*
X21527325Y-20972984D02*
X21527325Y-21011079D01*
X21822563Y-21249174D02*
X21813039Y-21239650D01*
X21813039Y-21239650D02*
X21793991Y-21211079D01*
X21793991Y-21211079D02*
X21784468Y-21192031D01*
X21784468Y-21192031D02*
X21774944Y-21163460D01*
X21774944Y-21163460D02*
X21765420Y-21115841D01*
X21765420Y-21115841D02*
X21765420Y-21077746D01*
X21765420Y-21077746D02*
X21774944Y-21030127D01*
X21774944Y-21030127D02*
X21784468Y-21001555D01*
X21784468Y-21001555D02*
X21793991Y-20982508D01*
X21793991Y-20982508D02*
X21813039Y-20953936D01*
X21813039Y-20953936D02*
X21822563Y-20944412D01*
X21993991Y-20972984D02*
X21898753Y-20972984D01*
X21898753Y-20972984D02*
X21889230Y-21068222D01*
X21889230Y-21068222D02*
X21898753Y-21058698D01*
X21898753Y-21058698D02*
X21917801Y-21049174D01*
X21917801Y-21049174D02*
X21965420Y-21049174D01*
X21965420Y-21049174D02*
X21984468Y-21058698D01*
X21984468Y-21058698D02*
X21993991Y-21068222D01*
X21993991Y-21068222D02*
X22003515Y-21087270D01*
X22003515Y-21087270D02*
X22003515Y-21134889D01*
X22003515Y-21134889D02*
X21993991Y-21153936D01*
X21993991Y-21153936D02*
X21984468Y-21163460D01*
X21984468Y-21163460D02*
X21965420Y-21172984D01*
X21965420Y-21172984D02*
X21917801Y-21172984D01*
X21917801Y-21172984D02*
X21898753Y-21163460D01*
X21898753Y-21163460D02*
X21889230Y-21153936D01*
X22117801Y-21058698D02*
X22098753Y-21049174D01*
X22098753Y-21049174D02*
X22089230Y-21039650D01*
X22089230Y-21039650D02*
X22079706Y-21020603D01*
X22079706Y-21020603D02*
X22079706Y-21011079D01*
X22079706Y-21011079D02*
X22089230Y-20992031D01*
X22089230Y-20992031D02*
X22098753Y-20982508D01*
X22098753Y-20982508D02*
X22117801Y-20972984D01*
X22117801Y-20972984D02*
X22155896Y-20972984D01*
X22155896Y-20972984D02*
X22174944Y-20982508D01*
X22174944Y-20982508D02*
X22184468Y-20992031D01*
X22184468Y-20992031D02*
X22193991Y-21011079D01*
X22193991Y-21011079D02*
X22193991Y-21020603D01*
X22193991Y-21020603D02*
X22184468Y-21039650D01*
X22184468Y-21039650D02*
X22174944Y-21049174D01*
X22174944Y-21049174D02*
X22155896Y-21058698D01*
X22155896Y-21058698D02*
X22117801Y-21058698D01*
X22117801Y-21058698D02*
X22098753Y-21068222D01*
X22098753Y-21068222D02*
X22089230Y-21077746D01*
X22089230Y-21077746D02*
X22079706Y-21096793D01*
X22079706Y-21096793D02*
X22079706Y-21134889D01*
X22079706Y-21134889D02*
X22089230Y-21153936D01*
X22089230Y-21153936D02*
X22098753Y-21163460D01*
X22098753Y-21163460D02*
X22117801Y-21172984D01*
X22117801Y-21172984D02*
X22155896Y-21172984D01*
X22155896Y-21172984D02*
X22174944Y-21163460D01*
X22174944Y-21163460D02*
X22184468Y-21153936D01*
X22184468Y-21153936D02*
X22193991Y-21134889D01*
X22193991Y-21134889D02*
X22193991Y-21096793D01*
X22193991Y-21096793D02*
X22184468Y-21077746D01*
X22184468Y-21077746D02*
X22174944Y-21068222D01*
X22174944Y-21068222D02*
X22155896Y-21058698D01*
X22432087Y-21172984D02*
X22432087Y-20972984D01*
X22517801Y-21172984D02*
X22517801Y-21068222D01*
X22517801Y-21068222D02*
X22508277Y-21049174D01*
X22508277Y-21049174D02*
X22489230Y-21039650D01*
X22489230Y-21039650D02*
X22460658Y-21039650D01*
X22460658Y-21039650D02*
X22441610Y-21049174D01*
X22441610Y-21049174D02*
X22432087Y-21058698D01*
X22641610Y-21172984D02*
X22622563Y-21163460D01*
X22622563Y-21163460D02*
X22613039Y-21153936D01*
X22613039Y-21153936D02*
X22603515Y-21134889D01*
X22603515Y-21134889D02*
X22603515Y-21077746D01*
X22603515Y-21077746D02*
X22613039Y-21058698D01*
X22613039Y-21058698D02*
X22622563Y-21049174D01*
X22622563Y-21049174D02*
X22641610Y-21039650D01*
X22641610Y-21039650D02*
X22670182Y-21039650D01*
X22670182Y-21039650D02*
X22689230Y-21049174D01*
X22689230Y-21049174D02*
X22698753Y-21058698D01*
X22698753Y-21058698D02*
X22708277Y-21077746D01*
X22708277Y-21077746D02*
X22708277Y-21134889D01*
X22708277Y-21134889D02*
X22698753Y-21153936D01*
X22698753Y-21153936D02*
X22689230Y-21163460D01*
X22689230Y-21163460D02*
X22670182Y-21172984D01*
X22670182Y-21172984D02*
X22641610Y-21172984D01*
X22822563Y-21172984D02*
X22803515Y-21163460D01*
X22803515Y-21163460D02*
X22793991Y-21144412D01*
X22793991Y-21144412D02*
X22793991Y-20972984D01*
X22974944Y-21163460D02*
X22955896Y-21172984D01*
X22955896Y-21172984D02*
X22917801Y-21172984D01*
X22917801Y-21172984D02*
X22898753Y-21163460D01*
X22898753Y-21163460D02*
X22889230Y-21144412D01*
X22889230Y-21144412D02*
X22889230Y-21068222D01*
X22889230Y-21068222D02*
X22898753Y-21049174D01*
X22898753Y-21049174D02*
X22917801Y-21039650D01*
X22917801Y-21039650D02*
X22955896Y-21039650D01*
X22955896Y-21039650D02*
X22974944Y-21049174D01*
X22974944Y-21049174D02*
X22984468Y-21068222D01*
X22984468Y-21068222D02*
X22984468Y-21087270D01*
X22984468Y-21087270D02*
X22889230Y-21106317D01*
X23060658Y-21163460D02*
X23079706Y-21172984D01*
X23079706Y-21172984D02*
X23117801Y-21172984D01*
X23117801Y-21172984D02*
X23136849Y-21163460D01*
X23136849Y-21163460D02*
X23146372Y-21144412D01*
X23146372Y-21144412D02*
X23146372Y-21134889D01*
X23146372Y-21134889D02*
X23136849Y-21115841D01*
X23136849Y-21115841D02*
X23117801Y-21106317D01*
X23117801Y-21106317D02*
X23089230Y-21106317D01*
X23089230Y-21106317D02*
X23070182Y-21096793D01*
X23070182Y-21096793D02*
X23060658Y-21077746D01*
X23060658Y-21077746D02*
X23060658Y-21068222D01*
X23060658Y-21068222D02*
X23070182Y-21049174D01*
X23070182Y-21049174D02*
X23089230Y-21039650D01*
X23089230Y-21039650D02*
X23117801Y-21039650D01*
X23117801Y-21039650D02*
X23136849Y-21049174D01*
X23213039Y-21249174D02*
X23222563Y-21239650D01*
X23222563Y-21239650D02*
X23241611Y-21211079D01*
X23241611Y-21211079D02*
X23251134Y-21192031D01*
X23251134Y-21192031D02*
X23260658Y-21163460D01*
X23260658Y-21163460D02*
X23270182Y-21115841D01*
X23270182Y-21115841D02*
X23270182Y-21077746D01*
X23270182Y-21077746D02*
X23260658Y-21030127D01*
X23260658Y-21030127D02*
X23251134Y-21001555D01*
X23251134Y-21001555D02*
X23241611Y-20982508D01*
X23241611Y-20982508D02*
X23222563Y-20953936D01*
X23222563Y-20953936D02*
X23213039Y-20944412D01*
D12*
X18217500Y-21315500D02*
X18217500Y-21375500D01*
X18187500Y-21345500D02*
X18247500Y-21345500D01*
D11*
X18546372Y-21236984D02*
X18565420Y-21236984D01*
X18565420Y-21236984D02*
X18584467Y-21246508D01*
X18584467Y-21246508D02*
X18593991Y-21256031D01*
X18593991Y-21256031D02*
X18603515Y-21275079D01*
X18603515Y-21275079D02*
X18613039Y-21313174D01*
X18613039Y-21313174D02*
X18613039Y-21360793D01*
X18613039Y-21360793D02*
X18603515Y-21398889D01*
X18603515Y-21398889D02*
X18593991Y-21417936D01*
X18593991Y-21417936D02*
X18584467Y-21427460D01*
X18584467Y-21427460D02*
X18565420Y-21436984D01*
X18565420Y-21436984D02*
X18546372Y-21436984D01*
X18546372Y-21436984D02*
X18527324Y-21427460D01*
X18527324Y-21427460D02*
X18517801Y-21417936D01*
X18517801Y-21417936D02*
X18508277Y-21398889D01*
X18508277Y-21398889D02*
X18498753Y-21360793D01*
X18498753Y-21360793D02*
X18498753Y-21313174D01*
X18498753Y-21313174D02*
X18508277Y-21275079D01*
X18508277Y-21275079D02*
X18517801Y-21256031D01*
X18517801Y-21256031D02*
X18527324Y-21246508D01*
X18527324Y-21246508D02*
X18546372Y-21236984D01*
X18698753Y-21417936D02*
X18708277Y-21427460D01*
X18708277Y-21427460D02*
X18698753Y-21436984D01*
X18698753Y-21436984D02*
X18689229Y-21427460D01*
X18689229Y-21427460D02*
X18698753Y-21417936D01*
X18698753Y-21417936D02*
X18698753Y-21436984D01*
X18879705Y-21236984D02*
X18841610Y-21236984D01*
X18841610Y-21236984D02*
X18822563Y-21246508D01*
X18822563Y-21246508D02*
X18813039Y-21256031D01*
X18813039Y-21256031D02*
X18793991Y-21284603D01*
X18793991Y-21284603D02*
X18784467Y-21322698D01*
X18784467Y-21322698D02*
X18784467Y-21398889D01*
X18784467Y-21398889D02*
X18793991Y-21417936D01*
X18793991Y-21417936D02*
X18803515Y-21427460D01*
X18803515Y-21427460D02*
X18822563Y-21436984D01*
X18822563Y-21436984D02*
X18860658Y-21436984D01*
X18860658Y-21436984D02*
X18879705Y-21427460D01*
X18879705Y-21427460D02*
X18889229Y-21417936D01*
X18889229Y-21417936D02*
X18898753Y-21398889D01*
X18898753Y-21398889D02*
X18898753Y-21351270D01*
X18898753Y-21351270D02*
X18889229Y-21332222D01*
X18889229Y-21332222D02*
X18879705Y-21322698D01*
X18879705Y-21322698D02*
X18860658Y-21313174D01*
X18860658Y-21313174D02*
X18822563Y-21313174D01*
X18822563Y-21313174D02*
X18803515Y-21322698D01*
X18803515Y-21322698D02*
X18793991Y-21332222D01*
X18793991Y-21332222D02*
X18784467Y-21351270D01*
X19022563Y-21236984D02*
X19041610Y-21236984D01*
X19041610Y-21236984D02*
X19060658Y-21246508D01*
X19060658Y-21246508D02*
X19070182Y-21256031D01*
X19070182Y-21256031D02*
X19079705Y-21275079D01*
X19079705Y-21275079D02*
X19089229Y-21313174D01*
X19089229Y-21313174D02*
X19089229Y-21360793D01*
X19089229Y-21360793D02*
X19079705Y-21398889D01*
X19079705Y-21398889D02*
X19070182Y-21417936D01*
X19070182Y-21417936D02*
X19060658Y-21427460D01*
X19060658Y-21427460D02*
X19041610Y-21436984D01*
X19041610Y-21436984D02*
X19022563Y-21436984D01*
X19022563Y-21436984D02*
X19003515Y-21427460D01*
X19003515Y-21427460D02*
X18993991Y-21417936D01*
X18993991Y-21417936D02*
X18984467Y-21398889D01*
X18984467Y-21398889D02*
X18974944Y-21360793D01*
X18974944Y-21360793D02*
X18974944Y-21313174D01*
X18974944Y-21313174D02*
X18984467Y-21275079D01*
X18984467Y-21275079D02*
X18993991Y-21256031D01*
X18993991Y-21256031D02*
X19003515Y-21246508D01*
X19003515Y-21246508D02*
X19022563Y-21236984D01*
X19213039Y-21236984D02*
X19232086Y-21236984D01*
X19232086Y-21236984D02*
X19251134Y-21246508D01*
X19251134Y-21246508D02*
X19260658Y-21256031D01*
X19260658Y-21256031D02*
X19270182Y-21275079D01*
X19270182Y-21275079D02*
X19279705Y-21313174D01*
X19279705Y-21313174D02*
X19279705Y-21360793D01*
X19279705Y-21360793D02*
X19270182Y-21398889D01*
X19270182Y-21398889D02*
X19260658Y-21417936D01*
X19260658Y-21417936D02*
X19251134Y-21427460D01*
X19251134Y-21427460D02*
X19232086Y-21436984D01*
X19232086Y-21436984D02*
X19213039Y-21436984D01*
X19213039Y-21436984D02*
X19193991Y-21427460D01*
X19193991Y-21427460D02*
X19184467Y-21417936D01*
X19184467Y-21417936D02*
X19174944Y-21398889D01*
X19174944Y-21398889D02*
X19165420Y-21360793D01*
X19165420Y-21360793D02*
X19165420Y-21313174D01*
X19165420Y-21313174D02*
X19174944Y-21275079D01*
X19174944Y-21275079D02*
X19184467Y-21256031D01*
X19184467Y-21256031D02*
X19193991Y-21246508D01*
X19193991Y-21246508D02*
X19213039Y-21236984D01*
X19365420Y-21436984D02*
X19365420Y-21303650D01*
X19365420Y-21322698D02*
X19374944Y-21313174D01*
X19374944Y-21313174D02*
X19393991Y-21303650D01*
X19393991Y-21303650D02*
X19422563Y-21303650D01*
X19422563Y-21303650D02*
X19441610Y-21313174D01*
X19441610Y-21313174D02*
X19451134Y-21332222D01*
X19451134Y-21332222D02*
X19451134Y-21436984D01*
X19451134Y-21332222D02*
X19460658Y-21313174D01*
X19460658Y-21313174D02*
X19479705Y-21303650D01*
X19479705Y-21303650D02*
X19508277Y-21303650D01*
X19508277Y-21303650D02*
X19527325Y-21313174D01*
X19527325Y-21313174D02*
X19536848Y-21332222D01*
X19536848Y-21332222D02*
X19536848Y-21436984D01*
X19632086Y-21436984D02*
X19632086Y-21303650D01*
X19632086Y-21322698D02*
X19641610Y-21313174D01*
X19641610Y-21313174D02*
X19660658Y-21303650D01*
X19660658Y-21303650D02*
X19689229Y-21303650D01*
X19689229Y-21303650D02*
X19708277Y-21313174D01*
X19708277Y-21313174D02*
X19717801Y-21332222D01*
X19717801Y-21332222D02*
X19717801Y-21436984D01*
X19717801Y-21332222D02*
X19727325Y-21313174D01*
X19727325Y-21313174D02*
X19746372Y-21303650D01*
X19746372Y-21303650D02*
X19774944Y-21303650D01*
X19774944Y-21303650D02*
X19793991Y-21313174D01*
X19793991Y-21313174D02*
X19803515Y-21332222D01*
X19803515Y-21332222D02*
X19803515Y-21436984D01*
X20193991Y-21227460D02*
X20022563Y-21484603D01*
X20451134Y-21236984D02*
X20470182Y-21236984D01*
X20470182Y-21236984D02*
X20489229Y-21246508D01*
X20489229Y-21246508D02*
X20498753Y-21256031D01*
X20498753Y-21256031D02*
X20508277Y-21275079D01*
X20508277Y-21275079D02*
X20517801Y-21313174D01*
X20517801Y-21313174D02*
X20517801Y-21360793D01*
X20517801Y-21360793D02*
X20508277Y-21398889D01*
X20508277Y-21398889D02*
X20498753Y-21417936D01*
X20498753Y-21417936D02*
X20489229Y-21427460D01*
X20489229Y-21427460D02*
X20470182Y-21436984D01*
X20470182Y-21436984D02*
X20451134Y-21436984D01*
X20451134Y-21436984D02*
X20432087Y-21427460D01*
X20432087Y-21427460D02*
X20422563Y-21417936D01*
X20422563Y-21417936D02*
X20413039Y-21398889D01*
X20413039Y-21398889D02*
X20403515Y-21360793D01*
X20403515Y-21360793D02*
X20403515Y-21313174D01*
X20403515Y-21313174D02*
X20413039Y-21275079D01*
X20413039Y-21275079D02*
X20422563Y-21256031D01*
X20422563Y-21256031D02*
X20432087Y-21246508D01*
X20432087Y-21246508D02*
X20451134Y-21236984D01*
X20603515Y-21417936D02*
X20613039Y-21427460D01*
X20613039Y-21427460D02*
X20603515Y-21436984D01*
X20603515Y-21436984D02*
X20593991Y-21427460D01*
X20593991Y-21427460D02*
X20603515Y-21417936D01*
X20603515Y-21417936D02*
X20603515Y-21436984D01*
X20736848Y-21236984D02*
X20755896Y-21236984D01*
X20755896Y-21236984D02*
X20774944Y-21246508D01*
X20774944Y-21246508D02*
X20784468Y-21256031D01*
X20784468Y-21256031D02*
X20793991Y-21275079D01*
X20793991Y-21275079D02*
X20803515Y-21313174D01*
X20803515Y-21313174D02*
X20803515Y-21360793D01*
X20803515Y-21360793D02*
X20793991Y-21398889D01*
X20793991Y-21398889D02*
X20784468Y-21417936D01*
X20784468Y-21417936D02*
X20774944Y-21427460D01*
X20774944Y-21427460D02*
X20755896Y-21436984D01*
X20755896Y-21436984D02*
X20736848Y-21436984D01*
X20736848Y-21436984D02*
X20717801Y-21427460D01*
X20717801Y-21427460D02*
X20708277Y-21417936D01*
X20708277Y-21417936D02*
X20698753Y-21398889D01*
X20698753Y-21398889D02*
X20689229Y-21360793D01*
X20689229Y-21360793D02*
X20689229Y-21313174D01*
X20689229Y-21313174D02*
X20698753Y-21275079D01*
X20698753Y-21275079D02*
X20708277Y-21256031D01*
X20708277Y-21256031D02*
X20717801Y-21246508D01*
X20717801Y-21246508D02*
X20736848Y-21236984D01*
X20879706Y-21256031D02*
X20889229Y-21246508D01*
X20889229Y-21246508D02*
X20908277Y-21236984D01*
X20908277Y-21236984D02*
X20955896Y-21236984D01*
X20955896Y-21236984D02*
X20974944Y-21246508D01*
X20974944Y-21246508D02*
X20984468Y-21256031D01*
X20984468Y-21256031D02*
X20993991Y-21275079D01*
X20993991Y-21275079D02*
X20993991Y-21294127D01*
X20993991Y-21294127D02*
X20984468Y-21322698D01*
X20984468Y-21322698D02*
X20870182Y-21436984D01*
X20870182Y-21436984D02*
X20993991Y-21436984D01*
X21060658Y-21236984D02*
X21184468Y-21236984D01*
X21184468Y-21236984D02*
X21117801Y-21313174D01*
X21117801Y-21313174D02*
X21146372Y-21313174D01*
X21146372Y-21313174D02*
X21165420Y-21322698D01*
X21165420Y-21322698D02*
X21174944Y-21332222D01*
X21174944Y-21332222D02*
X21184468Y-21351270D01*
X21184468Y-21351270D02*
X21184468Y-21398889D01*
X21184468Y-21398889D02*
X21174944Y-21417936D01*
X21174944Y-21417936D02*
X21165420Y-21427460D01*
X21165420Y-21427460D02*
X21146372Y-21436984D01*
X21146372Y-21436984D02*
X21089229Y-21436984D01*
X21089229Y-21436984D02*
X21070182Y-21427460D01*
X21070182Y-21427460D02*
X21060658Y-21417936D01*
X21355896Y-21236984D02*
X21317801Y-21236984D01*
X21317801Y-21236984D02*
X21298753Y-21246508D01*
X21298753Y-21246508D02*
X21289229Y-21256031D01*
X21289229Y-21256031D02*
X21270182Y-21284603D01*
X21270182Y-21284603D02*
X21260658Y-21322698D01*
X21260658Y-21322698D02*
X21260658Y-21398889D01*
X21260658Y-21398889D02*
X21270182Y-21417936D01*
X21270182Y-21417936D02*
X21279706Y-21427460D01*
X21279706Y-21427460D02*
X21298753Y-21436984D01*
X21298753Y-21436984D02*
X21336849Y-21436984D01*
X21336849Y-21436984D02*
X21355896Y-21427460D01*
X21355896Y-21427460D02*
X21365420Y-21417936D01*
X21365420Y-21417936D02*
X21374944Y-21398889D01*
X21374944Y-21398889D02*
X21374944Y-21351270D01*
X21374944Y-21351270D02*
X21365420Y-21332222D01*
X21365420Y-21332222D02*
X21355896Y-21322698D01*
X21355896Y-21322698D02*
X21336849Y-21313174D01*
X21336849Y-21313174D02*
X21298753Y-21313174D01*
X21298753Y-21313174D02*
X21279706Y-21322698D01*
X21279706Y-21322698D02*
X21270182Y-21332222D01*
X21270182Y-21332222D02*
X21260658Y-21351270D01*
X21451134Y-21236984D02*
X21451134Y-21275079D01*
X21527325Y-21236984D02*
X21527325Y-21275079D01*
X21822563Y-21513174D02*
X21813039Y-21503650D01*
X21813039Y-21503650D02*
X21793991Y-21475079D01*
X21793991Y-21475079D02*
X21784468Y-21456031D01*
X21784468Y-21456031D02*
X21774944Y-21427460D01*
X21774944Y-21427460D02*
X21765420Y-21379841D01*
X21765420Y-21379841D02*
X21765420Y-21341746D01*
X21765420Y-21341746D02*
X21774944Y-21294127D01*
X21774944Y-21294127D02*
X21784468Y-21265555D01*
X21784468Y-21265555D02*
X21793991Y-21246508D01*
X21793991Y-21246508D02*
X21813039Y-21217936D01*
X21813039Y-21217936D02*
X21822563Y-21208412D01*
X21936849Y-21236984D02*
X21955896Y-21236984D01*
X21955896Y-21236984D02*
X21974944Y-21246508D01*
X21974944Y-21246508D02*
X21984468Y-21256031D01*
X21984468Y-21256031D02*
X21993991Y-21275079D01*
X21993991Y-21275079D02*
X22003515Y-21313174D01*
X22003515Y-21313174D02*
X22003515Y-21360793D01*
X22003515Y-21360793D02*
X21993991Y-21398889D01*
X21993991Y-21398889D02*
X21984468Y-21417936D01*
X21984468Y-21417936D02*
X21974944Y-21427460D01*
X21974944Y-21427460D02*
X21955896Y-21436984D01*
X21955896Y-21436984D02*
X21936849Y-21436984D01*
X21936849Y-21436984D02*
X21917801Y-21427460D01*
X21917801Y-21427460D02*
X21908277Y-21417936D01*
X21908277Y-21417936D02*
X21898753Y-21398889D01*
X21898753Y-21398889D02*
X21889230Y-21360793D01*
X21889230Y-21360793D02*
X21889230Y-21313174D01*
X21889230Y-21313174D02*
X21898753Y-21275079D01*
X21898753Y-21275079D02*
X21908277Y-21256031D01*
X21908277Y-21256031D02*
X21917801Y-21246508D01*
X21917801Y-21246508D02*
X21936849Y-21236984D01*
X22241611Y-21436984D02*
X22241611Y-21236984D01*
X22327325Y-21436984D02*
X22327325Y-21332222D01*
X22327325Y-21332222D02*
X22317801Y-21313174D01*
X22317801Y-21313174D02*
X22298753Y-21303650D01*
X22298753Y-21303650D02*
X22270182Y-21303650D01*
X22270182Y-21303650D02*
X22251134Y-21313174D01*
X22251134Y-21313174D02*
X22241611Y-21322698D01*
X22451134Y-21436984D02*
X22432087Y-21427460D01*
X22432087Y-21427460D02*
X22422563Y-21417936D01*
X22422563Y-21417936D02*
X22413039Y-21398889D01*
X22413039Y-21398889D02*
X22413039Y-21341746D01*
X22413039Y-21341746D02*
X22422563Y-21322698D01*
X22422563Y-21322698D02*
X22432087Y-21313174D01*
X22432087Y-21313174D02*
X22451134Y-21303650D01*
X22451134Y-21303650D02*
X22479706Y-21303650D01*
X22479706Y-21303650D02*
X22498753Y-21313174D01*
X22498753Y-21313174D02*
X22508277Y-21322698D01*
X22508277Y-21322698D02*
X22517801Y-21341746D01*
X22517801Y-21341746D02*
X22517801Y-21398889D01*
X22517801Y-21398889D02*
X22508277Y-21417936D01*
X22508277Y-21417936D02*
X22498753Y-21427460D01*
X22498753Y-21427460D02*
X22479706Y-21436984D01*
X22479706Y-21436984D02*
X22451134Y-21436984D01*
X22632087Y-21436984D02*
X22613039Y-21427460D01*
X22613039Y-21427460D02*
X22603515Y-21408412D01*
X22603515Y-21408412D02*
X22603515Y-21236984D01*
X22784468Y-21427460D02*
X22765420Y-21436984D01*
X22765420Y-21436984D02*
X22727325Y-21436984D01*
X22727325Y-21436984D02*
X22708277Y-21427460D01*
X22708277Y-21427460D02*
X22698753Y-21408412D01*
X22698753Y-21408412D02*
X22698753Y-21332222D01*
X22698753Y-21332222D02*
X22708277Y-21313174D01*
X22708277Y-21313174D02*
X22727325Y-21303650D01*
X22727325Y-21303650D02*
X22765420Y-21303650D01*
X22765420Y-21303650D02*
X22784468Y-21313174D01*
X22784468Y-21313174D02*
X22793991Y-21332222D01*
X22793991Y-21332222D02*
X22793991Y-21351270D01*
X22793991Y-21351270D02*
X22698753Y-21370317D01*
X22870182Y-21427460D02*
X22889230Y-21436984D01*
X22889230Y-21436984D02*
X22927325Y-21436984D01*
X22927325Y-21436984D02*
X22946372Y-21427460D01*
X22946372Y-21427460D02*
X22955896Y-21408412D01*
X22955896Y-21408412D02*
X22955896Y-21398889D01*
X22955896Y-21398889D02*
X22946372Y-21379841D01*
X22946372Y-21379841D02*
X22927325Y-21370317D01*
X22927325Y-21370317D02*
X22898753Y-21370317D01*
X22898753Y-21370317D02*
X22879706Y-21360793D01*
X22879706Y-21360793D02*
X22870182Y-21341746D01*
X22870182Y-21341746D02*
X22870182Y-21332222D01*
X22870182Y-21332222D02*
X22879706Y-21313174D01*
X22879706Y-21313174D02*
X22898753Y-21303650D01*
X22898753Y-21303650D02*
X22927325Y-21303650D01*
X22927325Y-21303650D02*
X22946372Y-21313174D01*
X23193992Y-21360793D02*
X23346373Y-21360793D01*
X23270182Y-21436984D02*
X23270182Y-21284603D01*
X23584468Y-21256031D02*
X23593992Y-21246508D01*
X23593992Y-21246508D02*
X23613039Y-21236984D01*
X23613039Y-21236984D02*
X23660658Y-21236984D01*
X23660658Y-21236984D02*
X23679706Y-21246508D01*
X23679706Y-21246508D02*
X23689230Y-21256031D01*
X23689230Y-21256031D02*
X23698753Y-21275079D01*
X23698753Y-21275079D02*
X23698753Y-21294127D01*
X23698753Y-21294127D02*
X23689230Y-21322698D01*
X23689230Y-21322698D02*
X23574944Y-21436984D01*
X23574944Y-21436984D02*
X23698753Y-21436984D01*
X23927325Y-21427460D02*
X23946373Y-21436984D01*
X23946373Y-21436984D02*
X23984468Y-21436984D01*
X23984468Y-21436984D02*
X24003515Y-21427460D01*
X24003515Y-21427460D02*
X24013039Y-21408412D01*
X24013039Y-21408412D02*
X24013039Y-21398889D01*
X24013039Y-21398889D02*
X24003515Y-21379841D01*
X24003515Y-21379841D02*
X23984468Y-21370317D01*
X23984468Y-21370317D02*
X23955896Y-21370317D01*
X23955896Y-21370317D02*
X23936849Y-21360793D01*
X23936849Y-21360793D02*
X23927325Y-21341746D01*
X23927325Y-21341746D02*
X23927325Y-21332222D01*
X23927325Y-21332222D02*
X23936849Y-21313174D01*
X23936849Y-21313174D02*
X23955896Y-21303650D01*
X23955896Y-21303650D02*
X23984468Y-21303650D01*
X23984468Y-21303650D02*
X24003515Y-21313174D01*
X24127325Y-21436984D02*
X24108277Y-21427460D01*
X24108277Y-21427460D02*
X24098754Y-21408412D01*
X24098754Y-21408412D02*
X24098754Y-21236984D01*
X24232087Y-21436984D02*
X24213039Y-21427460D01*
X24213039Y-21427460D02*
X24203515Y-21417936D01*
X24203515Y-21417936D02*
X24193992Y-21398889D01*
X24193992Y-21398889D02*
X24193992Y-21341746D01*
X24193992Y-21341746D02*
X24203515Y-21322698D01*
X24203515Y-21322698D02*
X24213039Y-21313174D01*
X24213039Y-21313174D02*
X24232087Y-21303650D01*
X24232087Y-21303650D02*
X24260658Y-21303650D01*
X24260658Y-21303650D02*
X24279706Y-21313174D01*
X24279706Y-21313174D02*
X24289230Y-21322698D01*
X24289230Y-21322698D02*
X24298754Y-21341746D01*
X24298754Y-21341746D02*
X24298754Y-21398889D01*
X24298754Y-21398889D02*
X24289230Y-21417936D01*
X24289230Y-21417936D02*
X24279706Y-21427460D01*
X24279706Y-21427460D02*
X24260658Y-21436984D01*
X24260658Y-21436984D02*
X24232087Y-21436984D01*
X24355896Y-21303650D02*
X24432087Y-21303650D01*
X24384468Y-21236984D02*
X24384468Y-21408412D01*
X24384468Y-21408412D02*
X24393992Y-21427460D01*
X24393992Y-21427460D02*
X24413039Y-21436984D01*
X24413039Y-21436984D02*
X24432087Y-21436984D01*
X24489230Y-21427460D02*
X24508277Y-21436984D01*
X24508277Y-21436984D02*
X24546373Y-21436984D01*
X24546373Y-21436984D02*
X24565420Y-21427460D01*
X24565420Y-21427460D02*
X24574944Y-21408412D01*
X24574944Y-21408412D02*
X24574944Y-21398889D01*
X24574944Y-21398889D02*
X24565420Y-21379841D01*
X24565420Y-21379841D02*
X24546373Y-21370317D01*
X24546373Y-21370317D02*
X24517801Y-21370317D01*
X24517801Y-21370317D02*
X24498754Y-21360793D01*
X24498754Y-21360793D02*
X24489230Y-21341746D01*
X24489230Y-21341746D02*
X24489230Y-21332222D01*
X24489230Y-21332222D02*
X24498754Y-21313174D01*
X24498754Y-21313174D02*
X24517801Y-21303650D01*
X24517801Y-21303650D02*
X24546373Y-21303650D01*
X24546373Y-21303650D02*
X24565420Y-21313174D01*
X24641611Y-21513174D02*
X24651135Y-21503650D01*
X24651135Y-21503650D02*
X24670182Y-21475079D01*
X24670182Y-21475079D02*
X24679706Y-21456031D01*
X24679706Y-21456031D02*
X24689230Y-21427460D01*
X24689230Y-21427460D02*
X24698754Y-21379841D01*
X24698754Y-21379841D02*
X24698754Y-21341746D01*
X24698754Y-21341746D02*
X24689230Y-21294127D01*
X24689230Y-21294127D02*
X24679706Y-21265555D01*
X24679706Y-21265555D02*
X24670182Y-21246508D01*
X24670182Y-21246508D02*
X24651135Y-21217936D01*
X24651135Y-21217936D02*
X24641611Y-21208412D01*
D12*
X18235052Y-21639552D02*
X18235052Y-21579448D01*
X18174948Y-21579448D01*
X18174948Y-21639552D01*
X18235052Y-21639552D01*
D11*
X18546372Y-21500984D02*
X18565420Y-21500984D01*
X18565420Y-21500984D02*
X18584467Y-21510508D01*
X18584467Y-21510508D02*
X18593991Y-21520031D01*
X18593991Y-21520031D02*
X18603515Y-21539079D01*
X18603515Y-21539079D02*
X18613039Y-21577174D01*
X18613039Y-21577174D02*
X18613039Y-21624793D01*
X18613039Y-21624793D02*
X18603515Y-21662889D01*
X18603515Y-21662889D02*
X18593991Y-21681936D01*
X18593991Y-21681936D02*
X18584467Y-21691460D01*
X18584467Y-21691460D02*
X18565420Y-21700984D01*
X18565420Y-21700984D02*
X18546372Y-21700984D01*
X18546372Y-21700984D02*
X18527324Y-21691460D01*
X18527324Y-21691460D02*
X18517801Y-21681936D01*
X18517801Y-21681936D02*
X18508277Y-21662889D01*
X18508277Y-21662889D02*
X18498753Y-21624793D01*
X18498753Y-21624793D02*
X18498753Y-21577174D01*
X18498753Y-21577174D02*
X18508277Y-21539079D01*
X18508277Y-21539079D02*
X18517801Y-21520031D01*
X18517801Y-21520031D02*
X18527324Y-21510508D01*
X18527324Y-21510508D02*
X18546372Y-21500984D01*
X18698753Y-21681936D02*
X18708277Y-21691460D01*
X18708277Y-21691460D02*
X18698753Y-21700984D01*
X18698753Y-21700984D02*
X18689229Y-21691460D01*
X18689229Y-21691460D02*
X18698753Y-21681936D01*
X18698753Y-21681936D02*
X18698753Y-21700984D01*
X18822563Y-21586698D02*
X18803515Y-21577174D01*
X18803515Y-21577174D02*
X18793991Y-21567650D01*
X18793991Y-21567650D02*
X18784467Y-21548603D01*
X18784467Y-21548603D02*
X18784467Y-21539079D01*
X18784467Y-21539079D02*
X18793991Y-21520031D01*
X18793991Y-21520031D02*
X18803515Y-21510508D01*
X18803515Y-21510508D02*
X18822563Y-21500984D01*
X18822563Y-21500984D02*
X18860658Y-21500984D01*
X18860658Y-21500984D02*
X18879705Y-21510508D01*
X18879705Y-21510508D02*
X18889229Y-21520031D01*
X18889229Y-21520031D02*
X18898753Y-21539079D01*
X18898753Y-21539079D02*
X18898753Y-21548603D01*
X18898753Y-21548603D02*
X18889229Y-21567650D01*
X18889229Y-21567650D02*
X18879705Y-21577174D01*
X18879705Y-21577174D02*
X18860658Y-21586698D01*
X18860658Y-21586698D02*
X18822563Y-21586698D01*
X18822563Y-21586698D02*
X18803515Y-21596222D01*
X18803515Y-21596222D02*
X18793991Y-21605746D01*
X18793991Y-21605746D02*
X18784467Y-21624793D01*
X18784467Y-21624793D02*
X18784467Y-21662889D01*
X18784467Y-21662889D02*
X18793991Y-21681936D01*
X18793991Y-21681936D02*
X18803515Y-21691460D01*
X18803515Y-21691460D02*
X18822563Y-21700984D01*
X18822563Y-21700984D02*
X18860658Y-21700984D01*
X18860658Y-21700984D02*
X18879705Y-21691460D01*
X18879705Y-21691460D02*
X18889229Y-21681936D01*
X18889229Y-21681936D02*
X18898753Y-21662889D01*
X18898753Y-21662889D02*
X18898753Y-21624793D01*
X18898753Y-21624793D02*
X18889229Y-21605746D01*
X18889229Y-21605746D02*
X18879705Y-21596222D01*
X18879705Y-21596222D02*
X18860658Y-21586698D01*
X19079705Y-21500984D02*
X18984467Y-21500984D01*
X18984467Y-21500984D02*
X18974944Y-21596222D01*
X18974944Y-21596222D02*
X18984467Y-21586698D01*
X18984467Y-21586698D02*
X19003515Y-21577174D01*
X19003515Y-21577174D02*
X19051134Y-21577174D01*
X19051134Y-21577174D02*
X19070182Y-21586698D01*
X19070182Y-21586698D02*
X19079705Y-21596222D01*
X19079705Y-21596222D02*
X19089229Y-21615270D01*
X19089229Y-21615270D02*
X19089229Y-21662889D01*
X19089229Y-21662889D02*
X19079705Y-21681936D01*
X19079705Y-21681936D02*
X19070182Y-21691460D01*
X19070182Y-21691460D02*
X19051134Y-21700984D01*
X19051134Y-21700984D02*
X19003515Y-21700984D01*
X19003515Y-21700984D02*
X18984467Y-21691460D01*
X18984467Y-21691460D02*
X18974944Y-21681936D01*
X19213039Y-21500984D02*
X19232086Y-21500984D01*
X19232086Y-21500984D02*
X19251134Y-21510508D01*
X19251134Y-21510508D02*
X19260658Y-21520031D01*
X19260658Y-21520031D02*
X19270182Y-21539079D01*
X19270182Y-21539079D02*
X19279705Y-21577174D01*
X19279705Y-21577174D02*
X19279705Y-21624793D01*
X19279705Y-21624793D02*
X19270182Y-21662889D01*
X19270182Y-21662889D02*
X19260658Y-21681936D01*
X19260658Y-21681936D02*
X19251134Y-21691460D01*
X19251134Y-21691460D02*
X19232086Y-21700984D01*
X19232086Y-21700984D02*
X19213039Y-21700984D01*
X19213039Y-21700984D02*
X19193991Y-21691460D01*
X19193991Y-21691460D02*
X19184467Y-21681936D01*
X19184467Y-21681936D02*
X19174944Y-21662889D01*
X19174944Y-21662889D02*
X19165420Y-21624793D01*
X19165420Y-21624793D02*
X19165420Y-21577174D01*
X19165420Y-21577174D02*
X19174944Y-21539079D01*
X19174944Y-21539079D02*
X19184467Y-21520031D01*
X19184467Y-21520031D02*
X19193991Y-21510508D01*
X19193991Y-21510508D02*
X19213039Y-21500984D01*
X19365420Y-21700984D02*
X19365420Y-21567650D01*
X19365420Y-21586698D02*
X19374944Y-21577174D01*
X19374944Y-21577174D02*
X19393991Y-21567650D01*
X19393991Y-21567650D02*
X19422563Y-21567650D01*
X19422563Y-21567650D02*
X19441610Y-21577174D01*
X19441610Y-21577174D02*
X19451134Y-21596222D01*
X19451134Y-21596222D02*
X19451134Y-21700984D01*
X19451134Y-21596222D02*
X19460658Y-21577174D01*
X19460658Y-21577174D02*
X19479705Y-21567650D01*
X19479705Y-21567650D02*
X19508277Y-21567650D01*
X19508277Y-21567650D02*
X19527325Y-21577174D01*
X19527325Y-21577174D02*
X19536848Y-21596222D01*
X19536848Y-21596222D02*
X19536848Y-21700984D01*
X19632086Y-21700984D02*
X19632086Y-21567650D01*
X19632086Y-21586698D02*
X19641610Y-21577174D01*
X19641610Y-21577174D02*
X19660658Y-21567650D01*
X19660658Y-21567650D02*
X19689229Y-21567650D01*
X19689229Y-21567650D02*
X19708277Y-21577174D01*
X19708277Y-21577174D02*
X19717801Y-21596222D01*
X19717801Y-21596222D02*
X19717801Y-21700984D01*
X19717801Y-21596222D02*
X19727325Y-21577174D01*
X19727325Y-21577174D02*
X19746372Y-21567650D01*
X19746372Y-21567650D02*
X19774944Y-21567650D01*
X19774944Y-21567650D02*
X19793991Y-21577174D01*
X19793991Y-21577174D02*
X19803515Y-21596222D01*
X19803515Y-21596222D02*
X19803515Y-21700984D01*
X20193991Y-21491460D02*
X20022563Y-21748603D01*
X20451134Y-21500984D02*
X20470182Y-21500984D01*
X20470182Y-21500984D02*
X20489229Y-21510508D01*
X20489229Y-21510508D02*
X20498753Y-21520031D01*
X20498753Y-21520031D02*
X20508277Y-21539079D01*
X20508277Y-21539079D02*
X20517801Y-21577174D01*
X20517801Y-21577174D02*
X20517801Y-21624793D01*
X20517801Y-21624793D02*
X20508277Y-21662889D01*
X20508277Y-21662889D02*
X20498753Y-21681936D01*
X20498753Y-21681936D02*
X20489229Y-21691460D01*
X20489229Y-21691460D02*
X20470182Y-21700984D01*
X20470182Y-21700984D02*
X20451134Y-21700984D01*
X20451134Y-21700984D02*
X20432087Y-21691460D01*
X20432087Y-21691460D02*
X20422563Y-21681936D01*
X20422563Y-21681936D02*
X20413039Y-21662889D01*
X20413039Y-21662889D02*
X20403515Y-21624793D01*
X20403515Y-21624793D02*
X20403515Y-21577174D01*
X20403515Y-21577174D02*
X20413039Y-21539079D01*
X20413039Y-21539079D02*
X20422563Y-21520031D01*
X20422563Y-21520031D02*
X20432087Y-21510508D01*
X20432087Y-21510508D02*
X20451134Y-21500984D01*
X20603515Y-21681936D02*
X20613039Y-21691460D01*
X20613039Y-21691460D02*
X20603515Y-21700984D01*
X20603515Y-21700984D02*
X20593991Y-21691460D01*
X20593991Y-21691460D02*
X20603515Y-21681936D01*
X20603515Y-21681936D02*
X20603515Y-21700984D01*
X20736848Y-21500984D02*
X20755896Y-21500984D01*
X20755896Y-21500984D02*
X20774944Y-21510508D01*
X20774944Y-21510508D02*
X20784468Y-21520031D01*
X20784468Y-21520031D02*
X20793991Y-21539079D01*
X20793991Y-21539079D02*
X20803515Y-21577174D01*
X20803515Y-21577174D02*
X20803515Y-21624793D01*
X20803515Y-21624793D02*
X20793991Y-21662889D01*
X20793991Y-21662889D02*
X20784468Y-21681936D01*
X20784468Y-21681936D02*
X20774944Y-21691460D01*
X20774944Y-21691460D02*
X20755896Y-21700984D01*
X20755896Y-21700984D02*
X20736848Y-21700984D01*
X20736848Y-21700984D02*
X20717801Y-21691460D01*
X20717801Y-21691460D02*
X20708277Y-21681936D01*
X20708277Y-21681936D02*
X20698753Y-21662889D01*
X20698753Y-21662889D02*
X20689229Y-21624793D01*
X20689229Y-21624793D02*
X20689229Y-21577174D01*
X20689229Y-21577174D02*
X20698753Y-21539079D01*
X20698753Y-21539079D02*
X20708277Y-21520031D01*
X20708277Y-21520031D02*
X20717801Y-21510508D01*
X20717801Y-21510508D02*
X20736848Y-21500984D01*
X20870182Y-21500984D02*
X20993991Y-21500984D01*
X20993991Y-21500984D02*
X20927325Y-21577174D01*
X20927325Y-21577174D02*
X20955896Y-21577174D01*
X20955896Y-21577174D02*
X20974944Y-21586698D01*
X20974944Y-21586698D02*
X20984468Y-21596222D01*
X20984468Y-21596222D02*
X20993991Y-21615270D01*
X20993991Y-21615270D02*
X20993991Y-21662889D01*
X20993991Y-21662889D02*
X20984468Y-21681936D01*
X20984468Y-21681936D02*
X20974944Y-21691460D01*
X20974944Y-21691460D02*
X20955896Y-21700984D01*
X20955896Y-21700984D02*
X20898753Y-21700984D01*
X20898753Y-21700984D02*
X20879706Y-21691460D01*
X20879706Y-21691460D02*
X20870182Y-21681936D01*
X21060658Y-21500984D02*
X21184468Y-21500984D01*
X21184468Y-21500984D02*
X21117801Y-21577174D01*
X21117801Y-21577174D02*
X21146372Y-21577174D01*
X21146372Y-21577174D02*
X21165420Y-21586698D01*
X21165420Y-21586698D02*
X21174944Y-21596222D01*
X21174944Y-21596222D02*
X21184468Y-21615270D01*
X21184468Y-21615270D02*
X21184468Y-21662889D01*
X21184468Y-21662889D02*
X21174944Y-21681936D01*
X21174944Y-21681936D02*
X21165420Y-21691460D01*
X21165420Y-21691460D02*
X21146372Y-21700984D01*
X21146372Y-21700984D02*
X21089229Y-21700984D01*
X21089229Y-21700984D02*
X21070182Y-21691460D01*
X21070182Y-21691460D02*
X21060658Y-21681936D01*
X21365420Y-21500984D02*
X21270182Y-21500984D01*
X21270182Y-21500984D02*
X21260658Y-21596222D01*
X21260658Y-21596222D02*
X21270182Y-21586698D01*
X21270182Y-21586698D02*
X21289229Y-21577174D01*
X21289229Y-21577174D02*
X21336849Y-21577174D01*
X21336849Y-21577174D02*
X21355896Y-21586698D01*
X21355896Y-21586698D02*
X21365420Y-21596222D01*
X21365420Y-21596222D02*
X21374944Y-21615270D01*
X21374944Y-21615270D02*
X21374944Y-21662889D01*
X21374944Y-21662889D02*
X21365420Y-21681936D01*
X21365420Y-21681936D02*
X21355896Y-21691460D01*
X21355896Y-21691460D02*
X21336849Y-21700984D01*
X21336849Y-21700984D02*
X21289229Y-21700984D01*
X21289229Y-21700984D02*
X21270182Y-21691460D01*
X21270182Y-21691460D02*
X21260658Y-21681936D01*
X21451134Y-21500984D02*
X21451134Y-21539079D01*
X21527325Y-21500984D02*
X21527325Y-21539079D01*
X21822563Y-21777174D02*
X21813039Y-21767650D01*
X21813039Y-21767650D02*
X21793991Y-21739079D01*
X21793991Y-21739079D02*
X21784468Y-21720031D01*
X21784468Y-21720031D02*
X21774944Y-21691460D01*
X21774944Y-21691460D02*
X21765420Y-21643841D01*
X21765420Y-21643841D02*
X21765420Y-21605746D01*
X21765420Y-21605746D02*
X21774944Y-21558127D01*
X21774944Y-21558127D02*
X21784468Y-21529555D01*
X21784468Y-21529555D02*
X21793991Y-21510508D01*
X21793991Y-21510508D02*
X21813039Y-21481936D01*
X21813039Y-21481936D02*
X21822563Y-21472412D01*
X21889230Y-21520031D02*
X21898753Y-21510508D01*
X21898753Y-21510508D02*
X21917801Y-21500984D01*
X21917801Y-21500984D02*
X21965420Y-21500984D01*
X21965420Y-21500984D02*
X21984468Y-21510508D01*
X21984468Y-21510508D02*
X21993991Y-21520031D01*
X21993991Y-21520031D02*
X22003515Y-21539079D01*
X22003515Y-21539079D02*
X22003515Y-21558127D01*
X22003515Y-21558127D02*
X21993991Y-21586698D01*
X21993991Y-21586698D02*
X21879706Y-21700984D01*
X21879706Y-21700984D02*
X22003515Y-21700984D01*
X22241611Y-21700984D02*
X22241611Y-21500984D01*
X22327325Y-21700984D02*
X22327325Y-21596222D01*
X22327325Y-21596222D02*
X22317801Y-21577174D01*
X22317801Y-21577174D02*
X22298753Y-21567650D01*
X22298753Y-21567650D02*
X22270182Y-21567650D01*
X22270182Y-21567650D02*
X22251134Y-21577174D01*
X22251134Y-21577174D02*
X22241611Y-21586698D01*
X22451134Y-21700984D02*
X22432087Y-21691460D01*
X22432087Y-21691460D02*
X22422563Y-21681936D01*
X22422563Y-21681936D02*
X22413039Y-21662889D01*
X22413039Y-21662889D02*
X22413039Y-21605746D01*
X22413039Y-21605746D02*
X22422563Y-21586698D01*
X22422563Y-21586698D02*
X22432087Y-21577174D01*
X22432087Y-21577174D02*
X22451134Y-21567650D01*
X22451134Y-21567650D02*
X22479706Y-21567650D01*
X22479706Y-21567650D02*
X22498753Y-21577174D01*
X22498753Y-21577174D02*
X22508277Y-21586698D01*
X22508277Y-21586698D02*
X22517801Y-21605746D01*
X22517801Y-21605746D02*
X22517801Y-21662889D01*
X22517801Y-21662889D02*
X22508277Y-21681936D01*
X22508277Y-21681936D02*
X22498753Y-21691460D01*
X22498753Y-21691460D02*
X22479706Y-21700984D01*
X22479706Y-21700984D02*
X22451134Y-21700984D01*
X22632087Y-21700984D02*
X22613039Y-21691460D01*
X22613039Y-21691460D02*
X22603515Y-21672412D01*
X22603515Y-21672412D02*
X22603515Y-21500984D01*
X22784468Y-21691460D02*
X22765420Y-21700984D01*
X22765420Y-21700984D02*
X22727325Y-21700984D01*
X22727325Y-21700984D02*
X22708277Y-21691460D01*
X22708277Y-21691460D02*
X22698753Y-21672412D01*
X22698753Y-21672412D02*
X22698753Y-21596222D01*
X22698753Y-21596222D02*
X22708277Y-21577174D01*
X22708277Y-21577174D02*
X22727325Y-21567650D01*
X22727325Y-21567650D02*
X22765420Y-21567650D01*
X22765420Y-21567650D02*
X22784468Y-21577174D01*
X22784468Y-21577174D02*
X22793991Y-21596222D01*
X22793991Y-21596222D02*
X22793991Y-21615270D01*
X22793991Y-21615270D02*
X22698753Y-21634317D01*
X22870182Y-21691460D02*
X22889230Y-21700984D01*
X22889230Y-21700984D02*
X22927325Y-21700984D01*
X22927325Y-21700984D02*
X22946372Y-21691460D01*
X22946372Y-21691460D02*
X22955896Y-21672412D01*
X22955896Y-21672412D02*
X22955896Y-21662889D01*
X22955896Y-21662889D02*
X22946372Y-21643841D01*
X22946372Y-21643841D02*
X22927325Y-21634317D01*
X22927325Y-21634317D02*
X22898753Y-21634317D01*
X22898753Y-21634317D02*
X22879706Y-21624793D01*
X22879706Y-21624793D02*
X22870182Y-21605746D01*
X22870182Y-21605746D02*
X22870182Y-21596222D01*
X22870182Y-21596222D02*
X22879706Y-21577174D01*
X22879706Y-21577174D02*
X22898753Y-21567650D01*
X22898753Y-21567650D02*
X22927325Y-21567650D01*
X22927325Y-21567650D02*
X22946372Y-21577174D01*
X23022563Y-21777174D02*
X23032087Y-21767650D01*
X23032087Y-21767650D02*
X23051134Y-21739079D01*
X23051134Y-21739079D02*
X23060658Y-21720031D01*
X23060658Y-21720031D02*
X23070182Y-21691460D01*
X23070182Y-21691460D02*
X23079706Y-21643841D01*
X23079706Y-21643841D02*
X23079706Y-21605746D01*
X23079706Y-21605746D02*
X23070182Y-21558127D01*
X23070182Y-21558127D02*
X23060658Y-21529555D01*
X23060658Y-21529555D02*
X23051134Y-21510508D01*
X23051134Y-21510508D02*
X23032087Y-21481936D01*
X23032087Y-21481936D02*
X23022563Y-21472412D01*
D12*
X18197500Y-21923500D02*
X18247500Y-21873500D01*
X18197500Y-21823500D01*
X18147500Y-21873500D01*
X18197500Y-21923500D01*
D11*
X18613039Y-21964984D02*
X18498753Y-21964984D01*
X18555896Y-21964984D02*
X18555896Y-21764984D01*
X18555896Y-21764984D02*
X18536848Y-21793555D01*
X18536848Y-21793555D02*
X18517801Y-21812603D01*
X18517801Y-21812603D02*
X18498753Y-21822127D01*
X18698753Y-21945936D02*
X18708277Y-21955460D01*
X18708277Y-21955460D02*
X18698753Y-21964984D01*
X18698753Y-21964984D02*
X18689229Y-21955460D01*
X18689229Y-21955460D02*
X18698753Y-21945936D01*
X18698753Y-21945936D02*
X18698753Y-21964984D01*
X18832086Y-21764984D02*
X18851134Y-21764984D01*
X18851134Y-21764984D02*
X18870182Y-21774508D01*
X18870182Y-21774508D02*
X18879705Y-21784031D01*
X18879705Y-21784031D02*
X18889229Y-21803079D01*
X18889229Y-21803079D02*
X18898753Y-21841174D01*
X18898753Y-21841174D02*
X18898753Y-21888793D01*
X18898753Y-21888793D02*
X18889229Y-21926889D01*
X18889229Y-21926889D02*
X18879705Y-21945936D01*
X18879705Y-21945936D02*
X18870182Y-21955460D01*
X18870182Y-21955460D02*
X18851134Y-21964984D01*
X18851134Y-21964984D02*
X18832086Y-21964984D01*
X18832086Y-21964984D02*
X18813039Y-21955460D01*
X18813039Y-21955460D02*
X18803515Y-21945936D01*
X18803515Y-21945936D02*
X18793991Y-21926889D01*
X18793991Y-21926889D02*
X18784467Y-21888793D01*
X18784467Y-21888793D02*
X18784467Y-21841174D01*
X18784467Y-21841174D02*
X18793991Y-21803079D01*
X18793991Y-21803079D02*
X18803515Y-21784031D01*
X18803515Y-21784031D02*
X18813039Y-21774508D01*
X18813039Y-21774508D02*
X18832086Y-21764984D01*
X19022563Y-21764984D02*
X19041610Y-21764984D01*
X19041610Y-21764984D02*
X19060658Y-21774508D01*
X19060658Y-21774508D02*
X19070182Y-21784031D01*
X19070182Y-21784031D02*
X19079705Y-21803079D01*
X19079705Y-21803079D02*
X19089229Y-21841174D01*
X19089229Y-21841174D02*
X19089229Y-21888793D01*
X19089229Y-21888793D02*
X19079705Y-21926889D01*
X19079705Y-21926889D02*
X19070182Y-21945936D01*
X19070182Y-21945936D02*
X19060658Y-21955460D01*
X19060658Y-21955460D02*
X19041610Y-21964984D01*
X19041610Y-21964984D02*
X19022563Y-21964984D01*
X19022563Y-21964984D02*
X19003515Y-21955460D01*
X19003515Y-21955460D02*
X18993991Y-21945936D01*
X18993991Y-21945936D02*
X18984467Y-21926889D01*
X18984467Y-21926889D02*
X18974944Y-21888793D01*
X18974944Y-21888793D02*
X18974944Y-21841174D01*
X18974944Y-21841174D02*
X18984467Y-21803079D01*
X18984467Y-21803079D02*
X18993991Y-21784031D01*
X18993991Y-21784031D02*
X19003515Y-21774508D01*
X19003515Y-21774508D02*
X19022563Y-21764984D01*
X19213039Y-21764984D02*
X19232086Y-21764984D01*
X19232086Y-21764984D02*
X19251134Y-21774508D01*
X19251134Y-21774508D02*
X19260658Y-21784031D01*
X19260658Y-21784031D02*
X19270182Y-21803079D01*
X19270182Y-21803079D02*
X19279705Y-21841174D01*
X19279705Y-21841174D02*
X19279705Y-21888793D01*
X19279705Y-21888793D02*
X19270182Y-21926889D01*
X19270182Y-21926889D02*
X19260658Y-21945936D01*
X19260658Y-21945936D02*
X19251134Y-21955460D01*
X19251134Y-21955460D02*
X19232086Y-21964984D01*
X19232086Y-21964984D02*
X19213039Y-21964984D01*
X19213039Y-21964984D02*
X19193991Y-21955460D01*
X19193991Y-21955460D02*
X19184467Y-21945936D01*
X19184467Y-21945936D02*
X19174944Y-21926889D01*
X19174944Y-21926889D02*
X19165420Y-21888793D01*
X19165420Y-21888793D02*
X19165420Y-21841174D01*
X19165420Y-21841174D02*
X19174944Y-21803079D01*
X19174944Y-21803079D02*
X19184467Y-21784031D01*
X19184467Y-21784031D02*
X19193991Y-21774508D01*
X19193991Y-21774508D02*
X19213039Y-21764984D01*
X19365420Y-21964984D02*
X19365420Y-21831650D01*
X19365420Y-21850698D02*
X19374944Y-21841174D01*
X19374944Y-21841174D02*
X19393991Y-21831650D01*
X19393991Y-21831650D02*
X19422563Y-21831650D01*
X19422563Y-21831650D02*
X19441610Y-21841174D01*
X19441610Y-21841174D02*
X19451134Y-21860222D01*
X19451134Y-21860222D02*
X19451134Y-21964984D01*
X19451134Y-21860222D02*
X19460658Y-21841174D01*
X19460658Y-21841174D02*
X19479705Y-21831650D01*
X19479705Y-21831650D02*
X19508277Y-21831650D01*
X19508277Y-21831650D02*
X19527325Y-21841174D01*
X19527325Y-21841174D02*
X19536848Y-21860222D01*
X19536848Y-21860222D02*
X19536848Y-21964984D01*
X19632086Y-21964984D02*
X19632086Y-21831650D01*
X19632086Y-21850698D02*
X19641610Y-21841174D01*
X19641610Y-21841174D02*
X19660658Y-21831650D01*
X19660658Y-21831650D02*
X19689229Y-21831650D01*
X19689229Y-21831650D02*
X19708277Y-21841174D01*
X19708277Y-21841174D02*
X19717801Y-21860222D01*
X19717801Y-21860222D02*
X19717801Y-21964984D01*
X19717801Y-21860222D02*
X19727325Y-21841174D01*
X19727325Y-21841174D02*
X19746372Y-21831650D01*
X19746372Y-21831650D02*
X19774944Y-21831650D01*
X19774944Y-21831650D02*
X19793991Y-21841174D01*
X19793991Y-21841174D02*
X19803515Y-21860222D01*
X19803515Y-21860222D02*
X19803515Y-21964984D01*
X20193991Y-21755460D02*
X20022563Y-22012603D01*
X20451134Y-21764984D02*
X20470182Y-21764984D01*
X20470182Y-21764984D02*
X20489229Y-21774508D01*
X20489229Y-21774508D02*
X20498753Y-21784031D01*
X20498753Y-21784031D02*
X20508277Y-21803079D01*
X20508277Y-21803079D02*
X20517801Y-21841174D01*
X20517801Y-21841174D02*
X20517801Y-21888793D01*
X20517801Y-21888793D02*
X20508277Y-21926889D01*
X20508277Y-21926889D02*
X20498753Y-21945936D01*
X20498753Y-21945936D02*
X20489229Y-21955460D01*
X20489229Y-21955460D02*
X20470182Y-21964984D01*
X20470182Y-21964984D02*
X20451134Y-21964984D01*
X20451134Y-21964984D02*
X20432087Y-21955460D01*
X20432087Y-21955460D02*
X20422563Y-21945936D01*
X20422563Y-21945936D02*
X20413039Y-21926889D01*
X20413039Y-21926889D02*
X20403515Y-21888793D01*
X20403515Y-21888793D02*
X20403515Y-21841174D01*
X20403515Y-21841174D02*
X20413039Y-21803079D01*
X20413039Y-21803079D02*
X20422563Y-21784031D01*
X20422563Y-21784031D02*
X20432087Y-21774508D01*
X20432087Y-21774508D02*
X20451134Y-21764984D01*
X20603515Y-21945936D02*
X20613039Y-21955460D01*
X20613039Y-21955460D02*
X20603515Y-21964984D01*
X20603515Y-21964984D02*
X20593991Y-21955460D01*
X20593991Y-21955460D02*
X20603515Y-21945936D01*
X20603515Y-21945936D02*
X20603515Y-21964984D01*
X20736848Y-21764984D02*
X20755896Y-21764984D01*
X20755896Y-21764984D02*
X20774944Y-21774508D01*
X20774944Y-21774508D02*
X20784468Y-21784031D01*
X20784468Y-21784031D02*
X20793991Y-21803079D01*
X20793991Y-21803079D02*
X20803515Y-21841174D01*
X20803515Y-21841174D02*
X20803515Y-21888793D01*
X20803515Y-21888793D02*
X20793991Y-21926889D01*
X20793991Y-21926889D02*
X20784468Y-21945936D01*
X20784468Y-21945936D02*
X20774944Y-21955460D01*
X20774944Y-21955460D02*
X20755896Y-21964984D01*
X20755896Y-21964984D02*
X20736848Y-21964984D01*
X20736848Y-21964984D02*
X20717801Y-21955460D01*
X20717801Y-21955460D02*
X20708277Y-21945936D01*
X20708277Y-21945936D02*
X20698753Y-21926889D01*
X20698753Y-21926889D02*
X20689229Y-21888793D01*
X20689229Y-21888793D02*
X20689229Y-21841174D01*
X20689229Y-21841174D02*
X20698753Y-21803079D01*
X20698753Y-21803079D02*
X20708277Y-21784031D01*
X20708277Y-21784031D02*
X20717801Y-21774508D01*
X20717801Y-21774508D02*
X20736848Y-21764984D01*
X20870182Y-21764984D02*
X20993991Y-21764984D01*
X20993991Y-21764984D02*
X20927325Y-21841174D01*
X20927325Y-21841174D02*
X20955896Y-21841174D01*
X20955896Y-21841174D02*
X20974944Y-21850698D01*
X20974944Y-21850698D02*
X20984468Y-21860222D01*
X20984468Y-21860222D02*
X20993991Y-21879270D01*
X20993991Y-21879270D02*
X20993991Y-21926889D01*
X20993991Y-21926889D02*
X20984468Y-21945936D01*
X20984468Y-21945936D02*
X20974944Y-21955460D01*
X20974944Y-21955460D02*
X20955896Y-21964984D01*
X20955896Y-21964984D02*
X20898753Y-21964984D01*
X20898753Y-21964984D02*
X20879706Y-21955460D01*
X20879706Y-21955460D02*
X20870182Y-21945936D01*
X21089229Y-21964984D02*
X21127325Y-21964984D01*
X21127325Y-21964984D02*
X21146372Y-21955460D01*
X21146372Y-21955460D02*
X21155896Y-21945936D01*
X21155896Y-21945936D02*
X21174944Y-21917365D01*
X21174944Y-21917365D02*
X21184468Y-21879270D01*
X21184468Y-21879270D02*
X21184468Y-21803079D01*
X21184468Y-21803079D02*
X21174944Y-21784031D01*
X21174944Y-21784031D02*
X21165420Y-21774508D01*
X21165420Y-21774508D02*
X21146372Y-21764984D01*
X21146372Y-21764984D02*
X21108277Y-21764984D01*
X21108277Y-21764984D02*
X21089229Y-21774508D01*
X21089229Y-21774508D02*
X21079706Y-21784031D01*
X21079706Y-21784031D02*
X21070182Y-21803079D01*
X21070182Y-21803079D02*
X21070182Y-21850698D01*
X21070182Y-21850698D02*
X21079706Y-21869746D01*
X21079706Y-21869746D02*
X21089229Y-21879270D01*
X21089229Y-21879270D02*
X21108277Y-21888793D01*
X21108277Y-21888793D02*
X21146372Y-21888793D01*
X21146372Y-21888793D02*
X21165420Y-21879270D01*
X21165420Y-21879270D02*
X21174944Y-21869746D01*
X21174944Y-21869746D02*
X21184468Y-21850698D01*
X21355896Y-21831650D02*
X21355896Y-21964984D01*
X21308277Y-21755460D02*
X21260658Y-21898317D01*
X21260658Y-21898317D02*
X21384468Y-21898317D01*
X21451134Y-21764984D02*
X21451134Y-21803079D01*
X21527325Y-21764984D02*
X21527325Y-21803079D01*
X21822563Y-22041174D02*
X21813039Y-22031650D01*
X21813039Y-22031650D02*
X21793991Y-22003079D01*
X21793991Y-22003079D02*
X21784468Y-21984031D01*
X21784468Y-21984031D02*
X21774944Y-21955460D01*
X21774944Y-21955460D02*
X21765420Y-21907841D01*
X21765420Y-21907841D02*
X21765420Y-21869746D01*
X21765420Y-21869746D02*
X21774944Y-21822127D01*
X21774944Y-21822127D02*
X21784468Y-21793555D01*
X21784468Y-21793555D02*
X21793991Y-21774508D01*
X21793991Y-21774508D02*
X21813039Y-21745936D01*
X21813039Y-21745936D02*
X21822563Y-21736412D01*
X21889230Y-21784031D02*
X21898753Y-21774508D01*
X21898753Y-21774508D02*
X21917801Y-21764984D01*
X21917801Y-21764984D02*
X21965420Y-21764984D01*
X21965420Y-21764984D02*
X21984468Y-21774508D01*
X21984468Y-21774508D02*
X21993991Y-21784031D01*
X21993991Y-21784031D02*
X22003515Y-21803079D01*
X22003515Y-21803079D02*
X22003515Y-21822127D01*
X22003515Y-21822127D02*
X21993991Y-21850698D01*
X21993991Y-21850698D02*
X21879706Y-21964984D01*
X21879706Y-21964984D02*
X22003515Y-21964984D01*
X22174944Y-21831650D02*
X22174944Y-21964984D01*
X22127325Y-21755460D02*
X22079706Y-21898317D01*
X22079706Y-21898317D02*
X22203515Y-21898317D01*
X22432087Y-21964984D02*
X22432087Y-21764984D01*
X22517801Y-21964984D02*
X22517801Y-21860222D01*
X22517801Y-21860222D02*
X22508277Y-21841174D01*
X22508277Y-21841174D02*
X22489230Y-21831650D01*
X22489230Y-21831650D02*
X22460658Y-21831650D01*
X22460658Y-21831650D02*
X22441610Y-21841174D01*
X22441610Y-21841174D02*
X22432087Y-21850698D01*
X22641610Y-21964984D02*
X22622563Y-21955460D01*
X22622563Y-21955460D02*
X22613039Y-21945936D01*
X22613039Y-21945936D02*
X22603515Y-21926889D01*
X22603515Y-21926889D02*
X22603515Y-21869746D01*
X22603515Y-21869746D02*
X22613039Y-21850698D01*
X22613039Y-21850698D02*
X22622563Y-21841174D01*
X22622563Y-21841174D02*
X22641610Y-21831650D01*
X22641610Y-21831650D02*
X22670182Y-21831650D01*
X22670182Y-21831650D02*
X22689230Y-21841174D01*
X22689230Y-21841174D02*
X22698753Y-21850698D01*
X22698753Y-21850698D02*
X22708277Y-21869746D01*
X22708277Y-21869746D02*
X22708277Y-21926889D01*
X22708277Y-21926889D02*
X22698753Y-21945936D01*
X22698753Y-21945936D02*
X22689230Y-21955460D01*
X22689230Y-21955460D02*
X22670182Y-21964984D01*
X22670182Y-21964984D02*
X22641610Y-21964984D01*
X22822563Y-21964984D02*
X22803515Y-21955460D01*
X22803515Y-21955460D02*
X22793991Y-21936412D01*
X22793991Y-21936412D02*
X22793991Y-21764984D01*
X22974944Y-21955460D02*
X22955896Y-21964984D01*
X22955896Y-21964984D02*
X22917801Y-21964984D01*
X22917801Y-21964984D02*
X22898753Y-21955460D01*
X22898753Y-21955460D02*
X22889230Y-21936412D01*
X22889230Y-21936412D02*
X22889230Y-21860222D01*
X22889230Y-21860222D02*
X22898753Y-21841174D01*
X22898753Y-21841174D02*
X22917801Y-21831650D01*
X22917801Y-21831650D02*
X22955896Y-21831650D01*
X22955896Y-21831650D02*
X22974944Y-21841174D01*
X22974944Y-21841174D02*
X22984468Y-21860222D01*
X22984468Y-21860222D02*
X22984468Y-21879270D01*
X22984468Y-21879270D02*
X22889230Y-21898317D01*
X23060658Y-21955460D02*
X23079706Y-21964984D01*
X23079706Y-21964984D02*
X23117801Y-21964984D01*
X23117801Y-21964984D02*
X23136849Y-21955460D01*
X23136849Y-21955460D02*
X23146372Y-21936412D01*
X23146372Y-21936412D02*
X23146372Y-21926889D01*
X23146372Y-21926889D02*
X23136849Y-21907841D01*
X23136849Y-21907841D02*
X23117801Y-21898317D01*
X23117801Y-21898317D02*
X23089230Y-21898317D01*
X23089230Y-21898317D02*
X23070182Y-21888793D01*
X23070182Y-21888793D02*
X23060658Y-21869746D01*
X23060658Y-21869746D02*
X23060658Y-21860222D01*
X23060658Y-21860222D02*
X23070182Y-21841174D01*
X23070182Y-21841174D02*
X23089230Y-21831650D01*
X23089230Y-21831650D02*
X23117801Y-21831650D01*
X23117801Y-21831650D02*
X23136849Y-21841174D01*
X23213039Y-22041174D02*
X23222563Y-22031650D01*
X23222563Y-22031650D02*
X23241611Y-22003079D01*
X23241611Y-22003079D02*
X23251134Y-21984031D01*
X23251134Y-21984031D02*
X23260658Y-21955460D01*
X23260658Y-21955460D02*
X23270182Y-21907841D01*
X23270182Y-21907841D02*
X23270182Y-21869746D01*
X23270182Y-21869746D02*
X23260658Y-21822127D01*
X23260658Y-21822127D02*
X23251134Y-21793555D01*
X23251134Y-21793555D02*
X23241611Y-21774508D01*
X23241611Y-21774508D02*
X23222563Y-21745936D01*
X23222563Y-21745936D02*
X23213039Y-21736412D01*
D13*
X18097500Y-22062500D02*
X18247500Y-22212500D01*
X18247500Y-22062500D02*
X18097500Y-22212500D01*
X18247500Y-22137500D02*
G75*
G02*
X18097500Y-22137500I-75000J0D01*
G01*
X18097500Y-22137500D02*
G75*
G02*
X18247500Y-22137500I75000J0D01*
G01*
D11*
X18613039Y-22228984D02*
X18498753Y-22228984D01*
X18555896Y-22228984D02*
X18555896Y-22028984D01*
X18555896Y-22028984D02*
X18536848Y-22057555D01*
X18536848Y-22057555D02*
X18517801Y-22076603D01*
X18517801Y-22076603D02*
X18498753Y-22086127D01*
X18698753Y-22209936D02*
X18708277Y-22219460D01*
X18708277Y-22219460D02*
X18698753Y-22228984D01*
X18698753Y-22228984D02*
X18689229Y-22219460D01*
X18689229Y-22219460D02*
X18698753Y-22209936D01*
X18698753Y-22209936D02*
X18698753Y-22228984D01*
X18889229Y-22028984D02*
X18793991Y-22028984D01*
X18793991Y-22028984D02*
X18784467Y-22124222D01*
X18784467Y-22124222D02*
X18793991Y-22114698D01*
X18793991Y-22114698D02*
X18813039Y-22105174D01*
X18813039Y-22105174D02*
X18860658Y-22105174D01*
X18860658Y-22105174D02*
X18879705Y-22114698D01*
X18879705Y-22114698D02*
X18889229Y-22124222D01*
X18889229Y-22124222D02*
X18898753Y-22143270D01*
X18898753Y-22143270D02*
X18898753Y-22190889D01*
X18898753Y-22190889D02*
X18889229Y-22209936D01*
X18889229Y-22209936D02*
X18879705Y-22219460D01*
X18879705Y-22219460D02*
X18860658Y-22228984D01*
X18860658Y-22228984D02*
X18813039Y-22228984D01*
X18813039Y-22228984D02*
X18793991Y-22219460D01*
X18793991Y-22219460D02*
X18784467Y-22209936D01*
X19022563Y-22028984D02*
X19041610Y-22028984D01*
X19041610Y-22028984D02*
X19060658Y-22038508D01*
X19060658Y-22038508D02*
X19070182Y-22048031D01*
X19070182Y-22048031D02*
X19079705Y-22067079D01*
X19079705Y-22067079D02*
X19089229Y-22105174D01*
X19089229Y-22105174D02*
X19089229Y-22152793D01*
X19089229Y-22152793D02*
X19079705Y-22190889D01*
X19079705Y-22190889D02*
X19070182Y-22209936D01*
X19070182Y-22209936D02*
X19060658Y-22219460D01*
X19060658Y-22219460D02*
X19041610Y-22228984D01*
X19041610Y-22228984D02*
X19022563Y-22228984D01*
X19022563Y-22228984D02*
X19003515Y-22219460D01*
X19003515Y-22219460D02*
X18993991Y-22209936D01*
X18993991Y-22209936D02*
X18984467Y-22190889D01*
X18984467Y-22190889D02*
X18974944Y-22152793D01*
X18974944Y-22152793D02*
X18974944Y-22105174D01*
X18974944Y-22105174D02*
X18984467Y-22067079D01*
X18984467Y-22067079D02*
X18993991Y-22048031D01*
X18993991Y-22048031D02*
X19003515Y-22038508D01*
X19003515Y-22038508D02*
X19022563Y-22028984D01*
X19213039Y-22028984D02*
X19232086Y-22028984D01*
X19232086Y-22028984D02*
X19251134Y-22038508D01*
X19251134Y-22038508D02*
X19260658Y-22048031D01*
X19260658Y-22048031D02*
X19270182Y-22067079D01*
X19270182Y-22067079D02*
X19279705Y-22105174D01*
X19279705Y-22105174D02*
X19279705Y-22152793D01*
X19279705Y-22152793D02*
X19270182Y-22190889D01*
X19270182Y-22190889D02*
X19260658Y-22209936D01*
X19260658Y-22209936D02*
X19251134Y-22219460D01*
X19251134Y-22219460D02*
X19232086Y-22228984D01*
X19232086Y-22228984D02*
X19213039Y-22228984D01*
X19213039Y-22228984D02*
X19193991Y-22219460D01*
X19193991Y-22219460D02*
X19184467Y-22209936D01*
X19184467Y-22209936D02*
X19174944Y-22190889D01*
X19174944Y-22190889D02*
X19165420Y-22152793D01*
X19165420Y-22152793D02*
X19165420Y-22105174D01*
X19165420Y-22105174D02*
X19174944Y-22067079D01*
X19174944Y-22067079D02*
X19184467Y-22048031D01*
X19184467Y-22048031D02*
X19193991Y-22038508D01*
X19193991Y-22038508D02*
X19213039Y-22028984D01*
X19365420Y-22228984D02*
X19365420Y-22095650D01*
X19365420Y-22114698D02*
X19374944Y-22105174D01*
X19374944Y-22105174D02*
X19393991Y-22095650D01*
X19393991Y-22095650D02*
X19422563Y-22095650D01*
X19422563Y-22095650D02*
X19441610Y-22105174D01*
X19441610Y-22105174D02*
X19451134Y-22124222D01*
X19451134Y-22124222D02*
X19451134Y-22228984D01*
X19451134Y-22124222D02*
X19460658Y-22105174D01*
X19460658Y-22105174D02*
X19479705Y-22095650D01*
X19479705Y-22095650D02*
X19508277Y-22095650D01*
X19508277Y-22095650D02*
X19527325Y-22105174D01*
X19527325Y-22105174D02*
X19536848Y-22124222D01*
X19536848Y-22124222D02*
X19536848Y-22228984D01*
X19632086Y-22228984D02*
X19632086Y-22095650D01*
X19632086Y-22114698D02*
X19641610Y-22105174D01*
X19641610Y-22105174D02*
X19660658Y-22095650D01*
X19660658Y-22095650D02*
X19689229Y-22095650D01*
X19689229Y-22095650D02*
X19708277Y-22105174D01*
X19708277Y-22105174D02*
X19717801Y-22124222D01*
X19717801Y-22124222D02*
X19717801Y-22228984D01*
X19717801Y-22124222D02*
X19727325Y-22105174D01*
X19727325Y-22105174D02*
X19746372Y-22095650D01*
X19746372Y-22095650D02*
X19774944Y-22095650D01*
X19774944Y-22095650D02*
X19793991Y-22105174D01*
X19793991Y-22105174D02*
X19803515Y-22124222D01*
X19803515Y-22124222D02*
X19803515Y-22228984D01*
X20193991Y-22019460D02*
X20022563Y-22276603D01*
X20451134Y-22028984D02*
X20470182Y-22028984D01*
X20470182Y-22028984D02*
X20489229Y-22038508D01*
X20489229Y-22038508D02*
X20498753Y-22048031D01*
X20498753Y-22048031D02*
X20508277Y-22067079D01*
X20508277Y-22067079D02*
X20517801Y-22105174D01*
X20517801Y-22105174D02*
X20517801Y-22152793D01*
X20517801Y-22152793D02*
X20508277Y-22190889D01*
X20508277Y-22190889D02*
X20498753Y-22209936D01*
X20498753Y-22209936D02*
X20489229Y-22219460D01*
X20489229Y-22219460D02*
X20470182Y-22228984D01*
X20470182Y-22228984D02*
X20451134Y-22228984D01*
X20451134Y-22228984D02*
X20432087Y-22219460D01*
X20432087Y-22219460D02*
X20422563Y-22209936D01*
X20422563Y-22209936D02*
X20413039Y-22190889D01*
X20413039Y-22190889D02*
X20403515Y-22152793D01*
X20403515Y-22152793D02*
X20403515Y-22105174D01*
X20403515Y-22105174D02*
X20413039Y-22067079D01*
X20413039Y-22067079D02*
X20422563Y-22048031D01*
X20422563Y-22048031D02*
X20432087Y-22038508D01*
X20432087Y-22038508D02*
X20451134Y-22028984D01*
X20603515Y-22209936D02*
X20613039Y-22219460D01*
X20613039Y-22219460D02*
X20603515Y-22228984D01*
X20603515Y-22228984D02*
X20593991Y-22219460D01*
X20593991Y-22219460D02*
X20603515Y-22209936D01*
X20603515Y-22209936D02*
X20603515Y-22228984D01*
X20736848Y-22028984D02*
X20755896Y-22028984D01*
X20755896Y-22028984D02*
X20774944Y-22038508D01*
X20774944Y-22038508D02*
X20784468Y-22048031D01*
X20784468Y-22048031D02*
X20793991Y-22067079D01*
X20793991Y-22067079D02*
X20803515Y-22105174D01*
X20803515Y-22105174D02*
X20803515Y-22152793D01*
X20803515Y-22152793D02*
X20793991Y-22190889D01*
X20793991Y-22190889D02*
X20784468Y-22209936D01*
X20784468Y-22209936D02*
X20774944Y-22219460D01*
X20774944Y-22219460D02*
X20755896Y-22228984D01*
X20755896Y-22228984D02*
X20736848Y-22228984D01*
X20736848Y-22228984D02*
X20717801Y-22219460D01*
X20717801Y-22219460D02*
X20708277Y-22209936D01*
X20708277Y-22209936D02*
X20698753Y-22190889D01*
X20698753Y-22190889D02*
X20689229Y-22152793D01*
X20689229Y-22152793D02*
X20689229Y-22105174D01*
X20689229Y-22105174D02*
X20698753Y-22067079D01*
X20698753Y-22067079D02*
X20708277Y-22048031D01*
X20708277Y-22048031D02*
X20717801Y-22038508D01*
X20717801Y-22038508D02*
X20736848Y-22028984D01*
X20984468Y-22028984D02*
X20889229Y-22028984D01*
X20889229Y-22028984D02*
X20879706Y-22124222D01*
X20879706Y-22124222D02*
X20889229Y-22114698D01*
X20889229Y-22114698D02*
X20908277Y-22105174D01*
X20908277Y-22105174D02*
X20955896Y-22105174D01*
X20955896Y-22105174D02*
X20974944Y-22114698D01*
X20974944Y-22114698D02*
X20984468Y-22124222D01*
X20984468Y-22124222D02*
X20993991Y-22143270D01*
X20993991Y-22143270D02*
X20993991Y-22190889D01*
X20993991Y-22190889D02*
X20984468Y-22209936D01*
X20984468Y-22209936D02*
X20974944Y-22219460D01*
X20974944Y-22219460D02*
X20955896Y-22228984D01*
X20955896Y-22228984D02*
X20908277Y-22228984D01*
X20908277Y-22228984D02*
X20889229Y-22219460D01*
X20889229Y-22219460D02*
X20879706Y-22209936D01*
X21089229Y-22228984D02*
X21127325Y-22228984D01*
X21127325Y-22228984D02*
X21146372Y-22219460D01*
X21146372Y-22219460D02*
X21155896Y-22209936D01*
X21155896Y-22209936D02*
X21174944Y-22181365D01*
X21174944Y-22181365D02*
X21184468Y-22143270D01*
X21184468Y-22143270D02*
X21184468Y-22067079D01*
X21184468Y-22067079D02*
X21174944Y-22048031D01*
X21174944Y-22048031D02*
X21165420Y-22038508D01*
X21165420Y-22038508D02*
X21146372Y-22028984D01*
X21146372Y-22028984D02*
X21108277Y-22028984D01*
X21108277Y-22028984D02*
X21089229Y-22038508D01*
X21089229Y-22038508D02*
X21079706Y-22048031D01*
X21079706Y-22048031D02*
X21070182Y-22067079D01*
X21070182Y-22067079D02*
X21070182Y-22114698D01*
X21070182Y-22114698D02*
X21079706Y-22133746D01*
X21079706Y-22133746D02*
X21089229Y-22143270D01*
X21089229Y-22143270D02*
X21108277Y-22152793D01*
X21108277Y-22152793D02*
X21146372Y-22152793D01*
X21146372Y-22152793D02*
X21165420Y-22143270D01*
X21165420Y-22143270D02*
X21174944Y-22133746D01*
X21174944Y-22133746D02*
X21184468Y-22114698D01*
X21374944Y-22228984D02*
X21260658Y-22228984D01*
X21317801Y-22228984D02*
X21317801Y-22028984D01*
X21317801Y-22028984D02*
X21298753Y-22057555D01*
X21298753Y-22057555D02*
X21279706Y-22076603D01*
X21279706Y-22076603D02*
X21260658Y-22086127D01*
X21451134Y-22028984D02*
X21451134Y-22067079D01*
X21527325Y-22028984D02*
X21527325Y-22067079D01*
X21822563Y-22305174D02*
X21813039Y-22295650D01*
X21813039Y-22295650D02*
X21793991Y-22267079D01*
X21793991Y-22267079D02*
X21784468Y-22248031D01*
X21784468Y-22248031D02*
X21774944Y-22219460D01*
X21774944Y-22219460D02*
X21765420Y-22171841D01*
X21765420Y-22171841D02*
X21765420Y-22133746D01*
X21765420Y-22133746D02*
X21774944Y-22086127D01*
X21774944Y-22086127D02*
X21784468Y-22057555D01*
X21784468Y-22057555D02*
X21793991Y-22038508D01*
X21793991Y-22038508D02*
X21813039Y-22009936D01*
X21813039Y-22009936D02*
X21822563Y-22000412D01*
X22003515Y-22228984D02*
X21889230Y-22228984D01*
X21946372Y-22228984D02*
X21946372Y-22028984D01*
X21946372Y-22028984D02*
X21927325Y-22057555D01*
X21927325Y-22057555D02*
X21908277Y-22076603D01*
X21908277Y-22076603D02*
X21889230Y-22086127D01*
X22174944Y-22028984D02*
X22136849Y-22028984D01*
X22136849Y-22028984D02*
X22117801Y-22038508D01*
X22117801Y-22038508D02*
X22108277Y-22048031D01*
X22108277Y-22048031D02*
X22089230Y-22076603D01*
X22089230Y-22076603D02*
X22079706Y-22114698D01*
X22079706Y-22114698D02*
X22079706Y-22190889D01*
X22079706Y-22190889D02*
X22089230Y-22209936D01*
X22089230Y-22209936D02*
X22098753Y-22219460D01*
X22098753Y-22219460D02*
X22117801Y-22228984D01*
X22117801Y-22228984D02*
X22155896Y-22228984D01*
X22155896Y-22228984D02*
X22174944Y-22219460D01*
X22174944Y-22219460D02*
X22184468Y-22209936D01*
X22184468Y-22209936D02*
X22193991Y-22190889D01*
X22193991Y-22190889D02*
X22193991Y-22143270D01*
X22193991Y-22143270D02*
X22184468Y-22124222D01*
X22184468Y-22124222D02*
X22174944Y-22114698D01*
X22174944Y-22114698D02*
X22155896Y-22105174D01*
X22155896Y-22105174D02*
X22117801Y-22105174D01*
X22117801Y-22105174D02*
X22098753Y-22114698D01*
X22098753Y-22114698D02*
X22089230Y-22124222D01*
X22089230Y-22124222D02*
X22079706Y-22143270D01*
X22432087Y-22228984D02*
X22432087Y-22028984D01*
X22517801Y-22228984D02*
X22517801Y-22124222D01*
X22517801Y-22124222D02*
X22508277Y-22105174D01*
X22508277Y-22105174D02*
X22489230Y-22095650D01*
X22489230Y-22095650D02*
X22460658Y-22095650D01*
X22460658Y-22095650D02*
X22441610Y-22105174D01*
X22441610Y-22105174D02*
X22432087Y-22114698D01*
X22641610Y-22228984D02*
X22622563Y-22219460D01*
X22622563Y-22219460D02*
X22613039Y-22209936D01*
X22613039Y-22209936D02*
X22603515Y-22190889D01*
X22603515Y-22190889D02*
X22603515Y-22133746D01*
X22603515Y-22133746D02*
X22613039Y-22114698D01*
X22613039Y-22114698D02*
X22622563Y-22105174D01*
X22622563Y-22105174D02*
X22641610Y-22095650D01*
X22641610Y-22095650D02*
X22670182Y-22095650D01*
X22670182Y-22095650D02*
X22689230Y-22105174D01*
X22689230Y-22105174D02*
X22698753Y-22114698D01*
X22698753Y-22114698D02*
X22708277Y-22133746D01*
X22708277Y-22133746D02*
X22708277Y-22190889D01*
X22708277Y-22190889D02*
X22698753Y-22209936D01*
X22698753Y-22209936D02*
X22689230Y-22219460D01*
X22689230Y-22219460D02*
X22670182Y-22228984D01*
X22670182Y-22228984D02*
X22641610Y-22228984D01*
X22822563Y-22228984D02*
X22803515Y-22219460D01*
X22803515Y-22219460D02*
X22793991Y-22200412D01*
X22793991Y-22200412D02*
X22793991Y-22028984D01*
X22974944Y-22219460D02*
X22955896Y-22228984D01*
X22955896Y-22228984D02*
X22917801Y-22228984D01*
X22917801Y-22228984D02*
X22898753Y-22219460D01*
X22898753Y-22219460D02*
X22889230Y-22200412D01*
X22889230Y-22200412D02*
X22889230Y-22124222D01*
X22889230Y-22124222D02*
X22898753Y-22105174D01*
X22898753Y-22105174D02*
X22917801Y-22095650D01*
X22917801Y-22095650D02*
X22955896Y-22095650D01*
X22955896Y-22095650D02*
X22974944Y-22105174D01*
X22974944Y-22105174D02*
X22984468Y-22124222D01*
X22984468Y-22124222D02*
X22984468Y-22143270D01*
X22984468Y-22143270D02*
X22889230Y-22162317D01*
X23060658Y-22219460D02*
X23079706Y-22228984D01*
X23079706Y-22228984D02*
X23117801Y-22228984D01*
X23117801Y-22228984D02*
X23136849Y-22219460D01*
X23136849Y-22219460D02*
X23146372Y-22200412D01*
X23146372Y-22200412D02*
X23146372Y-22190889D01*
X23146372Y-22190889D02*
X23136849Y-22171841D01*
X23136849Y-22171841D02*
X23117801Y-22162317D01*
X23117801Y-22162317D02*
X23089230Y-22162317D01*
X23089230Y-22162317D02*
X23070182Y-22152793D01*
X23070182Y-22152793D02*
X23060658Y-22133746D01*
X23060658Y-22133746D02*
X23060658Y-22124222D01*
X23060658Y-22124222D02*
X23070182Y-22105174D01*
X23070182Y-22105174D02*
X23089230Y-22095650D01*
X23089230Y-22095650D02*
X23117801Y-22095650D01*
X23117801Y-22095650D02*
X23136849Y-22105174D01*
X23384468Y-22152793D02*
X23536849Y-22152793D01*
X23460658Y-22228984D02*
X23460658Y-22076603D01*
X23774944Y-22048031D02*
X23784468Y-22038508D01*
X23784468Y-22038508D02*
X23803515Y-22028984D01*
X23803515Y-22028984D02*
X23851134Y-22028984D01*
X23851134Y-22028984D02*
X23870182Y-22038508D01*
X23870182Y-22038508D02*
X23879706Y-22048031D01*
X23879706Y-22048031D02*
X23889230Y-22067079D01*
X23889230Y-22067079D02*
X23889230Y-22086127D01*
X23889230Y-22086127D02*
X23879706Y-22114698D01*
X23879706Y-22114698D02*
X23765420Y-22228984D01*
X23765420Y-22228984D02*
X23889230Y-22228984D01*
X24117801Y-22219460D02*
X24136849Y-22228984D01*
X24136849Y-22228984D02*
X24174944Y-22228984D01*
X24174944Y-22228984D02*
X24193992Y-22219460D01*
X24193992Y-22219460D02*
X24203515Y-22200412D01*
X24203515Y-22200412D02*
X24203515Y-22190889D01*
X24203515Y-22190889D02*
X24193992Y-22171841D01*
X24193992Y-22171841D02*
X24174944Y-22162317D01*
X24174944Y-22162317D02*
X24146373Y-22162317D01*
X24146373Y-22162317D02*
X24127325Y-22152793D01*
X24127325Y-22152793D02*
X24117801Y-22133746D01*
X24117801Y-22133746D02*
X24117801Y-22124222D01*
X24117801Y-22124222D02*
X24127325Y-22105174D01*
X24127325Y-22105174D02*
X24146373Y-22095650D01*
X24146373Y-22095650D02*
X24174944Y-22095650D01*
X24174944Y-22095650D02*
X24193992Y-22105174D01*
X24317801Y-22228984D02*
X24298754Y-22219460D01*
X24298754Y-22219460D02*
X24289230Y-22200412D01*
X24289230Y-22200412D02*
X24289230Y-22028984D01*
X24422563Y-22228984D02*
X24403515Y-22219460D01*
X24403515Y-22219460D02*
X24393992Y-22209936D01*
X24393992Y-22209936D02*
X24384468Y-22190889D01*
X24384468Y-22190889D02*
X24384468Y-22133746D01*
X24384468Y-22133746D02*
X24393992Y-22114698D01*
X24393992Y-22114698D02*
X24403515Y-22105174D01*
X24403515Y-22105174D02*
X24422563Y-22095650D01*
X24422563Y-22095650D02*
X24451135Y-22095650D01*
X24451135Y-22095650D02*
X24470182Y-22105174D01*
X24470182Y-22105174D02*
X24479706Y-22114698D01*
X24479706Y-22114698D02*
X24489230Y-22133746D01*
X24489230Y-22133746D02*
X24489230Y-22190889D01*
X24489230Y-22190889D02*
X24479706Y-22209936D01*
X24479706Y-22209936D02*
X24470182Y-22219460D01*
X24470182Y-22219460D02*
X24451135Y-22228984D01*
X24451135Y-22228984D02*
X24422563Y-22228984D01*
X24546373Y-22095650D02*
X24622563Y-22095650D01*
X24574944Y-22028984D02*
X24574944Y-22200412D01*
X24574944Y-22200412D02*
X24584468Y-22219460D01*
X24584468Y-22219460D02*
X24603515Y-22228984D01*
X24603515Y-22228984D02*
X24622563Y-22228984D01*
X24679706Y-22219460D02*
X24698754Y-22228984D01*
X24698754Y-22228984D02*
X24736849Y-22228984D01*
X24736849Y-22228984D02*
X24755896Y-22219460D01*
X24755896Y-22219460D02*
X24765420Y-22200412D01*
X24765420Y-22200412D02*
X24765420Y-22190889D01*
X24765420Y-22190889D02*
X24755896Y-22171841D01*
X24755896Y-22171841D02*
X24736849Y-22162317D01*
X24736849Y-22162317D02*
X24708277Y-22162317D01*
X24708277Y-22162317D02*
X24689230Y-22152793D01*
X24689230Y-22152793D02*
X24679706Y-22133746D01*
X24679706Y-22133746D02*
X24679706Y-22124222D01*
X24679706Y-22124222D02*
X24689230Y-22105174D01*
X24689230Y-22105174D02*
X24708277Y-22095650D01*
X24708277Y-22095650D02*
X24736849Y-22095650D01*
X24736849Y-22095650D02*
X24755896Y-22105174D01*
X24832087Y-22305174D02*
X24841611Y-22295650D01*
X24841611Y-22295650D02*
X24860658Y-22267079D01*
X24860658Y-22267079D02*
X24870182Y-22248031D01*
X24870182Y-22248031D02*
X24879706Y-22219460D01*
X24879706Y-22219460D02*
X24889230Y-22171841D01*
X24889230Y-22171841D02*
X24889230Y-22133746D01*
X24889230Y-22133746D02*
X24879706Y-22086127D01*
X24879706Y-22086127D02*
X24870182Y-22057555D01*
X24870182Y-22057555D02*
X24860658Y-22038508D01*
X24860658Y-22038508D02*
X24841611Y-22009936D01*
X24841611Y-22009936D02*
X24832087Y-22000412D01*
M02*
